<svg width="20" height="20" viewBox="0 0 20 20" fill="none" xmlns="http://www.w3.org/2000/svg">
<path id="Shape" fill-rule="evenodd" clip-rule="evenodd" d="M14.0853 19.3605C16.9558 19.3572 19.282 17.031 19.2853 14.1605V5.98906C19.282 3.11853 16.9558 0.792313 14.0853 0.789062H5.91387C3.04333 0.792313 0.717118 3.11853 0.713867 5.98906V14.1605C0.717118 17.031 3.04333 19.3572 5.91387 19.3605H14.0853ZM9.99958 13.0462C11.6407 13.0462 12.971 11.7159 12.971 10.0748C12.9691 8.43448 11.6399 7.10522 9.99958 7.10335C8.35851 7.10335 7.02815 8.4337 7.02815 10.0748C7.02815 11.7159 8.35851 13.0462 9.99958 13.0462ZM14.4567 10.0748C14.4567 7.61316 12.4612 5.61763 9.99958 5.61763C7.53797 5.61763 5.54244 7.61316 5.54244 10.0748C5.54244 12.5364 7.53797 14.5319 9.99958 14.5319C12.46 14.5291 14.4539 12.5352 14.4567 10.0748ZM14.8282 4.13192C15.4436 4.13192 15.9424 4.6308 15.9424 5.24621C15.9424 5.86161 15.4436 6.36049 14.8282 6.36049C14.2127 6.36049 13.7139 5.86161 13.7139 5.24621C13.7139 4.6308 14.2127 4.13192 14.8282 4.13192Z" fill="#08005C"/>
</svg>
