<svg width="18" height="17" viewBox="0 0 18 17" fill="none" xmlns="http://www.w3.org/2000/svg">
<g id="Group 3">
<path id="Path" d="M12.6385 5.40186C14.0177 5.40186 15.3403 5.94249 16.3155 6.90493C17.2906 7.86736 17.8386 9.17267 17.8386 10.5338V16.521H14.3718V10.5338C14.3718 10.0801 14.1893 9.645 13.8642 9.32412C13.5391 9.00334 13.0982 8.82308 12.6385 8.82308C12.1788 8.82308 11.7379 9.00334 11.4129 9.32412C11.0878 9.645 10.9051 10.0801 10.9051 10.5338V16.521H7.43848V10.5338C7.43848 9.17267 7.98632 7.86736 8.96153 6.90493C9.93675 5.94249 11.2594 5.40186 12.6385 5.40186Z" fill="#08005C"/>
<path id="Path_2" d="M3.97157 6.25781H0.504883V16.5216H3.97157V6.25781Z" fill="#08005C"/>
<path id="Path_3" d="M2.23823 3.69325C3.19553 3.69325 3.97157 2.92736 3.97157 1.98261C3.97157 1.03785 3.19553 0.271973 2.23823 0.271973C1.28093 0.271973 0.504883 1.03785 0.504883 1.98261C0.504883 2.92736 1.28093 3.69325 2.23823 3.69325Z" fill="#08005C"/>
</g>
</svg>
