<svg width="23" height="21" viewBox="0 0 23 21" fill="none" xmlns="http://www.w3.org/2000/svg">
<path d="M3.81507 17.1846C3.56214 17.1846 3.3196 17.2852 3.14076 17.464C2.96176 17.6428 2.86133 17.8854 2.86133 18.1385V20.0461V20.046C2.86133 20.3867 3.0432 20.7016 3.33828 20.872C3.63336 21.0423 3.99693 21.0423 4.29202 20.872C4.58711 20.7016 4.76898 20.3867 4.76898 20.046V18.1385C4.76898 17.8854 4.66838 17.6428 4.48955 17.464C4.31071 17.2852 4.06815 17.1846 3.81508 17.1846L3.81507 17.1846Z" fill="#060054" style="fill:#060054;fill:color(display-p3 0.0235 0.0000 0.3294);fill-opacity:1;"/>
<path d="M8.5846 13.3696C8.33168 13.3696 8.08897 13.4701 7.91013 13.6491C7.73129 13.8279 7.63086 14.0705 7.63086 14.3234V20.0462C7.63086 20.3869 7.81257 20.7018 8.10765 20.8722C8.40273 21.0425 8.76646 21.0425 9.06156 20.8722C9.35664 20.7018 9.53835 20.3869 9.53835 20.0462V14.3234C9.53835 14.0704 9.43791 13.8279 9.25907 13.6491C9.08024 13.4701 8.83755 13.3696 8.5846 13.3696V13.3696Z" fill="#060054" style="fill:#060054;fill:color(display-p3 0.0235 0.0000 0.3294);fill-opacity:1;"/>
<path d="M14.3073 17.1846C14.0543 17.1846 13.8116 17.2852 13.6328 17.464C13.454 17.6428 13.3535 17.8854 13.3535 18.1385V20.0461V20.046C13.3535 20.3867 13.5352 20.7016 13.8303 20.872C14.1254 21.0423 14.4891 21.0423 14.7842 20.872C15.0793 20.7016 15.261 20.3867 15.261 20.046V18.1385C15.261 17.8854 15.1606 17.6428 14.9817 17.464C14.8029 17.2852 14.5602 17.1846 14.3073 17.1846V17.1846Z" fill="#060054" style="fill:#060054;fill:color(display-p3 0.0235 0.0000 0.3294);fill-opacity:1;"/>
<path d="M19.0769 15.2773C18.8239 15.2773 18.5813 15.3778 18.4025 15.5566C18.2236 15.7355 18.123 15.9781 18.123 16.2311V20.0462C18.123 20.387 18.3049 20.7019 18.6 20.8722C18.8951 21.0426 19.2587 21.0426 19.5537 20.8722C19.8488 20.7019 20.0307 20.387 20.0307 20.0462V16.2311C20.0307 15.9782 19.9303 15.7355 19.7513 15.5566C19.5724 15.3778 19.3299 15.2773 19.077 15.2773L19.0769 15.2773Z" fill="#060054" style="fill:#060054;fill:color(display-p3 0.0235 0.0000 0.3294);fill-opacity:1;"/>
<path d="M21.9374 3.83176H21.7656C21.4643 2.97653 20.775 2.31514 19.9079 2.0496C19.0411 1.7839 18.0995 1.94581 17.3709 2.48552C16.6423 3.02522 16.2132 3.87869 16.2147 4.7855C16.2158 5.29728 16.3576 5.79881 16.6247 6.23521L15.2989 7.83771C14.9823 7.71588 14.6463 7.65121 14.307 7.6469C14.0183 7.65025 13.732 7.69847 13.4581 7.78997L10.9686 4.46119C11.277 3.99045 11.4427 3.44053 11.4456 2.87785C11.451 1.94855 11.0046 1.07432 10.2485 0.5338C9.49227 -0.00688082 8.52078 -0.146435 7.64307 0.159199C6.76532 0.464979 6.09068 1.17794 5.8341 2.0713C5.5775 2.96467 5.77071 3.92692 6.35226 4.652L4.4352 7.7136C4.23114 7.67209 4.02357 7.64973 3.81518 7.64686C3.22516 7.64989 2.65051 7.83464 2.16923 8.17601C1.68798 8.51724 1.32344 8.99866 1.12559 9.55451H0.953784C0.613037 9.55451 0.298157 9.73622 0.127782 10.0313C-0.0425939 10.3264 -0.0425939 10.6901 0.127782 10.9852C0.298157 11.2803 0.613033 11.462 0.953784 11.462H1.12559C1.40263 12.2573 2.01659 12.8897 2.80331 13.19C3.59003 13.4905 4.46921 13.4282 5.20578 13.0199C5.94238 12.6116 6.46115 11.8992 6.62339 11.0727C6.78546 10.2463 6.57469 9.3905 6.04711 8.73422L7.96416 5.67245C8.16839 5.71412 8.37596 5.73648 8.58419 5.73919C8.87288 5.736 9.15916 5.68762 9.43304 5.59612L11.9224 8.92491H11.9225C11.6142 9.39565 11.4484 9.94557 11.4456 10.5082C11.4456 11.5305 11.991 12.4751 12.8763 12.9862C13.7615 13.4974 14.8524 13.4974 15.7377 12.9862C16.6229 12.4751 17.1684 11.5305 17.1684 10.5082C17.1672 9.99646 17.0253 9.49494 16.7582 9.05853L18.084 7.45603C18.799 7.73387 19.5963 7.70752 20.2913 7.38338C20.9864 7.05924 21.5189 6.4654 21.7656 5.73918H21.9374C22.2782 5.73918 22.593 5.55747 22.7634 5.26239C22.9338 4.96731 22.9338 4.60358 22.7634 4.30849C22.593 4.01339 22.2782 3.8317 21.9374 3.8317L21.9374 3.83176Z" fill="#060054" style="fill:#060054;fill:color(display-p3 0.0235 0.0000 0.3294);fill-opacity:1;"/>
</svg>
