<svg width="24" height="25" viewBox="0 0 24 25" fill="none" xmlns="http://www.w3.org/2000/svg">
<path d="M3.71929 20.293C3.62647 20.2001 3.51626 20.1264 3.39495 20.0762C3.27364 20.0259 3.14361 20 3.01229 20C2.88097 20 2.75094 20.0259 2.62963 20.0762C2.50832 20.1264 2.3981 20.2001 2.30529 20.293L0.305288 22.293C0.209778 22.3853 0.133596 22.4956 0.0811868 22.6176C0.0287778 22.7396 0.00119157 22.8709 3.77567e-05 23.0036C-0.00111606 23.1364 0.0241857 23.2681 0.0744665 23.391C0.124747 23.5139 0.199001 23.6255 0.292893 23.7194C0.386786 23.8133 0.498438 23.8876 0.621334 23.9379C0.744231 23.9881 0.87591 24.0134 1.00869 24.0123C1.14147 24.0111 1.27269 23.9835 1.39469 23.9311C1.5167 23.8787 1.62704 23.8025 1.71929 23.707L3.71929 21.707C3.81219 21.6142 3.88588 21.504 3.93616 21.3827C3.98644 21.2614 4.01232 21.1314 4.01232 21C4.01232 20.8687 3.98644 20.7387 3.93616 20.6174C3.88588 20.4961 3.81219 20.3858 3.71929 20.293Z" fill="#060054" style="fill:#060054;fill:color(display-p3 0.0235 0.0000 0.3294);fill-opacity:1;"/>
<path d="M6.30529 20.2929L4.30529 22.2929C4.20978 22.3852 4.1336 22.4955 4.08119 22.6175C4.02878 22.7395 4.00119 22.8707 4.00004 23.0035C3.99888 23.1363 4.02419 23.268 4.07447 23.3909C4.12475 23.5138 4.199 23.6254 4.29289 23.7193C4.38679 23.8132 4.49844 23.8875 4.62133 23.9377C4.74423 23.988 4.87591 24.0133 5.00869 24.0122C5.14147 24.011 5.27269 23.9834 5.39469 23.931C5.5167 23.8786 5.62704 23.8024 5.71929 23.7069L7.71929 21.7069C7.90145 21.5183 8.00224 21.2657 7.99996 21.0035C7.99768 20.7413 7.89251 20.4905 7.70711 20.3051C7.5217 20.1197 7.27089 20.0145 7.00869 20.0122C6.74649 20.01 6.49389 20.1108 6.30529 20.2929Z" fill="#060054" style="fill:#060054;fill:color(display-p3 0.0235 0.0000 0.3294);fill-opacity:1;"/>
<path d="M22.7217 1.29004C22.2894 0.853152 21.7543 0.531755 21.1655 0.355296C20.5767 0.178838 19.9531 0.152961 19.3517 0.280037C16.2528 0.932367 13.3153 2.19711 10.7117 4.00004H6.67172C6.01462 3.99851 5.36368 4.1267 4.75621 4.37723C4.14875 4.62777 3.5967 4.99574 3.13172 5.46004L0.711719 7.88004C0.265481 8.33771 0.0144931 8.95083 0.0117188 9.59004C0.0120632 10.2291 0.266084 10.8419 0.717972 11.2938C1.16986 11.7457 1.78265 11.9997 2.42172 12H3.82172C3.68905 12.6958 3.70698 13.4119 3.8743 14.1002C4.04162 14.7884 4.35445 15.4328 4.79172 15.99C5.26285 16.5909 5.76696 17.1651 6.30172 17.71C6.83766 18.2438 7.40536 18.7447 8.00172 19.21C8.88475 19.9074 9.97653 20.2878 11.1017 20.29C11.4076 20.287 11.7125 20.2535 12.0117 20.19V21.59C12.0121 22.2291 12.2661 22.8419 12.718 23.2938C13.1699 23.7457 13.7827 23.9997 14.4217 24C15.0609 23.9973 15.6741 23.7463 16.1317 23.3L18.5517 20.88C19.016 20.4151 19.384 19.863 19.6345 19.2555C19.8851 18.6481 20.0132 17.9971 20.0117 17.34V13.3C21.8129 10.6955 23.0775 7.7584 23.7317 4.66004C23.8588 4.05867 23.8329 3.43502 23.6565 2.84624C23.48 2.25747 23.1586 1.72239 22.7217 1.29004ZM4.68172 10H2.42172C2.36771 10.0006 2.31412 9.99045 2.26411 9.97006C2.21409 9.94967 2.16865 9.91949 2.13046 9.88129C2.09227 9.8431 2.06209 9.79766 2.0417 9.74765C2.02131 9.69763 2.01112 9.64405 2.01172 9.59004C2.01021 9.53598 2.02012 9.48221 2.0408 9.43224C2.06148 9.38227 2.09246 9.33723 2.13172 9.30004L4.55172 6.88004C4.82855 6.59939 5.15872 6.37696 5.5228 6.22584C5.88689 6.07471 6.27752 5.99793 6.67172 6.00004H8.21172C6.88754 7.19555 5.70329 8.53747 4.68172 10ZM12.7187 16.707C12.6259 16.7999 12.5157 16.8736 12.3944 16.9239C12.2731 16.9742 12.143 17 12.0117 17C11.8804 17 11.7504 16.9742 11.6291 16.9239C11.5078 16.8736 11.3975 16.7999 11.3047 16.707L7.30472 12.707C7.20921 12.6148 7.13303 12.5044 7.08062 12.3824C7.02821 12.2604 7.00062 12.1292 6.99947 11.9964C6.99831 11.8637 7.02362 11.732 7.0739 11.6091C7.12418 11.4862 7.19843 11.3745 7.29232 11.2806C7.38622 11.1867 7.49787 11.1125 7.62076 11.0622C7.74366 11.0119 7.87534 10.9866 8.00812 10.9878C8.1409 10.9889 8.27212 11.0165 8.39412 11.0689C8.51613 11.1213 8.62647 11.1975 8.71872 11.293L12.7187 15.293C12.8116 15.3859 12.8853 15.4961 12.9356 15.6174C12.9859 15.7387 13.0118 15.8687 13.0118 16C13.0118 16.1314 12.9859 16.2614 12.9356 16.3827C12.8853 16.504 12.8116 16.6142 12.7187 16.707ZM18.0117 17.34C18.0115 17.7339 17.9337 18.1239 17.7827 18.4876C17.6317 18.8514 17.4105 19.1818 17.1317 19.46L14.7117 21.88C14.6518 21.93 14.5793 21.9626 14.5022 21.9744C14.425 21.9861 14.3461 21.9765 14.274 21.9467C14.2019 21.9168 14.1394 21.8678 14.0932 21.8049C14.0469 21.7421 14.0188 21.6678 14.0117 21.59V19.33C15.4743 18.3085 16.8162 17.1242 18.0117 15.8V17.34ZM16.0117 11C15.4184 11 14.8384 10.8241 14.345 10.4944C13.8517 10.1648 13.4671 9.69627 13.2401 9.14809C13.013 8.59991 12.9536 7.99671 13.0694 7.41477C13.1851 6.83282 13.4708 6.29827 13.8904 5.87872C14.31 5.45916 14.8445 5.17344 15.4264 5.05768C16.0084 4.94193 16.6116 5.00134 17.1598 5.2284C17.7079 5.45546 18.1765 5.83998 18.5061 6.33333C18.8358 6.82667 19.0117 7.40669 19.0117 8.00004C19.0108 8.79542 18.6945 9.55797 18.1321 10.1204C17.5697 10.6828 16.8071 10.9992 16.0117 11Z" fill="#060054" style="fill:#060054;fill:color(display-p3 0.0235 0.0000 0.3294);fill-opacity:1;"/>
<path d="M16.0117 9C16.564 9 17.0117 8.55228 17.0117 8C17.0117 7.44772 16.564 7 16.0117 7C15.4594 7 15.0117 7.44772 15.0117 8C15.0117 8.55228 15.4594 9 16.0117 9Z" fill="#060054" style="fill:#060054;fill:color(display-p3 0.0235 0.0000 0.3294);fill-opacity:1;"/>
<path d="M1.01151 19.9999C1.14284 20.0001 1.27292 19.9743 1.39425 19.924C1.51558 19.8737 1.62578 19.7999 1.71851 19.7069L3.71851 17.7069C3.90066 17.5183 4.00146 17.2657 3.99918 17.0035C3.9969 16.7413 3.89173 16.4905 3.70632 16.3051C3.52092 16.1197 3.2701 16.0145 3.00791 16.0122C2.74571 16.01 2.49311 16.1108 2.30451 16.2929L0.304506 18.2929C0.164696 18.4328 0.0694898 18.6109 0.0309222 18.8049C-0.00764531 18.9988 0.0121577 19.1999 0.0878277 19.3826C0.163498 19.5653 0.291637 19.7214 0.456047 19.8313C0.620457 19.9412 0.813755 19.9999 1.01151 19.9999Z" fill="#060054" style="fill:#060054;fill:color(display-p3 0.0235 0.0000 0.3294);fill-opacity:1;"/>
</svg>
