<svg width="24" height="18" viewBox="0 0 24 18" fill="none" xmlns="http://www.w3.org/2000/svg">
<path d="M18 7C18.5523 7 19 6.55228 19 6C19 5.44772 18.5523 5 18 5C17.4477 5 17 5.44772 17 6C17 6.55228 17.4477 7 18 7Z" fill="#6FC3B6" style="fill:#6FC3B6;fill:color(display-p3 0.4353 0.7647 0.7137);fill-opacity:1;"/>
<path d="M12.3414 11.3076C11.9159 11.591 11.398 11.7007 10.8941 11.6143C10.3902 11.5279 9.93857 11.2518 9.63186 10.8428L8.11286 8.81836L5.72266 13H17.2379L13.9332 10.2461L12.3414 11.3076Z" fill="#6FC3B6" style="fill:#6FC3B6;fill:color(display-p3 0.4353 0.7647 0.7137);fill-opacity:1;"/>
<path d="M19 0H5C3.67406 0.000477079 2.40257 0.527415 1.46499 1.46499C0.527415 2.40257 0.000477079 3.67406 0 5L0 13C0.000477079 14.3259 0.527415 15.5974 1.46499 16.535C2.40257 17.4726 3.67406 17.9995 5 18H19C20.3259 17.9995 21.5974 17.4726 22.535 16.535C23.4726 15.5974 23.9995 14.3259 24 13V5C23.9995 3.67406 23.4726 2.40257 22.535 1.46499C21.5974 0.527415 20.3259 0.000477079 19 0ZM20.94 14.3408C20.8699 14.5339 20.7421 14.7007 20.574 14.8186C20.4058 14.9366 20.2054 14.9999 20 15H4C3.82485 15 3.65278 14.954 3.501 14.8666C3.34922 14.7792 3.22306 14.6534 3.13515 14.5019C3.04724 14.3504 3.00066 14.1785 3.00007 14.0034C2.99948 13.8282 3.04491 13.656 3.1318 13.5039L6.377 7.8252C6.54144 7.5373 6.7749 7.29482 7.05635 7.11957C7.33781 6.94433 7.65842 6.84183 7.98934 6.8213C8.32025 6.80077 8.65108 6.86285 8.95203 7.00196C9.25299 7.14107 9.51463 7.35284 9.7134 7.6182L11.2324 9.6426L12.8242 8.582C13.1836 8.34468 13.6097 8.22895 14.0397 8.25181C14.4698 8.27467 14.8812 8.43492 15.2134 8.709L20.64 13.2314C20.7979 13.3631 20.9114 13.5402 20.9651 13.7387C21.0188 13.9372 21.01 14.1475 20.94 14.3408ZM18 9C17.4067 9 16.8266 8.82405 16.3333 8.49441C15.8399 8.16476 15.4554 7.69623 15.2284 7.14805C15.0013 6.59987 14.9419 5.99667 15.0576 5.41473C15.1734 4.83279 15.4591 4.29824 15.8787 3.87868C16.2982 3.45912 16.8328 3.1734 17.4147 3.05764C17.9967 2.94189 18.5999 3.0013 19.1481 3.22836C19.6962 3.45542 20.1648 3.83994 20.4944 4.33329C20.8241 4.82664 21 5.40666 21 6C20.9991 6.79538 20.6828 7.55794 20.1204 8.12036C19.5579 8.68278 18.7954 8.99913 18 9Z" fill="#6FC3B6" style="fill:#6FC3B6;fill:color(display-p3 0.4353 0.7647 0.7137);fill-opacity:1;"/>
</svg>
