<svg width="24" height="20" viewBox="0 0 24 20" fill="none" xmlns="http://www.w3.org/2000/svg">
<path d="M22.6701 3.73C22.2728 3.54302 21.8296 3.47561 21.3946 3.53598C20.9596 3.59635 20.5516 3.78188 20.2201 4.07L17.5201 6.38C17.3989 6.48618 17.2533 6.56088 17.0964 6.5975C16.9394 6.63413 16.7759 6.63155 16.6201 6.59C16.4635 6.55021 16.3189 6.473 16.1987 6.36501C16.0786 6.25702 15.9864 6.12147 15.9301 5.97L14.2901 1.58C14.1139 1.11468 13.7999 0.714157 13.3901 0.431863C12.9804 0.14957 12.4943 -0.00108061 11.9967 5.8352e-06C11.4991 0.00109228 11.0136 0.153864 10.6051 0.437944C10.1966 0.722025 9.88437 1.12391 9.71013 1.59L8.07013 5.97C8.01388 6.12147 7.9217 6.25702 7.80152 6.36501C7.68133 6.473 7.53673 6.55021 7.38013 6.59C7.2244 6.63155 7.06084 6.63413 6.90388 6.5975C6.74692 6.56088 6.60139 6.48618 6.48013 6.38L3.78013 4.07C3.44869 3.78188 3.04064 3.59635 2.60565 3.53598C2.17066 3.47561 1.7275 3.54302 1.33013 3.73C0.930106 3.9097 0.591202 4.20221 0.35496 4.57167C0.118718 4.94113 -0.00459684 5.37149 0.000131025 5.81C-0.00097392 6.03713 0.0327512 6.26309 0.100131 6.48L3.17013 16.47C3.48394 17.4926 4.11772 18.3875 4.97821 19.023C5.83869 19.6584 6.88044 20.0009 7.95013 20H16.0501C17.1198 20.0009 18.1616 19.6584 19.0221 19.023C19.8825 18.3875 20.5163 17.4926 20.8301 16.47L23.9001 6.47C23.9682 6.25668 24.002 6.03391 24.0001 5.81C24.0049 5.37149 23.8815 4.94113 23.6453 4.57167C23.4091 4.20221 23.0702 3.9097 22.6701 3.73ZM12.0001 15C11.4068 15 10.8268 14.8241 10.3334 14.4944C9.84007 14.1648 9.45555 13.6962 9.22849 13.148C9.00143 12.5999 8.94202 11.9967 9.05777 11.4147C9.17353 10.8328 9.45925 10.2982 9.87881 9.87868C10.2984 9.45912 10.8329 9.1734 11.4149 9.05764C11.9968 8.94189 12.6 9.0013 13.1482 9.22836C13.6964 9.45542 14.1649 9.83994 14.4945 10.3333C14.8242 10.8266 15.0001 11.4067 15.0001 12C14.9993 12.7954 14.6829 13.5579 14.1205 14.1204C13.5581 14.6828 12.7955 14.9991 12.0001 15Z" fill="#EFB046" style="fill:#EFB046;fill:color(display-p3 0.9373 0.6902 0.2745);fill-opacity:1;"/>
<path d="M12 13C12.5523 13 13 12.5523 13 12C13 11.4477 12.5523 11 12 11C11.4477 11 11 11.4477 11 12C11 12.5523 11.4477 13 12 13Z" fill="#EFB046" style="fill:#EFB046;fill:color(display-p3 0.9373 0.6902 0.2745);fill-opacity:1;"/>
</svg>
