<svg width="63" height="78" viewBox="0 0 63 78" fill="none" xmlns="http://www.w3.org/2000/svg">
<path d="M23.1877 66.2365C21.6913 66.2365 20.4668 67.5557 20.4668 69.169C20.4668 70.7818 21.6825 72.1177 23.1877 72.1426C24.6682 72.1426 25.9235 70.7647 25.9235 69.1435C25.9241 67.5385 24.7001 66.2363 23.1877 66.2363V66.2365Z" fill="#BBE2FA" style="fill:#BBE2FA;fill:color(display-p3 0.7333 0.8863 0.9804);fill-opacity:1;"/>
<path d="M46.3567 49.3262C45.7194 49.576 45.0942 49.8512 44.5263 50.1128C44.3177 50.2124 44.1096 50.3121 43.9011 50.3999C43.9247 51.0363 43.9011 51.6491 43.8086 52.2482C44.3413 53.0603 44.8625 53.8836 45.3843 54.6956L46.0794 55.7941C46.1719 55.9312 46.2643 56.0694 46.3579 56.2313V49.3262L46.3567 49.3262Z" fill="#BBE2FA" style="fill:#BBE2FA;fill:color(display-p3 0.7333 0.8863 0.9804);fill-opacity:1;"/>
<path fill-rule="evenodd" clip-rule="evenodd" d="M43.7729 70.233C43.7603 67.6219 43.7493 64.8251 43.7493 61.6534L46.3568 60.4429C46.3568 64.1276 46.3678 67.2868 46.3915 70.2088V70.271C46.3915 72.3317 45.6727 74.2541 44.3634 75.6653C43.02 77.1257 41.1312 77.9626 39.1735 77.9626H36.7755C27.1583 77.9377 17.2058 77.9122 7.404 78H7.33521C5.29511 78 3.3721 77.1642 2.02813 75.7026C0.6951 74.266 0 72.3435 0 70.1576V70.0835C0.0346719 66.7617 0.0346719 63.4145 0.0346719 60.1805L0.0352223 7.71887C0.0352223 3.11124 2.91954 0.00177955 7.21841 0.00177955L28.4817 0.0118634C32.0259 0.0118634 35.5603 0.0118634 39.0826 0C41.1216 0 43.0793 0.862486 44.4353 2.37329C45.7447 3.80995 46.4277 5.77096 46.393 7.81853C46.3803 8.31792 46.3693 8.82922 46.3693 9.44197C46.3693 9.92955 46.3693 10.416 46.3803 10.9035L46.3914 12.7015V15.5605C45.3826 16.2729 44.5262 17.0962 43.7728 17.9083V13.513H2.64245V60.1799C2.64245 60.5033 2.64218 60.8306 2.6419 61.1588C2.64163 61.4886 2.64135 61.8192 2.64135 62.1475H37.2625L38.05 63.3967H2.63991C2.63881 65.621 2.63496 67.8608 2.619 70.1078V70.1582C2.619 71.5932 3.04717 72.8174 3.88151 73.7167C4.73953 74.6533 5.99049 75.1782 7.33446 75.1782H7.38124C17.0323 75.0904 26.8341 75.1154 36.3118 75.1409L39.1152 75.1527C40.4367 75.1527 41.6414 74.6278 42.5104 73.6793C43.3327 72.7813 43.7729 71.6068 43.7729 70.2835V70.233ZM28.4781 2.83653L7.21766 2.82467L7.21672 2.8247C4.40228 2.8247 2.64058 4.69794 2.64058 7.71948V12.265H43.7681L43.7593 10.9286C43.7593 10.6803 43.7565 10.4287 43.7538 10.1756C43.751 9.91953 43.7483 9.66192 43.7483 9.40476C43.7483 8.82083 43.7589 8.3308 43.7692 7.85906C43.7701 7.81656 43.771 7.77422 43.7719 7.73196V7.6068C43.7719 6.02178 43.111 4.94822 42.5551 4.33547C41.6861 3.37335 40.4472 2.82467 39.1489 2.82467C35.5568 2.83653 32.0235 2.83653 28.4781 2.83653Z" fill="#BBE2FA" style="fill:#BBE2FA;fill:color(display-p3 0.7333 0.8863 0.9804);fill-opacity:1;"/>
<path d="M62.6261 27.5139C61.8039 25.34 59.8215 24.0528 57.7637 24.1442L61.3377 33.5875C62.8676 32.1023 63.4493 29.688 62.626 27.5141L62.6261 27.5139Z" fill="#070058" style="fill:#070058;fill:color(display-p3 0.0275 0.0000 0.3451);fill-opacity:1;"/>
<path fill-rule="evenodd" clip-rule="evenodd" d="M53.5696 18.3914L57.8755 30.0199L62.1492 41.2456C62.4316 42.003 62.4167 42.856 62.1135 43.5933C61.8224 44.3307 61.2638 44.9019 60.5489 45.1878C58.7442 45.9174 57.3771 46.2294 55.9803 46.2294C55.6474 46.2294 55.3117 46.2116 54.9704 46.176C54.1938 46.1001 53.3898 45.9714 52.67 45.8557L52.5137 45.8302C52.4685 45.8227 52.4232 45.8152 52.3778 45.8077C51.1675 45.607 49.8611 45.3904 48.7954 45.5111C47.0595 45.6398 45.0893 46.4625 43.387 47.2502C42.4849 47.6672 41.5736 48.0818 40.6737 48.4858L40.4162 48.6038C40.6072 48.6412 40.7761 48.783 40.8207 49.0024C41.0562 50.1544 41.114 51.3088 40.8119 52.4981C40.7332 52.8077 40.775 53.0058 40.933 53.249C41.6825 54.406 42.4249 55.5692 43.1671 56.7321C43.3453 57.0113 43.5235 57.2905 43.7018 57.5696C43.7776 57.6878 43.851 57.8093 43.9335 57.9459C43.9678 58.0027 44.0036 58.062 44.0419 58.1248L43.6106 58.3251C42.4631 58.8579 41.3367 59.381 40.1772 59.9209C39.6919 59.152 39.2071 58.3838 38.7223 57.6158C37.4622 55.6194 36.2026 53.6239 34.9368 51.6165C34.8432 51.4694 34.8295 51.2926 34.8763 51.1384L33.6572 51.6966C33.141 51.8348 32.7205 51.8971 32.2951 51.8971C31.0644 51.8971 29.9329 51.3739 29.059 50.4118H29.0034C26.0458 50.4118 23.6287 48.3565 22.6953 45.0478C22.3794 43.9462 22.2423 42.7836 22.2968 41.6915C22.4002 39.6321 23.1047 38.5039 23.939 37.6883C23.7921 36.2598 24.1845 34.9644 25.0596 33.9092C25.5202 33.3735 26.0469 32.9672 26.5967 32.7145C28.2995 31.9156 34.5642 29.1413 36.1288 28.4704C36.3392 28.381 36.5465 28.2981 36.7571 28.2139L36.7832 28.2035L37.137 28.0611C38.4672 27.5178 39.5856 27.0593 40.5014 26.2448C41.1904 25.6481 41.7639 24.9452 42.443 24.0869C42.8139 23.6218 43.2064 23.1473 43.5982 22.6864C43.8485 22.4144 44.0547 22.1729 44.2603 21.9323L44.2971 21.8892L44.5118 21.6383C45.9065 19.9697 47.4326 18.1517 49.7391 17.1807L50.4072 16.9019C50.6835 16.7862 50.973 16.7305 51.29 16.7305C52.2939 16.7305 53.2097 17.3973 53.5696 18.3914ZM53.2228 42.1589C53.9522 42.2784 54.623 42.3883 55.296 42.4605L55.296 42.4603C56.284 42.5547 57.3131 42.4194 58.6554 41.9496L54.666 31.4221L50.7297 20.7937C49.3108 21.486 48.2492 22.7536 47.1287 24.0917L46.9697 24.2655C46.7281 24.5603 46.427 24.9127 46.1128 25.2632C45.7749 25.6512 45.4259 26.0765 45.1007 26.4881L44.891 26.7497L44.8809 26.762C44.2241 27.5685 43.5449 28.4025 42.7049 29.1414C41.3386 30.335 39.7827 30.9755 38.4097 31.5406L38.4022 31.5437L37.4 31.9464C36.018 32.5426 29.7209 35.3305 27.9653 36.1503C27.8679 36.193 27.7413 36.2873 27.645 36.403C27.4045 36.6859 27.2206 36.9926 27.492 37.7608L27.984 39.1239L26.8585 39.962C25.9102 40.6726 25.7958 40.9798 25.749 41.8898C25.7209 42.5327 25.8106 43.27 26.0044 43.9569C26.5602 45.9049 27.8569 46.9216 29.5806 46.6357L30.7 46.4495L31.3043 47.4816C31.6543 48.086 31.9994 48.1673 32.2917 48.1673C32.3891 48.1673 32.4986 48.1513 32.6268 48.1169L42.0131 43.8105C43.9757 42.9054 46.2785 41.9569 48.4903 41.7801C48.744 41.7534 49.0511 41.751 49.3444 41.751C50.6301 41.751 51.8502 41.9343 53.1991 42.155L53.2228 42.1589Z" fill="#070058" style="fill:#070058;fill:color(display-p3 0.0275 0.0000 0.3451);fill-opacity:1;"/>
</svg>
