<svg width="18" height="24" viewBox="0 0 18 24" fill="none" xmlns="http://www.w3.org/2000/svg">
<path d="M9 12C7.81331 12 6.65328 11.6481 5.66658 10.9888C4.67989 10.3295 3.91085 9.39246 3.45673 8.2961C3.0026 7.19975 2.88378 5.99335 3.11529 4.82946C3.3468 3.66558 3.91825 2.59648 4.75736 1.75736C5.59648 0.918247 6.66558 0.346802 7.82946 0.115291C8.99335 -0.11622 10.1997 0.00259972 11.2961 0.456726C12.3925 0.910851 13.3295 1.67989 13.9888 2.66658C14.6481 3.65328 15 4.81331 15 6C14.9983 7.59077 14.3656 9.11587 13.2407 10.2407C12.1159 11.3656 10.5908 11.9983 9 12ZM9 2C8.20888 2 7.43552 2.2346 6.77772 2.67412C6.11993 3.11365 5.60723 3.73836 5.30448 4.46927C5.00173 5.20017 4.92252 6.00444 5.07686 6.78036C5.2312 7.55629 5.61217 8.26902 6.17158 8.82843C6.73099 9.38784 7.44372 9.7688 8.21964 9.92314C8.99557 10.0775 9.79983 9.99827 10.5307 9.69552C11.2616 9.39277 11.8864 8.88008 12.3259 8.22228C12.7654 7.56449 13 6.79113 13 6C12.9988 4.9395 12.577 3.92278 11.8271 3.17289C11.0772 2.423 10.0605 2.00119 9 2Z" fill="#E5614D" style="fill:#E5614D;fill:color(display-p3 0.8980 0.3804 0.3020);fill-opacity:1;"/>
<path d="M13.52 12C12.945 12.0084 12.3786 12.1415 11.86 12.39C10.9597 12.7905 9.98536 12.9975 9 12.9975C8.01464 12.9975 7.04028 12.7905 6.14 12.39C5.62138 12.1415 5.05503 12.0084 4.48 12C3.29227 12.0014 2.15359 12.4739 1.31374 13.3137C0.473886 14.1536 0.00142906 15.2923 0 16.48V19C0.000477079 20.3259 0.527415 21.5974 1.46499 22.535C2.40257 23.4726 3.67406 23.9995 5 24H13C14.3259 23.9995 15.5974 23.4726 16.535 22.535C17.4726 21.5974 17.9995 20.3259 18 19V16.48C17.9986 15.2923 17.5261 14.1536 16.6863 13.3137C15.8464 12.4739 14.7077 12.0014 13.52 12Z" fill="#E5614D" style="fill:#E5614D;fill:color(display-p3 0.8980 0.3804 0.3020);fill-opacity:1;"/>
</svg>
