<svg width="20" height="20" viewBox="0 0 20 20" fill="none" xmlns="http://www.w3.org/2000/svg">
<path fill-rule="evenodd" clip-rule="evenodd" d="M19.243 4.12107C19.245 3.02154 18.708 1.9908 17.806 1.36225C16.9038 0.733564 15.751 0.586989 14.7201 0.969633C13.6893 1.35228 12.9115 2.21577 12.6381 3.28069H9.88191C9.60548 2.18891 8.79938 1.30866 7.73601 0.937437C6.67264 0.566174 5.49388 0.75357 4.59805 1.4363C3.70207 2.11886 3.20872 3.20575 3.28453 4.32948C3.36021 5.4532 3.99497 6.46399 4.97435 7.02022L4.15926 10.0117C4.14547 10.0081 4.13141 10.0052 4.11734 10.0033C3.30394 10.0034 2.51827 10.2986 1.90589 10.834C1.29352 11.3692 0.895966 12.1085 0.787097 12.9145C0.678214 13.7206 0.865315 14.5387 1.31365 15.2173C1.76198 15.896 2.4413 16.389 3.22546 16.6051C4.00958 16.8211 4.84549 16.7454 5.57815 16.3921C6.31081 16.0389 6.89041 15.4319 7.20974 14.6837L10.05 16.3896H10.0499C10.2226 17.5492 10.9882 18.5346 12.0692 18.9885C13.1501 19.4423 14.3896 19.2988 15.3384 18.61C16.2871 17.9213 16.8074 16.7871 16.7106 15.6187C16.6139 14.4504 15.914 13.4172 14.865 12.8939L16.0246 7.46559V7.46573C16.8884 7.42999 17.7054 7.06241 18.3049 6.43934C18.9045 5.81627 19.2404 4.98587 19.243 4.12126L19.243 4.12107ZM9.88202 4.96133H12.6382C12.684 5.13254 12.7402 5.30093 12.8063 5.46552L9.74751 7.86885L8.9828 6.52439V6.52425C9.41806 6.09392 9.72868 5.55387 9.88202 4.96133ZM5.78131 10.4654C5.90948 10.5359 6.033 10.6146 6.15102 10.7008L8.41155 8.91928L7.5208 7.3479C7.2338 7.43146 6.93712 7.47662 6.63846 7.48239C6.62426 7.48042 6.61019 7.47761 6.5964 7.47395L5.78131 10.4654ZM10.2684 14.5661L7.42831 12.8603C7.38963 12.5706 7.31043 12.2877 7.19296 12.02L9.26006 10.3981L11.0163 13.4821L11.0164 13.4822C10.6985 13.791 10.4443 14.1593 10.2684 14.5662L10.2684 14.5661ZM13.8483 6.78477L10.5962 9.34778L12.4869 12.6585C12.7248 12.5894 12.9705 12.5499 13.218 12.5407V12.5409L14.3776 7.11255C14.1917 7.01942 14.0146 6.90969 13.8483 6.78477Z" fill="#6FC3B6" style="fill:#6FC3B6;fill:color(display-p3 0.4353 0.7647 0.7137);fill-opacity:1;"/>
</svg>
