<svg width="25" height="18" viewBox="0 0 25 18" fill="none" xmlns="http://www.w3.org/2000/svg">
<g id="Group">
<path id="Vector" d="M23.2556 13.28V3C23.2532 2.20506 22.9329 1.44335 22.3645 0.881244C21.7962 0.319138 21.026 0.00232161 20.2222 0H4.04444C3.24068 0.00232161 2.4705 0.319138 1.90215 0.881244C1.33379 1.44335 1.01346 2.20506 1.01111 3V13.28C0.704676 13.4536 0.449887 13.704 0.272387 14.0059C0.0948864 14.3079 0.000938975 14.6507 0 15C0.00234741 15.7949 0.322684 16.5566 0.891036 17.1188C1.45939 17.6809 2.22957 17.9977 3.03333 18H21.2333C22.0371 17.9977 22.8073 17.6809 23.3756 17.1188C23.944 16.5566 24.2643 15.7949 24.2667 15C24.2657 14.6507 24.1718 14.3079 23.9943 14.0059C23.8168 13.704 23.562 13.4536 23.2556 13.28ZM9.1 16H3.03333C2.76541 15.9992 2.50868 15.8936 2.31922 15.7063C2.12977 15.5189 2.023 15.265 2.02222 15H9.1V16ZM13.1444 16H11.1222V15H13.1444V16ZM21.2333 16H15.1667V15H22.2444C22.2437 15.265 22.1369 15.5189 21.9474 15.7063C21.758 15.8936 21.5013 15.9992 21.2333 16Z" fill="#3571E7" style="fill:#3571E7;fill:color(display-p3 0.2078 0.4431 0.9059);fill-opacity:1;"/>
</g>
</svg>
