<svg width="23" height="22" viewBox="0 0 23 22" fill="none" xmlns="http://www.w3.org/2000/svg">
<g id="Group">
<path id="Vector" d="M21.9512 18.29L19.929 16.29C19.7383 16.103 19.4805 15.9983 19.212 15.9988C18.9434 15.9993 18.686 16.1051 18.4961 16.2929C18.3063 16.4807 18.1993 16.7353 18.1988 17.0008C18.1982 17.2664 18.3041 17.5214 18.4932 17.71L18.7966 18H15.9958C15.7859 17.4173 15.3996 16.9126 14.8894 16.5548C14.3792 16.1969 13.7699 16.0032 13.1444 16H9.1C8.47453 16.0032 7.86524 16.1969 7.35505 16.5548C6.84485 16.9126 6.45854 17.4173 6.24867 18H5.05556C4.25107 18 3.47953 17.6839 2.91067 17.1213C2.3418 16.5587 2.02222 15.7956 2.02222 15C2.02222 14.2044 2.3418 13.4413 2.91067 12.8787C3.47953 12.3161 4.25107 12 5.05556 12H6.24867C6.45854 12.5827 6.84485 13.0874 7.35505 13.4452C7.86524 13.8031 8.47453 13.9968 9.1 14H13.1444C13.7699 13.9968 14.3792 13.8031 14.8894 13.4452C15.3996 13.0874 15.7859 12.5827 15.9958 12H17.1889C18.5297 12 19.8156 11.4732 20.7637 10.5355C21.7118 9.59785 22.2444 8.32608 22.2444 7C22.2444 5.67392 21.7118 4.40215 20.7637 3.46447C19.8156 2.52678 18.5297 2 17.1889 2H15.9958C15.7859 1.41726 15.3996 0.912616 14.8894 0.554753C14.3792 0.196891 13.7699 0.00318625 13.1444 0H9.1C8.47453 0.00318625 7.86524 0.196891 7.35505 0.554753C6.84485 0.912616 6.45854 1.41726 6.24867 2H1.01111C0.742948 2 0.485768 2.10536 0.296148 2.29289C0.106527 2.48043 0 2.73478 0 3C0 3.26522 0.106527 3.51957 0.296148 3.70711C0.485768 3.89464 0.742948 4 1.01111 4H6.24867C6.45854 4.58274 6.84485 5.08738 7.35505 5.44525C7.86524 5.80311 8.47453 5.99681 9.1 6H13.1444C13.7699 5.99681 14.3792 5.80311 14.8894 5.44525C15.3996 5.08738 15.7859 4.58274 15.9958 4H17.1889C17.9934 4 18.7649 4.31607 19.3338 4.87868C19.9026 5.44129 20.2222 6.20435 20.2222 7C20.2222 7.79565 19.9026 8.55871 19.3338 9.12132C18.7649 9.68393 17.9934 10 17.1889 10H15.9958C15.7859 9.41726 15.3996 8.91262 14.8894 8.55475C14.3792 8.19689 13.7699 8.00319 13.1444 8H9.1C8.47453 8.00319 7.86524 8.19689 7.35505 8.55475C6.84485 8.91262 6.45854 9.41726 6.24867 10H5.05556C3.71474 10 2.42884 10.5268 1.48074 11.4645C0.532637 12.4021 0 13.6739 0 15C0 16.3261 0.532637 17.5979 1.48074 18.5355C2.42884 19.4732 3.71474 20 5.05556 20H6.24867C6.45854 20.5827 6.84485 21.0874 7.35505 21.4452C7.86524 21.8031 8.47453 21.9968 9.1 22H13.1444C13.7699 21.9968 14.3792 21.8031 14.8894 21.4452C15.3996 21.0874 15.7859 20.5827 15.9958 20H18.7966L18.4932 20.29C18.3038 20.4788 18.1975 20.734 18.1975 21C18.1975 21.266 18.3038 21.5212 18.4932 21.71C18.6849 21.8959 18.9427 22 19.2111 22C19.4796 22 19.7373 21.8959 19.929 21.71L21.9512 19.71C22.1407 19.5212 22.247 19.266 22.247 19C22.247 18.734 22.1407 18.4788 21.9512 18.29Z" fill="#E5614D" style="fill:#E5614D;fill:color(display-p3 0.8980 0.3804 0.3020);fill-opacity:1;"/>
</g>
</svg>
