<svg width="28" height="23" viewBox="0 0 28 23" fill="none" xmlns="http://www.w3.org/2000/svg">
<g id="Group 232">
<path id="Vector" d="M24.2112 2.89014C23.4366 2.89131 22.694 3.20161 22.1463 3.75302C21.5985 4.30442 21.2903 5.05195 21.2891 5.83176C21.2862 6.37765 21.3831 6.91941 21.5748 7.43004C21.771 7.9574 22.0179 8.46424 22.3118 8.94334C22.6272 9.46255 22.9961 9.94678 23.4125 10.388C23.5152 10.4974 23.639 10.5846 23.7763 10.6442C23.9137 10.7037 24.0616 10.7345 24.2112 10.7345C24.3607 10.7345 24.5087 10.7037 24.646 10.6442C24.7834 10.5846 24.9072 10.4974 25.0099 10.388C25.4262 9.94678 25.7952 9.46255 26.1105 8.94334C26.4045 8.46424 26.6513 7.9574 26.8475 7.43004C27.0393 6.91941 27.1361 6.37765 27.1333 5.83176C27.1321 5.05195 26.8239 4.30442 26.2761 3.75302C25.7284 3.20161 24.9858 2.89131 24.2112 2.89014ZM24.2112 4.85122C24.4038 4.85122 24.5922 4.90873 24.7523 5.01647C24.9125 5.12421 25.0373 5.27735 25.1111 5.45652C25.1848 5.63569 25.2041 5.83285 25.1665 6.02305C25.1289 6.21326 25.0361 6.38798 24.8999 6.52511C24.7637 6.66224 24.5902 6.75563 24.4012 6.79346C24.2123 6.83129 24.0164 6.81188 23.8384 6.73766C23.6605 6.66345 23.5083 6.53777 23.4013 6.37652C23.2943 6.21527 23.2372 6.02569 23.2372 5.83176C23.2379 5.57194 23.3408 5.32297 23.5233 5.13925C23.7058 4.95553 23.9531 4.85198 24.2112 4.85122Z" fill="#EFB046" style="fill:#EFB046;fill:color(display-p3 0.9373 0.6902 0.2745);fill-opacity:1;"/>
<path id="Vector_2" d="M2.08723 8.66992C1.53393 8.67079 1.00353 8.89943 0.61229 9.30573C0.221046 9.71203 0.000878645 10.2628 4.4435e-05 10.8374C-0.00200964 11.2397 0.0671673 11.6389 0.204125 12.0151C0.344266 12.4037 0.52058 12.7772 0.730561 13.1302C0.955818 13.5128 1.21934 13.8696 1.51674 14.1947C1.5901 14.2753 1.67853 14.3395 1.77663 14.3834C1.87473 14.4273 1.98042 14.45 2.08723 14.45C2.19405 14.45 2.29974 14.4273 2.39784 14.3834C2.49593 14.3395 2.58437 14.2753 2.65773 14.1947C2.95513 13.8696 3.21865 13.5128 3.44391 13.1302C3.65389 12.7772 3.8302 12.4037 3.97034 12.0151C4.1073 11.6389 4.17648 11.2397 4.17442 10.8374C4.17359 10.2628 3.95342 9.71203 3.56218 9.30573C3.17094 8.89943 2.64054 8.67079 2.08723 8.66992ZM2.08723 10.1149C2.22484 10.1149 2.35935 10.1573 2.47376 10.2367C2.58817 10.3161 2.67735 10.4289 2.73001 10.5609C2.78266 10.693 2.79644 10.8382 2.7696 10.9784C2.74275 11.1185 2.67649 11.2473 2.57919 11.3483C2.48189 11.4494 2.35792 11.5182 2.22296 11.5461C2.08801 11.5739 1.94812 11.5596 1.82099 11.5049C1.69386 11.4503 1.5852 11.3577 1.50876 11.2388C1.43231 11.12 1.3915 10.9803 1.3915 10.8374C1.39204 10.646 1.46552 10.4625 1.59587 10.3272C1.72623 10.1918 1.90288 10.1155 2.08723 10.1149Z" fill="#EFB046" style="fill:#EFB046;fill:color(display-p3 0.9373 0.6902 0.2745);fill-opacity:1;"/>
<path id="Vector_3" d="M8.97369 0C8.36506 0.000928192 7.78162 0.2459 7.35125 0.681221C6.92089 1.11654 6.6787 1.7067 6.67778 2.32233C6.67552 2.7533 6.75162 3.18101 6.90227 3.58413C7.05643 4.00047 7.25037 4.40061 7.48135 4.77885C7.72913 5.18874 8.019 5.57104 8.34614 5.91937C8.42684 6.00576 8.52412 6.07457 8.63203 6.1216C8.73993 6.16863 8.85619 6.19289 8.97369 6.19289C9.09119 6.19289 9.20745 6.16863 9.31536 6.1216C9.42326 6.07457 9.52054 6.00576 9.60124 5.91937C9.92838 5.57104 10.2183 5.18874 10.466 4.77885C10.697 4.40061 10.891 4.00047 11.0451 3.58413C11.1958 3.18101 11.2719 2.7533 11.2696 2.32233C11.2687 1.7067 11.0265 1.11654 10.5961 0.681221C10.1658 0.2459 9.58232 0.000928192 8.97369 0ZM8.97369 1.54822C9.12506 1.54822 9.27302 1.59362 9.39887 1.67868C9.52473 1.76374 9.62282 1.88464 9.68074 2.02609C9.73866 2.16754 9.75382 2.32319 9.72429 2.47336C9.69476 2.62352 9.62187 2.76145 9.51484 2.86971C9.40781 2.97797 9.27145 3.0517 9.123 3.08157C8.97454 3.11144 8.82066 3.09611 8.68082 3.03752C8.54098 2.97893 8.42146 2.87971 8.33737 2.75241C8.25327 2.6251 8.20839 2.47544 8.20839 2.32233C8.20898 2.11721 8.2898 1.92066 8.4332 1.77562C8.57659 1.63057 8.7709 1.54882 8.97369 1.54822Z" fill="#EFB046" style="fill:#EFB046;fill:color(display-p3 0.9373 0.6902 0.2745);fill-opacity:1;"/>
<path id="Vector_4" d="M19.9125 10.8325L16.3999 8.56064C15.6614 8.08989 14.8009 7.84106 13.9225 7.84427C13.0441 7.84748 12.1855 8.10258 11.4506 8.57872L8.03531 10.8325C7.61698 11.1064 7.27392 11.4788 7.03696 11.9164C6.80001 12.354 6.67657 12.8429 6.67774 13.3394V16.7864C6.67657 17.2829 6.80001 17.7718 7.03696 18.2094C7.27392 18.647 7.61698 19.0194 8.03531 19.2933L11.4506 21.5471C12.1824 22.0312 13.0422 22.2911 13.9225 22.2943C14.8027 22.2975 15.6644 22.0439 16.3999 21.5652L19.9125 19.2933C20.335 19.0194 20.6819 18.6457 20.9221 18.206C21.1623 17.7662 21.2882 17.2742 21.2884 16.7743V13.3515C21.2882 12.8516 21.1623 12.3596 20.9221 11.9198C20.6819 11.4801 20.335 11.1064 19.9125 10.8325ZM19.1743 13.7473L16.398 15.5431C15.8538 15.8983 15.237 16.13 14.5918 16.2217V19.8839C14.5918 20.0437 14.5277 20.197 14.4135 20.31C14.2994 20.423 14.1445 20.4865 13.9831 20.4865C13.8216 20.4865 13.6668 20.423 13.5526 20.31C13.4384 20.197 13.3743 20.0437 13.3743 19.8839V16.2271C12.6855 16.1434 12.0259 15.9021 11.4475 15.5225L8.78648 13.762C8.72 13.7181 8.66293 13.6615 8.61851 13.5957C8.57409 13.5299 8.5432 13.4561 8.5276 13.3785C8.51201 13.3009 8.51201 13.221 8.52761 13.1433C8.54321 13.0657 8.5741 12.9919 8.61852 12.9261C8.70824 12.7932 8.84761 12.701 9.00598 12.6698C9.0844 12.6544 9.16512 12.6544 9.24354 12.6698C9.32196 12.6853 9.39654 12.7158 9.46302 12.7598L12.1234 14.5195C12.6595 14.8646 13.2846 15.0497 13.9241 15.0526C14.5636 15.0554 15.1904 14.876 15.7296 14.5357L18.5084 12.7384C18.5753 12.6929 18.6507 12.6611 18.7301 12.6448C18.8096 12.6286 18.8916 12.6282 18.9712 12.6438C19.0508 12.6593 19.1265 12.6905 19.1937 12.7354C19.261 12.7803 19.3185 12.8381 19.3629 12.9054C19.4073 12.9726 19.4377 13.048 19.4522 13.127C19.4668 13.206 19.4652 13.2871 19.4476 13.3656C19.43 13.444 19.3968 13.5181 19.3498 13.5836C19.3029 13.6492 19.2432 13.705 19.1743 13.7473Z" fill="#EFB046" style="fill:#EFB046;fill:color(display-p3 0.9373 0.6902 0.2745);fill-opacity:1;"/>
</g>
</svg>
