<svg width="68" height="78" viewBox="0 0 68 78" fill="none" xmlns="http://www.w3.org/2000/svg">
<g id="Group 234">
<path id="Vector" d="M57.2347 0.135254H10.87C5.39344 0.135254 0.938477 4.52829 0.938477 9.94469V67.7183C0.938477 73.1477 5.39344 77.5537 10.87 77.5537H57.2347C62.7113 77.5537 67.1663 73.1477 67.1663 67.7183V9.94599C67.1663 4.52959 62.7113 0.135254 57.2347 0.135254ZM64.0896 67.7196C64.0896 71.4563 61.013 74.4992 57.2347 74.4992H10.87C7.09176 74.4992 4.02823 71.4563 4.02823 67.7196V9.94599C4.02823 6.20924 7.09176 3.17938 10.87 3.17938H57.2347C61.013 3.17938 64.0896 6.20924 64.0896 9.94599V67.7196Z" fill="#BBE2FA" style="fill:#BBE2FA;fill:color(display-p3 0.7333 0.8863 0.9804);fill-opacity:1;"/>
<g id="Group">
<g id="Group_2">
<path id="Vector_2" d="M39.2592 17.0406C39.2343 18.1768 38.5956 18.8201 37.4337 18.8331C37.0258 18.8461 36.5786 18.8461 36.0422 18.8461L33.9741 18.8331L31.9322 18.8461L30.6811 18.8331C29.2765 18.8201 28.6392 18.2144 28.626 16.8512C28.6129 15.2611 28.6129 14.0484 28.626 12.9251C28.6392 11.6372 29.2896 11.0055 30.5919 10.9939C32.8384 10.9809 35.0731 10.9809 37.3327 10.9939C38.6087 11.0068 39.2474 11.6125 39.2605 12.8629C39.2841 14.3895 39.271 15.7527 39.2592 17.0406Z" fill="#060054" style="fill:#060054;fill:color(display-p3 0.0235 0.0000 0.3294);fill-opacity:1;"/>
</g>
<g id="Group_3">
<path id="Vector_3" d="M39.2618 28.8084C39.2867 30.1846 39.2867 31.5854 39.2618 32.9874C39.2487 34.1872 38.6231 34.7929 37.3851 34.8188C36.913 34.8318 36.4658 34.8318 35.9937 34.8318L33.9386 34.8188L31.8705 34.8318C31.4364 34.8318 30.9892 34.8318 30.5433 34.8188C29.2791 34.7942 28.6417 34.1872 28.6417 32.9498C28.6168 31.5361 28.6168 30.1469 28.6417 28.846C28.6417 27.6216 29.3053 26.977 30.5564 26.9653H37.3864C38.5851 26.977 39.2487 27.6333 39.2618 28.8084Z" fill="#060054" style="fill:#060054;fill:color(display-p3 0.0235 0.0000 0.3294);fill-opacity:1;"/>
</g>
<g id="Group_4">
<path id="Vector_4" d="M39.2631 48.7555C39.25 50.0059 38.6126 50.6492 37.3615 50.6492C35.0639 50.6622 32.7151 50.6622 30.5315 50.6492C29.2673 50.6362 28.6417 50.0175 28.6417 48.7685C28.6168 47.4676 28.6168 46.1679 28.6417 44.7542C28.6417 43.4662 29.2804 42.8346 30.5696 42.8099H37.3222C38.6244 42.8229 39.25 43.4662 39.2631 44.7412C39.2749 46.1679 39.2749 47.4676 39.2631 48.7555Z" fill="#060054" style="fill:#060054;fill:color(display-p3 0.0235 0.0000 0.3294);fill-opacity:1;"/>
</g>
<g id="Group_5">
<path id="Vector_5" d="M39.2631 64.0709C39.25 65.3212 38.6126 65.9516 37.3615 65.9646C35.0639 65.9775 32.7151 65.9775 30.5315 65.9646C29.2673 65.9516 28.6417 65.3329 28.6417 64.0709C28.6168 62.7829 28.6168 61.4703 28.6417 60.0566C28.6417 58.7686 29.2804 58.1253 30.5696 58.1123C31.0036 58.0994 31.4377 58.0994 31.8587 58.0994L33.7865 58.1123L35.9307 58.0994C36.4028 58.0994 36.8632 58.0994 37.3222 58.1123C38.6244 58.1253 39.25 58.7686 39.2631 60.0566C39.2749 61.469 39.2749 62.7829 39.2631 64.0709Z" fill="#060054" style="fill:#060054;fill:color(display-p3 0.0235 0.0000 0.3294);fill-opacity:1;"/>
</g>
<g id="Group_6">
<path id="Vector_6" d="M54.1854 44.1824C54.1736 45.6091 52.8294 46.8154 51.2517 46.827H45.2007L46.1869 47.8504C46.7915 48.4846 47.6912 49.4107 47.9613 49.6909C48.2446 49.971 48.5161 50.3861 48.1961 50.7026C47.9495 50.9464 47.5679 50.8608 47.2099 50.5197L43.3765 46.8621C43.2034 46.7038 43.1182 46.508 43.1182 46.3251C43.1182 46.1422 43.1916 45.971 43.3398 45.8374L46.9633 42.3627C47.1364 42.2044 47.3331 42.1071 47.518 42.1071C47.6295 42.1071 47.7279 42.1435 47.8262 42.2291C47.9495 42.3263 48.023 42.4612 48.0361 42.5948C48.0361 42.7531 47.9744 42.8996 47.8394 43.0332C47.6046 43.2771 46.7915 44.0812 46.2119 44.6545L45.164 45.6908L49.3672 45.7025L51.2898 45.6908C52.596 45.6908 53.0523 45.2278 53.0523 43.936V33.6726C53.0523 32.1486 52.4976 31.5999 50.9317 31.5999H44.2027C44.006 31.5999 43.808 31.5999 43.6231 31.5636C43.3267 31.5026 43.1051 31.2471 43.1431 31.015C43.2165 30.5636 43.4631 30.491 43.7227 30.491H47.0512C49.3069 30.491 50.6629 30.4793 51.1678 30.4663C52.6838 30.4663 54.1749 31.941 54.188 33.4404C54.2221 37.015 54.2221 40.6233 54.1854 44.1824Z" fill="#060054" style="fill:#060054;fill:color(display-p3 0.0235 0.0000 0.3294);fill-opacity:1;"/>
</g>
<g id="Group_7">
<path id="Vector_7" d="M24.985 30.846C24.985 31.0289 24.8985 31.2234 24.7385 31.383L20.9051 35.0406C20.6704 35.2598 20.2022 35.5036 19.9189 35.2235C19.5858 34.907 19.8573 34.5036 20.1406 34.2118C20.4238 33.9316 21.3235 33.0056 21.9149 32.383L22.913 31.3467H16.8607C15.283 31.335 13.9401 30.1275 13.927 28.702C13.8902 25.143 13.8902 21.5346 13.927 17.9626C13.9388 17.2194 14.3086 16.4632 14.8764 15.9146C15.4561 15.3543 16.2325 14.9885 17.0206 14.9885C17.4521 15.0002 18.8081 15.0132 21.0638 15.0132H24.3923C24.6388 15.0248 24.8854 15.0858 24.9588 15.5501C25.0086 15.7693 24.7857 16.0261 24.4906 16.0871C24.2939 16.1234 24.0959 16.1234 23.8992 16.1234H17.1702C15.6043 16.1234 15.0495 16.6721 15.0495 18.1961V28.4595C15.0495 29.7643 15.5177 30.2144 16.8239 30.2144L19.0678 30.226L22.9379 30.2144L21.89 29.178C21.3104 28.6047 20.4973 27.8006 20.2756 27.5684C20.1406 27.4348 20.0658 27.2753 20.0789 27.13C20.0907 26.9471 20.2022 26.8252 20.2888 26.7526C20.5104 26.558 20.8684 26.6307 21.1517 26.8862L24.7752 30.3609C24.9116 30.4932 24.985 30.6631 24.985 30.846Z" fill="#060054" style="fill:#060054;fill:color(display-p3 0.0235 0.0000 0.3294);fill-opacity:1;"/>
</g>
<g id="Group_8">
<path id="Vector_8" d="M24.985 62.1874C24.985 62.3703 24.8985 62.5649 24.7385 62.7244L20.9051 66.3691C20.5353 66.7232 20.1655 66.8075 19.9189 66.5636C19.5858 66.2471 19.8573 65.8321 20.1406 65.5519C20.4238 65.2718 21.3235 64.3457 21.9149 63.7115L22.913 62.6881H16.8607C15.283 62.6764 13.9401 61.4689 13.927 60.0435C13.8902 56.4844 13.8902 52.8761 13.927 49.304C13.9388 48.5479 14.3086 47.8164 14.8764 47.256C15.4561 46.6957 16.2325 46.33 17.0206 46.33C17.4521 46.3416 18.8449 46.3546 21.0638 46.3546H24.3923C24.6388 46.3546 24.8854 46.4272 24.9588 46.8916C25.0086 47.1108 24.7857 47.3663 24.4906 47.4285C24.2939 47.4649 24.0959 47.4649 23.8992 47.4649H17.1702C15.6043 47.4649 15.0495 48.0135 15.0495 49.5375V59.8009C15.0495 61.0928 15.5177 61.5558 16.8239 61.5558H22.9379L21.89 60.5195C21.3104 59.9462 20.4973 59.142 20.2756 58.9098C20.1406 58.7633 20.0658 58.605 20.0789 58.4715C20.0907 58.2886 20.2022 58.1667 20.2888 58.081C20.5104 57.8982 20.8684 57.9591 21.1517 58.2276C21.9779 59.0201 22.8028 59.8243 23.6408 60.6167L24.7752 61.7011C24.9116 61.8334 24.985 62.0046 24.985 62.1874Z" fill="#060054" style="fill:#060054;fill:color(display-p3 0.0235 0.0000 0.3294);fill-opacity:1;"/>
</g>
</g>
</g>
</svg>
