<svg width="22" height="21" viewBox="0 0 22 21" fill="none" xmlns="http://www.w3.org/2000/svg">
<g id="Group 223">
<path id="Vector" d="M8.48307 8.73633C7.31226 8.73816 6.18992 9.22197 5.36203 10.0817C4.53415 10.9415 4.06827 12.107 4.0665 13.3229C4.06215 14.174 4.20853 15.0187 4.49834 15.8149C4.79489 16.6371 5.16797 17.4274 5.6123 18.1744C6.08895 18.9839 6.64657 19.7389 7.27587 20.4269C7.43111 20.5975 7.61824 20.7334 7.82582 20.8263C8.03339 20.9192 8.25704 20.9671 8.48307 20.9671C8.7091 20.9671 8.93274 20.9192 9.14032 20.8263C9.34789 20.7334 9.53503 20.5975 9.69026 20.4269C10.3196 19.7389 10.8772 18.9839 11.3538 18.1744C11.7982 17.4274 12.1713 16.6371 12.4678 15.8149C12.7576 15.0187 12.904 14.174 12.8996 13.3229C12.8979 12.107 12.432 10.9415 11.6041 10.0817C10.7762 9.22197 9.65387 8.73816 8.48307 8.73633ZM8.48307 11.794C8.77424 11.794 9.05887 11.8837 9.30097 12.0517C9.54307 12.2197 9.73177 12.4584 9.84319 12.7378C9.95462 13.0172 9.98378 13.3246 9.92697 13.6211C9.87017 13.9177 9.72995 14.1901 9.52406 14.4039C9.31817 14.6177 9.05586 14.7633 8.77028 14.8223C8.4847 14.8813 8.18869 14.851 7.91969 14.7353C7.65068 14.6196 7.42075 14.4237 7.25899 14.1722C7.09722 13.9208 7.01088 13.6252 7.01088 13.3229C7.01202 12.9177 7.16749 12.5296 7.44333 12.2431C7.71917 11.9567 8.09297 11.7952 8.48307 11.794Z" fill="#060054" style="fill:#060054;fill:color(display-p3 0.0235 0.0000 0.3294);fill-opacity:1;"/>
<path id="Vector_2" d="M2.434 8.71417C3.1681 7.74005 4.12566 6.9523 5.22783 6.41581C6.33 5.87932 7.54525 5.60942 8.77353 5.62834C10.0018 5.64726 11.208 5.95445 12.2927 6.52463C13.3775 7.09481 14.3098 7.91165 15.0128 8.90792L14.9039 8.92331C14.6275 8.96368 14.3651 9.06942 14.1388 9.23156C13.9126 9.3937 13.7292 9.60744 13.6044 9.85464C13.4795 10.1018 13.4168 10.3752 13.4216 10.6515C13.4264 10.9278 13.4986 11.1988 13.6319 11.4416L15.4766 14.7649C15.6445 15.0714 15.9034 15.3195 16.2184 15.4759C16.5334 15.6323 16.8893 15.6893 17.2381 15.6394C17.5869 15.5894 17.9118 15.4348 18.169 15.1964C18.4261 14.9581 18.6032 14.6474 18.6762 14.3064L19.5004 10.612C19.5605 10.3426 19.5539 10.0629 19.4809 9.79668C19.408 9.53046 19.271 9.28566 19.0815 9.08323C18.8921 8.8808 18.6559 8.72675 18.3932 8.63425C18.1304 8.54176 17.849 8.51357 17.5728 8.55209L16.8831 8.6496C16.2489 7.54061 15.3903 6.57287 14.3609 5.80681C12.343 4.31221 9.80786 3.6709 7.31224 4.02373C4.81662 4.37656 2.56466 5.69468 1.05105 7.68855C0.913531 7.86993 0.854497 8.0979 0.886935 8.32233C0.919374 8.54675 1.04062 8.74923 1.22402 8.88524C1.40741 9.02125 1.63792 9.07963 1.86483 9.04755C2.09175 9.01547 2.29648 8.89555 2.434 8.71417Z" fill="#060054" style="fill:#060054;fill:color(display-p3 0.0235 0.0000 0.3294);fill-opacity:1;"/>
</g>
</svg>
