<svg width="26" height="24" viewBox="0 0 26 24" fill="none" xmlns="http://www.w3.org/2000/svg">
<g id="Group 213">
<path id="Vector" d="M20.6488 4.13287C20.5632 4.21723 20.4954 4.31741 20.449 4.42768C20.4027 4.53795 20.3789 4.65614 20.3789 4.77551C20.3789 4.89487 20.4027 5.01307 20.449 5.12334C20.4954 5.2336 20.5632 5.33378 20.6488 5.41815L22.4907 7.23608C22.5762 7.32052 22.6777 7.38751 22.7894 7.43321C22.9011 7.47892 23.0209 7.50244 23.1418 7.50244C23.2627 7.50244 23.3825 7.47892 23.4942 7.43321C23.6059 7.38751 23.7074 7.32052 23.7929 7.23608L25.6348 5.41815C25.8026 5.24672 25.8954 5.01711 25.8933 4.77878C25.8912 4.54045 25.7944 4.31247 25.6236 4.14394C25.4528 3.97541 25.2219 3.87982 24.9804 3.87774C24.7389 3.87567 24.5063 3.96729 24.3326 4.13287L24.0628 4.3991L24.0628 0.909083C24.0628 0.66801 23.9657 0.43681 23.793 0.266346C23.6203 0.0958815 23.386 0.000116354 23.1418 0.000116351C22.8975 0.000116348 22.6633 0.0958815 22.4906 0.266346C22.3179 0.43681 22.2208 0.66801 22.2208 0.909083L22.2208 4.3991L21.951 4.13287C21.8655 4.04843 21.764 3.98144 21.6523 3.93574C21.5406 3.89003 21.4208 3.86651 21.2999 3.86651C21.179 3.86651 21.0592 3.89003 20.9475 3.93574C20.8358 3.98144 20.7343 4.04843 20.6488 4.13287Z" fill="#060054" style="fill:#060054;fill:color(display-p3 0.0235 0.0000 0.3294);fill-opacity:1;"/>
<path id="Vector_2" d="M19.9579 7.7976C19.8247 6.92229 19.4092 6.11293 18.7734 5.48997C18.1375 4.867 17.3153 4.46374 16.429 4.34019C12.4599 3.78439 8.43137 3.78439 4.46223 4.34019C3.5772 4.47198 2.75884 4.88288 2.12896 5.51174C1.49907 6.14059 1.09133 6.95378 0.966405 7.8303C0.685419 9.78511 0.544573 11.7571 0.544923 13.7316C0.544571 15.7169 0.685413 17.6998 0.966405 19.6656C1.09966 20.5409 1.51513 21.3503 2.15097 21.9732C2.78681 22.5962 3.60904 22.9995 4.49529 23.123C6.47186 23.4006 8.46577 23.5399 10.4622 23.5399C12.4695 23.5399 14.4744 23.4006 16.4621 23.123C17.3471 22.9912 18.1655 22.5803 18.7954 21.9515C19.4253 21.3226 19.833 20.5094 19.9579 19.6329C20.2389 17.6781 20.3798 15.7061 20.3794 13.7316C20.3798 11.7463 20.2389 9.76338 19.9579 7.7976ZM10.0925 13.1936L9.9182 13.2798C9.54021 13.4668 9.12017 13.5551 8.69798 13.5363C8.27579 13.5175 7.86545 13.3924 7.50594 13.1726C7.14643 12.9529 6.84967 12.6459 6.64386 12.2809C6.43804 11.9158 6.32999 11.5048 6.32998 11.0868V7.19276C6.32998 6.97598 6.41705 6.76809 6.57204 6.6148C6.72702 6.46152 6.93723 6.3754 7.15642 6.3754C7.3756 6.3754 7.58581 6.46152 7.7408 6.6148C7.89578 6.76809 7.98285 6.97598 7.98285 7.19276V11.0868C7.98291 11.2261 8.01896 11.3631 8.08759 11.4847C8.15622 11.6064 8.25514 11.7087 8.37497 11.7819C8.49481 11.8551 8.63157 11.8968 8.77228 11.903C8.91299 11.9093 9.05298 11.8798 9.17896 11.8175L9.35325 11.7313C9.69785 11.562 10.0774 11.4739 10.4622 11.4739C10.8469 11.4739 11.2265 11.562 11.5711 11.7313L11.7454 11.8175C11.8713 11.8798 12.0113 11.9093 12.152 11.903C12.2928 11.8968 12.4295 11.8551 12.5494 11.7819C12.6692 11.7087 12.7681 11.6064 12.8367 11.4847C12.9054 11.3631 12.9414 11.2261 12.9415 11.0868V7.19276C12.9415 6.97598 13.0285 6.76809 13.1835 6.6148C13.3385 6.46152 13.5487 6.3754 13.7679 6.3754C13.9871 6.3754 14.1973 6.46152 14.3523 6.6148C14.5073 6.76809 14.5943 6.97598 14.5943 7.19276V11.0868C14.5952 11.5051 14.4878 11.9167 14.2822 12.2823C14.0766 12.6478 13.7798 12.9552 13.42 13.1751C13.0602 13.3951 12.6494 13.5201 12.2268 13.5385C11.8043 13.5568 11.384 13.4678 11.0061 13.2798L10.8318 13.1936C10.717 13.1369 10.5905 13.1074 10.4622 13.1074C10.3339 13.1074 10.2073 13.1369 10.0925 13.1936Z" fill="#070058" style="fill:#070058;fill:color(display-p3 0.0275 0.0000 0.3451);fill-opacity:1;"/>
</g>
</svg>
