<svg width="21" height="19" viewBox="0 0 21 19" fill="none" xmlns="http://www.w3.org/2000/svg">
<g id="Group">
<path id="Vector" d="M16.1191 0H5.12555C3.91083 0.000432262 2.74598 0.477868 1.88704 1.32737C1.0281 2.17687 0.545359 3.32891 0.544922 4.53029V13.5909C0.545359 14.7922 1.0281 15.9443 1.88704 16.7938C2.74598 17.6433 3.91083 18.1207 5.12555 18.1212H16.1191C17.3338 18.1207 18.4986 17.6433 19.3576 16.7938C20.2165 15.9443 20.6992 14.7922 20.6997 13.5909V4.53029C20.6992 3.32891 20.2165 2.17687 19.3576 1.32737C18.4986 0.477868 17.3338 0.000432262 16.1191 0ZM7.87392 16.309H5.12555C4.39729 16.3069 3.69946 16.0199 3.1845 15.5106C2.66954 15.0013 2.3793 14.3111 2.37717 13.5909V7.24846H7.87392V16.309ZM17.9513 10.8727C17.9513 11.113 17.8548 11.3435 17.683 11.5134C17.5112 11.6833 17.2782 11.7788 17.0352 11.7788C16.7922 11.7788 16.5592 11.6833 16.3874 11.5134C16.2156 11.3435 16.1191 11.113 16.1191 10.8727V9.06058C16.1191 8.82028 16.2156 8.58982 16.3874 8.4199C16.5592 8.24998 16.7922 8.15452 17.0352 8.15452C17.2782 8.15452 17.5112 8.24998 17.683 8.4199C17.8548 8.58982 17.9513 8.82028 17.9513 9.06058V10.8727ZM10.6223 10.8727V9.06058C10.6223 8.82028 10.7188 8.58982 10.8906 8.4199C11.0624 8.24998 11.2955 8.15452 11.5384 8.15452C11.7814 8.15452 12.0144 8.24998 12.1862 8.4199C12.358 8.58982 12.4546 8.82028 12.4546 9.06058V10.8727C12.4546 11.113 12.358 11.3435 12.1862 11.5134C12.0144 11.6833 11.7814 11.7788 11.5384 11.7788C11.2955 11.7788 11.0624 11.6833 10.8906 11.5134C10.7188 11.3435 10.6223 11.113 10.6223 10.8727ZM15.2029 10.8727C15.2029 11.113 15.1064 11.3435 14.9346 11.5134C14.7628 11.6833 14.5298 11.7788 14.2868 11.7788C14.0438 11.7788 13.8108 11.6833 13.639 11.5134C13.4672 11.3435 13.3707 11.113 13.3707 10.8727V9.06058C13.3707 8.82028 13.4672 8.58982 13.639 8.4199C13.8108 8.24998 14.0438 8.15452 14.2868 8.15452C14.5298 8.15452 14.7628 8.24998 14.9346 8.4199C15.1064 8.58982 15.2029 8.82028 15.2029 9.06058V10.8727ZM18.8674 5.43635H2.37717V4.53029C2.3793 3.81003 2.66954 3.11988 3.1845 2.61057C3.69946 2.10127 4.39729 1.81422 5.12555 1.81212H16.1191C16.8473 1.81422 17.5451 2.10127 18.0601 2.61057C18.5751 3.11988 18.8653 3.81003 18.8674 4.53029V5.43635Z" fill="#060054" style="fill:#060054;fill:color(display-p3 0.0235 0.0000 0.3294);fill-opacity:1;"/>
<path id="Vector_2" d="M5.12522 2.71826H4.20909C3.96612 2.71826 3.7331 2.81372 3.5613 2.98364C3.38949 3.15356 3.29297 3.38402 3.29297 3.62432C3.29297 3.86462 3.38949 4.09508 3.5613 4.265C3.7331 4.43492 3.96612 4.53038 4.20909 4.53038H5.12522C5.36819 4.53038 5.60121 4.43492 5.77302 4.265C5.94482 4.09508 6.04134 3.86462 6.04134 3.62432C6.04134 3.38402 5.94482 3.15356 5.77302 2.98364C5.60121 2.81372 5.36819 2.71826 5.12522 2.71826Z" fill="#060054" style="fill:#060054;fill:color(display-p3 0.0235 0.0000 0.3294);fill-opacity:1;"/>
<path id="Vector_3" d="M8.79123 2.71826H7.87511C7.63214 2.71826 7.39912 2.81372 7.22731 2.98364C7.0555 3.15356 6.95898 3.38402 6.95898 3.62432C6.95898 3.86462 7.0555 4.09508 7.22731 4.265C7.39912 4.43492 7.63214 4.53038 7.87511 4.53038H8.79123C9.03421 4.53038 9.26723 4.43492 9.43903 4.265C9.61084 4.09508 9.70736 3.86462 9.70736 3.62432C9.70736 3.38402 9.61084 3.15356 9.43903 2.98364C9.26723 2.81372 9.03421 2.71826 8.79123 2.71826Z" fill="#060054" style="fill:#060054;fill:color(display-p3 0.0235 0.0000 0.3294);fill-opacity:1;"/>
<path id="Vector_4" d="M12.4553 2.71826H11.5392C11.2962 2.71826 11.0632 2.81372 10.8914 2.98364C10.7196 3.15356 10.623 3.38402 10.623 3.62432C10.623 3.86462 10.7196 4.09508 10.8914 4.265C11.0632 4.43492 11.2962 4.53038 11.5392 4.53038H12.4553C12.6983 4.53038 12.9313 4.43492 13.1031 4.265C13.2749 4.09508 13.3714 3.86462 13.3714 3.62432C13.3714 3.38402 13.2749 3.15356 13.1031 2.98364C12.9313 2.81372 12.6983 2.71826 12.4553 2.71826Z" fill="#060054" style="fill:#060054;fill:color(display-p3 0.0235 0.0000 0.3294);fill-opacity:1;"/>
<path id="Vector_5" d="M4.20909 9.96666H6.04134C6.28432 9.96666 6.51734 9.8712 6.68914 9.70128C6.86095 9.53136 6.95747 9.3009 6.95747 9.0606C6.95747 8.8203 6.86095 8.58984 6.68914 8.41992C6.51734 8.25 6.28432 8.15454 6.04134 8.15454H4.20909C3.96612 8.15454 3.7331 8.25 3.5613 8.41992C3.38949 8.58984 3.29297 8.8203 3.29297 9.0606C3.29297 9.3009 3.38949 9.53136 3.5613 9.70128C3.7331 9.8712 3.96612 9.96666 4.20909 9.96666Z" fill="#060054" style="fill:#060054;fill:color(display-p3 0.0235 0.0000 0.3294);fill-opacity:1;"/>
<path id="Vector_6" d="M4.20909 12.6847H6.04134C6.28432 12.6847 6.51734 12.5892 6.68914 12.4193C6.86095 12.2494 6.95747 12.0189 6.95747 11.7786C6.95747 11.5383 6.86095 11.3079 6.68914 11.1379C6.51734 10.968 6.28432 10.8726 6.04134 10.8726H4.20909C3.96612 10.8726 3.7331 10.968 3.5613 11.1379C3.38949 11.3079 3.29297 11.5383 3.29297 11.7786C3.29297 12.0189 3.38949 12.2494 3.5613 12.4193C3.7331 12.5892 3.96612 12.6847 4.20909 12.6847Z" fill="#060054" style="fill:#060054;fill:color(display-p3 0.0235 0.0000 0.3294);fill-opacity:1;"/>
<path id="Vector_7" d="M4.20909 15.4032H6.04134C6.28432 15.4032 6.51734 15.3077 6.68914 15.1378C6.86095 14.9679 6.95747 14.7374 6.95747 14.4971C6.95747 14.2568 6.86095 14.0264 6.68914 13.8564C6.51734 13.6865 6.28432 13.5911 6.04134 13.5911H4.20909C3.96612 13.5911 3.7331 13.6865 3.5613 13.8564C3.38949 14.0264 3.29297 14.2568 3.29297 14.4971C3.29297 14.7374 3.38949 14.9679 3.5613 15.1378C3.7331 15.3077 3.96612 15.4032 4.20909 15.4032Z" fill="#060054" style="fill:#060054;fill:color(display-p3 0.0235 0.0000 0.3294);fill-opacity:1;"/>
</g>
</svg>
