<svg width="31" height="25" viewBox="0 0 31 25" fill="none" xmlns="http://www.w3.org/2000/svg">
<g id="Group 214">
<path id="Vector" d="M27.4584 3.24072C26.5898 3.24204 25.7571 3.59 25.1429 4.20832C24.5287 4.82665 24.183 5.6649 24.1817 6.53934C24.1785 7.15147 24.2871 7.75899 24.5021 8.33159C24.7221 8.92295 24.9989 9.49129 25.3286 10.0285C25.6822 10.6108 26.0959 11.1538 26.5628 11.6485C26.6779 11.7712 26.8168 11.869 26.9708 11.9358C27.1248 12.0026 27.2907 12.037 27.4584 12.037C27.6261 12.037 27.792 12.0026 27.946 11.9358C28.1 11.869 28.2389 11.7712 28.354 11.6485C28.8209 11.1538 29.2346 10.6108 29.5882 10.0285C29.9179 9.49129 30.1947 8.92295 30.4147 8.33159C30.6297 7.75899 30.7383 7.15147 30.7351 6.53934C30.7338 5.6649 30.3881 4.82665 29.7739 4.20832C29.1597 3.59 28.327 3.24204 27.4584 3.24072ZM27.4584 5.4398C27.6744 5.4398 27.8856 5.50429 28.0652 5.62511C28.2448 5.74592 28.3848 5.91765 28.4675 6.11856C28.5502 6.31948 28.5718 6.54056 28.5296 6.75385C28.4875 6.96714 28.3835 7.16306 28.2307 7.31683C28.078 7.4706 27.8834 7.57532 27.6715 7.61775C27.4596 7.66018 27.24 7.6384 27.0404 7.55518C26.8408 7.47196 26.6703 7.33103 26.5502 7.15021C26.4302 6.96939 26.3662 6.75681 26.3662 6.53934C26.367 6.24798 26.4824 5.96881 26.687 5.76279C26.8917 5.55677 27.169 5.44065 27.4584 5.4398Z" fill="#060054" style="fill:#060054;fill:color(display-p3 0.0235 0.0000 0.3294);fill-opacity:1;"/>
<path id="Vector_2" d="M2.64913 9.72217C2.02868 9.72314 1.43391 9.97953 0.99519 10.4351C0.556466 10.8907 0.309579 11.5084 0.308644 12.1527C0.30634 12.6038 0.383912 13.0514 0.537491 13.4733C0.69464 13.9091 0.892351 14.3279 1.12781 14.7237C1.38041 15.1527 1.67591 15.5528 2.0094 15.9174C2.09166 16.0078 2.19083 16.0798 2.30083 16.129C2.41084 16.1783 2.52935 16.2037 2.64913 16.2037C2.76891 16.2037 2.88743 16.1783 2.99743 16.129C3.10743 16.0798 3.2066 16.0078 3.28887 15.9174C3.62236 15.5528 3.91786 15.1527 4.17045 14.7237C4.40592 14.3279 4.60363 13.9091 4.76077 13.4733C4.91435 13.0514 4.99193 12.6038 4.98962 12.1527C4.98869 11.5084 4.7418 10.8907 4.30308 10.4351C3.86435 9.97953 3.26958 9.72314 2.64913 9.72217ZM2.64913 11.3425C2.80343 11.3425 2.95427 11.3901 3.08257 11.4791C3.21087 11.5681 3.31086 11.6946 3.36991 11.8427C3.42896 11.9907 3.44441 12.1536 3.41431 12.3108C3.3842 12.4679 3.3099 12.6123 3.20079 12.7256C3.09168 12.8389 2.95267 12.9161 2.80134 12.9473C2.65 12.9786 2.49313 12.9626 2.35058 12.9012C2.20802 12.8399 2.08618 12.7361 2.00045 12.6028C1.91473 12.4696 1.86897 12.313 1.86897 12.1527C1.86957 11.938 1.95196 11.7323 2.09814 11.5805C2.24432 11.4287 2.44241 11.3432 2.64913 11.3425Z" fill="#060054" style="fill:#060054;fill:color(display-p3 0.0235 0.0000 0.3294);fill-opacity:1;"/>
<path id="Vector_3" d="M10.3715 0C9.68897 0.00104084 9.03473 0.275742 8.55213 0.763893C8.06953 1.25204 7.79796 1.91382 7.79693 2.60417C7.7944 3.08743 7.87973 3.56705 8.04866 4.0191C8.22153 4.48597 8.43901 4.93466 8.69802 5.3588C8.97587 5.81845 9.30092 6.24713 9.66776 6.63774C9.75825 6.73461 9.86734 6.81178 9.98834 6.86452C10.1093 6.91725 10.2397 6.94446 10.3715 6.94446C10.5032 6.94446 10.6336 6.91725 10.7546 6.86452C10.8756 6.81178 10.9847 6.73461 11.0752 6.63774C11.442 6.24713 11.7671 5.81845 12.0449 5.3588C12.3039 4.93466 12.5214 4.48597 12.6943 4.0191C12.8632 3.56705 12.9485 3.08743 12.946 2.60417C12.945 1.91382 12.6734 1.25204 12.1908 0.763893C11.7082 0.275742 11.054 0.00104084 10.3715 0ZM10.3715 1.73611C10.5412 1.73611 10.7071 1.78702 10.8482 1.88241C10.9894 1.97779 11.0994 2.11336 11.1643 2.27198C11.2293 2.4306 11.2463 2.60513 11.2132 2.77352C11.18 2.94191 11.0983 3.09658 10.9783 3.21798C10.8583 3.33938 10.7054 3.42205 10.5389 3.45555C10.3724 3.48904 10.1999 3.47185 10.0431 3.40615C9.88625 3.34045 9.75222 3.22919 9.65792 3.08644C9.56362 2.94369 9.51329 2.77586 9.51329 2.60417C9.51395 2.37415 9.60458 2.15375 9.76538 1.9911C9.92617 1.82846 10.1441 1.73679 10.3715 1.73611Z" fill="#060054" style="fill:#060054;fill:color(display-p3 0.0235 0.0000 0.3294);fill-opacity:1;"/>
<path id="Vector_4" d="M22.6378 12.1473L18.6989 9.59973C17.8708 9.07185 16.9059 8.79282 15.9209 8.79642C14.9359 8.80002 13.9731 9.08608 13.1489 9.62L9.31921 12.1473C8.85011 12.4544 8.46542 12.8721 8.1997 13.3627C7.93399 13.8534 7.79557 14.4017 7.79688 14.9584V18.8237C7.79557 19.3805 7.93399 19.9288 8.1997 20.4195C8.46542 20.9101 8.85011 21.3278 9.31921 21.6349L13.1489 24.1622C13.9696 24.705 14.9338 24.9965 15.9208 25.0001C16.9079 25.0037 17.8742 24.7193 18.6989 24.1825L22.6378 21.6349C23.1116 21.3277 23.5006 20.9087 23.77 20.4156C24.0393 19.9225 24.1804 19.3708 24.1807 18.8102V14.972C24.1804 14.4114 24.0393 13.8597 23.77 13.3666C23.5006 12.8735 23.1116 12.4545 22.6378 12.1473ZM21.81 15.4159L18.6967 17.4296C18.0865 17.8279 17.3949 18.0877 16.6714 18.1905V22.2971C16.6714 22.4763 16.5995 22.6482 16.4715 22.7749C16.3435 22.9017 16.1698 22.9729 15.9888 22.9729C15.8077 22.9729 15.6341 22.9017 15.5061 22.7749C15.378 22.6482 15.3061 22.4763 15.3061 22.2971V18.1966C14.5337 18.1027 13.794 17.8322 13.1455 17.4065L10.1615 15.4324C10.087 15.383 10.023 15.3197 9.97318 15.2459C9.92337 15.1721 9.88873 15.0893 9.87124 15.0023C9.85375 14.9152 9.85375 14.8256 9.87125 14.7386C9.88874 14.6515 9.92338 14.5687 9.97319 14.4949C10.0738 14.3459 10.2301 14.2425 10.4077 14.2076C10.4956 14.1903 10.5861 14.1903 10.6741 14.2076C10.762 14.2249 10.8456 14.2592 10.9202 14.3085L13.9034 16.2817C14.5045 16.6687 15.2055 16.8763 15.9226 16.8795C16.6398 16.8827 17.3426 16.6815 17.9473 16.2999L21.0633 14.2845C21.1383 14.2335 21.2228 14.1978 21.3119 14.1796C21.4011 14.1614 21.493 14.161 21.5822 14.1784C21.6715 14.1958 21.7564 14.2308 21.8318 14.2811C21.9072 14.3315 21.9718 14.3963 22.0215 14.4717C22.0713 14.5471 22.1053 14.6316 22.1217 14.7202C22.138 14.8089 22.1362 14.8998 22.1165 14.9878C22.0968 15.0757 22.0595 15.1589 22.0069 15.2323C21.9542 15.3058 21.8873 15.3684 21.81 15.4159Z" fill="#060054" style="fill:#060054;fill:color(display-p3 0.0235 0.0000 0.3294);fill-opacity:1;"/>
</g>
</svg>
