<svg width="84" height="71" viewBox="0 0 84 71" fill="none" xmlns="http://www.w3.org/2000/svg">
<g clip-path="url(#clip0_531_466)">
<path fill-rule="evenodd" clip-rule="evenodd" d="M30.3041 28.1029C25.5835 24.4933 28.9301 21.2254 28.9301 21.2254C28.5251 23.2463 29.4387 26.2544 30.3041 28.1029ZM49.4578 28.1029C54.1785 24.4933 50.8319 21.2254 50.8319 21.2254C51.2369 23.2463 50.3233 26.2544 49.4578 28.1029ZM38.2022 37.5342C37.6042 37.3957 36.8145 37.0972 36.064 36.5906C35.3137 36.0843 34.6025 35.3702 34.1115 34.5174C33.6206 33.6646 33.3495 32.6733 33.2246 31.7617C32.7847 28.5555 33.7556 27.8037 34.602 27.0355C34.8334 26.6733 34.8052 26.4587 34.6328 26.1843C34.5503 26.0527 34.4726 25.9926 34.3481 25.8964C34.2892 25.8508 34.2079 25.7878 34.1003 25.6901C33.9766 25.5776 33.819 25.4201 33.6557 25.2339L33.6545 25.235C33.5263 25.0888 33.393 24.9223 33.2677 24.7426C33.1395 24.5588 33.0256 24.3673 32.9457 24.1563C32.868 23.9508 32.8181 23.7171 32.8128 23.4395V23.437C32.8067 23.1245 32.855 22.7532 32.9548 22.3652C33.0508 21.991 33.1926 21.6114 33.3769 21.2642C33.5659 20.9084 33.8016 20.5821 34.0714 20.3003C34.3348 20.0253 34.6309 19.7938 34.947 19.6202C35.2466 19.4557 35.5638 19.3421 35.875 19.2711C36.2314 19.1897 36.5814 19.1627 36.8899 19.1776C37.1709 19.1912 37.4134 19.24 37.6241 19.3086C37.8353 19.3775 38.0197 19.4677 38.1811 19.5628C38.3474 19.6609 38.4881 19.7631 38.6074 19.8606V19.8631C38.7466 19.9766 38.846 20.0703 38.9255 20.148V20.1505C39.0171 20.24 39.0899 20.315 39.1529 20.382C39.2022 20.4345 39.2663 20.5059 39.3307 20.5777C39.6185 20.8966 40.1428 20.8966 40.4305 20.5777C40.495 20.5059 40.5592 20.4345 40.6084 20.382C40.6714 20.3148 40.7442 20.24 40.8358 20.1505V20.148C40.9153 20.0703 41.0147 19.9766 41.1538 19.8631V19.8606C41.2733 19.7631 41.4139 19.6609 41.5802 19.5628C41.7417 19.4675 41.926 19.3775 42.1372 19.3086C42.3477 19.24 42.5904 19.1912 42.8713 19.1776C43.1798 19.1625 43.5299 19.1897 43.8863 19.2711C44.1974 19.3421 44.5146 19.4557 44.8143 19.6202C45.1306 19.7938 45.4265 20.0253 45.6899 20.3003C45.9597 20.5821 46.1956 20.9084 46.3844 21.2642C46.5687 21.6112 46.7105 21.991 46.8065 22.3652C46.9063 22.7532 46.9544 23.1245 46.9485 23.437V23.4395C46.9434 23.7173 46.8933 23.9508 46.8156 24.1563C46.7357 24.3673 46.6217 24.5588 46.4936 24.7426C46.3684 24.9223 46.235 25.0888 46.1068 25.235L46.1056 25.2339C45.9421 25.4201 45.7847 25.5776 45.6609 25.6901C45.5535 25.7878 45.4721 25.8508 45.4131 25.8964C45.2887 25.9924 45.2111 26.0527 45.1284 26.1843C44.9561 26.4587 44.9279 26.6733 45.1593 27.0355C46.0058 27.8035 46.9766 28.5555 46.5367 31.7617C46.4116 32.6731 46.1407 33.6644 45.6497 34.5174C45.1588 35.3702 44.4477 36.0844 43.6972 36.5906C42.947 37.097 42.1573 37.3955 41.5591 37.5342C40.8952 37.688 38.8653 37.688 38.2013 37.5342H38.2022ZM43.3554 31.68C43.5907 31.4076 43.57 30.9966 43.3092 30.7622C43.0485 30.5276 42.6461 30.5583 42.4109 30.8306C40.869 32.613 38.8934 32.613 37.3514 30.8306C37.1161 30.5583 36.7139 30.5276 36.4531 30.7622C36.1924 30.9968 36.1716 31.4078 36.407 31.68C38.5354 34.1399 41.2273 34.1399 43.3556 31.68H43.3554ZM40.9194 29.0248C41.0926 29.328 41.4551 29.4206 41.7284 29.2318C42.0019 29.043 42.0832 28.6441 41.91 28.3409C41.3303 26.2856 38.4319 26.2856 37.8522 28.3409C37.6789 28.6441 37.76 29.043 38.0337 29.2318C38.3073 29.4208 38.6696 29.328 38.8428 29.0248C39.4616 27.9471 40.3006 27.9473 40.9194 29.0248ZM40.654 12.1183C43.2256 12.2706 53.2441 15.5552 48.2759 27.9547C47.5494 27.1804 46.8876 26.804 46.5108 26.6662C46.6633 26.5275 46.8562 26.3347 47.0556 26.1077V26.1052C47.2181 25.9198 47.3837 25.7139 47.5334 25.4991C47.7146 25.2391 47.8797 24.9584 48.0052 24.6267C48.1324 24.2901 48.2143 23.9105 48.223 23.4627C48.2313 23.0285 48.1694 22.533 48.0412 22.0333C47.9218 21.5678 47.7416 21.0881 47.5041 20.6413C47.2579 20.1776 46.951 19.7527 46.5997 19.3862C46.2467 19.0178 45.8478 18.7064 45.4195 18.4711C45.0166 18.2498 44.5863 18.0962 44.1619 17.9992C43.6885 17.8912 43.223 17.8553 42.8122 17.8752C42.4152 17.8945 42.0644 17.9662 41.7534 18.0675C41.4434 18.1684 41.1775 18.2981 40.9467 18.4342C40.7215 18.567 40.5278 18.7077 40.3617 18.8435L40.3604 18.8419C39.8224 19.2814 39.9401 19.2814 39.4021 18.8419L39.4009 18.8435C39.2347 18.7079 39.0411 18.567 38.8158 18.4342C38.5851 18.2983 38.3192 18.1686 38.0091 18.0675C37.6983 17.9662 37.3474 17.8945 36.9503 17.8752C36.5396 17.8553 36.0741 17.8912 35.6006 17.9992C35.1762 18.096 34.7459 18.2498 34.343 18.4711C33.9145 18.7064 33.5157 19.0178 33.1628 19.3862C32.8115 19.7527 32.5046 20.1776 32.2584 20.6413C32.0209 21.0883 31.8409 21.5678 31.7213 22.0333C31.593 22.533 31.5312 23.0285 31.5395 23.4627C31.5482 23.9105 31.6301 24.2901 31.7573 24.6267C31.8828 24.9584 32.0479 25.2391 32.2291 25.4991C32.3788 25.7139 32.5444 25.92 32.707 26.1052V26.1077C32.9061 26.3347 33.0992 26.5277 33.2517 26.6662C32.8749 26.804 32.2132 27.1804 31.4867 27.9547C26.5184 15.5552 36.5369 12.2706 39.1085 12.1183C39.4857 12.096 40.277 12.096 40.6542 12.1183H40.654ZM43.8494 23.4262C43.7267 23.6497 43.3598 23.7634 43.0302 23.6803C42.7006 23.5971 42.5328 23.3484 42.6555 23.1249C42.656 23.124 42.849 22.7714 42.8415 22.7665C42.5865 22.6029 42.5753 22.3298 42.8167 22.157C43.0581 21.9839 43.4606 21.9765 43.7157 22.1401C44.337 22.5388 43.8506 23.4239 43.8494 23.4264V23.4262ZM35.9132 23.4262C36.0358 23.6497 36.4027 23.7634 36.7323 23.6803C37.0619 23.5971 37.2297 23.3484 37.107 23.1249C37.1065 23.124 36.9135 22.7714 36.921 22.7665C37.1761 22.6029 37.1872 22.3298 36.9458 22.157C36.7044 21.9839 36.3019 21.9765 36.0468 22.1401C35.4256 22.5388 35.9119 23.4239 35.9132 23.4264V23.4262Z" fill="#060054" style="fill:#060054;fill:color(display-p3 0.0235 0.0000 0.3294);fill-opacity:1;"/>
</g>
<path d="M41.7105 57.464C40.0787 57.4049 38.8138 56.0656 38.8342 54.4198C38.8546 52.7941 40.1779 51.4548 41.7906 51.4454C43.4523 51.4454 44.7661 52.8344 44.7267 54.5677C44.6859 56.1826 43.2824 57.5232 41.7105 57.464Z" fill="#BBE2FA" style="fill:#BBE2FA;fill:color(display-p3 0.7333 0.8863 0.9804);fill-opacity:1;"/>
<path d="M75.4008 0H8.65883C4.33019 0 0.808594 3.48529 0.808594 7.7693V54.7858C0.808594 59.0698 4.33019 62.5551 8.65883 62.5551H75.4008C79.7294 62.5551 83.251 59.0685 83.251 54.7858V7.7693C83.251 3.48529 79.7294 0 75.4008 0ZM8.65883 3.17065H75.4008C77.9632 3.17065 80.0473 5.23332 80.0473 7.7693V45.4621H4.01227V7.7693C4.01227 5.23332 6.09643 3.17065 8.65883 3.17065ZM75.4008 59.3858H8.65883C6.09643 59.3858 4.01227 57.3232 4.01227 54.7872V48.6341H80.0473V54.7872C80.0473 57.3232 77.9632 59.3858 75.4008 59.3858Z" fill="#BBE2FA" style="fill:#BBE2FA;fill:color(display-p3 0.7333 0.8863 0.9804);fill-opacity:1;"/>
<path d="M55.8075 67.0571H28.2461V70.2291H55.8075V67.0571Z" fill="#BBE2FA" style="fill:#BBE2FA;fill:color(display-p3 0.7333 0.8863 0.9804);fill-opacity:1;"/>
<defs>
<clipPath id="clip0_531_466">
<rect width="24.2034" height="25.5481" fill="white" style="fill:white;fill-opacity:1;" transform="translate(27.7793 12.1017)"/>
</clipPath>
</defs>
</svg>
