<svg width="24" height="22" viewBox="0 0 24 22" fill="none" xmlns="http://www.w3.org/2000/svg">
<path d="M4.54163 17.6846C4.2887 17.6846 4.04616 17.7852 3.86732 17.964C3.68833 18.1428 3.58789 18.3854 3.58789 18.6385V20.5461V20.546C3.58789 20.8867 3.76976 21.2016 4.06484 21.372C4.35993 21.5423 4.7235 21.5423 5.01859 21.372C5.31367 21.2016 5.49554 20.8867 5.49554 20.546V18.6385C5.49554 18.3854 5.39495 18.1428 5.21611 17.964C5.03727 17.7852 4.79471 17.6846 4.54164 17.6846L4.54163 17.6846Z" fill="#6FC3B6" style="fill:#6FC3B6;fill:color(display-p3 0.4353 0.7647 0.7137);fill-opacity:1;"/>
<path d="M9.31019 13.8691C9.05726 13.8691 8.81455 13.9696 8.63572 14.1486C8.45688 14.3274 8.35645 14.57 8.35645 14.8229V20.5457C8.35645 20.8864 8.53816 21.2013 8.83324 21.3717C9.12832 21.542 9.49205 21.542 9.78714 21.3717C10.0822 21.2013 10.2639 20.8864 10.2639 20.5457V14.8229C10.2639 14.57 10.1635 14.3274 9.98466 14.1486C9.80582 13.9696 9.56314 13.8691 9.31019 13.8691V13.8691Z" fill="#6FC3B6" style="fill:#6FC3B6;fill:color(display-p3 0.4353 0.7647 0.7137);fill-opacity:1;"/>
<path d="M15.0338 17.6846C14.7809 17.6846 14.5382 17.7852 14.3594 17.964C14.1805 18.1428 14.0801 18.3854 14.0801 18.6385V20.5461V20.546C14.0801 20.8867 14.2618 21.2016 14.5569 21.372C14.852 21.5423 15.2157 21.5423 15.5108 21.372C15.8059 21.2016 15.9876 20.8867 15.9876 20.546V18.6385C15.9876 18.3854 15.8871 18.1428 15.7083 17.964C15.5295 17.7852 15.2868 17.6846 15.0338 17.6846V17.6846Z" fill="#6FC3B6" style="fill:#6FC3B6;fill:color(display-p3 0.4353 0.7647 0.7137);fill-opacity:1;"/>
<path d="M19.8025 15.7773C19.5494 15.7773 19.3069 15.8778 19.1281 16.0566C18.9492 16.2355 18.8486 16.4781 18.8486 16.7311V20.5462C18.8486 20.887 19.0305 21.2019 19.3256 21.3722C19.6207 21.5426 19.9842 21.5426 20.2793 21.3722C20.5744 21.2019 20.7563 20.887 20.7563 20.5462V16.7311C20.7563 16.4782 20.6558 16.2355 20.4769 16.0566C20.298 15.8778 20.0555 15.7773 19.8025 15.7773L19.8025 15.7773Z" fill="#6FC3B6" style="fill:#6FC3B6;fill:color(display-p3 0.4353 0.7647 0.7137);fill-opacity:1;"/>
<path d="M22.664 4.33176H22.4922C22.1909 3.47653 21.5016 2.81514 20.6345 2.5496C19.7676 2.2839 18.826 2.44581 18.0974 2.98552C17.3688 3.52522 16.9398 4.37869 16.9412 5.2855C16.9423 5.79728 17.0841 6.29881 17.3513 6.73521L16.0255 8.33771C15.7088 8.21588 15.3729 8.15121 15.0335 8.1469C14.7448 8.15025 14.4586 8.19847 14.1847 8.28997L11.6952 4.96119C12.0035 4.49045 12.1693 3.94053 12.1721 3.37785C12.1776 2.44855 11.7311 1.57432 10.9751 1.0338C10.2188 0.493119 9.24735 0.353565 8.36964 0.659199C7.49188 0.964979 6.81725 1.67794 6.56066 2.5713C6.30406 3.46467 6.49727 4.42692 7.07882 5.152L5.16177 8.2136C4.9577 8.17209 4.75014 8.14973 4.54174 8.14686C3.95173 8.14989 3.37708 8.33464 2.89579 8.67601C2.41454 9.01724 2.05 9.49866 1.85216 10.0545H1.68035C1.3396 10.0545 1.02472 10.2362 0.854344 10.5313C0.683969 10.8264 0.683969 11.1901 0.854344 11.4852C1.02472 11.7803 1.3396 11.962 1.68035 11.962H1.85216C2.12919 12.7573 2.74315 13.3897 3.52987 13.69C4.31659 13.9905 5.19578 13.9282 5.93234 13.5199C6.66895 13.1116 7.18772 12.3992 7.34996 11.5727C7.51203 10.7463 7.30126 9.8905 6.77367 9.23422L8.69072 6.17245C8.89495 6.21412 9.10252 6.23648 9.31075 6.23919C9.59944 6.236 9.88572 6.18762 10.1596 6.09612L12.6489 9.42491H12.6491C12.3408 9.89565 12.175 10.4456 12.1721 11.0082C12.1721 12.0305 12.7176 12.9751 13.6028 13.4862C14.4881 13.9974 15.579 13.9974 16.4642 13.4862C17.3495 12.9751 17.8949 12.0305 17.8949 11.0082C17.8938 10.4965 17.7519 9.99494 17.4847 9.55853L18.8105 7.95603C19.5256 8.23387 20.3228 8.20752 21.0179 7.88338C21.713 7.55924 22.2455 6.9654 22.4922 6.23918H22.664C23.0047 6.23918 23.3196 6.05747 23.49 5.76239C23.6604 5.46731 23.6604 5.10358 23.49 4.80849C23.3196 4.51339 23.0047 4.3317 22.664 4.3317L22.664 4.33176Z" fill="#6FC3B6" style="fill:#6FC3B6;fill:color(display-p3 0.4353 0.7647 0.7137);fill-opacity:1;"/>
</svg>
