<svg width="22" height="20" viewBox="0 0 22 20" fill="none" xmlns="http://www.w3.org/2000/svg">
<path d="M17 0H5C3.67406 0.000477079 2.40257 0.527415 1.46499 1.46499C0.527415 2.40257 0.000477079 3.67406 0 5V15C0.000477079 16.3259 0.527415 17.5974 1.46499 18.535C2.40257 19.4726 3.67406 19.9995 5 20H17C18.3259 19.9995 19.5974 19.4726 20.535 18.535C21.4726 17.5974 21.9995 16.3259 22 15V5C21.9995 3.67406 21.4726 2.40257 20.535 1.46499C19.5974 0.527415 18.3259 0.000477079 17 0ZM8 18H5C4.20506 17.9977 3.44335 17.6809 2.88124 17.1188C2.31914 16.5566 2.00232 15.7949 2 15V8H8V18ZM19 12C19 12.2652 18.8946 12.5196 18.7071 12.7071C18.5196 12.8946 18.2652 13 18 13C17.7348 13 17.4804 12.8946 17.2929 12.7071C17.1054 12.5196 17 12.2652 17 12V10C17 9.73478 17.1054 9.48043 17.2929 9.29289C17.4804 9.10536 17.7348 9 18 9C18.2652 9 18.5196 9.10536 18.7071 9.29289C18.8946 9.48043 19 9.73478 19 10V12ZM11 12V10C11 9.73478 11.1054 9.48043 11.2929 9.29289C11.4804 9.10536 11.7348 9 12 9C12.2652 9 12.5196 9.10536 12.7071 9.29289C12.8946 9.48043 13 9.73478 13 10V12C13 12.2652 12.8946 12.5196 12.7071 12.7071C12.5196 12.8946 12.2652 13 12 13C11.7348 13 11.4804 12.8946 11.2929 12.7071C11.1054 12.5196 11 12.2652 11 12ZM16 12C16 12.2652 15.8946 12.5196 15.7071 12.7071C15.5196 12.8946 15.2652 13 15 13C14.7348 13 14.4804 12.8946 14.2929 12.7071C14.1054 12.5196 14 12.2652 14 12V10C14 9.73478 14.1054 9.48043 14.2929 9.29289C14.4804 9.10536 14.7348 9 15 9C15.2652 9 15.5196 9.10536 15.7071 9.29289C15.8946 9.48043 16 9.73478 16 10V12ZM20 6H2V5C2.00232 4.20506 2.31914 3.44335 2.88124 2.88124C3.44335 2.31914 4.20506 2.00232 5 2H17C17.7949 2.00232 18.5566 2.31914 19.1188 2.88124C19.6809 3.44335 19.9977 4.20506 20 5V6Z" fill="#A03626" style="fill:#A03626;fill:color(display-p3 0.6275 0.2118 0.1490);fill-opacity:1;"/>
<path d="M5 3H4C3.73478 3 3.48043 3.10536 3.29289 3.29289C3.10536 3.48043 3 3.73478 3 4C3 4.26522 3.10536 4.51957 3.29289 4.70711C3.48043 4.89464 3.73478 5 4 5H5C5.26522 5 5.51957 4.89464 5.70711 4.70711C5.89464 4.51957 6 4.26522 6 4C6 3.73478 5.89464 3.48043 5.70711 3.29289C5.51957 3.10536 5.26522 3 5 3Z" fill="#A03626" style="fill:#A03626;fill:color(display-p3 0.6275 0.2118 0.1490);fill-opacity:1;"/>
<path d="M9 3H8C7.73478 3 7.48043 3.10536 7.29289 3.29289C7.10536 3.48043 7 3.73478 7 4C7 4.26522 7.10536 4.51957 7.29289 4.70711C7.48043 4.89464 7.73478 5 8 5H9C9.26522 5 9.51957 4.89464 9.70711 4.70711C9.89464 4.51957 10 4.26522 10 4C10 3.73478 9.89464 3.48043 9.70711 3.29289C9.51957 3.10536 9.26522 3 9 3Z" fill="#A03626" style="fill:#A03626;fill:color(display-p3 0.6275 0.2118 0.1490);fill-opacity:1;"/>
<path d="M13 3H12C11.7348 3 11.4804 3.10536 11.2929 3.29289C11.1054 3.48043 11 3.73478 11 4C11 4.26522 11.1054 4.51957 11.2929 4.70711C11.4804 4.89464 11.7348 5 12 5H13C13.2652 5 13.5196 4.89464 13.7071 4.70711C13.8946 4.51957 14 4.26522 14 4C14 3.73478 13.8946 3.48043 13.7071 3.29289C13.5196 3.10536 13.2652 3 13 3Z" fill="#A03626" style="fill:#A03626;fill:color(display-p3 0.6275 0.2118 0.1490);fill-opacity:1;"/>
<path d="M4 11H6C6.26522 11 6.51957 10.8946 6.70711 10.7071C6.89464 10.5196 7 10.2652 7 10C7 9.73478 6.89464 9.48043 6.70711 9.29289C6.51957 9.10536 6.26522 9 6 9H4C3.73478 9 3.48043 9.10536 3.29289 9.29289C3.10536 9.48043 3 9.73478 3 10C3 10.2652 3.10536 10.5196 3.29289 10.7071C3.48043 10.8946 3.73478 11 4 11Z" fill="#A03626" style="fill:#A03626;fill:color(display-p3 0.6275 0.2118 0.1490);fill-opacity:1;"/>
<path d="M4 14H6C6.26522 14 6.51957 13.8946 6.70711 13.7071C6.89464 13.5196 7 13.2652 7 13C7 12.7348 6.89464 12.4804 6.70711 12.2929C6.51957 12.1054 6.26522 12 6 12H4C3.73478 12 3.48043 12.1054 3.29289 12.2929C3.10536 12.4804 3 12.7348 3 13C3 13.2652 3.10536 13.5196 3.29289 13.7071C3.48043 13.8946 3.73478 14 4 14Z" fill="#A03626" style="fill:#A03626;fill:color(display-p3 0.6275 0.2118 0.1490);fill-opacity:1;"/>
<path d="M4 17H6C6.26522 17 6.51957 16.8946 6.70711 16.7071C6.89464 16.5196 7 16.2652 7 16C7 15.7348 6.89464 15.4804 6.70711 15.2929C6.51957 15.1054 6.26522 15 6 15H4C3.73478 15 3.48043 15.1054 3.29289 15.2929C3.10536 15.4804 3 15.7348 3 16C3 16.2652 3.10536 16.5196 3.29289 16.7071C3.48043 16.8946 3.73478 17 4 17Z" fill="#A03626" style="fill:#A03626;fill:color(display-p3 0.6275 0.2118 0.1490);fill-opacity:1;"/>
</svg>
