<svg width="24" height="22" viewBox="0 0 24 22" fill="none" xmlns="http://www.w3.org/2000/svg">
<path d="M7.55001 7.89249L11.55 9.89249C11.689 9.96476 11.8434 10.0025 12 10.0025C12.1567 10.0025 12.311 9.96476 12.45 9.89249L16.45 7.89249C16.6158 7.8105 16.7552 7.68361 16.8525 7.52627C16.9497 7.36893 17.0008 7.18745 17 7.00249V3.00249C17.0008 2.81753 16.9497 2.63606 16.8525 2.47872C16.7552 2.32138 16.6158 2.19449 16.45 2.11249L12.45 0.112493C12.3115 0.0386342 12.157 0 12 0C11.8431 0 11.6885 0.0386342 11.55 0.112493L7.55001 2.11249C7.38422 2.19449 7.24477 2.32138 7.14754 2.47872C7.0503 2.63606 6.99919 2.81753 7.00001 3.00249V7.00249C6.99919 7.18745 7.0503 7.36893 7.14754 7.52627C7.24477 7.68361 7.38422 7.8105 7.55001 7.89249ZM15 6.38249L13 7.38249V5.62249L15 4.62249V6.38249ZM9.00001 4.62249L11 5.62249V7.38249L9.00001 6.38249V4.62249Z" fill="#060054" style="fill:#060054;fill:color(display-p3 0.0235 0.0000 0.3294);fill-opacity:1;"/>
<path d="M10 17.0025V13.0025C10.0008 12.8175 9.94972 12.6361 9.85248 12.4787C9.75525 12.3214 9.6158 12.1945 9.45001 12.1125L5.45001 10.1125C5.31151 10.0386 5.15697 10 5.00001 10C4.84305 10 4.6885 10.0386 4.55001 10.1125L0.55001 12.1125C0.384217 12.1945 0.244769 12.3214 0.147536 12.4787C0.0503025 12.6361 -0.000811727 12.8175 9.74792e-06 13.0025V17.0025C-0.000811727 17.1875 0.0503025 17.3689 0.147536 17.5263C0.244769 17.6836 0.384217 17.8105 0.55001 17.8925L4.55001 19.8925C4.689 19.9648 4.84335 20.0025 5.00001 20.0025C5.15667 20.0025 5.31102 19.9648 5.45001 19.8925L9.45001 17.8925C9.6158 17.8105 9.75525 17.6836 9.85248 17.5263C9.94972 17.3689 10.0008 17.1875 10 17.0025ZM4.00001 17.3825L2.00001 16.3825V14.6225L4.00001 15.6225V17.3825ZM8.00001 16.3825L6.00001 17.3825V15.6225L8.00001 14.6225V16.3825Z" fill="#060054" style="fill:#060054;fill:color(display-p3 0.0235 0.0000 0.3294);fill-opacity:1;"/>
<path d="M23.45 12.1125L19.45 10.1125C19.3115 10.0386 19.157 10 19 10C18.8431 10 18.6885 10.0386 18.55 10.1125L14.55 12.1125C14.3842 12.1945 14.2448 12.3214 14.1475 12.4787C14.0503 12.6361 13.9992 12.8175 14 13.0025V17.0025C13.9992 17.1875 14.0503 17.3689 14.1475 17.5263C14.2448 17.6836 14.3842 17.8105 14.55 17.8925L18.55 19.8925C18.689 19.9648 18.8434 20.0025 19 20.0025C19.1567 20.0025 19.311 19.9648 19.45 19.8925L23.45 17.8925C23.6158 17.8105 23.7552 17.6836 23.8525 17.5263C23.9497 17.3689 24.0008 17.1875 24 17.0025V13.0025C24.0008 12.8175 23.9497 12.6361 23.8525 12.4787C23.7552 12.3214 23.6158 12.1945 23.45 12.1125ZM18 17.3825L16 16.3825V14.6225L18 15.6225V17.3825ZM22 16.3825L20 17.3825V15.6225L22 14.6225V16.3825Z" fill="#060054" style="fill:#060054;fill:color(display-p3 0.0235 0.0000 0.3294);fill-opacity:1;"/>
<path d="M2.15838 8.95716C2.28366 8.99655 2.41548 9.01087 2.54629 8.99932C2.67711 8.98776 2.80437 8.95055 2.92081 8.88981C3.03724 8.82907 3.14057 8.746 3.2249 8.64532C3.30923 8.54465 3.3729 8.42835 3.41228 8.30306C3.71755 7.33063 4.1867 6.4175 4.79948 5.60306C4.88035 5.49825 4.93961 5.37843 4.97381 5.25054C5.00801 5.12265 5.01648 4.98924 4.99872 4.85806C4.98096 4.72687 4.93734 4.60052 4.87037 4.48632C4.8034 4.37213 4.71442 4.27237 4.6086 4.19282C4.50278 4.11328 4.38222 4.05554 4.25391 4.02296C4.1256 3.99037 3.9921 3.98358 3.86115 4.00299C3.73019 4.0224 3.6044 4.06762 3.49106 4.13602C3.37772 4.20442 3.27908 4.29465 3.20088 4.40146C2.45122 5.39723 1.87735 6.51386 1.50408 7.70306C1.46467 7.82837 1.45033 7.96021 1.46188 8.09106C1.47344 8.22191 1.51066 8.3492 1.57142 8.46566C1.63218 8.58213 1.71529 8.68547 1.816 8.76981C1.91672 8.85414 2.03306 8.9178 2.15838 8.95716Z" fill="#060054" style="fill:#060054;fill:color(display-p3 0.0235 0.0000 0.3294);fill-opacity:1;"/>
<path d="M13.8017 19.8217C12.6129 20.062 11.388 20.062 10.1991 19.8217C9.93909 19.769 9.66876 19.8218 9.44761 19.9684C9.33812 20.041 9.24399 20.1344 9.17061 20.2434C9.09722 20.3524 9.04602 20.4747 9.01993 20.6035C8.99384 20.7323 8.99336 20.8649 9.01853 20.9938C9.0437 21.1228 9.09401 21.2455 9.16661 21.355C9.31323 21.5762 9.54169 21.73 9.80173 21.7827C11.2529 22.0756 12.748 22.0756 14.1991 21.7827C14.3279 21.7566 14.4503 21.7054 14.5592 21.632C14.6682 21.5586 14.7617 21.4645 14.8343 21.355C14.9068 21.2455 14.9572 21.1228 14.9823 20.9938C15.0075 20.8649 15.007 20.7323 14.9809 20.6035C14.9548 20.4747 14.9036 20.3524 14.8303 20.2434C14.7569 20.1344 14.6627 20.041 14.5532 19.9684C14.4437 19.8958 14.321 19.8455 14.1921 19.8203C14.0631 19.7951 13.9305 19.7956 13.8017 19.8217Z" fill="#060054" style="fill:#060054;fill:color(display-p3 0.0235 0.0000 0.3294);fill-opacity:1;"/>
<path d="M20.5877 8.30197C20.6673 8.55501 20.8441 8.76608 21.0793 8.88875C21.3145 9.01142 21.5888 9.03563 21.8418 8.95607C22.0949 8.8765 22.3059 8.69967 22.4286 8.46449C22.5513 8.2293 22.5755 7.95501 22.4959 7.70197C22.1227 6.51269 21.5488 5.396 20.7991 4.40017C20.7206 4.29429 20.6218 4.20499 20.5086 4.13742C20.3954 4.06985 20.2699 4.02533 20.1395 4.00642C20.009 3.98752 19.876 3.99461 19.7483 4.02728C19.6206 4.05995 19.5006 4.11755 19.3952 4.19678C19.2898 4.27601 19.2011 4.37529 19.1342 4.48892C19.0674 4.60255 19.0236 4.72828 19.0056 4.85888C18.9875 4.98948 18.9954 5.12237 19.0288 5.24989C19.0623 5.37742 19.1207 5.49708 19.2005 5.60197C19.8133 6.4164 20.2825 7.32954 20.5877 8.30197Z" fill="#060054" style="fill:#060054;fill:color(display-p3 0.0235 0.0000 0.3294);fill-opacity:1;"/>
</svg>
