<svg width="23" height="23" viewBox="0 0 23 23" fill="none" xmlns="http://www.w3.org/2000/svg">
<path d="M19.0145 16.0911C18.3671 16.0927 17.7382 16.307 17.2245 16.7011L13.3245 14.1011C13.7786 13.1626 14.0145 12.1336 14.0145 11.0911C14.0145 10.0485 13.7786 9.0195 13.3245 8.08106L17.2245 5.48106C17.7382 5.87513 18.3671 6.08946 19.0145 6.09106C19.6522 6.10056 20.2768 5.90965 20.8001 5.54525C21.3235 5.18085 21.7193 4.66135 21.9317 4.06001C22.1441 3.45867 22.1624 2.80583 21.9839 2.19356C21.8055 1.58128 21.4394 1.04047 20.9372 0.647372C20.435 0.254278 19.8221 0.0287411 19.1849 0.00256715C18.5477 -0.0236068 17.9183 0.150903 17.3856 0.501486C16.8528 0.852069 16.4436 1.36104 16.2155 1.95661C15.9875 2.55219 15.9522 3.20433 16.1145 3.82106L12.2145 6.42106C11.269 5.36528 10.0252 4.62138 8.64775 4.28776C7.27028 3.95414 5.82399 4.04651 4.50016 4.55266C3.17632 5.0588 2.03731 5.95487 1.23377 7.12237C0.430222 8.28986 0 9.67377 0 11.0911C0 12.5084 0.430222 13.8923 1.23377 15.0598C2.03731 16.2273 3.17632 17.1233 4.50016 17.6295C5.82399 18.1356 7.27028 18.228 8.64775 17.8944C10.0252 17.5607 11.269 16.8168 12.2145 15.7611L16.1145 18.3611C15.9636 18.9662 16.0054 19.6034 16.2341 20.1836C16.4629 20.7639 16.867 21.2582 17.3902 21.5977C17.9135 21.9371 18.5296 22.1047 19.1527 22.0771C19.7758 22.0495 20.3747 21.828 20.8658 21.4436C21.3569 21.0591 21.7158 20.531 21.8922 19.9327C22.0687 19.3345 22.0539 18.6962 21.85 18.1067C21.6462 17.5173 21.2634 17.0062 20.755 16.6449C20.2467 16.2835 19.6382 16.0899 19.0145 16.0911ZM2.11451 12.0911H4.06451C4.17802 13.3304 4.50271 14.5412 5.02451 15.6711C4.28863 15.3504 3.64036 14.8579 3.13404 14.235C2.62772 13.6121 2.27811 12.8769 2.11451 12.0911ZM4.06451 10.0911H2.11451C2.27811 9.30519 2.62772 8.56999 3.13404 7.9471C3.64036 7.3242 4.28863 6.83176 5.02451 6.51106C4.50616 7.64217 4.18164 8.85237 4.06451 10.0911ZM7.01451 15.1911C6.5211 14.2211 6.20287 13.1717 6.07451 12.0911H7.95451C7.82614 13.1717 7.50792 14.2211 7.01451 15.1911ZM6.07451 10.0911C6.19954 9.00657 6.51791 7.95325 7.01451 6.98106C7.51111 7.95325 7.82947 9.00657 7.95451 10.0911H6.07451ZM9.00451 15.6711C9.52631 14.5412 9.85099 13.3304 9.96451 12.0911H11.9145C11.7527 12.8777 11.4038 13.6137 10.8972 14.2369C10.3907 14.86 9.74146 15.352 9.00451 15.6711ZM9.96451 10.0911C9.84738 8.85237 9.52286 7.64217 9.00451 6.51106C9.74038 6.83176 10.3887 7.3242 10.895 7.9471C11.4013 8.56999 11.7509 9.30519 11.9145 10.0911H9.96451Z" fill="#DD355D" style="fill:#DD355D;fill:color(display-p3 0.8667 0.2078 0.3647);fill-opacity:1;"/>
</svg>
