<svg width="22" height="24" viewBox="0 0 22 24" fill="none" xmlns="http://www.w3.org/2000/svg">
<path d="M5 8C5.26522 8 5.51957 7.89464 5.70711 7.70711C5.89464 7.51957 6 7.26522 6 7C6 5.67392 6.52678 4.40215 7.46447 3.46447C8.40215 2.52678 9.67392 2 11 2C12.3261 2 13.5979 2.52678 14.5355 3.46447C15.4732 4.40215 16 5.67392 16 7C16 7.26522 16.1054 7.51957 16.2929 7.70711C16.4804 7.89464 16.7348 8 17 8C17.2652 8 17.5196 7.89464 17.7071 7.70711C17.8946 7.51957 18 7.26522 18 7C18 5.14348 17.2625 3.36301 15.9497 2.05025C14.637 0.737498 12.8565 0 11 0C9.14348 0 7.36301 0.737498 6.05025 2.05025C4.7375 3.36301 4 5.14348 4 7C4 7.26522 4.10536 7.51957 4.29289 7.70711C4.48043 7.89464 4.73478 8 5 8Z" fill="#6FC3B6" style="fill:#6FC3B6;fill:color(display-p3 0.4353 0.7647 0.7137);fill-opacity:1;"/>
<path d="M19.0003 7.00022C19.0003 7.26544 19.1056 7.51979 19.2932 7.70733C19.4807 7.89486 19.735 8.00022 20.0003 8.00022C20.2655 8.00022 20.5198 7.89486 20.7074 7.70733C20.8949 7.51979 21.0003 7.26544 21.0003 7.00022C21.0021 4.53766 20.0914 2.16176 18.4441 0.331321C18.3562 0.233664 18.25 0.154264 18.1315 0.0976557C18.013 0.0410473 17.8844 0.00833879 17.7533 0.00139761C17.6221 -0.00554357 17.4909 0.0134186 17.367 0.0572013C17.2432 0.100984 17.1292 0.16873 17.0315 0.256571C16.9339 0.344413 16.8545 0.450629 16.7979 0.569155C16.7412 0.687682 16.7085 0.816198 16.7016 0.947365C16.6947 1.07853 16.7136 1.20978 16.7574 1.33362C16.8012 1.45746 16.8689 1.57146 16.9568 1.66912C18.2739 3.13223 19.0019 5.0316 19.0003 7.00022Z" fill="#6FC3B6" style="fill:#6FC3B6;fill:color(display-p3 0.4353 0.7647 0.7137);fill-opacity:1;"/>
<path d="M2 8.00022C2.26522 8.00022 2.51957 7.89487 2.70711 7.70733C2.89465 7.51979 3 7.26544 3 7.00022C2.99834 5.0316 3.7264 3.13223 5.0435 1.66912C5.22091 1.47189 5.3127 1.21227 5.29868 0.947366C5.28466 0.682462 5.16598 0.433976 4.96875 0.256573C4.77152 0.0791693 4.5119 -0.0126195 4.247 0.00139889C3.98209 0.0154172 3.73361 0.134094 3.5562 0.331323C1.90887 2.16176 0.998184 4.53766 1 7.00022C1 7.26544 1.10536 7.51979 1.2929 7.70733C1.48043 7.89487 1.73479 8.00022 2 8.00022Z" fill="#6FC3B6" style="fill:#6FC3B6;fill:color(display-p3 0.4353 0.7647 0.7137);fill-opacity:1;"/>
<path d="M17.0001 11H15.0001V7C15.0001 5.93913 14.5787 4.92172 13.8285 4.17157C13.0784 3.42143 12.061 3 11.0001 3C9.93925 3 8.92184 3.42143 8.17169 4.17157C7.42155 4.92172 7.00012 5.93913 7.00012 7V12.85L6.23012 12.32C5.6306 11.9082 4.92966 11.6687 4.20353 11.6275C3.47739 11.5863 2.75385 11.7449 2.11156 12.0861C1.46928 12.4274 0.932844 12.9382 0.560579 13.563C0.188314 14.1878 -0.005531 14.9027 0.000120119 15.63C0.00123602 16.2037 0.125974 16.7704 0.365838 17.2916C0.605703 17.8127 0.955061 18.276 1.39012 18.65L6.23012 22.8C7.13659 23.5732 8.28866 23.9986 9.48012 24H17.0001C18.3261 23.9995 19.5975 23.4726 20.5351 22.535C21.4727 21.5974 21.9996 20.3259 22.0001 19V16C21.9996 14.6741 21.4727 13.4026 20.5351 12.465C19.5975 11.5274 18.3261 11.0005 17.0001 11ZM17.0001 17H13.0001C12.7349 17 12.4805 16.8946 12.293 16.7071C12.1055 16.5196 12.0001 16.2652 12.0001 16C12.0001 15.7348 12.1055 15.4804 12.293 15.2929C12.4805 15.1054 12.7349 15 13.0001 15H17.0001C17.2653 15 17.5197 15.1054 17.7072 15.2929C17.8948 15.4804 18.0001 15.7348 18.0001 16C18.0001 16.2652 17.8948 16.5196 17.7072 16.7071C17.5197 16.8946 17.2653 17 17.0001 17Z" fill="#6FC3B6" style="fill:#6FC3B6;fill:color(display-p3 0.4353 0.7647 0.7137);fill-opacity:1;"/>
</svg>
