<svg width="79" height="78" viewBox="0 0 79 78" fill="none" xmlns="http://www.w3.org/2000/svg">
<path fill-rule="evenodd" clip-rule="evenodd" d="M39.8587 77.997H39.8673L39.8672 78H39.8752C44.1202 77.9501 45.3999 74.9566 46.0417 72.3521C46.0853 72.175 46.3139 71.5189 47.4331 70.5087C49.4829 68.6451 52.7521 67.1724 54.9961 67.0802C55.1618 67.1294 55.3428 67.1781 55.5365 67.228L55.5479 67.231C56.1787 67.3972 56.959 67.6029 57.3543 67.9093C58.7083 69.0439 60.0138 69.5946 61.3449 69.5946C63.625 69.5946 65.3023 67.9838 66.9238 66.4265L66.9264 66.424L67.0227 66.3317C70.4552 63.0758 69.2243 59.9704 67.7711 57.6329C66.8599 56.1608 66.9522 53.6233 68.0049 51.1701C69.1302 48.549 71.0173 46.6723 72.9043 46.2769C75.8567 45.7136 77.5065 44.1991 77.9414 41.6857C78.0056 41.3625 78.0491 41.029 78.0738 40.5872L78.0698 37.3667C77.9197 35.2114 77.1982 32.6247 72.9302 31.7302C69.7761 31.073 67.2319 26.589 67.1499 23.1696C67.1213 22.0733 67.3344 21.1272 67.7774 20.4172C69.3051 17.9038 70.41 14.8987 66.9906 11.637L66.987 11.6335C65.3516 10.0656 63.6618 8.44566 61.3376 8.44566C60.008 8.44566 58.7101 8.98085 57.3509 10.0949C56.9578 10.4261 56.2547 10.6072 55.6346 10.7665C55.4037 10.8266 55.1842 10.8845 54.9876 10.9435C51.5386 10.7779 46.545 7.58426 46.0408 5.64343C45.3501 2.85262 44.0706 0.00064481 39.8151 0.00064481C39.6725 0.00064481 39.5275 0.00293698 39.4455 0.00809434L38.7269 0.0092405C34.0469 -0.191884 32.7014 2.92826 32.0275 5.65085C31.5679 7.55266 26.5028 10.775 23.0834 10.9417C22.8857 10.8815 22.6662 10.8237 22.4353 10.7646C21.8152 10.6059 21.1126 10.4248 20.7046 10.0781C19.3619 8.97783 18.068 8.44376 16.7471 8.44376C14.4819 8.44376 12.8147 10.009 11.2032 11.522L11.2018 11.5233L11.0339 11.6814C7.68899 14.9403 8.78234 17.9246 10.3061 20.4329C11.2058 21.8666 11.1198 24.3605 10.0878 26.7867C8.98019 29.3912 7.03584 31.3299 5.1333 31.7276C0.875618 32.622 0.155296 35.2087 0 37.4717L0.0040112 40.6952C0.147923 42.6951 0.83961 45.4497 5.13452 46.2685C7.04 46.6662 8.92813 48.5343 10.0639 51.1412C11.1372 53.6053 11.2501 56.1576 10.3774 57.604C8.87026 59.9392 7.58547 63.0417 11.1258 66.402L11.1267 66.4029C12.7527 67.9698 14.4344 69.5903 16.7238 69.5903C18.0573 69.5903 19.3633 69.0397 20.6813 67.936C21.1111 67.5974 21.8996 67.3905 22.5322 67.2249C22.7271 67.1744 22.911 67.1257 23.0778 67.0759C26.6948 67.2123 31.6063 70.5921 32.031 72.3531C32.6819 74.9806 33.9821 77.997 38.2937 77.997C38.4352 77.997 38.5802 77.993 38.661 77.9879L39.3275 77.9856C39.5108 77.9959 39.6959 77.997 39.8587 77.997ZM39.7315 74.8857C39.6477 74.8853 39.5483 74.8848 39.4128 74.8779L38.596 74.8778C36.5078 74.9854 35.7158 74.2805 35.0545 71.6119C34.1383 67.8161 27.186 63.9601 22.859 63.9601H22.6034L22.3622 64.0409C22.2066 64.0926 22.0209 64.1411 21.8193 64.1937C21.7951 64.2 21.7707 64.2064 21.7462 64.2128L21.7434 64.2135C20.8802 64.4404 19.6977 64.7511 18.7234 65.5194C17.9636 66.156 17.2926 66.4781 16.7276 66.4781C15.6932 66.4781 14.5776 65.4036 13.2876 64.1612L13.1936 64.0713C11.6132 62.5711 11.5696 61.4977 13.0189 59.2503C14.4641 56.8562 14.4268 53.3611 12.9186 49.8976C11.3627 46.3282 8.69292 43.8326 5.7469 43.2177C3.44557 42.777 3.20834 41.8441 3.11321 40.5822L3.1092 37.58C3.20896 36.1588 3.43751 35.262 5.77385 34.7715C8.72851 34.1531 11.4127 31.6232 12.953 28.0044C14.4148 24.5684 14.4108 21.1204 12.9553 18.7996C11.5473 16.4812 11.5984 15.476 13.1851 13.9293L13.3329 13.7918C14.6114 12.5907 15.7157 11.5546 16.75 11.5546C17.315 11.5546 17.9838 11.8675 18.7127 12.4646C19.6445 13.2594 20.8112 13.5597 21.665 13.7781C21.7033 13.7879 21.7411 13.7975 21.7785 13.8071C21.9798 13.8583 22.1657 13.9056 22.3194 13.9631L22.5853 14.0617L22.869 14.0606C27.196 14.0337 34.1431 10.1582 35.0531 6.39215C35.6834 3.84847 36.4112 3.11269 38.2954 3.11269C38.3928 3.11269 38.4931 3.11384 38.6639 3.12014L39.516 3.11899C41.5967 3.01982 42.3543 3.68114 43.0293 6.40887C44.0075 10.1726 50.9401 14.0338 55.2093 14.0607L55.493 14.0618L55.7588 13.9633C55.9152 13.9048 56.1036 13.8568 56.3089 13.8046C56.3429 13.7959 56.3773 13.7871 56.4121 13.7782C57.2608 13.5599 58.4224 13.2607 59.3415 12.4843C60.0945 11.8682 60.7661 11.5548 61.3386 11.5548C62.4131 11.5548 63.5913 12.6843 64.88 13.9203C66.4914 15.4565 66.5413 16.4606 65.1293 18.7837C64.3729 19.9957 63.997 21.5372 64.0394 23.242C64.1557 28.0029 67.5012 33.7711 72.2941 34.7699C74.6378 35.2604 74.8665 36.1578 74.9627 37.4695L74.965 40.4849C74.9536 40.6878 74.9289 40.8832 74.8842 41.1101C74.7318 41.9921 74.4207 42.8161 72.2953 43.2218C69.3613 43.8356 66.6886 46.3473 65.1482 49.939C63.6629 53.3967 63.6549 56.8832 65.1288 59.2671C66.515 61.4967 66.4599 62.5753 64.8772 64.0783L64.7746 64.1769C63.4882 65.4135 62.3777 66.4799 61.3485 66.4799C60.7846 66.4799 60.1147 66.159 59.3124 65.4874C58.3687 64.7505 57.1905 64.4411 56.3303 64.2153C56.0994 64.1562 55.8885 64.1012 55.7155 64.0434L55.4742 63.9626H55.2186C51.7998 63.9626 47.663 66.0972 45.3474 68.2008C44.0792 69.3447 43.2958 70.4908 43.0225 71.6076C42.4006 74.1244 41.6896 74.8625 39.8478 74.8871C39.8112 74.8861 39.7733 74.886 39.7315 74.8857Z" fill="#BBE2FA" style="fill:#BBE2FA;fill:color(display-p3 0.7333 0.8863 0.9804);fill-opacity:1;"/>
<path fill-rule="evenodd" clip-rule="evenodd" d="M61.335 37.5228L61.3287 37.3818C61.0949 34.8341 60.4531 32.382 59.4228 30.0973C55.8212 22.0977 47.833 16.8812 39.0492 16.8057C27.3723 16.9019 17.7808 25.7732 16.7407 37.4404L16.7344 37.5097L16.7367 40.5366L16.743 40.6752C17.4346 48.3436 21.9439 55.0592 28.8066 58.6415C32.0064 60.309 35.4545 61.1675 39.0681 61.1921H39.0859C40.9843 61.1767 42.8531 60.924 44.6334 60.4437C53.7688 58.0319 60.4784 50.0642 61.3322 40.6217L61.3385 40.5513L61.335 37.5228ZM56.5754 31.3804C57.4544 33.3287 58.0051 35.4197 58.212 37.5967V38.2449H51.057L51.0427 37.8993C50.9166 34.6749 50.4318 31.7225 49.5573 28.8744L49.4599 28.5535L53.7652 26.9128C54.885 28.252 55.8391 29.7464 56.5754 31.3802L56.5754 31.3804ZM48.0599 49.1162L48.151 48.8068L48.1511 48.8068C48.9831 46.011 49.449 43.0896 49.5373 40.1223L49.5487 39.7527H39.7984V48.0022L40.8872 48.0882C43.2194 48.2177 45.3453 48.5128 47.4015 48.9942L48.0599 49.1162ZM49.3349 51.009C49.4427 51.04 49.5481 51.0721 49.6507 51.1116L50.4208 51.3953C51.1371 51.656 51.9188 51.9511 52.6815 52.2783C50.9061 54.0817 48.7739 55.539 46.3929 56.544C47.0514 55.3171 47.6238 54.1515 48.108 53.0037L48.5905 52.0089C48.7114 51.7614 48.8077 51.4955 48.8999 51.2348L49.0117 50.9179L49.3349 51.009ZM30.6446 50.8978C31.397 52.9814 32.3327 54.9538 33.5046 56.9308L33.5047 56.9308C33.5545 57.0139 33.5837 57.1079 33.5941 57.2087C35.1166 57.6723 36.6862 57.9457 38.2947 58.0202V49.4881L37.9291 49.4944C35.637 49.5351 33.3367 49.8423 30.899 50.4262L30.5088 50.5202L30.6446 50.8978ZM33.5969 20.7504C35.0937 20.3011 36.6713 20.0456 38.2946 19.9699V28.5122L37.929 28.5059C35.6311 28.4624 33.3326 28.1581 30.8989 27.573L30.5087 27.479L30.6445 27.1014C31.3992 25.0143 32.3339 23.0425 33.5045 21.0723C33.5635 20.972 33.5905 20.8609 33.5968 20.7503L33.5969 20.7504ZM37.132 29.9053C34.8817 29.7873 32.7792 29.4956 30.6944 29.0131L30.0132 28.8881L29.9221 29.1947C29.0929 31.9849 28.6253 34.9069 28.533 37.877L28.5215 38.2466H38.2747V29.9993L37.132 29.9053ZM38.2759 39.7531V48.0004L37.1464 48.0926C34.8875 48.2107 32.7718 48.5046 30.6664 48.9912L30.0143 49.1144L29.9232 48.8066C29.0928 46.0148 28.6269 43.0945 28.5341 40.1244L28.5226 39.7548L38.2758 39.7542L38.2759 39.7531ZM44.4831 20.7615C42.9726 20.302 41.3938 20.0361 39.7801 19.9604L39.7801 28.5108L40.1457 28.5045C42.443 28.4609 44.7421 28.1555 47.1759 27.5715L47.5661 27.4776L47.4303 27.0999C46.6757 25.013 45.7398 23.0411 44.5702 21.0681C44.5175 20.981 44.4923 20.8693 44.4831 20.7615ZM39.7996 38.245V29.9966L40.874 29.9117C43.2104 29.7822 45.3334 29.4883 47.3769 29.0109L48.0623 28.8826L48.1534 29.192C48.9855 31.9931 49.4496 34.9145 49.5396 37.8759L49.5511 38.2455L39.7996 38.245ZM50.4186 26.6053C51.1361 26.3434 51.9291 26.0443 52.6879 25.7182L52.6878 25.7182C50.8908 23.8994 48.7476 22.4593 46.3981 21.4651C47.0485 22.6765 47.621 23.8461 48.1218 25.0231L48.5888 25.987C48.7109 26.2426 48.8083 26.5056 48.8983 26.7635L49.01 27.0844L49.3349 26.9904C49.4415 26.9606 49.543 26.9262 49.6444 26.8901L50.4186 26.6053ZM31.6864 21.445C31.0291 22.6685 30.4526 23.8415 29.9575 25.0145L29.4853 25.9898C29.3696 26.2322 29.275 26.4804 29.1748 26.7623L29.0642 27.0757L28.7433 26.9886C28.6355 26.9588 28.5301 26.9256 28.4287 26.8883L27.5828 26.5766C26.8448 26.3056 26.109 26.0271 25.3932 25.7193C27.1794 23.9045 29.3088 22.4421 31.6863 21.445L31.6864 21.445ZM28.613 28.5519L24.3118 26.9129L24.3117 26.913C21.8604 29.8579 20.2386 33.5443 19.8587 37.6467V38.2438L27.016 38.2433L27.0303 37.8977C27.1604 34.6593 27.6452 31.707 28.5156 28.8728L28.613 28.5519ZM19.8616 40.4631V39.7531H27.0177L27.032 40.0987C27.1604 43.3387 27.6457 46.291 28.5173 49.1252L28.6148 49.4461L24.2992 51.0902C21.8098 48.1213 20.2352 44.4445 19.8615 40.4631L19.8616 40.4631ZM27.6555 51.3904C26.9765 51.638 26.1559 51.9411 25.3731 52.2775C26.7788 53.6981 28.4165 54.9152 30.2509 55.871C30.6392 56.0729 31.0377 56.2412 31.4365 56.4096L31.4367 56.4096C31.5121 56.4415 31.5875 56.4733 31.6628 56.5054C31.0136 55.2935 30.4411 54.1267 29.9443 52.9509L29.4858 52.0076C29.3672 51.7601 29.2675 51.4993 29.1724 51.23L29.0606 50.9131L28.7374 51.0054C28.6297 51.0363 28.5254 51.0695 28.428 51.1068L27.6555 51.3904ZM39.7793 58.0406V49.4857L40.145 49.492C42.4389 49.5344 44.738 49.8398 47.1751 50.4238L47.5653 50.5177L47.4295 50.8954C46.6737 52.9853 45.7391 54.9582 44.5695 56.926C44.5167 57.0149 44.4898 57.1278 44.4772 57.2263C44.3966 57.2506 44.3166 57.2762 44.2366 57.3019C44.1012 57.3454 43.9659 57.3888 43.8279 57.4252C42.5214 57.7776 41.1615 57.9782 39.7793 58.0406ZM49.4603 49.4433L53.7593 51.081L53.7593 51.0811C56.2313 48.1174 57.837 44.4205 58.2135 40.4076V39.7503H51.0574L51.0431 40.0958C50.9159 43.3203 50.4305 46.2738 49.5577 49.1224L49.4603 49.4433Z" fill="#070058" style="fill:#070058;fill:color(display-p3 0.0275 0.0000 0.3451);fill-opacity:1;"/>
</svg>
