<svg width="24" height="20" viewBox="0 0 24 20" fill="none" xmlns="http://www.w3.org/2000/svg">
<path d="M23 18.0063H11.45L12.76 17.5663C13.4997 17.3233 14.1713 16.9087 14.72 16.3563L22.54 8.54632C23.4789 7.60745 24.0063 6.33407 24.0063 5.00632C24.0063 3.67856 23.4789 2.40518 22.54 1.46632C21.6011 0.52745 20.3278 0 19 0C17.6722 0 16.3989 0.52745 15.46 1.46632L13.34 3.58632V3.59632L7.65 9.28632C7.09763 9.83499 6.68299 10.5066 6.44 11.2463L4.93 15.7663C4.80998 16.139 4.77552 16.5339 4.82919 16.9217C4.88286 17.3095 5.02328 17.6803 5.24 18.0063H1C0.734784 18.0063 0.48043 18.1117 0.292893 18.2992C0.105357 18.4867 0 18.7411 0 19.0063C0 19.2715 0.105357 19.5259 0.292893 19.7134C0.48043 19.901 0.734784 20.0063 1 20.0063H23C23.2652 20.0063 23.5196 19.901 23.7071 19.7134C23.8946 19.5259 24 19.2715 24 19.0063C24 18.7411 23.8946 18.4867 23.7071 18.2992C23.5196 18.1117 23.2652 18.0063 23 18.0063ZM16.88 2.88632C17.1584 2.60791 17.4889 2.38707 17.8527 2.2364C18.2164 2.08573 18.6063 2.00818 19 2.00818C19.3937 2.00818 19.7836 2.08573 20.1473 2.2364C20.5111 2.38707 20.8416 2.60791 21.12 2.88632C21.3984 3.16472 21.6192 3.49523 21.7699 3.85898C21.9206 4.22273 21.9981 4.6126 21.9981 5.00632C21.9981 5.40004 21.9206 5.7899 21.7699 6.15365C21.6192 6.5174 21.3984 6.84791 21.12 7.12632L19.71 8.54632L15.46 4.29632L16.88 2.88632ZM11.293 11.2993L13.293 9.29932C13.4816 9.11716 13.7342 9.01636 13.9964 9.01864C14.2586 9.02092 14.5094 9.12609 14.6948 9.3115C14.8802 9.49691 14.9854 9.74772 14.9877 10.0099C14.99 10.2721 14.8892 10.5247 14.707 10.7133L12.707 12.7133C12.5184 12.8955 12.2658 12.9963 12.0036 12.994C11.7414 12.9917 11.4906 12.8865 11.3052 12.7011C11.1198 12.5157 11.0146 12.2649 11.0123 12.0027C11.01 11.7405 11.1108 11.4879 11.293 11.2993Z" fill="#E5614D" style="fill:#E5614D;fill:color(display-p3 0.8980 0.3804 0.3020);fill-opacity:1;"/>
</svg>
