<svg width="14" height="14" viewBox="0 0 14 14" fill="none" xmlns="http://www.w3.org/2000/svg">
<g opacity="0.8">
<path d="M9.79991 4.58105C10.9139 4.58105 11.9822 5.01772 12.7698 5.79507C13.5574 6.57242 14 7.62671 14 8.72606V13.5619H11.1999V8.72606C11.1999 8.35961 11.0525 8.00821 10.7899 7.74904C10.5273 7.48995 10.1713 7.34435 9.79991 7.34435C9.42865 7.34435 9.07253 7.48995 8.81003 7.74904C8.54744 8.00821 8.39991 8.35961 8.39991 8.72606V13.5619H5.59991V8.72606C5.59991 7.62671 6.0424 6.57242 6.83008 5.79507C7.61775 5.01772 8.68604 4.58105 9.79991 4.58105Z" fill="white"/>
<path d="M2.80002 5.27246H0V13.5625H2.80002V5.27246Z" fill="white"/>
<path d="M1.40001 3.20084C2.17321 3.20084 2.80002 2.58224 2.80002 1.81917C2.80002 1.05609 2.17321 0.4375 1.40001 0.4375C0.626806 0.4375 0 1.05609 0 1.81917C0 2.58224 0.626806 3.20084 1.40001 3.20084Z" fill="white"/>
</g>
</svg>
