<svg width="15" height="16" viewBox="0 0 15 16" fill="none" xmlns="http://www.w3.org/2000/svg">
<g opacity="0.8">
<path fill-rule="evenodd" clip-rule="evenodd" d="M10.8 15.5C13.1185 15.4974 14.9974 13.6185 15 11.3V4.7C14.9974 2.38149 13.1185 0.502626 10.8 0.5H4.2C1.88149 0.502626 0.0026258 2.38149 0 4.7V11.3C0.0026258 13.6185 1.88149 15.4974 4.2 15.5H10.8ZM7.5 10.4C8.82548 10.4 9.9 9.32548 9.9 8C9.89848 6.67515 8.82485 5.60152 7.5 5.6C6.17452 5.6 5.1 6.67452 5.1 8C5.1 9.32548 6.17452 10.4 7.5 10.4ZM11.1 8C11.1 6.01178 9.48822 4.4 7.5 4.4C5.51178 4.4 3.9 6.01178 3.9 8C3.9 9.98822 5.51178 11.6 7.5 11.6C9.48729 11.5978 11.0978 9.98729 11.1 8ZM11.4 3.2C11.8971 3.2 12.3 3.60294 12.3 4.1C12.3 4.59706 11.8971 5 11.4 5C10.9029 5 10.5 4.59706 10.5 4.1C10.5 3.60294 10.9029 3.2 11.4 3.2Z" fill="white"/>
</g>
</svg>
