<svg width="14" height="14" viewBox="0 0 14 14" fill="none" xmlns="http://www.w3.org/2000/svg">
<path id="Vector" opacity="0.8" d="M13.2125 8.88415L12.32 7.99749C11.9919 7.66977 11.5471 7.4857 11.0833 7.4857C10.6196 7.4857 10.1748 7.66977 9.84667 7.99749L9.45 8.39416C9.37018 8.47658 9.2673 8.53294 9.15487 8.55585C9.04244 8.57875 8.92571 8.56712 8.82 8.52249C8.07893 8.19834 7.40445 7.73946 6.83084 7.16916C6.26333 6.60462 5.80806 5.93755 5.48918 5.20333C5.44087 5.09529 5.42617 4.97522 5.44697 4.85871C5.46778 4.7422 5.52313 4.63464 5.60585 4.55L6.00251 4.15333C6.33023 3.82521 6.5143 3.38042 6.5143 2.91667C6.5143 2.45292 6.33023 2.00813 6.00251 1.68L5.11585 0.787506C4.60913 0.283148 3.92329 0 3.20835 0C2.49341 0 1.80757 0.283148 1.30086 0.787506L0.700023 1.39417C0.34879 1.7472 0.115816 2.20056 0.0332696 2.69166C-0.049277 3.18276 0.0226749 3.68737 0.239191 4.13583C1.26043 6.21366 2.61628 8.10949 4.25252 9.74749C5.89051 11.3837 7.78634 12.7396 9.86417 13.7608C10.3126 13.9773 10.8172 14.0493 11.3083 13.9667C11.7994 13.8842 12.2528 13.6512 12.6058 13.3L13.2125 12.6991C13.7169 12.1924 14 11.5066 14 10.7916C14 10.0767 13.7169 9.39087 13.2125 8.88415ZM11.9738 10.9472C11.8645 11.0566 11.7158 11.1184 11.5612 11.1185C11.4066 11.1186 11.2583 11.0573 11.1488 10.948L10.6711 10.4711C10.5617 10.3618 10.5002 10.2135 10.5 10.0588C10.4999 9.90412 10.5611 9.75571 10.6703 9.64616C10.7797 9.53684 10.9283 9.47498 11.0829 9.4749C11.2375 9.47483 11.3858 9.53613 11.4953 9.64534L11.973 10.1223C12.0824 10.2316 12.1439 10.3799 12.1441 10.5346C12.1442 10.6892 12.083 10.8377 11.9738 10.9472Z" fill="white"/>
</svg>
