<svg width="14" height="14" viewBox="0 0 14 14" fill="none" xmlns="http://www.w3.org/2000/svg">
<g id="Group 107" opacity="0.8">
<path id="Vector" d="M9.41062 0.0399993C8.42977 -0.0151735 7.44654 -0.013268 6.46591 0.0457061C5.36857 0.125919 4.33851 0.604905 3.57002 1.39232C2.80153 2.17973 2.34774 3.22114 2.29424 4.3201C1.60087 4.71561 1.02384 5.28667 0.621135 5.97588C0.218429 6.66509 0.00424133 7.44816 0.000101241 8.24639V12.1384C-0.00344367 12.4468 0.0861783 12.749 0.25724 13.0056C0.428302 13.2622 0.672836 13.4612 0.958845 13.5765C1.15286 13.6551 1.36014 13.6958 1.56947 13.6964C1.98076 13.6953 2.37483 13.5311 2.66518 13.2398C2.85689 13.0548 3.08767 12.9152 3.34052 12.8313C3.59337 12.7473 3.86183 12.7212 4.12612 12.7548C4.13183 12.7548 4.18319 12.7605 4.1889 12.7605C5.16762 12.8194 6.14895 12.8213 7.1279 12.7662C8.03372 12.7128 8.90306 12.3905 9.6248 11.8406C10.3465 11.2906 10.8879 10.538 11.1797 9.67879C11.3931 9.85499 11.6511 9.96854 11.9252 10.0068C12.1992 10.0451 12.4785 10.0066 12.732 9.89565C13.0191 9.78128 13.2649 9.58271 13.437 9.32603C13.6092 9.06934 13.6996 8.76658 13.6964 8.45754V4.5655C13.6916 3.40757 13.2457 2.295 12.4495 1.45426C11.6533 0.613512 10.5666 0.107779 9.41062 0.0399993ZM5.42157 3.1388C5.70374 3.1388 5.97958 3.22247 6.2142 3.37924C6.44882 3.53601 6.63168 3.75883 6.73967 4.01952C6.84765 4.28022 6.8759 4.56708 6.82086 4.84383C6.76581 5.12059 6.62993 5.3748 6.4304 5.57433C6.23087 5.77385 5.97666 5.90974 5.6999 5.96478C5.42315 6.01983 5.13629 5.99158 4.87559 5.8836C4.6149 5.77561 4.39208 5.59275 4.23531 5.35813C4.07854 5.12351 3.99487 4.84767 3.99487 4.5655C3.99532 4.18725 4.14578 3.82463 4.41324 3.55717C4.6807 3.28971 5.04332 3.13925 5.42157 3.1388ZM10.2724 4.5655C10.2724 4.84767 10.1887 5.12351 10.0319 5.35813C9.87514 5.59275 9.65232 5.77561 9.39163 5.8836C9.13093 5.99158 8.84407 6.01983 8.56732 5.96478C8.29056 5.90974 8.03635 5.77385 7.83682 5.57433C7.63729 5.3748 7.50141 5.12059 7.44636 4.84383C7.39131 4.56708 7.41957 4.28022 7.52755 4.01952C7.63553 3.75883 7.8184 3.53601 8.05302 3.37924C8.28764 3.22247 8.56348 3.1388 8.84565 3.1388C9.2239 3.13925 9.58652 3.28971 9.85398 3.55717C10.1214 3.82463 10.2719 4.18725 10.2724 4.5655ZM7.05942 11.6248C6.11847 11.6771 5.17529 11.6752 4.23455 11.6191L4.17748 11.6134C3.75515 11.5724 3.32894 11.6241 2.92872 11.7651C2.52849 11.9061 2.16392 12.1328 1.86052 12.4295C1.80253 12.4909 1.72684 12.5327 1.64399 12.549C1.56114 12.5654 1.47525 12.5555 1.39827 12.5208C1.32108 12.4916 1.25489 12.4391 1.20887 12.3706C1.16286 12.3021 1.1393 12.2209 1.14146 12.1384V8.24639C1.14414 7.74133 1.25922 7.2432 1.47835 6.78815C1.69749 6.3331 2.01518 5.93255 2.40837 5.61555C2.63996 6.56309 3.16873 7.41164 3.91732 8.037C4.66591 8.66236 5.59501 9.03171 6.56864 9.09099C7.54949 9.14617 8.53272 9.14426 9.51335 9.08529L9.62178 9.07387C9.79942 9.06214 9.97784 9.07365 10.1525 9.10811C9.96798 9.80007 9.56952 10.416 9.01403 10.868C8.45854 11.32 7.77444 11.5848 7.05942 11.6248Z" fill="white"/>
<path id="Vector_2" d="M5.42145 4.85095C5.57904 4.85095 5.70679 4.7232 5.70679 4.56561C5.70679 4.40802 5.57904 4.28027 5.42145 4.28027C5.26386 4.28027 5.13611 4.40802 5.13611 4.56561C5.13611 4.7232 5.26386 4.85095 5.42145 4.85095Z" fill="white"/>
<path id="Vector_3" d="M8.84555 4.85095C9.00314 4.85095 9.13089 4.7232 9.13089 4.56561C9.13089 4.40802 9.00314 4.28027 8.84555 4.28027C8.68796 4.28027 8.56021 4.40802 8.56021 4.56561C8.56021 4.7232 8.68796 4.85095 8.84555 4.85095Z" fill="white"/>
</g>
</svg>
