<svg width="10" height="14" viewBox="0 0 10 14" fill="none" xmlns="http://www.w3.org/2000/svg">
<path id="Vector" opacity="0.8" d="M5 0C3.67456 0.00209832 2.40398 0.555895 1.46675 1.54001C0.52952 2.52412 0.00210481 3.85826 0.000106445 5.25C-0.00481412 6.22426 0.1609 7.19116 0.488985 8.1025C0.824694 9.0437 1.24706 9.94826 1.75007 10.8033C2.28967 11.73 2.92094 12.5942 3.63336 13.3817C3.8091 13.5769 4.02095 13.7325 4.25594 13.8388C4.49093 13.9452 4.74412 14 5 14C5.25588 14 5.50907 13.9452 5.74406 13.8388C5.97905 13.7325 6.1909 13.5769 6.36664 13.3817C7.07906 12.5942 7.71033 11.73 8.24993 10.8033C8.75294 9.94826 9.17531 9.0437 9.51101 8.1025C9.8391 7.19116 10.0048 6.22426 9.99989 5.25C9.99789 3.85826 9.47048 2.52412 8.53325 1.54001C7.59602 0.555895 6.32544 0.00209832 5 0ZM5 3.5C5.32963 3.5 5.65185 3.60263 5.92593 3.79493C6.20001 3.98722 6.41362 4.26053 6.53977 4.5803C6.66591 4.90007 6.69892 5.25194 6.63461 5.5914C6.5703 5.93087 6.41157 6.24269 6.17849 6.48743C5.9454 6.73218 5.64844 6.89885 5.32514 6.96637C5.00185 7.03389 4.66674 6.99924 4.36221 6.86679C4.05767 6.73433 3.79738 6.51003 3.61425 6.22224C3.43112 5.93446 3.33337 5.59611 3.33337 5.25C3.33466 4.78628 3.51066 4.34195 3.82294 4.01406C4.13521 3.68616 4.55838 3.50135 5 3.5Z" fill="white"/>
</svg>
