<svg width="14" height="11" viewBox="0 0 14 11" fill="none" xmlns="http://www.w3.org/2000/svg">
<path id="Vector" opacity="0.8" d="M11.4275 0.286477C8.47538 -0.0954923 5.48962 -0.0954923 2.5375 0.286477C1.83489 0.381674 1.18953 0.742072 0.722395 1.30012C0.255259 1.85816 -0.0015843 2.57555 7.35345e-06 3.3178V7.67532C0.00182758 8.4231 0.264253 9.14443 0.737966 9.70376C1.21168 10.2631 1.86406 10.6219 2.5725 10.7128C4.04135 10.9032 5.51995 10.9991 7 11C8.49167 10.9989 9.98191 10.903 11.4625 10.7128C12.1651 10.6176 12.8105 10.2572 13.2776 9.69912C13.7447 9.14107 14.0016 8.42369 14 7.68144V3.32391C13.9982 2.57614 13.7357 1.85481 13.262 1.29548C12.7883 0.736152 12.1359 0.37734 11.4275 0.286477ZM5.43398 5.18005L3.0198 3.57069C2.88927 3.48364 2.79709 3.34582 2.76354 3.18755C2.72999 3.02929 2.75783 2.86354 2.84093 2.72678C2.92402 2.59002 3.05557 2.49344 3.20663 2.4583C3.35769 2.42315 3.51588 2.45232 3.64642 2.53937L6.06083 4.14897C6.34181 4.33549 6.6676 4.43453 7.00023 4.43453C7.33287 4.43453 7.65865 4.33549 7.93963 4.14897L10.3536 2.53937C10.4841 2.45232 10.6423 2.42315 10.7934 2.4583C10.9444 2.49344 11.076 2.59002 11.1591 2.72678C11.2422 2.86354 11.27 3.02929 11.2365 3.18755C11.2029 3.34582 11.1107 3.48364 10.9802 3.57069L8.56602 5.18005C8.09753 5.49075 7.55446 5.6557 7 5.6557C6.44554 5.6557 5.90247 5.49075 5.43398 5.18005Z" fill="white"/>
</svg>
