<svg width="19" height="19" viewBox="0 0 19 19" fill="none" xmlns="http://www.w3.org/2000/svg">
<path fill-rule="evenodd" clip-rule="evenodd" d="M18.4862 3.37107C18.4881 2.27154 17.9512 1.2408 17.0492 0.612252C16.147 -0.0164356 14.9942 -0.163011 13.9632 0.219633C12.9325 0.602276 12.1547 1.46577 11.8812 2.53069H9.12508C8.84864 1.43891 8.04255 0.558664 6.97918 0.187437C5.91581 -0.183826 4.73705 0.00356989 3.84121 0.686296C2.94523 1.36886 2.45188 2.45575 2.52769 3.57948C2.60338 4.7032 3.23813 5.71399 4.21752 6.27022L3.40242 9.26172C3.38864 9.25806 3.37457 9.25525 3.3605 9.25328C2.5471 9.25342 1.76143 9.54856 1.14906 10.084C0.536683 10.6192 0.13913 11.3585 0.0302608 12.1645C-0.0786224 12.9706 0.108479 13.7887 0.556814 14.4673C1.00515 15.146 1.68447 15.639 2.46863 15.8551C3.25275 16.0711 4.08866 15.9954 4.82132 15.6421C5.55397 15.2889 6.13358 14.6819 6.45291 13.9337L9.29318 15.6396H9.29304C9.4658 16.7992 10.2314 17.7846 11.3123 18.2385C12.3933 18.6923 13.6328 18.5488 14.5815 17.86C15.5302 17.1713 16.0506 16.0371 15.9538 14.8687C15.857 13.7004 15.1572 12.6672 14.1081 12.1439L15.2677 6.71559V6.71573C16.1316 6.67999 16.9485 6.31241 17.5481 5.68934C18.1476 5.06627 18.4836 4.23587 18.4861 3.37126L18.4862 3.37107ZM9.12518 4.21133H11.8813C11.9272 4.38254 11.9833 4.55093 12.0494 4.71552L8.99068 7.11885L8.22597 5.77439V5.77425C8.66123 5.34392 8.97184 4.80387 9.12518 4.21133ZM5.02447 9.71545C5.15264 9.78593 5.27616 9.86457 5.39419 9.9508L7.65472 8.16928L6.76396 6.5979C6.47697 6.68146 6.18029 6.72662 5.88163 6.73239C5.86742 6.73042 5.85335 6.72761 5.83957 6.72395L5.02447 9.71545ZM9.51161 13.8161L6.67148 12.1103C6.63279 11.8206 6.55359 11.5377 6.43612 11.27L8.50322 9.64815L10.2595 12.7321L10.2596 12.7322C9.94167 13.041 9.68745 13.4093 9.5116 13.8162L9.51161 13.8161ZM13.0914 6.03477L9.83939 8.59778L11.7301 11.9085C11.968 11.8394 12.2136 11.7999 12.4612 11.7907V11.7909L13.6208 6.36255C13.4348 6.26942 13.2577 6.15969 13.0914 6.03477Z" fill="#3571E7" style="fill:#3571E7;fill:color(display-p3 0.2078 0.4431 0.9059);fill-opacity:1;"/>
</svg>
