<svg width="22" height="21" viewBox="0 0 22 21" fill="none" xmlns="http://www.w3.org/2000/svg">
<path d="M21.82 8.56965C21.7485 8.15917 21.551 7.78147 21.2551 7.48952C20.9592 7.19757 20.5797 7.00602 20.17 6.94174C19.8846 6.88989 19.6136 6.7769 19.3754 6.61044C19.1373 6.44399 18.9376 6.22796 18.79 5.97706C18.6462 5.7244 18.5599 5.44284 18.5375 5.15265C18.515 4.86247 18.5568 4.57089 18.66 4.29891C18.8027 3.90165 18.8208 3.46995 18.7117 3.06205C18.6026 2.65416 18.3717 2.2897 18.05 2.01784C17.077 1.19737 15.9663 0.55765 14.77 0.128665C14.3792 -0.0188924 13.9523 -0.0401054 13.5489 0.0679889C13.1455 0.176083 12.7858 0.408086 12.52 0.731592C12.3292 0.947259 12.0951 1.11988 11.8331 1.23808C11.5711 1.35628 11.2872 1.4174 11 1.4174C10.7128 1.4174 10.4289 1.35628 10.1669 1.23808C9.90492 1.11988 9.67082 0.947259 9.48 0.731592C9.2142 0.408086 8.85449 0.176083 8.4511 0.0679889C8.04772 -0.0401054 7.6208 -0.0188924 7.23 0.128665C6.03165 0.559814 4.91804 1.19927 3.94 2.01784C3.62153 2.29201 3.39358 2.65704 3.28642 3.06446C3.17925 3.47188 3.19794 3.90242 3.34 4.29891C3.44316 4.57089 3.48501 4.86247 3.46253 5.15265C3.44005 5.44284 3.35381 5.7244 3.21 5.97706C3.06235 6.22796 2.86269 6.44399 2.62456 6.61044C2.38644 6.7769 2.11545 6.88989 1.83 6.94174C1.42027 7.00602 1.04084 7.19757 0.744934 7.48952C0.449024 7.78147 0.251477 8.15917 0.18 8.56965C-0.06 9.84459 -0.06 11.1534 0.18 12.4284C0.251477 12.8389 0.449024 13.2166 0.744934 13.5085C1.04084 13.8005 1.42027 13.992 1.83 14.0563C2.11545 14.1081 2.38644 14.2211 2.62456 14.3876C2.86269 14.554 3.06235 14.7701 3.21 15.021C3.35381 15.2736 3.44005 15.5552 3.46253 15.8454C3.48501 16.1356 3.44316 16.4271 3.34 16.6991C3.19727 17.0964 3.17922 17.5281 3.2883 17.936C3.39738 18.3439 3.62833 18.7083 3.95 18.9802C4.92301 19.8007 6.03369 20.4404 7.23 20.8694C7.45322 20.9563 7.69061 21.0006 7.93 21C8.22598 20.9988 8.51811 20.9325 8.78588 20.8058C9.05365 20.6791 9.29057 20.495 9.48 20.2664C9.67082 20.0508 9.90492 19.8781 10.1669 19.7599C10.4289 19.6417 10.7128 19.5806 11 19.5806C11.2872 19.5806 11.5711 19.6417 11.8331 19.7599C12.0951 19.8781 12.3292 20.0508 12.52 20.2664C12.7858 20.5899 13.1455 20.8219 13.5489 20.93C13.9523 21.0381 14.3792 21.0169 14.77 20.8694C15.9663 20.4404 17.077 19.8007 18.05 18.9802C18.3717 18.7083 18.6026 18.3439 18.7117 17.936C18.8208 17.5281 18.8027 17.0964 18.66 16.6991C18.5568 16.4271 18.515 16.1356 18.5375 15.8454C18.5599 15.5552 18.6462 15.2736 18.79 15.021C18.9376 14.7701 19.1373 14.554 19.3754 14.3876C19.6136 14.2211 19.8846 14.1081 20.17 14.0563C20.5797 13.992 20.9592 13.8005 21.2551 13.5085C21.551 13.2166 21.7485 12.8389 21.82 12.4284C22.06 11.1534 22.06 9.84459 21.82 8.56965ZM11 15.5234C10.0111 15.5234 9.04439 15.2287 8.22215 14.6766C7.3999 14.1246 6.75904 13.3399 6.3806 12.4218C6.00216 11.5037 5.90315 10.4934 6.09607 9.5188C6.289 8.54417 6.7652 7.6489 7.46447 6.94623C8.16373 6.24356 9.05464 5.76503 10.0245 5.57116C10.9945 5.37729 11.9998 5.47679 12.9134 5.85708C13.827 6.23736 14.6079 6.88135 15.1573 7.70761C15.7068 8.53387 16 9.50528 16 10.499C15.9984 11.8311 15.4712 13.1081 14.5338 14.0501C13.5965 14.992 12.3256 15.5218 11 15.5234Z" fill="#060054" style="fill:#060054;fill:color(display-p3 0.0235 0.0000 0.3294);fill-opacity:1;"/>
<path d="M11 13.5136C12.6569 13.5136 14 12.1639 14 10.499C14 8.83407 12.6569 7.48438 11 7.48438C9.34315 7.48438 8 8.83407 8 10.499C8 12.1639 9.34315 13.5136 11 13.5136Z" fill="#060054" style="fill:#060054;fill:color(display-p3 0.0235 0.0000 0.3294);fill-opacity:1;"/>
</svg>
