<svg width="75" height="75" viewBox="0 0 75 75" fill="none" xmlns="http://www.w3.org/2000/svg">
<path fill-rule="evenodd" clip-rule="evenodd" d="M34.209 50.1463C34.209 51.6974 35.4709 52.9604 37.0231 52.9604C38.5753 52.9604 39.8372 51.6969 39.8372 50.1463C39.8372 48.5941 38.5753 47.3311 37.0231 47.3311C35.472 47.3311 34.209 48.5929 34.209 50.1463ZM35.431 50.145C35.431 49.2661 36.1452 48.5513 37.0231 48.5513C37.901 48.5513 38.6152 49.266 38.6152 50.145C38.6152 51.024 37.901 51.7371 37.0231 51.7371C36.1457 51.7371 35.431 51.0239 35.431 50.145Z" fill="#070058" style="fill:#070058;fill:color(display-p3 0.0275 0.0000 0.3451);fill-opacity:1;"/>
<path fill-rule="evenodd" clip-rule="evenodd" d="M32.2136 46.119C32.4233 43.7181 32.9004 41.4464 33.6336 39.3684L33.6858 39.2417C34.5245 37.2842 35.6871 35.3125 36.9731 33.665C38.259 35.2998 39.4279 37.2725 40.2755 39.2328L40.3383 39.3859C41.0727 41.455 41.5525 43.7163 41.7684 46.1112C42.1675 50.3908 42.2919 54.5874 42.3609 58.1258C42.3989 60.3284 42.9399 62.009 44.1166 63.5809C45.6627 65.6298 46.2906 68.143 45.9828 71.0535C45.8825 72.0396 45.7356 73.0351 45.5887 74.0235C45.4116 74.0212 45.2333 74.0184 45.0539 74.0122C45.0266 73.8313 45.0023 73.6509 44.978 73.4698C44.9679 73.3946 44.9578 73.3192 44.9474 73.2437C44.8622 72.6119 44.7753 71.979 44.6385 71.336C44.4603 70.5444 44.1738 69.8353 43.8588 69.0566C43.4305 68.0145 43.1215 67.964 37.2573 67.964C30.6334 67.964 30.5907 68.07 30.1473 69.1709L30.1473 69.171L30.139 69.1918C29.8669 69.872 29.5855 70.5755 29.4079 71.3746C29.277 71.9976 29.1931 72.6289 29.1095 73.258L29.108 73.2694C29.0994 73.3338 29.0908 73.3983 29.0823 73.4629C29.057 73.6537 29.0318 73.8446 29.0037 74.034C28.8266 74.039 28.6483 74.0441 28.4689 74.0463C28.3181 73.0581 28.169 72.0636 28.0659 71.0702C27.7508 68.1668 28.3725 65.6527 29.9158 63.5947C31.0863 62.0252 31.6211 60.3433 31.6536 58.1436C31.7136 54.6012 31.8268 50.4035 32.2136 46.119Z" fill="#070058" style="fill:#070058;fill:color(display-p3 0.0275 0.0000 0.3451);fill-opacity:1;"/>
<path d="M31.5096 6.23535C32.9548 6.23535 34.2896 7.56003 34.3227 9.02707C34.3665 10.5592 33.0205 11.9276 31.4772 11.9276C29.9894 11.9276 28.6855 10.6354 28.6529 9.15881C28.6204 7.61549 29.9664 6.24712 31.5096 6.23535Z" fill="#070058" style="fill:#070058;fill:color(display-p3 0.0275 0.0000 0.3451);fill-opacity:1;"/>
<path d="M21.7214 6.24721C23.2647 6.29094 24.4475 7.53937 24.4363 9.10394C24.4251 10.691 23.2546 11.9068 21.6776 11.917C20.0905 11.9282 18.8421 10.6361 18.8859 9.00477C18.9083 7.47265 20.233 6.20301 21.7214 6.24721Z" fill="#070058" style="fill:#070058;fill:color(display-p3 0.0275 0.0000 0.3451);fill-opacity:1;"/>
<path d="M11.8724 6.2473C13.3389 6.25851 14.6753 7.58207 14.6967 9.05021C14.7292 10.5609 13.3619 11.9293 11.8176 11.9181C10.3399 11.9181 9.02588 10.6159 9.00449 9.13818C8.97142 7.60434 10.3393 6.21415 11.8724 6.24716V6.2473Z" fill="#070058" style="fill:#070058;fill:color(display-p3 0.0275 0.0000 0.3451);fill-opacity:1;"/>
<path fill-rule="evenodd" clip-rule="evenodd" d="M9.05739 0H65.0022L65.002 0.000550651C69.9902 0.000550651 74.0472 4.0698 74.05 9.04502V56.4222C74.05 61.4088 69.9913 65.4545 65.0049 65.4545H50.9235C50.6656 64.465 50.3119 63.5232 49.8472 62.619H65.0033C68.4134 62.619 71.2001 59.8329 71.2001 56.4222V17.0156H65.2842C64.6485 17.0156 64.135 16.5021 64.135 15.8793V11.2707L51.9119 11.2584L51.9483 15.9158C51.9483 16.5386 51.4836 17.0156 50.8484 17.0156H2.84699V56.4222C2.84699 59.8323 5.63368 62.619 9.0567 62.619H24.1899C23.7381 63.5233 23.3714 64.4651 23.1265 65.4545H9.05739C4.06982 65.4545 0 61.4098 0 56.4222V9.04505C0 4.06982 4.07097 0 9.05739 0ZM65.4059 15.804L71.1995 15.7675L71.2008 15.7675V9.04435C71.2008 5.63425 68.4146 2.84755 65.004 2.84755H9.05776C5.63475 2.84755 2.84806 5.63367 2.84806 9.04435V15.7563H50.6888V11.1478C50.6888 10.5126 51.2028 9.98624 51.838 9.98624H64.1955C64.8683 9.98624 65.4059 10.5367 65.4059 11.2083V15.804Z" fill="#BBE2FA" style="fill:#BBE2FA;fill:color(display-p3 0.7333 0.8863 0.9804);fill-opacity:1;"/>
</svg>
