<svg width="22" height="21" viewBox="0 0 22 21" fill="none" xmlns="http://www.w3.org/2000/svg">
<path d="M18 5.72727H20C20.53 5.72579 21.0378 5.52417 21.4125 5.16647C21.7872 4.80877 21.9984 4.32405 22 3.81818V1.90909C21.9984 1.40323 21.7872 0.918503 21.4125 0.560801C21.0378 0.203099 20.53 0.00148574 20 0H18C17.47 0.00148574 16.9622 0.203099 16.5875 0.560801C16.2128 0.918503 16.0016 1.40323 16 1.90909V3.81818C16.0005 4.11416 16.0759 4.40563 16.22 4.66773L15 6.10909L13.78 4.66773C13.9241 4.40563 13.9995 4.11416 14 3.81818V1.90909C13.9984 1.40323 13.7872 0.918503 13.4125 0.560801C13.0378 0.203099 12.53 0.00148574 12 0H10C9.47005 0.00148574 8.96224 0.203099 8.58751 0.560801C8.21277 0.918503 8.00156 1.40323 8 1.90909V3.81818C8.00046 4.11416 8.07594 4.40563 8.22 4.66773L7 6.10909L5.78 4.66773C5.92406 4.40563 5.99954 4.11416 6 3.81818V1.90909C5.99844 1.40323 5.78723 0.918503 5.41249 0.560801C5.03776 0.203099 4.52995 0.00148574 4 0H2C1.47005 0.00148574 0.962242 0.203099 0.587506 0.560801C0.21277 0.918503 0.00155649 1.40323 0 1.90909V3.81818C0.00155649 4.32405 0.21277 4.80877 0.587506 5.16647C0.962242 5.52417 1.47005 5.72579 2 5.72727H4C4.04 5.72727 4.07 5.71773 4.11 5.71773L4.92 6.69136C4.40486 6.70984 3.9172 6.91795 3.55927 7.27207C3.20133 7.6262 3.0009 8.09883 3 8.59091V12.4091C3.0009 12.9012 3.20133 13.3738 3.55927 13.7279C3.9172 14.082 4.40486 14.2902 4.92 14.3086L4.11 15.2823C4.07 15.2823 4.04 15.2727 4 15.2727H2C1.47005 15.2742 0.962242 15.4758 0.587506 15.8335C0.21277 16.1912 0.00155649 16.676 0 17.1818V19.0909C0.00155649 19.5968 0.21277 20.0815 0.587506 20.4392C0.962242 20.7969 1.47005 20.9985 2 21H4C4.52995 20.9985 5.03776 20.7969 5.41249 20.4392C5.78723 20.0815 5.99844 19.5968 6 19.0909V17.1818C5.99954 16.8858 5.92406 16.5944 5.78 16.3323L7 14.8909L8.22 16.3323C8.07594 16.5944 8.00046 16.8858 8 17.1818V19.0909C8.00156 19.5968 8.21277 20.0815 8.58751 20.4392C8.96224 20.7969 9.47005 20.9985 10 21H12C12.53 20.9985 13.0378 20.7969 13.4125 20.4392C13.7872 20.0815 13.9984 19.5968 14 19.0909V17.1818C13.9995 16.8858 13.9241 16.5944 13.78 16.3323L15 14.8909L16.22 16.3323C16.0759 16.5944 16.0005 16.8858 16 17.1818V19.0909C16.0016 19.5968 16.2128 20.0815 16.5875 20.4392C16.9622 20.7969 17.47 20.9985 18 21H20C20.53 20.9985 21.0378 20.7969 21.4125 20.4392C21.7872 20.0815 21.9984 19.5968 22 19.0909V17.1818C21.9984 16.676 21.7872 16.1912 21.4125 15.8335C21.0378 15.4758 20.53 15.2742 20 15.2727H18C17.96 15.2727 17.93 15.2823 17.89 15.2823L17.08 14.3086C17.5951 14.2902 18.0828 14.082 18.4407 13.7279C18.7987 13.3738 18.9991 12.9012 19 12.4091V8.59091C18.9991 8.09883 18.7987 7.6262 18.4407 7.27207C18.0828 6.91795 17.5951 6.70984 17.08 6.69136L17.89 5.71773C17.93 5.71773 17.96 5.72727 18 5.72727ZM18 1.90909H20V3.81818H18V1.90909ZM4 3.81818H2V1.90909H4V3.81818ZM4 19.0909H2V17.1818H4V19.0909ZM18 17.1818H20V19.0909H18V17.1818ZM12.11 15.2823C12.07 15.2823 12.04 15.2727 12 15.2727H10C9.96 15.2727 9.93 15.2823 9.89 15.2823L9.08 14.3086C9.59515 14.2902 10.0828 14.082 10.4407 13.7279C10.7987 13.3738 10.9991 12.9012 11 12.4091C11.0009 12.9012 11.2013 13.3738 11.5593 13.7279C11.9172 14.082 12.4049 14.2902 12.92 14.3086L12.11 15.2823ZM11 8.59091C10.9991 8.09883 10.7987 7.6262 10.4407 7.27207C10.0828 6.91795 9.59515 6.70984 9.08 6.69136L9.89 5.71773C9.93 5.71773 9.96 5.72727 10 5.72727H12C12.04 5.72727 12.07 5.71773 12.11 5.71773L12.92 6.69136C12.4049 6.70984 11.9172 6.91795 11.5593 7.27207C11.2013 7.6262 11.0009 8.09883 11 8.59091Z" fill="#6FC3B6" style="fill:#6FC3B6;fill:color(display-p3 0.4353 0.7647 0.7137);fill-opacity:1;"/>
</svg>
