<svg width="22" height="22" viewBox="0 0 22 22" fill="none" xmlns="http://www.w3.org/2000/svg">
<path d="M19.15 3.855C18.2042 3.71554 17.2822 3.44634 16.41 3.055C15.2546 2.53712 14.2039 1.8118 13.31 0.915001C12.6845 0.327216 11.8584 0 11 0C10.1416 0 9.31555 0.327216 8.69 0.915001C7.79614 1.8118 6.74544 2.53712 5.59 3.055C4.71778 3.44634 3.79577 3.71554 2.85 3.855C2.05976 3.96307 1.3355 4.35397 0.811448 4.95525C0.287399 5.55653 -0.00089397 6.3274 2.08251e-06 7.125V10.965C2.08251e-06 13.8824 1.15893 16.6803 3.22183 18.7432C5.28473 20.8061 8.08262 21.965 11 21.965C13.9174 21.965 16.7153 20.8061 18.7782 18.7432C20.8411 16.6803 22 13.8824 22 10.965V7.125C22.0009 6.3274 21.7126 5.55653 21.1886 4.95525C20.6645 4.35397 19.9402 3.96307 19.15 3.855ZM11 17.965C9.81331 17.965 8.65328 17.6131 7.66658 16.9538C6.67989 16.2945 5.91085 15.3575 5.45672 14.2611C5.0026 13.1647 4.88378 11.9583 5.11529 10.7945C5.3468 9.63057 5.91825 8.56147 6.75736 7.72236C7.59648 6.88324 8.66557 6.3118 9.82946 6.08029C10.9933 5.84878 12.1997 5.9676 13.2961 6.42172C14.3925 6.87585 15.3295 7.64488 15.9888 8.63158C16.6481 9.61827 17 10.7783 17 11.965C16.9983 13.5558 16.3656 15.0809 15.2407 16.2057C14.1159 17.3306 12.5908 17.9633 11 17.965Z" fill="#DD355D" style="fill:#DD355D;fill:color(display-p3 0.8667 0.2078 0.3647);fill-opacity:1;"/>
<path d="M11 7.96484C10.2089 7.96484 9.43552 8.19944 8.77772 8.63897C8.11993 9.07849 7.60723 9.70321 7.30448 10.4341C7.00173 11.165 6.92252 11.9693 7.07686 12.7452C7.2312 13.5211 7.61216 14.2339 8.17157 14.7933C8.73098 15.3527 9.44372 15.7336 10.2196 15.888C10.9956 16.0423 11.7998 15.9631 12.5307 15.6604C13.2616 15.3576 13.8864 14.8449 14.3259 14.1871C14.7654 13.5293 15 12.756 15 11.9648C14.9989 10.9043 14.5771 9.88755 13.8272 9.13764C13.0773 8.38774 12.0605 7.96596 11 7.96484ZM12.707 12.2576C12.8932 12.4455 12.9974 12.6994 12.9968 12.9638C12.9962 13.2283 12.8909 13.4818 12.7039 13.6688C12.5169 13.8558 12.2635 13.9611 11.999 13.9616C11.7345 13.9622 11.4806 13.858 11.2928 13.6718L11 13.379L10.7072 13.6718C10.5194 13.858 10.2655 13.9622 10.001 13.9616C9.73655 13.9611 9.48309 13.8558 9.29609 13.6688C9.10909 13.4818 9.00378 13.2283 9.0032 12.9638C9.00262 12.6994 9.10682 12.4455 9.293 12.2576L9.5858 11.9648L9.293 11.672C9.10682 11.4842 9.00262 11.2303 9.0032 10.9659C9.00378 10.7014 9.10909 10.4479 9.29609 10.2609C9.48309 10.0739 9.73655 9.96862 10.001 9.96804C10.2655 9.96746 10.5194 10.0717 10.7072 10.2578L11 10.5506L11.2928 10.2578C11.4806 10.0717 11.7345 9.96746 11.999 9.96804C12.2635 9.96862 12.5169 10.0739 12.7039 10.2609C12.8909 10.4479 12.9962 10.7014 12.9968 10.9659C12.9974 11.2303 12.8932 11.4842 12.707 11.672L12.4142 11.9648L12.707 12.2576Z" fill="#DD355D" style="fill:#DD355D;fill:color(display-p3 0.8667 0.2078 0.3647);fill-opacity:1;"/>
</svg>
