<svg width="22" height="22" viewBox="0 0 22 22" fill="none" xmlns="http://www.w3.org/2000/svg">
<path d="M22 11V5C21.9995 3.67406 21.4726 2.40257 20.535 1.46499C19.5974 0.527415 18.3259 0.000477079 17 0H5C3.67406 0.000477079 2.40257 0.527415 1.46499 1.46499C0.527415 2.40257 0.000477079 3.67406 0 5V11C0.000477079 12.3259 0.527415 13.5974 1.46499 14.535C2.40257 15.4726 3.67406 15.9995 5 16H10.59L15.71 21.12C15.9868 21.4006 16.317 21.6231 16.6811 21.7742C17.0452 21.9253 17.4358 22.0021 17.83 22H18.17C18.5642 22.0021 18.9548 21.9253 19.3189 21.7742C19.683 21.6231 20.0132 21.4006 20.29 21.12L21.12 20.29C21.4006 20.0132 21.6231 19.683 21.7742 19.3189C21.9253 18.9548 22.0021 18.5642 22 18.17V17.83C22.0021 17.4358 21.9253 17.0452 21.7742 16.6811C21.6231 16.317 21.4006 15.9868 21.12 15.71L20.22 14.81C20.7768 14.3434 21.2247 13.7605 21.5322 13.1023C21.8397 12.4441 21.9994 11.7265 22 11ZM5 9H4C3.73478 9 3.48043 8.89464 3.29289 8.70711C3.10536 8.51957 3 8.26522 3 8C3 7.73478 3.10536 7.48043 3.29289 7.29289C3.48043 7.10536 3.73478 7 4 7H5C5.26522 7 5.51957 7.10536 5.70711 7.29289C5.89464 7.48043 6 7.73478 6 8C6 8.26522 5.89464 8.51957 5.70711 8.70711C5.51957 8.89464 5.26522 9 5 9ZM7 6H4C3.73478 6 3.48043 5.89464 3.29289 5.70711C3.10536 5.51957 3 5.26522 3 5C3 4.73478 3.10536 4.48043 3.29289 4.29289C3.48043 4.10536 3.73478 4 4 4H7C7.26522 4 7.51957 4.10536 7.70711 4.29289C7.89464 4.48043 8 4.73478 8 5C8 5.26522 7.89464 5.51957 7.70711 5.70711C7.51957 5.89464 7.26522 6 7 6ZM9 5C9 4.73478 9.10536 4.48043 9.29289 4.29289C9.48043 4.10536 9.73478 4 10 4H13C13.2652 4 13.5196 4.10536 13.7071 4.29289C13.8946 4.48043 14 4.73478 14 5C14 5.26522 13.8946 5.51957 13.7071 5.70711C13.5196 5.89464 13.2652 6 13 6H10C9.73478 6 9.48043 5.89464 9.29289 5.70711C9.10536 5.51957 9 5.26522 9 5ZM20 18.17C19.9962 18.4347 19.8926 18.6883 19.71 18.88L18.88 19.71C18.6883 19.8926 18.4347 19.9962 18.17 20H17.83C17.5653 19.9962 17.3117 19.8926 17.12 19.71L11.04 13.63C10.9325 13.5191 10.8506 13.386 10.8 13.24L9.58 9.58L13.23 10.8C13.3801 10.848 13.517 10.9302 13.63 11.04L19.71 17.12C19.8926 17.3117 19.9962 17.5653 20 17.83V18.17Z" fill="#1273EF" style="fill:#1273EF;fill:color(display-p3 0.0706 0.4510 0.9373);fill-opacity:1;"/>
</svg>
