<svg width="22" height="20" viewBox="0 0 22 20" fill="none" xmlns="http://www.w3.org/2000/svg">
<path d="M17 0H5C3.67406 0.000477079 2.40257 0.527415 1.46499 1.46499C0.527415 2.40257 0.000477079 3.67406 0 5V15C0.000477079 16.3259 0.527415 17.5974 1.46499 18.535C2.40257 19.4726 3.67406 19.9995 5 20H17C18.3259 19.9995 19.5974 19.4726 20.535 18.535C21.4726 17.5974 21.9995 16.3259 22 15V5C21.9995 3.67406 21.4726 2.40257 20.535 1.46499C19.5974 0.527415 18.3259 0.000477079 17 0ZM6.1 14H8.05C8.16351 15.2393 8.4882 16.4501 9.01 17.58C8.27413 17.2593 7.62585 16.7669 7.11953 16.144C6.61321 15.5211 6.2636 14.7859 6.1 14ZM8.05 12H6.1C6.2636 11.2141 6.61321 10.4789 7.11953 9.85603C7.62585 9.23314 8.27413 8.7407 9.01 8.42C8.49165 9.55111 8.16713 10.7613 8.05 12ZM11 17.1C10.5066 16.1301 10.1884 15.0806 10.06 14H11.94C11.8116 15.0806 11.4934 16.1301 11 17.1ZM10.06 12C10.185 10.9155 10.5034 9.86219 11 8.89C11.4966 9.86219 11.815 10.9155 11.94 12H10.06ZM12.99 17.58C13.5118 16.4501 13.8365 15.2393 13.95 14H15.9C15.7382 14.7866 15.3893 15.5226 14.8827 16.1458C14.3762 16.769 13.727 17.2609 12.99 17.58ZM15.9 12H13.95C13.8329 10.7613 13.5083 9.55111 12.99 8.42C13.7259 8.7407 14.3741 9.23314 14.8805 9.85603C15.3868 10.4789 15.7364 11.2141 15.9 12ZM20 6H2V5C2.00232 4.20506 2.31914 3.44335 2.88124 2.88124C3.44335 2.31914 4.20506 2.00232 5 2H17C17.7949 2.00232 18.5566 2.31914 19.1188 2.88124C19.6809 3.44335 19.9977 4.20506 20 5V6Z" fill="#E5614D" style="fill:#E5614D;fill:color(display-p3 0.8980 0.3804 0.3020);fill-opacity:1;"/>
<path d="M4 5H5C5.26522 5 5.51957 4.89464 5.70711 4.70711C5.89464 4.51957 6 4.26522 6 4C6 3.73478 5.89464 3.48043 5.70711 3.29289C5.51957 3.10536 5.26522 3 5 3H4C3.73478 3 3.48043 3.10536 3.29289 3.29289C3.10536 3.48043 3 3.73478 3 4C3 4.26522 3.10536 4.51957 3.29289 4.70711C3.48043 4.89464 3.73478 5 4 5Z" fill="#E5614D" style="fill:#E5614D;fill:color(display-p3 0.8980 0.3804 0.3020);fill-opacity:1;"/>
<path d="M8 5H9C9.26522 5 9.51957 4.89464 9.70711 4.70711C9.89464 4.51957 10 4.26522 10 4C10 3.73478 9.89464 3.48043 9.70711 3.29289C9.51957 3.10536 9.26522 3 9 3H8C7.73478 3 7.48043 3.10536 7.29289 3.29289C7.10536 3.48043 7 3.73478 7 4C7 4.26522 7.10536 4.51957 7.29289 4.70711C7.48043 4.89464 7.73478 5 8 5Z" fill="#E5614D" style="fill:#E5614D;fill:color(display-p3 0.8980 0.3804 0.3020);fill-opacity:1;"/>
<path d="M12 5H13C13.2652 5 13.5196 4.89464 13.7071 4.70711C13.8946 4.51957 14 4.26522 14 4C14 3.73478 13.8946 3.48043 13.7071 3.29289C13.5196 3.10536 13.2652 3 13 3H12C11.7348 3 11.4804 3.10536 11.2929 3.29289C11.1054 3.48043 11 3.73478 11 4C11 4.26522 11.1054 4.51957 11.2929 4.70711C11.4804 4.89464 11.7348 5 12 5Z" fill="#E5614D" style="fill:#E5614D;fill:color(display-p3 0.8980 0.3804 0.3020);fill-opacity:1;"/>
</svg>
