<svg width="24" height="18" viewBox="0 0 24 18" fill="none" xmlns="http://www.w3.org/2000/svg">
<path d="M19 0H5C3.67406 0.000477079 2.40257 0.527415 1.46499 1.46499C0.527415 2.40257 0.000477079 3.67406 0 5L0 13C0.000477079 14.3259 0.527415 15.5974 1.46499 16.535C2.40257 17.4726 3.67406 17.9995 5 18H19C20.3259 17.9995 21.5974 17.4726 22.535 16.535C23.4726 15.5974 23.9995 14.3259 24 13V5C23.9995 3.67406 23.4726 2.40257 22.535 1.46499C21.5974 0.527415 20.3259 0.000477079 19 0ZM17 14H7C6.73478 14 6.48043 13.8946 6.29289 13.7071C6.10536 13.5196 6 13.2652 6 13C6 12.7348 6.10536 12.4804 6.29289 12.2929C6.48043 12.1054 6.73478 12 7 12H17C17.2652 12 17.5196 12.1054 17.7071 12.2929C17.8946 12.4804 18 12.7348 18 13C18 13.2652 17.8946 13.5196 17.7071 13.7071C17.5196 13.8946 17.2652 14 17 14ZM17 10H7C6.73478 10 6.48043 9.89464 6.29289 9.70711C6.10536 9.51957 6 9.26522 6 9C6 8.73478 6.10536 8.48043 6.29289 8.29289C6.48043 8.10536 6.73478 8 7 8H17C17.2652 8 17.5196 8.10536 17.7071 8.29289C17.8946 8.48043 18 8.73478 18 9C18 9.26522 17.8946 9.51957 17.7071 9.70711C17.5196 9.89464 17.2652 10 17 10ZM17 6H7C6.73478 6 6.48043 5.89464 6.29289 5.70711C6.10536 5.51957 6 5.26522 6 5C6 4.73478 6.10536 4.48043 6.29289 4.29289C6.48043 4.10536 6.73478 4 7 4H17C17.2652 4 17.5196 4.10536 17.7071 4.29289C17.8946 4.48043 18 4.73478 18 5C18 5.26522 17.8946 5.51957 17.7071 5.70711C17.5196 5.89464 17.2652 6 17 6Z" fill="#060054" style="fill:#060054;fill:color(display-p3 0.0235 0.0000 0.3294);fill-opacity:1;"/>
</svg>
