<svg width="75" height="66" viewBox="0 0 75 66" fill="none" xmlns="http://www.w3.org/2000/svg">
<path fill-rule="evenodd" clip-rule="evenodd" d="M52.5741 36.7656C55.2303 37.3218 55.3688 39.2642 55.4129 39.9035L55.4213 41.3884C55.406 41.6637 55.3834 41.8407 55.3478 42.0142C55.1832 42.9741 54.5616 44.2205 52.557 44.6027C51.9589 44.7265 51.2817 45.441 50.8804 46.3765C50.4457 47.3862 50.4965 48.2482 50.7283 48.6219C51.1449 49.29 52.418 51.3364 50.2829 53.3612L50.2791 53.3648C49.4582 54.1536 48.5737 55.0034 47.2778 55.0034C46.513 55.0034 45.7861 54.7044 45.0557 54.0905C44.9986 54.0562 44.7424 53.9874 44.5764 53.9429C44.5535 53.9367 44.5323 53.931 44.5136 53.926L44.378 53.8904C43.5396 53.9639 42.2927 54.5501 41.5403 55.2323C41.1992 55.54 41.1249 55.7173 41.12 55.7292C41.1199 55.7295 41.1198 55.7297 41.1197 55.7298C40.9427 56.4516 40.3853 58.7167 37.7161 58.7483H37.7031H37.7029C37.6153 58.7483 37.5193 58.7483 37.4244 58.7433L37.1689 58.7455C37.1627 58.7483 37.0819 58.7495 37.0033 58.7495C34.295 58.7495 33.7275 56.4624 33.5426 55.7117C33.3906 55.2656 31.6676 53.9982 30.2973 53.888L30.2216 53.9095L30.2035 53.9143C29.9915 53.9703 29.6718 54.0549 29.5834 54.1186C28.8869 54.7015 28.1441 55.0039 27.3917 55.0039C26.092 55.0039 25.2024 54.1469 24.4183 53.3895C22.2315 51.3151 23.5502 49.2718 23.9837 48.6L23.9842 48.5992C24.2018 48.2347 24.2131 47.3392 23.7903 46.3692C23.3788 45.4223 22.7101 44.727 22.086 44.5953C20.3359 44.2635 19.3789 43.2165 19.2523 41.4879L19.25 40.0013C19.2953 39.3038 19.4297 37.3236 22.0849 36.7662C22.7079 36.6357 23.397 35.9149 23.7995 34.9692C24.2223 33.9754 24.1731 33.1371 23.9476 32.7775C23.2325 31.6012 22.5044 29.8387 24.3732 28.0151L24.462 27.9325L24.4626 27.932C25.2375 27.204 26.1186 26.3763 27.4009 26.3763C28.1567 26.3763 28.8758 26.6652 29.6027 27.2615C29.6836 27.3249 29.9696 27.3983 30.1053 27.4323L30.2912 27.4831C31.6071 27.3616 33.3952 26.1372 33.5393 25.6573C33.7253 24.9038 34.2911 22.6133 37.0073 22.6133L37.5149 22.6184C37.5172 22.6155 37.5997 22.6144 37.6794 22.6144C40.373 22.6144 40.9185 24.8218 41.1237 25.6522C41.2418 26.0739 42.9739 27.3576 44.3718 27.4831L44.4984 27.4475C44.7036 27.3961 44.9761 27.326 45.0518 27.2717C45.7861 26.6691 46.5102 26.378 47.27 26.378C48.5791 26.378 49.4708 27.2307 50.2589 27.9844L50.2632 27.9885C52.171 29.8093 51.443 31.582 50.729 32.7595C50.6012 32.9658 50.5391 33.2558 50.5481 33.6091C50.5786 34.8458 51.5193 36.5451 52.5741 36.7656ZM29.6816 51.1855L30.0072 51.1148L30.007 51.1178L30.119 51.1172C32.3698 51.1172 35.7344 53.0255 36.2245 55.0538C36.4563 55.986 36.6044 55.986 36.9639 55.986L37.497 55.9809L37.6411 55.9831L37.6417 55.9831C38.0742 55.9781 38.2071 55.9765 38.4348 55.0476C38.5897 54.4156 39.0074 53.7875 39.6784 53.1821C40.7745 52.1883 42.7642 51.1171 44.5393 51.1171L44.8722 51.151C45.0435 51.2075 45.1193 51.2267 45.2041 51.2482C45.6303 51.3596 46.2572 51.5258 46.7891 51.9396C47.1322 52.2267 47.273 52.2369 47.273 52.2369C47.4632 52.2257 47.9946 51.7158 48.3156 51.4078L48.3199 51.4037L48.3219 51.4017C48.7634 50.98 48.8703 50.8779 48.3708 50.0764C47.5963 48.8232 47.5811 47.0312 48.3318 45.284C49.1067 43.4767 50.482 42.2082 52.0089 41.8877C52.5763 41.7794 52.5939 41.6818 52.6254 41.5068L52.6256 41.5056C52.6397 41.4259 52.6471 41.3648 52.6522 41.3015L52.6499 40.0014L52.6497 39.9981C52.6222 39.6517 52.6181 39.5996 52.0095 39.4723C49.4731 38.9442 47.8399 36.0523 47.7828 33.677C47.7614 32.7832 47.9649 31.9625 48.3741 31.3079C48.8733 30.4849 48.7975 30.4114 48.3719 30.0061L48.3672 30.0016C48.0298 29.6783 47.4733 29.1451 47.2701 29.1412C47.269 29.1412 47.1294 29.1451 46.8168 29.3995C46.2939 29.8416 45.6631 30.0038 45.2453 30.1101C45.216 30.1179 45.1894 30.1247 45.165 30.131C45.103 30.1469 45.0554 30.1591 45.0136 30.1745L44.788 30.2593L44.5325 30.2571C42.3167 30.2429 38.9651 28.3363 38.4433 26.3317C38.2076 25.3781 38.0838 25.3781 37.7113 25.3781L37.1669 25.3821L37.0024 25.3781C36.5847 25.3781 36.4592 25.3781 36.2263 26.3165C35.7414 28.3283 32.3807 30.244 30.132 30.2581L29.8788 30.2604L29.638 30.1705C29.5933 30.1553 29.5289 30.1389 29.4593 30.1214C28.9947 30.0026 28.3616 29.8404 27.8257 29.382C27.543 29.1502 27.4012 29.1411 27.4 29.1411C27.2164 29.1411 26.7035 29.6201 26.3786 29.9236C26.3694 29.9322 26.3603 29.9406 26.3514 29.9489C25.8693 30.417 25.7929 30.4922 26.2983 31.3226C27.0631 32.5419 27.0829 34.3129 26.3424 36.0518C25.5663 37.8725 24.1859 39.1501 22.6489 39.4717C22.0434 39.5998 22.0401 39.6468 22.0086 40.0952L22.0084 40.0975L22.0124 41.3852L22.0125 41.3865C22.039 41.7132 22.0437 41.7714 22.6252 41.8815C24.1621 42.2031 25.5415 43.4671 26.3239 45.2624C27.0859 47.0114 27.0859 48.8045 26.3261 50.0617C25.797 50.8847 25.8903 50.9746 26.2894 51.3522C26.6579 51.7083 27.1961 52.2273 27.39 52.2363C27.39 52.2363 27.5262 52.2273 27.8354 51.9689C28.395 51.5286 29.0242 51.3613 29.4397 51.251L29.4725 51.2426C29.5783 51.2155 29.6333 51.2014 29.6816 51.1855Z" fill="#070058" style="fill:#070058;fill:color(display-p3 0.0275 0.0000 0.3451);fill-opacity:1;"/>
<path fill-rule="evenodd" clip-rule="evenodd" d="M37.3411 49.2444H37.3473L37.3489 49.2456C38.0844 49.2394 38.8063 49.1416 39.4914 48.9568C43.0153 48.0263 45.6031 44.9529 45.935 41.2542L45.931 40.0586C45.8411 39.0762 45.5941 38.1299 45.1967 37.2474C43.8062 34.1615 40.7231 32.1485 37.336 32.1191C32.8306 32.1559 29.1309 35.5782 28.7256 40.1343L28.7295 41.3282C28.9964 44.2874 30.7363 46.8781 33.3841 48.2608C34.6198 48.9035 35.9493 49.2342 37.3411 49.2444ZM29.9172 40.1848C30.2655 36.2986 33.4587 33.3432 37.336 33.3116L37.336 33.3116C40.2494 33.3371 42.9085 35.0741 44.1063 37.7361C44.4494 38.4969 44.6625 39.3137 44.7383 40.1102L44.7423 41.1978C44.4585 44.343 42.2261 46.9959 39.181 47.7997C38.5937 47.9591 37.9735 48.0416 37.3427 48.0479C36.1459 48.0388 35.0001 47.7539 33.9352 47.1994C31.6497 46.0067 30.1489 43.771 29.9211 41.2724L29.9172 40.1848Z" fill="#070058" style="fill:#070058;fill:color(display-p3 0.0275 0.0000 0.3451);fill-opacity:1;"/>
<path d="M31.7718 6.2832C33.2291 6.2832 34.5751 7.61897 34.6085 9.09829C34.6526 10.6432 33.2953 12.0231 31.7391 12.0231C30.2389 12.0231 28.9241 10.7201 28.8912 9.23113C28.8584 7.67374 30.2157 6.29333 31.7718 6.2832V6.2832Z" fill="#070058" style="fill:#070058;fill:color(display-p3 0.0275 0.0000 0.3451);fill-opacity:1;"/>
<path d="M21.9023 6.29304C23.4586 6.33714 24.6513 7.59602 24.64 9.17368C24.6287 10.7741 23.4484 12.0001 21.8582 12.0103C20.2578 12.0216 18.999 10.7187 19.0431 9.07369C19.0657 7.5299 20.4015 6.25006 21.9023 6.29304Z" fill="#070058" style="fill:#070058;fill:color(display-p3 0.0275 0.0000 0.3451);fill-opacity:1;"/>
<path d="M11.9687 6.29319C13.4475 6.30449 14.7951 7.63912 14.8166 9.11956C14.8494 10.6429 13.4707 12.0228 11.9134 12.0115C10.4233 12.0115 9.09833 10.6983 9.07676 9.20827C9.04341 7.66158 10.4227 6.26034 11.9687 6.29304V6.29319Z" fill="#070058" style="fill:#070058;fill:color(display-p3 0.0275 0.0000 0.3451);fill-opacity:1;"/>
<path fill-rule="evenodd" clip-rule="evenodd" d="M65.5473 0H9.12699C4.09767 0 0 4.09767 0 9.11455V56.8855C0 61.9148 4.09767 66 9.12699 66H65.5473C70.5767 66 74.6619 61.9142 74.6619 56.8855V9.11455C74.6619 4.09767 70.5755 0 65.5473 0ZM2.86675 9.11455C2.86675 5.67431 5.67387 2.86704 9.12728 2.86704H65.5476C68.9879 2.86704 71.7951 5.67416 71.7951 9.11455V15.8929L65.9512 15.9319V11.2898C65.9512 10.6148 65.4029 10.0654 64.7268 10.0654H52.2748C51.6304 10.0654 51.1075 10.5894 51.1075 11.2327V15.8787H2.86627L2.86675 9.11455ZM65.5471 63.1344C68.9874 63.1344 71.7946 60.3271 71.7946 56.8869L71.7927 17.9905V17.1584H65.8273C65.189 17.1584 64.6701 16.6394 64.6701 16.0024V11.3564L52.3385 11.3451L52.3826 16.0375C52.3826 16.6757 51.9055 17.1568 51.2724 17.1568H2.86472V56.8875C2.86472 60.3279 5.67358 63.135 9.12525 63.135H45.1426L65.5471 63.1344Z" fill="#BBE2FA" style="fill:#BBE2FA;fill:color(display-p3 0.7333 0.8863 0.9804);fill-opacity:1;"/>
</svg>
