<svg width="24" height="18" viewBox="0 0 24 18" fill="none" xmlns="http://www.w3.org/2000/svg">
<path d="M9 9C8.20462 9.00087 7.44206 9.31722 6.87964 9.87964C6.31722 10.4421 6.00087 11.2046 6 12C6.00034 12.2651 6.10581 12.5193 6.29327 12.7067C6.48073 12.8942 6.73489 12.9997 7 13H11C11.2651 12.9997 11.5193 12.8942 11.7067 12.7067C11.8942 12.5193 11.9997 12.2651 12 12C11.9991 11.2046 11.6828 10.4421 11.1204 9.87964C10.5579 9.31722 9.79538 9.00087 9 9Z" fill="#6FC3B6" style="fill:#6FC3B6;fill:color(display-p3 0.4353 0.7647 0.7137);fill-opacity:1;"/>
<path d="M9 7C9.55228 7 10 6.55228 10 6C10 5.44772 9.55228 5 9 5C8.44772 5 8 5.44772 8 6C8 6.55228 8.44772 7 9 7Z" fill="#6FC3B6" style="fill:#6FC3B6;fill:color(display-p3 0.4353 0.7647 0.7137);fill-opacity:1;"/>
<path d="M19 0H5C3.67406 0.000477079 2.40257 0.527415 1.46499 1.46499C0.527415 2.40257 0.000477079 3.67406 0 5L0 13C0.000477079 14.3259 0.527415 15.5974 1.46499 16.535C2.40257 17.4726 3.67406 17.9995 5 18H19C20.3259 17.9995 21.5974 17.4726 22.535 16.535C23.4726 15.5974 23.9995 14.3259 24 13V5C23.9995 3.67406 23.4726 2.40257 22.535 1.46499C21.5974 0.527415 20.3259 0.000477079 19 0ZM11 15H7C6.20462 14.9991 5.44206 14.6828 4.87964 14.1204C4.31722 13.5579 4.00087 12.7954 4 12C4.00298 11.1225 4.23757 10.2614 4.68006 9.50368C5.12255 8.74595 5.75725 8.11848 6.52 7.6847C6.21308 7.23379 6.0349 6.70774 6.00462 6.16313C5.97435 5.61852 6.09313 5.07596 6.34819 4.59381C6.60324 4.11166 6.98492 3.70818 7.45217 3.42676C7.91942 3.14533 8.45455 2.99662 9 2.99662C9.54545 2.99662 10.0806 3.14533 10.5478 3.42676C11.0151 3.70818 11.3968 4.11166 11.6518 4.59381C11.9069 5.07596 12.0256 5.61852 11.9954 6.16313C11.9651 6.70774 11.7869 7.23379 11.48 7.6847C12.2427 8.11848 12.8774 8.74595 13.3199 9.50368C13.7624 10.2614 13.997 11.1225 14 12C13.9991 12.7954 13.6828 13.5579 13.1204 14.1204C12.5579 14.6828 11.7954 14.9991 11 15ZM19 8H15C14.7348 8 14.4804 7.89464 14.2929 7.70711C14.1054 7.51957 14 7.26522 14 7C14 6.73478 14.1054 6.48043 14.2929 6.29289C14.4804 6.10536 14.7348 6 15 6H19C19.2652 6 19.5196 6.10536 19.7071 6.29289C19.8946 6.48043 20 6.73478 20 7C20 7.26522 19.8946 7.51957 19.7071 7.70711C19.5196 7.89464 19.2652 8 19 8ZM19 5H15C14.7348 5 14.4804 4.89464 14.2929 4.70711C14.1054 4.51957 14 4.26522 14 4C14 3.73478 14.1054 3.48043 14.2929 3.29289C14.4804 3.10536 14.7348 3 15 3H19C19.2652 3 19.5196 3.10536 19.7071 3.29289C19.8946 3.48043 20 3.73478 20 4C20 4.26522 19.8946 4.51957 19.7071 4.70711C19.5196 4.89464 19.2652 5 19 5Z" fill="#6FC3B6" style="fill:#6FC3B6;fill:color(display-p3 0.4353 0.7647 0.7137);fill-opacity:1;"/>
</svg>
