<svg width="22" height="25" viewBox="0 0 22 25" fill="none" xmlns="http://www.w3.org/2000/svg">
<path d="M14.1723 4.51C13.6125 4.34186 13.1133 4.01548 12.7347 3.57015C12.3562 3.12483 12.1144 2.57955 12.0386 2H13.0117C13.2769 2 13.5313 1.89464 13.7188 1.70711C13.9064 1.51957 14.0117 1.26522 14.0117 1C14.0117 0.734784 13.9064 0.48043 13.7188 0.292893C13.5313 0.105357 13.2769 0 13.0117 0L9.01172 0C8.7465 0 8.49215 0.105357 8.30461 0.292893C8.11708 0.48043 8.01172 0.734784 8.01172 1C8.01172 1.26522 8.11708 1.51957 8.30461 1.70711C8.49215 1.89464 8.7465 2 9.01172 2H10.0387C10.1191 2.99927 10.495 3.95201 11.1186 4.73694C11.7422 5.52186 12.5853 6.10347 13.5405 6.4077C13.7922 6.49148 14.0668 6.47186 14.304 6.35316C14.5412 6.23446 14.7215 6.0264 14.8053 5.77475C14.8891 5.5231 14.8694 5.24847 14.7507 5.01129C14.632 4.7741 14.424 4.59378 14.1723 4.51Z" fill="#A03626" style="fill:#A03626;fill:color(display-p3 0.6275 0.2118 0.1490);fill-opacity:1;"/>
<path d="M21.7193 6.29243L18.7193 3.29243C18.5307 3.11027 18.2781 3.00948 18.0159 3.01176C17.7537 3.01403 17.5029 3.1192 17.3175 3.30461C17.1321 3.49002 17.0269 3.74083 17.0246 4.00303C17.0223 4.26523 17.1231 4.51783 17.3053 4.70643L18.0982 5.49943L17.3351 6.26253C15.5529 4.79925 13.3183 3.99944 11.0123 3.99944C8.70631 3.99944 6.47172 4.79925 4.68949 6.26253L3.92639 5.49943L4.71929 4.70643C4.90145 4.51783 5.00224 4.26523 4.99996 4.00303C4.99768 3.74083 4.89251 3.49002 4.70711 3.30461C4.5217 3.1192 4.27089 3.01403 4.00869 3.01176C3.74649 3.00948 3.49389 3.11027 3.30529 3.29243L0.305288 6.29243C0.209778 6.38468 0.133596 6.49502 0.0811867 6.61703C0.0287777 6.73903 0.00119157 6.87025 3.77567e-05 7.00303C-0.00111606 7.13581 0.0241857 7.26749 0.0744666 7.39038C0.124747 7.51328 0.199 7.62493 0.292893 7.71883C0.386786 7.81272 0.498438 7.88697 0.621334 7.93725C0.74423 7.98753 0.87591 8.01284 1.00869 8.01168C1.14147 8.01053 1.27269 7.98294 1.39469 7.93053C1.5167 7.87812 1.62704 7.80194 1.71929 7.70643L2.51229 6.91353L3.27539 7.67663C2.07582 9.14151 1.31677 10.9168 1.08651 12.7961C0.856255 14.6755 1.16425 16.5815 1.97469 18.2927C2.78512 20.0038 4.06469 21.4497 5.66458 22.4622C7.26446 23.4748 9.11892 24.0123 11.0123 24.0123C12.9057 24.0123 14.7601 23.4748 16.36 22.4622C17.9599 21.4497 19.2395 20.0038 20.0499 18.2927C20.8603 16.5815 21.1683 14.6755 20.9381 12.7961C20.7078 10.9168 19.9488 9.14151 18.7492 7.67663L19.5123 6.91353L20.3053 7.70643C20.4939 7.88859 20.7465 7.98938 21.0087 7.9871C21.2709 7.98483 21.5217 7.87966 21.7071 7.69425C21.8925 7.50884 21.9977 7.25803 22 6.99583C22.0022 6.73364 21.9014 6.48103 21.7193 6.29243ZM15.7193 18.7064C15.6265 18.7993 15.5163 18.873 15.3949 18.9233C15.2736 18.9735 15.1436 18.9994 15.0123 18.9994C14.881 18.9994 14.7509 18.9735 14.6296 18.9233C14.5083 18.873 14.3981 18.7993 14.3053 18.7064L10.3053 14.7064C10.1177 14.5189 10.0123 14.2646 10.0123 13.9994V9.99943C10.0123 9.73421 10.1176 9.47986 10.3052 9.29232C10.4927 9.10479 10.7471 8.99943 11.0123 8.99943C11.2775 8.99943 11.5319 9.10479 11.7194 9.29232C11.9069 9.47986 12.0123 9.73421 12.0123 9.99943V13.5853L15.7193 17.2924C15.8122 17.3852 15.8859 17.4955 15.9362 17.6168C15.9864 17.7381 16.0123 17.8681 16.0123 17.9994C16.0123 18.1307 15.9864 18.2608 15.9362 18.3821C15.8859 18.5034 15.8122 18.6136 15.7193 18.7064Z" fill="#A03626" style="fill:#A03626;fill:color(display-p3 0.6275 0.2118 0.1490);fill-opacity:1;"/>
</svg>
