<svg width="20" height="24" viewBox="0 0 20 24" fill="none" xmlns="http://www.w3.org/2000/svg">
<path d="M18.99 8.76841C18.9315 6.42296 17.9586 4.19326 16.279 2.55508C14.5995 0.916913 12.3462 0 10 0C7.65382 0 5.40054 0.916913 3.72097 2.55508C2.0414 4.19326 1.06854 6.42296 1.01 8.76841C0.694332 9.04822 0.441221 9.39145 0.267187 9.7757C0.0931532 10.16 0.0021099 10.5766 0 10.9984V12.9984C0 13.7941 0.316071 14.5571 0.87868 15.1197C1.44129 15.6823 2.20435 15.9984 3 15.9984C3.79565 15.9984 4.55871 15.6823 5.12132 15.1197C5.68393 14.5571 6 13.7941 6 12.9984V10.9984C6.00009 10.2174 5.69465 9.4674 5.149 8.90867C4.60334 8.34993 3.86076 8.02682 3.08 8.00841C3.31588 6.34104 4.14585 4.81489 5.41726 3.71068C6.68867 2.60647 8.31603 1.99845 10 1.99845C11.684 1.99845 13.3113 2.60647 14.5827 3.71068C15.8542 4.81489 16.6841 6.34104 16.92 8.00841C16.1392 8.02682 15.3967 8.34993 14.851 8.90867C14.3053 9.4674 13.9999 10.2174 14 10.9984V12.9984C14.0032 13.617 14.1969 14.2196 14.5548 14.7242C14.9126 15.2288 15.4173 15.6108 16 15.8184V16.9984C15.9974 17.6556 15.7786 18.2936 15.3774 18.8141C14.9762 19.3346 14.4148 19.7086 13.78 19.8784C13.5572 19.3233 13.1734 18.8476 12.678 18.5126C12.1825 18.1775 11.5981 17.9985 11 17.9984H9C8.20435 17.9984 7.44129 18.3145 6.87868 18.8771C6.31607 19.4397 6 20.2028 6 20.9984C6 21.7941 6.31607 22.5571 6.87868 23.1197C7.44129 23.6823 8.20435 23.9984 9 23.9984H11C11.6337 23.9956 12.2501 23.7916 12.7605 23.4161C13.2708 23.0405 13.6488 22.5126 13.84 21.9084C15.0016 21.7132 16.0566 21.113 16.8181 20.2143C17.5795 19.3156 17.9982 18.1763 18 16.9984V15.8184C18.5827 15.6108 19.0874 15.2288 19.4452 14.7242C19.8031 14.2196 19.9968 13.617 20 12.9984V10.9984C19.9979 10.5766 19.9068 10.16 19.7328 9.7757C19.5588 9.39145 19.3057 9.04822 18.99 8.76841ZM11 21.9984H9C8.73478 21.9984 8.48043 21.8931 8.29289 21.7055C8.10536 21.518 8 21.2636 8 20.9984C8 20.7332 8.10536 20.4788 8.29289 20.2913C8.48043 20.1038 8.73478 19.9984 9 19.9984H11C11.2652 19.9984 11.5196 20.1038 11.7071 20.2913C11.8946 20.4788 12 20.7332 12 20.9984C12 21.2636 11.8946 21.518 11.7071 21.7055C11.5196 21.8931 11.2652 21.9984 11 21.9984Z" fill="#EFB046" style="fill:#EFB046;fill:color(display-p3 0.9373 0.6902 0.2745);fill-opacity:1;"/>
<path d="M10 8.99805H8C7.73478 8.99805 7.48043 8.89269 7.29289 8.70515C7.10536 8.51762 7 8.26326 7 7.99805C7 7.73283 7.10536 7.47848 7.29289 7.29094C7.48043 7.1034 7.73478 6.99805 8 6.99805H10C10.2652 6.99805 10.5196 7.1034 10.7071 7.29094C10.8946 7.47848 11 7.73283 11 7.99805C11 8.26326 10.8946 8.51762 10.7071 8.70515C10.5196 8.89269 10.2652 8.99805 10 8.99805Z" fill="#EFB046" style="fill:#EFB046;fill:color(display-p3 0.9373 0.6902 0.2745);fill-opacity:1;"/>
<path d="M12 11.998H8C7.73478 11.998 7.48043 11.8927 7.29289 11.7052C7.10536 11.5176 7 11.2633 7 10.998C7 10.7328 7.10536 10.4785 7.29289 10.2909C7.48043 10.1034 7.73478 9.99805 8 9.99805H12C12.2652 9.99805 12.5196 10.1034 12.7071 10.2909C12.8946 10.4785 13 10.7328 13 10.998C13 11.2633 12.8946 11.5176 12.7071 11.7052C12.5196 11.8927 12.2652 11.998 12 11.998Z" fill="#EFB046" style="fill:#EFB046;fill:color(display-p3 0.9373 0.6902 0.2745);fill-opacity:1;"/>
</svg>
