<svg width="24" height="24" viewBox="0 0 24 24" fill="none" xmlns="http://www.w3.org/2000/svg">
<path d="M12 11C12.5523 11 13 10.5523 13 10C13 9.44772 12.5523 9 12 9C11.4477 9 11 9.44772 11 10C11 10.5523 11.4477 11 12 11Z" fill="#E5614D" style="fill:#E5614D;fill:color(display-p3 0.8980 0.3804 0.3020);fill-opacity:1;"/>
<path d="M23 11H21.95C21.7172 8.70562 20.6995 6.56195 19.0688 4.93125C17.4381 3.30054 15.2944 2.2828 13 2.05V1C13 0.734784 12.8946 0.48043 12.7071 0.292893C12.5196 0.105357 12.2652 0 12 0C11.7348 0 11.4804 0.105357 11.2929 0.292893C11.1054 0.48043 11 0.734784 11 1V2.05C8.70562 2.2828 6.56195 3.30054 4.93125 4.93125C3.30054 6.56195 2.2828 8.70562 2.05 11H1C0.734784 11 0.48043 11.1054 0.292893 11.2929C0.105357 11.4804 0 11.7348 0 12C0 12.2652 0.105357 12.5196 0.292893 12.7071C0.48043 12.8946 0.734784 13 1 13H2.05C2.2828 15.2944 3.30054 17.4381 4.93125 19.0688C6.56195 20.6995 8.70562 21.7172 11 21.95V23C11 23.2652 11.1054 23.5196 11.2929 23.7071C11.4804 23.8946 11.7348 24 12 24C12.2652 24 12.5196 23.8946 12.7071 23.7071C12.8946 23.5196 13 23.2652 13 23V21.95C15.2944 21.7172 17.4381 20.6995 19.0688 19.0688C20.6995 17.4381 21.7172 15.2944 21.95 13H23C23.2652 13 23.5196 12.8946 23.7071 12.7071C23.8946 12.5196 24 12.2652 24 12C24 11.7348 23.8946 11.4804 23.7071 11.2929C23.5196 11.1054 23.2652 11 23 11ZM16 17C15.7348 17 15.4804 16.8946 15.2929 16.7071C15.1054 16.5196 15 16.2652 15 16C15 15.2044 14.6839 14.4413 14.1213 13.8787C13.5587 13.3161 12.7956 13 12 13C11.2044 13 10.4413 13.3161 9.87868 13.8787C9.31607 14.4413 9 15.2044 9 16C9 16.2652 8.89464 16.5196 8.70711 16.7071C8.51957 16.8946 8.26522 17 8 17C7.73478 17 7.48043 16.8946 7.29289 16.7071C7.10536 16.5196 7 16.2652 7 16C7.00298 15.1225 7.23757 14.2614 7.68006 13.5037C8.12255 12.746 8.75725 12.1185 9.52 11.6847C9.21308 11.2338 9.0349 10.7077 9.00462 10.1631C8.97435 9.61852 9.09313 9.07596 9.34819 8.59381C9.60324 8.11166 9.98492 7.70818 10.4522 7.42676C10.9194 7.14533 11.4545 6.99662 12 6.99662C12.5455 6.99662 13.0806 7.14533 13.5478 7.42676C14.0151 7.70818 14.3968 8.11166 14.6518 8.59381C14.9069 9.07596 15.0256 9.61852 14.9954 10.1631C14.9651 10.7077 14.7869 11.2338 14.48 11.6847C15.2427 12.1185 15.8774 12.746 16.3199 13.5037C16.7624 14.2614 16.997 15.1225 17 16C17 16.2652 16.8946 16.5196 16.7071 16.7071C16.5196 16.8946 16.2652 17 16 17Z" fill="#E5614D" style="fill:#E5614D;fill:color(display-p3 0.8980 0.3804 0.3020);fill-opacity:1;"/>
</svg>
