<svg width="75" height="66" viewBox="0 0 75 66" fill="none" xmlns="http://www.w3.org/2000/svg">
<g id="Group 259">
<g id="Group 238">
<g id="Group 105">
<path id="Path" d="M31.7718 6.28308C33.2291 6.28308 34.5751 7.61885 34.6085 9.09817C34.6526 10.6431 33.2953 12.0229 31.7391 12.0229C30.2389 12.0229 28.9241 10.72 28.8912 9.23101C28.8584 7.67362 30.2157 6.29321 31.7718 6.28308V6.28308Z" fill="#070058" style="fill:#070058;fill:color(display-p3 0.0275 0.0000 0.3451);fill-opacity:1;"/>
<path id="Path_2" d="M21.9014 6.29329C23.4576 6.33738 24.6503 7.59626 24.639 9.17393C24.6277 10.7743 23.4474 12.0003 21.8572 12.0106C20.2569 12.0219 18.998 10.7189 19.0421 9.07393C19.0648 7.53014 20.4005 6.25031 21.9014 6.29329Z" fill="#070058" style="fill:#070058;fill:color(display-p3 0.0275 0.0000 0.3451);fill-opacity:1;"/>
<path id="Path_3" d="M11.9687 6.29319C13.4475 6.30449 14.7951 7.63912 14.8166 9.11956C14.8494 10.6429 13.4707 12.0228 11.9134 12.0115C10.4233 12.0115 9.09833 10.6983 9.07676 9.20827C9.04341 7.66158 10.4227 6.26034 11.9687 6.29304V6.29319Z" fill="#070058" style="fill:#070058;fill:color(display-p3 0.0275 0.0000 0.3451);fill-opacity:1;"/>
<path id="Shape" fill-rule="evenodd" clip-rule="evenodd" d="M65.5473 0H9.12699C4.09767 0 0 4.09767 0 9.11455V56.8855C0 61.9148 4.09767 66 9.12699 66H65.5473C70.5767 66 74.6619 61.9142 74.6619 56.8855V9.11455C74.6619 4.09767 70.5755 0 65.5473 0ZM2.86675 9.11455C2.86675 5.67431 5.67387 2.86704 9.12728 2.86704H65.5476C68.9879 2.86704 71.7951 5.67416 71.7951 9.11455V15.8929L65.9512 15.9319V11.2898C65.9512 10.6148 65.4029 10.0654 64.7268 10.0654H52.2748C51.6304 10.0654 51.1075 10.5894 51.1075 11.2327V15.8787H2.86627L2.86675 9.11455ZM65.5471 63.1344C68.9874 63.1344 71.7946 60.3271 71.7946 56.8869L71.7927 17.9905V17.1584H65.8273C65.189 17.1584 64.6701 16.6394 64.6701 16.0024V11.3564L52.3385 11.3451L52.3826 16.0375C52.3826 16.6757 51.9055 17.1568 51.2724 17.1568H2.86472V56.8875C2.86472 60.3279 5.67358 63.135 9.12525 63.135H45.1426L65.5471 63.1344Z" fill="#BBE2FA" style="fill:#BBE2FA;fill:color(display-p3 0.7333 0.8863 0.9804);fill-opacity:1;"/>
</g>
<path id="O z&#195;&#161;kazn&#195;&#173;kovi v&#197;&#161;e po" d="M37.5344 48C36.892 48 36.3644 47.7893 35.9514 47.3678C35.5385 46.9229 35.332 46.3609 35.332 45.6818V41.6426H31.1336C30.4683 41.6426 29.9406 41.4318 29.5506 41.0103C29.1835 40.5888 29 40.0854 29 39.5C29 38.8912 29.1835 38.3877 29.5506 37.9897C29.9406 37.5682 30.4683 37.3574 31.1336 37.3574H35.332V33.2831C35.332 32.6274 35.5385 32.0888 35.9514 31.6674C36.3644 31.2225 36.892 31 37.5344 31C38.1768 31 38.7045 31.2225 39.1174 31.6674C39.5533 32.0888 39.7713 32.6274 39.7713 33.2831V37.3574H43.9008C44.5432 37.3574 45.0479 37.5682 45.415 37.9897C45.805 38.3877 46 38.8912 46 39.5C46 40.0854 45.805 40.5888 45.415 41.0103C45.0479 41.4318 44.5432 41.6426 43.9008 41.6426H39.7713V45.6818C39.7713 46.3375 39.5533 46.8877 39.1174 47.3326C38.7045 47.7775 38.1768 48 37.5344 48Z" fill="#060054" style="fill:#060054;fill:color(display-p3 0.0235 0.0000 0.3294);fill-opacity:1;"/>
</g>
</g>
</svg>
