<svg width="27" height="28" viewBox="0 0 27 28" fill="none" xmlns="http://www.w3.org/2000/svg">
<path fill-rule="evenodd" clip-rule="evenodd" d="M0 13.6182C0 14.5879 0.786248 15.374 1.756 15.374C2.72575 15.374 3.51185 14.5879 3.51185 13.6182C3.51185 12.6484 2.72575 11.8623 1.756 11.8623C0.786248 11.8623 0 12.6484 0 13.6182Z" fill="#E5614D" style="fill:#E5614D;fill:color(display-p3 0.8980 0.3804 0.3020);fill-opacity:1;"/>
<path fill-rule="evenodd" clip-rule="evenodd" d="M7.35788 6.27832C6.11228 6.27832 5.10254 7.28818 5.10254 8.5337C5.10254 9.77929 6.11228 10.7892 7.35788 10.7892C8.60351 10.7892 9.61326 9.77929 9.61326 8.5337C9.61326 7.28818 8.60351 6.27832 7.35788 6.27832Z" fill="#E5614D" style="fill:#E5614D;fill:color(display-p3 0.8980 0.3804 0.3020);fill-opacity:1;"/>
<mask id="mask0_793_533" style="mask-type:luminance" maskUnits="userSpaceOnUse" x="9" y="0" width="18" height="28">
<path fill-rule="evenodd" clip-rule="evenodd" d="M12.6835 0C11.2557 0 10.098 1.15759 10.098 2.58543C10.098 3.92436 11.1149 5.02515 12.4183 5.15771H12.4187H12.4192C13.5367 5.25986 14.3389 5.44888 14.8179 5.9462C15.2874 6.4333 15.4772 7.25434 15.6474 8.09464C15.6441 8.15243 15.6415 8.21017 15.6415 8.26868C15.6415 9.60719 16.6587 10.708 17.9622 10.841H17.9627C19.0805 10.9427 19.8823 11.1321 20.3617 11.6294C20.8188 12.1042 21.0104 12.8949 21.1781 13.7125C21.0745 14.7974 20.8833 15.5783 20.3955 16.0482C19.9084 16.5178 19.0873 16.7076 18.2471 16.8779C18.1893 16.8744 18.1315 16.8719 18.073 16.8719C16.7345 16.8719 15.6337 17.8892 15.5007 19.1926V19.193C15.4024 20.2733 15.2224 21.0584 14.7614 21.5425C14.2371 22.0369 13.3087 22.2892 12.3692 22.3503H12.3748C10.9874 22.3969 9.87695 23.5358 9.87695 24.9341C9.87695 26.3619 11.0345 27.5195 12.4624 27.5195C13.8013 27.5195 14.902 26.5027 15.0347 25.1992V25.1987V25.1983C15.1334 24.116 15.3139 23.3296 15.777 22.846L15.7775 22.8456L15.7851 22.8382C16.3115 22.3507 17.2336 22.1019 18.1662 22.0415H18.1611C19.5483 21.995 20.6585 20.8562 20.6585 19.4574L20.6559 19.3432C20.7936 18.5623 20.9484 17.7952 21.4436 17.3183C21.9653 16.8154 22.9014 16.5593 23.8495 16.4977H23.8439C25.2311 16.4511 26.3417 15.3123 26.3417 13.9139C26.3417 12.4861 25.1841 11.3285 23.7563 11.3285C23.6699 11.3285 23.5839 11.3327 23.4997 11.3409C22.7735 11.2092 22.0765 11.0432 21.6313 10.5814C21.1284 10.0593 20.8723 9.12313 20.8111 8.17546V8.18063C20.7645 6.79343 19.6257 5.68325 18.2269 5.68325L18.1128 5.68583C17.3319 5.54814 16.5647 5.39284 16.0879 4.8981C15.585 4.37645 15.3289 3.43988 15.2672 2.49222V2.49781C15.2207 1.1106 14.0818 0 12.6835 0Z" fill="white" style="fill:white;fill-opacity:1;"/>
</mask>
<g mask="url(#mask0_793_533)">
<path fill-rule="evenodd" clip-rule="evenodd" d="M12.6835 0C11.2557 0 10.098 1.15759 10.098 2.58543C10.098 3.92436 11.1149 5.02515 12.4183 5.15771H12.4187H12.4192C13.5367 5.25986 14.3389 5.44888 14.8179 5.9462C15.2874 6.4333 15.4772 7.25434 15.6474 8.09464C15.6441 8.15243 15.6415 8.21017 15.6415 8.26868C15.6415 9.60719 16.6587 10.708 17.9622 10.841H17.9627C19.0805 10.9427 19.8823 11.1321 20.3617 11.6294C20.8188 12.1042 21.0104 12.8949 21.1781 13.7125C21.0745 14.7974 20.8833 15.5783 20.3955 16.0482C19.9084 16.5178 19.0873 16.7076 18.2471 16.8779C18.1893 16.8744 18.1315 16.8719 18.073 16.8719C16.7345 16.8719 15.6337 17.8892 15.5007 19.1926V19.193C15.4024 20.2733 15.2224 21.0584 14.7614 21.5425C14.2371 22.0369 13.3087 22.2892 12.3692 22.3503H12.3748C10.9874 22.3969 9.87695 23.5358 9.87695 24.9341C9.87695 26.3619 11.0345 27.5195 12.4624 27.5195C13.8013 27.5195 14.902 26.5027 15.0347 25.1992V25.1987V25.1983C15.1334 24.116 15.3139 23.3296 15.777 22.846L15.7775 22.8456L15.7851 22.8382C16.3115 22.3507 17.2336 22.1019 18.1662 22.0415H18.1611C19.5483 21.995 20.6585 20.8562 20.6585 19.4574L20.6559 19.3432C20.7936 18.5623 20.9484 17.7952 21.4436 17.3183C21.9653 16.8154 22.9014 16.5593 23.8495 16.4977H23.8439C25.2311 16.4511 26.3417 15.3123 26.3417 13.9139C26.3417 12.4861 25.1841 11.3285 23.7563 11.3285C23.6699 11.3285 23.5839 11.3327 23.4997 11.3409C22.7735 11.2092 22.0765 11.0432 21.6313 10.5814C21.1284 10.0593 20.8723 9.12313 20.8111 8.17546V8.18063C20.7645 6.79343 19.6257 5.68325 18.2269 5.68325L18.1128 5.68583C17.3319 5.54814 16.5647 5.39284 16.0879 4.8981C15.585 4.37645 15.3289 3.43988 15.2672 2.49222V2.49781C15.2207 1.1106 14.0818 0 12.6835 0Z" fill="#E5614D" style="fill:#E5614D;fill:color(display-p3 0.8980 0.3804 0.3020);fill-opacity:1;"/>
</g>
<path fill-rule="evenodd" clip-rule="evenodd" d="M7.35788 16.9658C6.11228 16.9658 5.10254 17.9755 5.10254 19.2212C5.10254 20.4668 6.11228 21.4765 7.35788 21.4765C8.60351 21.4765 9.61326 20.4668 9.61326 19.2212C9.61326 17.9755 8.60351 16.9658 7.35788 16.9658Z" fill="#E5614D" style="fill:#E5614D;fill:color(display-p3 0.8980 0.3804 0.3020);fill-opacity:1;"/>
<path fill-rule="evenodd" clip-rule="evenodd" d="M12.2672 11.2373C10.8339 11.2373 9.67188 12.3993 9.67188 13.8327C9.67188 15.266 10.8339 16.4279 12.2672 16.4279C13.7005 16.4279 14.8625 15.266 14.8625 13.8327C14.8625 12.3993 13.7005 11.2373 12.2672 11.2373Z" fill="#E5614D" style="fill:#E5614D;fill:color(display-p3 0.8980 0.3804 0.3020);fill-opacity:1;"/>
</svg>
