<svg width="25" height="25" viewBox="0 0 25 25" fill="none" xmlns="http://www.w3.org/2000/svg">
<path d="M5.60335 22.188L0.603954 13.5285C0.41174 13.1955 0.310547 12.8179 0.310547 12.4334C0.310547 12.049 0.41174 11.6714 0.603954 11.3384L5.60335 2.67909C5.7956 2.34612 6.07211 2.06962 6.40509 1.87738C6.73807 1.68515 7.11578 1.58396 7.50027 1.58398H17.4991C17.8835 1.58399 18.2612 1.6852 18.5941 1.87743C18.9271 2.06966 19.2036 2.34614 19.3958 2.67909L24.3952 11.3384C24.5874 11.6714 24.6887 12.0491 24.6887 12.4335C24.6887 12.818 24.5874 13.1957 24.3952 13.5286L19.3958 22.188C19.2035 22.5209 18.9271 22.7973 18.5941 22.9895C18.2612 23.1817 17.8835 23.2829 17.4991 23.2829H7.50027C7.11578 23.2829 6.73806 23.1818 6.40507 22.9895C6.07209 22.7973 5.79558 22.521 5.60335 22.188Z" fill="url(#paint0_linear_793_594)" style=""/>
<path opacity="0.07" d="M23.0185 16.7146L15.6663 9.36198L12.5 8.51465L9.65596 9.57166L8.55762 12.4332L9.44075 15.6193L17.2375 23.4161L18.892 23.3426L23.0185 16.7146Z" fill="black" style="fill:black;fill-opacity:1;"/>
<path d="M12.4996 8.01562C10.0599 8.01562 8.08203 9.99348 8.08203 12.4334C8.08203 14.8731 10.0599 16.8509 12.4996 16.8509C14.9393 16.8509 16.917 14.8731 16.917 12.4334C16.917 9.99348 14.9391 8.01562 12.4996 8.01562ZM12.4996 15.7852C10.6484 15.7852 9.14762 14.2844 9.14762 12.4332C9.14762 10.582 10.6484 9.0814 12.4996 9.0814C14.3508 9.0814 15.8516 10.5822 15.8516 12.4334C15.8516 14.2846 14.3508 15.7852 12.4996 15.7852Z" fill="white" style="fill:white;fill-opacity:1;"/>
<path d="M10.4023 12.263V13.6362C10.6055 13.985 10.8922 14.2779 11.2365 14.4885V12.263H10.4023ZM12.0564 11.1055V14.8024C12.1983 14.8284 12.3434 14.8443 12.4926 14.8443C12.6286 14.8443 12.7611 14.83 12.8912 14.8083V11.1055H12.0564ZM13.7878 12.8336V14.4643C14.1377 14.2418 14.425 13.9337 14.6224 13.5692V12.8338L13.7878 12.8336ZM15.6781 15.1547L15.2204 15.6127C15.1817 15.6516 15.1599 15.7042 15.1599 15.7591C15.1599 15.814 15.1817 15.8666 15.2204 15.9055L16.9564 17.6409C16.9953 17.6796 17.0479 17.7014 17.1028 17.7014C17.1577 17.7014 17.2103 17.6796 17.2491 17.6409L17.7068 17.1834C17.7453 17.1445 17.7669 17.0919 17.7669 17.0371C17.7669 16.9824 17.7453 16.9298 17.7068 16.8909L15.9706 15.1547C15.9317 15.1161 15.8792 15.0944 15.8244 15.0944C15.7696 15.0944 15.717 15.1161 15.6781 15.1547Z" fill="white" style="fill:white;fill-opacity:1;"/>
<defs>
<linearGradient id="paint0_linear_793_594" x1="12.4997" y1="1.58417" x2="12.4997" y2="23.2492" gradientUnits="userSpaceOnUse">
<stop stop-color="#4387FD" style="stop-color:#4387FD;stop-color:color(display-p3 0.2627 0.5294 0.9922);stop-opacity:1;"/>
<stop offset="1" stop-color="#4683EA" style="stop-color:#4683EA;stop-color:color(display-p3 0.2745 0.5137 0.9176);stop-opacity:1;"/>
</linearGradient>
</defs>
</svg>
