<svg width="65" height="65" viewBox="0 0 65 65" fill="none" xmlns="http://www.w3.org/2000/svg">
<path fill-rule="evenodd" clip-rule="evenodd" d="M6.71501 37.5994C1.41694 38.2799 -2.08127 31.9407 1.3906 27.5625C4.59777 23.5178 11.3419 24.8159 12.0224 31.1314C12.6888 37.3199 13.7567 38.2003 19.3326 38.8569C19.6069 38.8888 19.8773 38.9349 20.1422 38.9939C25.3286 38.194 26.1804 37.0677 26.5139 31.5993C26.8835 23.3484 37.6983 23.3832 38.4361 31.1103C39.0918 37.3309 40.0994 38.2909 45.6819 38.9496C51.5457 38.2464 52.5786 37.3502 53.0356 31.9291C53.0258 31.7871 53.0205 31.6441 53.0205 31.4994C53.0205 26.042 59.4577 23.2725 63.2393 27.1868C66.7743 30.8455 64.7305 37.2321 59.3909 37.6835C53.3223 38.3405 52.406 39.3815 51.7467 45.2011C51.5298 46.9895 51.3383 48.0771 49.9711 49.4819C48.8919 50.6026 47.4744 51.3068 45.9286 51.3466C40.5357 51.749 38.9041 52.7822 38.4328 58.3796C38.4159 60.3513 38.0763 61.774 36.5974 63.2578C33.0869 66.779 26.9161 64.7282 26.4776 59.2229C25.971 54.2574 24.9688 51.4283 19.5392 51.5198C16.2524 51.5748 13.246 48.6332 13.2135 45.2372C13.1445 39.9724 11.7699 38.0683 6.71501 37.5994ZM31.782 52.6477C37.6878 52.0101 38.9946 51.4311 39.7101 45.2049C38.9995 39.1147 38.1088 38.1027 32.6836 37.6601C26.852 38.4165 25.9692 39.5236 25.4091 45.2721C25.391 45.4608 25.3662 45.6478 25.3359 45.8324C25.9671 50.8678 26.7719 52.1717 31.782 52.6477V52.6477Z" fill="#EFB046" style="fill:#EFB046;fill:color(display-p3 0.9373 0.6902 0.2745);fill-opacity:1;"/>
<path fill-rule="evenodd" clip-rule="evenodd" d="M36.5609 4.19066C36.5609 6.50543 34.7395 8.3816 32.4928 8.3816C30.2462 8.3816 28.4248 6.50543 28.4248 4.19066C28.4248 1.87617 30.2462 0 32.4928 0C34.7395 0 36.5609 1.87617 36.5609 4.19066Z" fill="#EFB046" style="fill:#EFB046;fill:color(display-p3 0.9373 0.6902 0.2745);fill-opacity:1;"/>
<path fill-rule="evenodd" clip-rule="evenodd" d="M19.2232 12.4634C22.1092 12.4634 24.4485 14.8732 24.4485 17.8464C24.4485 20.8194 22.1092 23.2293 19.2232 23.2293C16.3375 23.2293 13.998 20.8194 13.998 17.8464C13.998 14.8732 16.3375 12.4634 19.2232 12.4634Z" fill="#EFB046" style="fill:#EFB046;fill:color(display-p3 0.9373 0.6902 0.2745);fill-opacity:1;"/>
<path fill-rule="evenodd" clip-rule="evenodd" d="M45.7301 12.4634C48.616 12.4634 50.9553 14.8732 50.9553 17.8464C50.9553 20.8194 48.616 23.2293 45.7301 23.2293C42.8443 23.2293 40.5049 20.8194 40.5049 17.8464C40.5049 14.8732 42.8443 12.4634 45.7301 12.4634Z" fill="#EFB046" style="fill:#EFB046;fill:color(display-p3 0.9373 0.6902 0.2745);fill-opacity:1;"/>
</svg>
