<svg width="21" height="22" viewBox="0 0 21 22" fill="none" xmlns="http://www.w3.org/2000/svg">
<path fill-rule="evenodd" clip-rule="evenodd" d="M12.382 21.039C12.2517 21.054 12.2024 21.0975 12.1131 21.1416L11.2071 21.6031C11.1478 21.6355 11.1653 21.6232 11.106 21.6495C10.9557 21.716 10.8254 21.8299 10.6934 21.8408L10.6586 21.8813C10.5468 21.9959 10.3636 21.9752 10.2184 21.9307L10.2131 10.3696C9.98675 10.2086 9.31759 9.97802 9.17085 9.78424C9.04378 9.75999 9.14326 9.75799 9.01276 9.70035L7.81684 9.09556C7.56535 8.98794 7.52524 8.93758 7.35355 8.87776L6.81783 8.59247C6.77381 8.57237 6.74416 8.56527 6.71072 8.54773C6.59378 8.48644 6.71113 8.54736 6.63944 8.49858L6.53985 8.44581C6.50425 8.43163 6.48745 8.42827 6.45129 8.4125L6.08636 8.22797C5.91672 8.12106 5.75542 8.10054 5.6085 8.00175L5.57256 7.97606C5.56702 7.97237 5.55931 7.96754 5.55372 7.96392C5.31716 7.81005 5.09453 7.75562 4.9774 7.68866L4.92303 7.65158C4.91699 7.648 4.90951 7.64325 4.90329 7.63978C4.89692 7.63623 4.88895 7.63231 4.88243 7.62891C4.85331 7.61364 4.83152 7.60677 4.79797 7.58931L4.25397 7.30719C3.91682 7.19398 3.63806 6.93423 3.30348 6.89678C3.23317 6.72556 3.09925 6.72635 2.83706 6.59316L2.53335 6.43688C2.49507 6.41764 2.44096 6.39236 2.41388 6.37448L1.07894 5.69501C0.989893 5.65329 0.951199 5.63318 0.872395 5.59621L0.451038 5.37573C0.410109 5.35947 0.38363 5.35589 0.337711 5.33594C0.26777 5.30549 0.331417 5.33201 0.276522 5.30451C0.0856939 5.20893 0.105172 5.27162 0.119249 5.10418C0.12666 5.09999 0.453236 4.99033 0.641234 4.83281C0.718622 4.76796 0.627454 4.89878 0.696873 4.76562C0.480795 4.79124 0.267212 4.96857 0 5.04258L0.015232 16.5278L0.130273 16.6974C0.25414 16.9022 0.31071 16.8064 0.423554 17.0063C0.53096 17.1965 0.814037 17.3548 1.01049 17.4362C1.20608 17.5173 1.16247 17.5642 1.50033 17.6762L1.86747 17.9174C1.97711 17.9812 1.95018 17.9423 2.07204 17.9869C2.21404 18.0388 2.31854 18.1358 2.46025 18.1803C2.54505 18.2069 2.6218 18.2237 2.6948 18.2576L5.31936 19.6008C5.32919 19.6059 5.4189 19.6529 5.42032 19.6535L5.87594 19.9003C5.93675 19.9644 5.95504 19.9914 6.04464 20.0205L6.15887 20.0727C6.25558 20.1544 6.19294 20.1558 6.33145 20.189C6.52358 20.2351 6.58603 20.2911 6.75128 20.3574L6.93864 20.4526C7.04757 20.5339 7.018 20.4964 7.15237 20.5365L7.81871 20.9103C7.86872 20.9374 7.86425 20.9314 7.9219 20.9599L7.96287 20.9809C7.96887 20.984 7.97635 20.9888 7.98227 20.992C7.98805 20.9951 7.99523 21.0001 8.00101 21.0031L9.19312 21.5813C9.19949 21.585 9.20668 21.5903 9.21282 21.5941L9.40462 21.6731C9.50019 21.7045 9.44983 21.697 9.50834 21.7262C9.58078 21.7624 9.55065 21.7418 9.62405 21.7669C9.81373 21.8318 9.69522 21.815 9.81674 21.8746C9.99249 21.9609 10.1616 21.9929 10.3869 21.9995C10.702 22.0088 10.7905 21.8891 11.0401 21.7736C11.0769 21.7565 11.0995 21.7429 11.1384 21.7214C11.3481 21.6053 11.8381 21.4074 11.9729 21.3146C12.0786 21.2417 12.2095 21.2203 12.3137 21.1287C12.3643 21.0842 12.3476 21.0931 12.3819 21.0389L12.382 21.039Z" fill="#CCECF9" style="fill:#CCECF9;fill:color(display-p3 0.8000 0.9255 0.9765);fill-opacity:1;"/>
<path fill-rule="evenodd" clip-rule="evenodd" d="M10.2998 10.3019C10.3551 10.5114 10.3223 12.7885 10.3224 13.2017C10.3229 14.4432 10.2781 21.747 10.3566 21.9253C10.5405 21.9091 10.4453 21.8504 10.6937 21.8401C10.8257 21.8291 10.956 21.7153 11.1062 21.6488C11.1656 21.6225 11.1481 21.6348 11.2074 21.6024L12.1134 21.1409C12.2026 21.0968 12.252 21.0532 12.3823 21.0383C12.4714 21.0353 12.4818 21.0414 12.5372 21.0122L12.6604 20.9437C12.7796 20.8932 12.6728 20.957 12.7739 20.8835L12.8881 20.8098C13.0852 20.7096 12.9963 20.8094 13.1248 20.6891L13.7054 20.3796C13.7113 20.3761 13.7182 20.3708 13.7243 20.3674L13.8797 20.3038C13.9614 20.2679 14.0089 20.1971 14.0906 20.158C14.2213 20.0953 14.1333 20.1813 14.3485 20.0463L15.3865 19.5274C15.5688 19.4005 15.4451 19.4318 15.5898 19.3949C15.776 19.3475 16.1418 19.1879 16.3058 19.0749C16.3112 19.0711 16.3184 19.0657 16.3239 19.0619C16.4568 18.97 16.4949 18.9866 16.6106 18.9175C16.7172 18.854 16.708 18.8402 16.8428 18.7869L17.5979 18.4116C18.012 18.175 17.8553 18.2887 18.089 18.1685L18.4672 17.9695C18.6808 17.882 18.9732 17.6802 19.0607 17.6517C19.15 17.6227 19.1191 17.6479 19.2036 17.6052L19.4622 17.4674C19.6636 17.3456 20.0375 17.2061 20.1945 16.9095C20.2943 16.7206 20.2517 16.8285 20.356 16.6795C20.4079 16.6054 20.4354 16.4628 20.4959 16.2621C20.535 16.1324 20.5201 15.873 20.5201 15.7266L20.52 8.18267C20.5215 7.18898 20.5511 6.13986 20.5181 5.15273C20.3884 5.09113 20.0502 4.87276 19.8796 4.83398C19.9731 4.96582 19.9975 4.93157 20.1455 5.00924C20.1876 5.03138 20.1726 5.02531 20.225 5.05435L20.354 5.14236C20.4567 5.24477 20.2388 5.02086 20.3979 5.19592L20.1849 5.30256C20.179 5.30573 20.1714 5.31037 20.1656 5.31365C20.1599 5.31693 20.1523 5.32172 20.1467 5.32508C20.0349 5.39189 20.0529 5.40731 19.9198 5.46069C19.7439 5.53123 19.84 5.52519 19.6903 5.59075L19.2684 5.78849C19.1852 5.82436 19.2465 5.7975 19.1898 5.83006L18.328 6.25182C18.2605 6.28596 18.236 6.28392 18.1592 6.3276C18.0993 6.3617 18.1877 6.32919 18.0761 6.37276L17.8954 6.43405C17.8891 6.43707 17.8815 6.44171 17.8752 6.44484C17.8687 6.44805 17.861 6.45235 17.8545 6.45556C17.8479 6.4588 17.8399 6.46269 17.8333 6.46585L17.6683 6.56748C17.6625 6.57147 17.6551 6.5766 17.6489 6.58041C17.6427 6.5843 17.6347 6.58852 17.6283 6.59222L15.8095 7.51259C15.7662 7.56042 15.7374 7.59097 15.6666 7.61594L15.4969 7.69407C15.4599 7.72051 15.4045 7.74722 15.3607 7.76713L14.5296 8.18882C14.5236 8.1921 14.5164 8.19704 14.5106 8.20033L14.3371 8.30236C14.2668 8.35412 14.3497 8.30542 14.2683 8.35144L13.9339 8.47728C13.8321 8.52688 13.9297 8.50195 13.7651 8.5583C13.6191 8.60832 13.7342 8.57901 13.5971 8.63703L12.5988 9.16083C12.5578 9.18339 12.5512 9.18271 12.5141 9.19761L12.1635 9.3388C12.1578 9.34219 12.1509 9.34759 12.1451 9.35094L11.6904 9.60111C11.5286 9.7331 11.4221 9.72597 11.2391 9.8457L11.0625 9.94291C10.8209 10.0901 10.6555 10.1426 10.6336 10.1566L10.3 10.3019H10.2998Z" fill="#57C8F0" style="fill:#57C8F0;fill:color(display-p3 0.3412 0.7843 0.9412);fill-opacity:1;"/>
<path fill-rule="evenodd" clip-rule="evenodd" d="M0.697313 4.76541C0.627894 4.89857 0.719062 4.76775 0.641673 4.8326C0.453675 4.99012 0.1271 5.09978 0.119689 5.10397C0.105611 5.27137 0.0861335 5.20872 0.276962 5.3043C0.331857 5.3318 0.26821 5.30528 0.33815 5.33573C0.38407 5.35572 0.410586 5.35926 0.451478 5.37552L0.872835 5.596C0.951639 5.63297 0.990333 5.65304 1.07938 5.6948L2.41432 6.37427C2.4414 6.39215 2.49551 6.41743 2.53379 6.43667L2.8375 6.59295C3.09972 6.72614 3.23365 6.72535 3.30392 6.89657C3.6385 6.93406 3.91722 7.19377 4.25441 7.30698L4.79841 7.5891C4.83196 7.60656 4.85375 7.61343 4.88287 7.6287C4.88939 7.6321 4.89736 7.63602 4.90373 7.63957C4.90991 7.64304 4.91743 7.64775 4.92347 7.65137L4.97784 7.68845C5.09496 7.75537 5.31756 7.8098 5.55416 7.96371C5.55975 7.96733 5.56746 7.97216 5.573 7.97585L5.60894 8.00154C5.75586 8.1003 5.91716 8.12085 6.0868 8.22776L6.45173 8.41229C6.48785 8.42806 6.50469 8.43142 6.54029 8.4456L6.63988 8.49837C6.71157 8.54714 6.59426 8.48619 6.71116 8.54752C6.7446 8.56506 6.77425 8.57215 6.81827 8.59226L7.35399 8.87755C7.52568 8.93737 7.56579 8.98773 7.81728 9.09535L9.0132 9.70014C9.1437 9.75778 9.04422 9.75978 9.17129 9.78403C9.28898 9.79739 9.25229 9.78422 9.34506 9.82779C9.41229 9.85936 9.34093 9.83013 9.40353 9.86268L10.0318 10.1783C10.0566 10.1933 10.2531 10.3021 10.3 10.3023L10.6336 10.157C10.6555 10.143 10.821 10.0905 11.0625 9.94333L11.2392 9.84612C11.4221 9.72639 11.5286 9.73352 11.6904 9.60154L12.1451 9.35137C12.1509 9.34797 12.1579 9.34258 12.1635 9.33922L12.5141 9.19803C12.5513 9.18313 12.5578 9.18385 12.5989 9.16125L13.5971 8.63745C13.7343 8.57944 13.6191 8.60874 13.7652 8.55873C13.9297 8.50237 13.8321 8.5273 13.934 8.4777L14.2683 8.35186C14.3498 8.30584 14.2668 8.35454 14.3371 8.30279L14.5106 8.20075C14.5165 8.19747 14.5237 8.19253 14.5296 8.18924L15.3608 7.76755C15.4045 7.74764 15.4599 7.72089 15.497 7.69449L15.6667 7.61637C15.7374 7.5914 15.7662 7.56084 15.8095 7.51301L17.6283 6.59264C17.6347 6.58895 17.6427 6.58472 17.649 6.58084C17.6551 6.57703 17.6625 6.57186 17.6684 6.5679L17.8333 6.46628C17.8399 6.46311 17.8479 6.45922 17.8545 6.45598C17.861 6.45277 17.8688 6.44847 17.8752 6.44527C17.8816 6.44214 17.8891 6.43753 17.8954 6.43448L18.0762 6.37318C18.1877 6.32957 18.0993 6.36209 18.1592 6.32803C18.236 6.28431 18.2605 6.28635 18.328 6.25225L19.1899 5.83048C19.2465 5.79793 19.1852 5.82479 19.2684 5.78891L19.6904 5.59118C19.8401 5.52562 19.744 5.53165 19.9199 5.46111C20.0529 5.40774 20.0349 5.39235 20.1467 5.3255C20.1523 5.32215 20.1599 5.31732 20.1656 5.31407C20.1714 5.31079 20.179 5.30611 20.1849 5.30298L20.398 5.19635C20.2389 5.02128 20.4567 5.24519 20.354 5.14278L20.225 5.05478C20.1726 5.02573 20.1877 5.0318 20.1455 5.00966C19.9976 4.93199 19.9732 4.96624 19.8796 4.83441L19.4155 4.60981C19.3897 4.5974 19.3163 4.55682 19.2786 4.53637L17.0958 3.42125C17.0602 3.40816 17.035 3.40884 16.9973 3.3945C16.843 3.33566 16.6739 3.2203 16.5322 3.13298L16.3938 3.05331C16.3881 3.04943 16.3811 3.04358 16.3757 3.03966L15.3487 2.56991C15.2663 2.52672 15.3155 2.53807 15.2207 2.48907L14.5302 2.13977C14.5244 2.13664 14.5169 2.13174 14.5112 2.12842L14.4756 2.10386C14.3914 2.05399 14.3884 2.07101 14.3031 2.02929L13.5689 1.66369C13.5082 1.63521 13.5324 1.64905 13.4885 1.62246L10.4465 0.0559993C10.3847 0.00564113 10.4464 0.00948873 10.2962 0.000397844C10.1471 -0.00861759 9.89103 0.138459 9.87055 0.150416C9.86485 0.153736 9.85774 0.159243 9.85197 0.162638L9.66795 0.281612C9.49202 0.390174 9.2581 0.467352 9.08061 0.578103L8.91764 0.660788C8.67162 0.770595 8.62071 0.843964 8.39908 0.933288L7.56981 1.35766C7.5643 1.36139 7.55685 1.3666 7.55149 1.37037L6.89621 1.68979C6.82773 1.72736 6.89484 1.69364 6.84132 1.72533L6.51526 1.86022C6.38626 1.92189 6.49273 1.86603 6.39117 1.94743C6.27215 2.04283 6.17122 2.028 6.05294 2.10099L6.0182 2.12672C6.01265 2.13012 6.00538 2.13521 5.99965 2.13838C5.96189 2.15927 5.94367 2.16059 5.91384 2.17402L5.28766 2.52208C5.17775 2.58613 5.01225 2.61884 4.88216 2.69899L4.34945 2.96014C4.31817 2.97806 4.31988 2.97413 4.28812 2.99047L3.90802 3.18839C3.90091 3.19152 3.89264 3.19439 3.88572 3.19771L3.82661 3.23279C3.76472 3.27093 3.8487 3.2349 3.74967 3.27855L3.37732 3.45437C3.33304 3.48006 3.40284 3.45176 3.30292 3.49963L1.39892 4.44135C1.39206 4.44418 1.38376 4.44705 1.37724 4.4501C1.37102 4.45304 1.36339 4.45727 1.3575 4.46044C1.35177 4.46353 1.34484 4.46889 1.33937 4.47221L1.28604 4.50963C1.2174 4.54855 1.18675 4.54712 1.11781 4.58522L1.04299 4.63071C1.03126 4.63769 0.989514 4.66172 0.986311 4.66364C0.907172 4.71208 0.830974 4.77858 0.697424 4.7653L0.697313 4.76541Z" fill="#377DBE" style="fill:#377DBE;fill:color(display-p3 0.2157 0.4902 0.7451);fill-opacity:1;"/>
<path fill-rule="evenodd" clip-rule="evenodd" d="M10.6935 21.8407C10.4451 21.8509 10.5403 21.9097 10.3564 21.9259C10.2779 21.7476 10.3227 14.4438 10.3222 13.2022C10.322 12.7891 10.3549 10.5119 10.2996 10.3025C10.2527 10.3022 10.0563 10.1934 10.0314 10.1784L9.40314 9.86283C9.34054 9.83028 9.41189 9.85951 9.34467 9.82794C9.25194 9.78437 9.28858 9.79753 9.1709 9.78418C9.31763 9.97792 9.98683 10.2085 10.2131 10.3695L10.2185 21.9306C10.3637 21.9751 10.5468 21.9959 10.6586 21.8813L10.6934 21.8408L10.6935 21.8407Z" fill="#93DBF6" style="fill:#93DBF6;fill:color(display-p3 0.5765 0.8588 0.9647);fill-opacity:1;"/>
</svg>
