<svg width="16" height="22" viewBox="0 0 16 22" fill="none" xmlns="http://www.w3.org/2000/svg">
<path d="M7.99991 7.31653e-06C6.31221 -0.00227611 4.66713 0.529972 3.30062 1.52042C1.9341 2.51087 0.916348 3.90863 0.393321 5.51324C-0.129706 7.11786 -0.131138 8.84689 0.389231 10.4524C0.9096 12.0579 1.92504 13.4573 3.28991 14.45C3.51902 14.6345 3.70233 14.8696 3.8255 15.1367C3.94868 15.4039 4.00837 15.6959 3.99991 15.99V18C3.99991 19.0609 4.42134 20.0783 5.17148 20.8284C5.92163 21.5786 6.93904 22 7.99991 22C9.06077 22 10.0782 21.5786 10.8283 20.8284C11.5785 20.0783 11.9999 19.0609 11.9999 18V15.99C11.9915 15.6959 12.0511 15.4039 12.1743 15.1367C12.2975 14.8696 12.4808 14.6345 12.7099 14.45C14.0748 13.4573 15.0902 12.0579 15.6106 10.4524C16.131 8.84689 16.1295 7.11786 15.6065 5.51324C15.0835 3.90863 14.0657 2.51087 12.6992 1.52042C11.3327 0.529972 9.68761 -0.00227611 7.99991 7.31653e-06ZM7.99991 20C7.6509 19.9978 7.30852 19.9044 7.00679 19.729C6.70506 19.5535 6.45447 19.3022 6.27991 19H9.71991C9.54535 19.3022 9.29475 19.5535 8.99302 19.729C8.69129 19.9044 8.34892 19.9978 7.99991 20ZM9.99991 17H5.99991V16H9.99991V17ZM8.99991 10.8157V12C8.99991 12.2652 8.89455 12.5196 8.70702 12.7071C8.51948 12.8947 8.26513 13 7.99991 13C7.73469 13 7.48034 12.8947 7.2928 12.7071C7.10527 12.5196 6.99991 12.2652 6.99991 12V10.8157C6.41665 10.6103 5.91127 10.2293 5.55317 9.72518C5.19507 9.22103 5.00181 8.61839 4.99991 8.00001C4.99991 7.73479 5.10527 7.48044 5.2928 7.2929C5.48034 7.10536 5.73469 7.00001 5.99991 7.00001C6.26513 7.00001 6.51948 7.10536 6.70702 7.2929C6.89455 7.48044 6.99991 7.73479 6.99991 8.00001C6.99991 8.26522 7.10527 8.51958 7.2928 8.70711C7.48034 8.89465 7.73469 9.00001 7.99991 9.00001C8.26513 9.00001 8.51948 8.89465 8.70702 8.70711C8.89455 8.51958 8.99991 8.26522 8.99991 8.00001C8.99991 7.73479 9.10527 7.48044 9.2928 7.2929C9.48034 7.10536 9.73469 7.00001 9.99991 7.00001C10.2651 7.00001 10.5195 7.10536 10.707 7.2929C10.8946 7.48044 10.9999 7.73479 10.9999 8.00001C10.998 8.61839 10.8047 9.22103 10.4466 9.72518C10.0885 10.2293 9.58317 10.6103 8.99991 10.8157Z" fill="#EFB046" style="fill:#EFB046;fill:color(display-p3 0.9373 0.6902 0.2745);fill-opacity:1;"/>
</svg>
