<svg width="24" height="20" viewBox="0 0 24 20" fill="none" xmlns="http://www.w3.org/2000/svg">
<path d="M23.5 9L21.24 5.99C21.0096 5.68245 20.7107 5.43285 20.367 5.261C20.0233 5.08915 19.6443 4.99978 19.26 5H18.91C18.5376 4.99975 18.17 5.08319 17.8342 5.24417C17.4984 5.40514 17.203 5.63953 16.97 5.93L14.54 8.97C14.2493 9.33544 14.0676 9.77542 14.0155 10.2395C13.9635 10.7035 14.0433 11.1728 14.2459 11.5935C14.4484 12.0143 14.7655 12.3694 15.1606 12.6182C15.5558 12.8669 16.0131 12.9993 16.48 13H17.91C17.6726 14.3965 16.9493 15.6641 15.8679 16.579C14.7865 17.4939 13.4165 17.9972 12 18C11.2118 18.0033 10.4308 17.8493 9.70275 17.5471C8.97472 17.2449 8.31427 16.8005 7.76003 16.24C7.57146 16.053 7.31647 15.9483 7.05088 15.9488C6.78528 15.9493 6.53072 16.0551 6.34292 16.2429C6.15512 16.4307 6.04937 16.6853 6.04883 16.9509C6.04829 17.2164 6.15299 17.4714 6.34003 17.66C7.39878 18.7176 8.73299 19.4571 10.191 19.7943C11.6491 20.1314 13.1724 20.0529 14.588 19.5675C16.0037 19.0821 17.2547 18.2093 18.199 17.0483C19.1434 15.8874 19.7431 14.4848 19.93 13H21.52C21.848 12.9992 22.1726 12.9335 22.4751 12.8067C22.7776 12.6799 23.052 12.4945 23.2825 12.2612C23.513 12.0279 23.6951 11.7513 23.8182 11.4473C23.9414 11.1433 24.0032 10.818 24 10.49C23.9965 9.95272 23.8213 9.43064 23.5 9Z" fill="#060054" style="fill:#060054;fill:color(display-p3 0.0235 0.0000 0.3294);fill-opacity:1;"/>
<path d="M7.23996 14.01L9.49996 10.99C9.77756 10.6206 9.94704 10.1814 9.98946 9.72127C10.0319 9.26117 9.94558 8.79835 9.74019 8.38446C9.53481 7.97058 9.21842 7.62193 8.82636 7.37744C8.4343 7.13296 7.982 7.00227 7.51996 6.99995H6.08996C6.32738 5.60348 7.05067 4.33584 8.13209 3.42094C9.2135 2.50604 10.5835 2.00274 12 1.99995C12.7882 1.9967 13.5692 2.15068 14.2972 2.45288C15.0253 2.75508 15.6857 3.19944 16.24 3.75995C16.4285 3.94699 16.6835 4.05169 16.9491 4.05115C17.2147 4.05061 17.4693 3.94486 17.6571 3.75706C17.8449 3.56926 17.9506 3.3147 17.9512 3.0491C17.9517 2.78351 17.847 2.52852 17.66 2.33995C16.6012 1.28232 15.267 0.542886 13.809 0.205697C12.3509 -0.131492 10.8275 -0.0529166 9.41194 0.432493C7.99633 0.917903 6.74528 1.79068 5.80096 2.95163C4.85664 4.11259 4.25692 5.51516 4.06996 6.99995H2.47996C2.01301 7.00068 1.55572 7.13301 1.16056 7.38178C0.76539 7.63055 0.448352 7.98567 0.245813 8.40641C0.0432744 8.82714 -0.0365605 9.29645 0.015467 9.7605C0.0674945 10.2245 0.249277 10.6645 0.53996 11.03L2.96996 14.07C3.20298 14.3604 3.4983 14.5948 3.8341 14.7558C4.16989 14.9168 4.53757 15.0002 4.90996 15H5.25996C5.64423 15.0002 6.02326 14.9108 6.36696 14.739C6.71066 14.5671 7.00957 14.3175 7.23996 14.01Z" fill="#060054" style="fill:#060054;fill:color(display-p3 0.0235 0.0000 0.3294);fill-opacity:1;"/>
</svg>
