<svg width="81" height="71" viewBox="0 0 81 71" fill="none" xmlns="http://www.w3.org/2000/svg">
<path fill-rule="evenodd" clip-rule="evenodd" d="M46.4395 60.9103C46.4395 59.0404 47.9523 57.5269 49.8229 57.5269C51.6818 57.5269 53.2076 59.0397 53.2063 60.9103C53.2063 62.768 51.6824 64.2937 49.8229 64.2937C47.953 64.2937 46.4395 62.7698 46.4395 60.9103ZM47.5943 60.9105C47.5943 62.1382 48.5957 63.1391 49.8229 63.1391C51.05 63.1391 52.0509 62.1376 52.0515 60.9105C52.0515 59.6828 51.0501 58.6818 49.8229 58.6818C48.5952 58.6818 47.5943 59.6833 47.5943 60.9105Z" fill="#070058" style="fill:#070058;fill:color(display-p3 0.0275 0.0000 0.3451);fill-opacity:1;"/>
<path fill-rule="evenodd" clip-rule="evenodd" d="M34.457 60.9103C34.457 59.0404 35.9699 57.5269 37.8405 57.5269C39.7 57.5269 41.2257 59.0397 41.2239 60.9103C41.2239 62.768 39.7 64.2937 37.8405 64.2937C35.9706 64.2937 34.457 62.7698 34.457 60.9103ZM35.6118 60.9105C35.6118 62.1382 36.6133 63.1391 37.8405 63.1391C39.0682 63.1391 40.0691 62.1376 40.0691 60.9105C40.0691 59.6828 39.0676 58.6818 37.8405 58.6818C36.6128 58.6818 35.6118 59.6833 35.6118 60.9105Z" fill="#070058" style="fill:#070058;fill:color(display-p3 0.0275 0.0000 0.3451);fill-opacity:1;"/>
<path fill-rule="evenodd" clip-rule="evenodd" d="M58.9742 37.5468C60.2299 37.8337 61.3105 38.6541 61.9314 39.7955V39.7952C62.5523 40.9378 62.6532 42.292 62.2063 43.5119C61.4449 45.6085 60.7055 47.7363 60.0147 49.7358L60.012 49.7434C59.3092 51.7633 57.856 55.9402 54.0959 55.9402H54.0837C54.0401 55.9402 32.8185 55.8697 32.8185 55.8697L32.3539 55.7937C28.5861 54.5378 28.1093 51.2711 28.0521 50.6284L24.0448 30.0933C23.9006 28.5036 23.3661 28.1315 23.2275 28.0609L19.3069 28.0634C18.4951 28.0634 17.8359 27.4042 17.8359 26.5936C17.8359 25.7817 18.4963 25.1226 19.3069 25.1226H23.3909C23.5563 25.1317 26.5543 25.3646 26.9641 29.7223L26.997 29.8871L58.9742 37.5468ZM57.2373 48.7748C57.9318 46.7645 58.6756 44.6227 59.4454 42.5089L59.444 42.509C59.599 42.0809 59.565 41.6041 59.3455 41.2009C59.1277 40.8008 58.7465 40.5119 58.2995 40.4098L27.6159 33.0596L30.2928 46.8052H47.9557C48.2962 46.8052 48.5729 47.0819 48.5729 47.4225C48.5729 47.763 48.2962 48.0397 47.9557 48.0397H30.5341L30.9725 50.2896L30.9749 50.3018C30.9752 50.3041 30.9754 50.3067 30.9757 50.3096C30.9949 50.5029 31.1612 52.182 33.0839 52.9307C35.4719 52.9398 53.9505 53 54.0891 53C55.5699 53 56.476 50.9695 57.2373 48.7748Z" fill="#070058" style="fill:#070058;fill:color(display-p3 0.0275 0.0000 0.3451);fill-opacity:1;"/>
<path d="M34.1776 6.75928C35.7453 6.75928 37.1932 8.19624 37.2292 9.78763C37.2766 11.4496 35.8165 12.934 34.1424 12.934C32.5286 12.934 31.1141 11.5323 31.0788 9.93054C31.0435 8.25516 32.5035 6.77017 34.1776 6.75928V6.75928Z" fill="#070058" style="fill:#070058;fill:color(display-p3 0.0275 0.0000 0.3451);fill-opacity:1;"/>
<path d="M23.5614 6.77017C25.2355 6.81761 26.5186 8.17186 26.5065 9.86904C26.4943 11.5907 25.2246 12.9095 23.5139 12.9206C21.7923 12.9327 20.4381 11.5311 20.4856 9.76147C20.5099 8.10073 21.9469 6.72394 23.5614 6.77017Z" fill="#070058" style="fill:#070058;fill:color(display-p3 0.0275 0.0000 0.3451);fill-opacity:1;"/>
<path d="M12.8753 6.7698C14.4662 6.78196 15.9158 8.21771 15.939 9.81029C15.9743 11.4491 14.4911 12.9334 12.8159 12.9213C11.2129 12.9213 9.7875 11.5087 9.76431 9.90572C9.72843 8.24187 11.2122 6.73446 12.8753 6.76965V6.7698Z" fill="#070058" style="fill:#070058;fill:color(display-p3 0.0275 0.0000 0.3451);fill-opacity:1;"/>
<path fill-rule="evenodd" clip-rule="evenodd" d="M70.513 0H9.81843C4.4081 0 0 4.4081 0 9.80504V61.195C0 66.6053 4.4081 71 9.81843 71H70.513C75.9234 71 80.3181 66.6047 80.3181 61.195V9.80504C80.3181 4.4081 75.9221 0 70.513 0ZM3.08392 9.80504C3.08392 6.10418 6.10371 3.08424 9.81874 3.08424H70.5134C74.2142 3.08424 77.2342 6.10402 77.2342 9.80504V17.0969L70.9475 17.1388V12.1451C70.9475 11.419 70.3577 10.8279 69.6304 10.8279H56.235C55.5418 10.8279 54.9793 11.3916 54.9793 12.0837V17.0816H3.08341L3.08392 9.80504ZM70.5127 67.9173C74.2138 67.9173 77.2335 64.8974 77.2335 61.1965L77.2316 19.3534V18.4582H70.8142C70.1276 18.4582 69.5694 17.9 69.5694 17.2147V12.2167L56.3035 12.2045L56.351 17.2525C56.351 17.939 55.8377 18.4565 55.1566 18.4565H3.08174V61.1971C3.08174 64.8981 6.1034 67.9179 9.81656 67.9179H48.5625L70.5127 67.9173Z" fill="#BBE2FA" style="fill:#BBE2FA;fill:color(display-p3 0.7333 0.8863 0.9804);fill-opacity:1;"/>
</svg>
