<svg width="24" height="30" viewBox="0 0 24 30" fill="none" xmlns="http://www.w3.org/2000/svg">
<g clip-path="url(#clip0_381_759)">
<path d="M12 0C9.62663 0 7.30655 0.703788 5.33316 2.02236C3.35977 3.34094 1.8217 5.21509 0.913451 7.4078C0.00519943 9.60051 -0.232441 12.0133 0.230582 14.3411C0.693605 16.6689 1.83649 18.8071 3.51472 20.4853C5.19295 22.1635 7.33115 23.3064 9.65892 23.7694C11.9867 24.2324 14.3995 23.9948 16.5922 23.0866C18.7849 22.1783 20.6591 20.6402 21.9776 18.6668C23.2962 16.6935 24 14.3734 24 12C23.9974 8.81821 22.7322 5.76751 20.4824 3.51764C18.2325 1.26778 15.1818 0.00264818 12 0ZM17.4886 16C17.1808 17.2039 16.733 18.3676 16.1543 19.4673C16.0304 19.7018 15.8183 19.8775 15.5649 19.9557C15.3114 20.0339 15.0372 20.0082 14.8027 19.8843C14.5682 19.7604 14.3925 19.5483 14.3143 19.2949C14.2361 19.0414 14.2618 18.7672 14.3857 18.5327C14.8038 17.7236 15.141 16.8753 15.3924 16H13V17C13 17.2652 12.8946 17.5196 12.7071 17.7071C12.5196 17.8946 12.2652 18 12 18C11.7348 18 11.4804 17.8946 11.2929 17.7071C11.1054 17.5196 11 17.2652 11 17V16H8.60761C8.85905 16.8753 9.19625 17.7236 9.61431 18.5327C9.67567 18.6488 9.71356 18.7759 9.72582 18.9067C9.73808 19.0374 9.72445 19.1694 9.68573 19.2949C9.64701 19.4204 9.58395 19.537 9.50014 19.6382C9.41634 19.7393 9.31343 19.8229 9.19731 19.8843C9.08118 19.9457 8.9541 19.9836 8.82333 19.9958C8.69256 20.0081 8.56065 19.9944 8.43514 19.9557C8.30964 19.917 8.19298 19.8539 8.09185 19.7701C7.99071 19.6863 7.90707 19.5834 7.84571 19.4673C7.26702 18.3676 6.8192 17.2039 6.51141 16H5.00001C4.73479 16 4.48043 15.8946 4.2929 15.7071C4.10536 15.5196 4.00001 15.2652 4.00001 15C4.00001 14.7348 4.10536 14.4804 4.2929 14.2929C4.48043 14.1054 4.73479 14 5.00001 14H6.12741C5.95754 12.6721 5.95754 11.3279 6.12741 10H5.00001C4.73479 10 4.48043 9.89464 4.2929 9.70711C4.10536 9.51957 4.00001 9.26522 4.00001 9C4.00001 8.73478 4.10536 8.48043 4.2929 8.29289C4.48043 8.10536 4.73479 8 5.00001 8H6.51141C6.8192 6.79608 7.26702 5.63238 7.84571 4.5327C7.90707 4.41657 7.99071 4.31367 8.09185 4.22986C8.19298 4.14606 8.30964 4.083 8.43514 4.04427C8.56065 4.00555 8.69256 3.99193 8.82333 4.00419C8.9541 4.01644 9.08118 4.05433 9.19731 4.1157C9.31343 4.17707 9.41634 4.26071 9.50014 4.36184C9.58395 4.46298 9.64701 4.57963 9.68573 4.70514C9.72445 4.83064 9.73808 4.96255 9.72582 5.09332C9.71356 5.22409 9.67567 5.35117 9.61431 5.4673C9.19625 6.27636 8.85905 7.12471 8.60761 8H11V7C11 6.73478 11.1054 6.48043 11.2929 6.29289C11.4804 6.10536 11.7348 6 12 6C12.2652 6 12.5196 6.10536 12.7071 6.29289C12.8946 6.48043 13 6.73478 13 7V8H15.3924C15.141 7.12471 14.8038 6.27636 14.3857 5.4673C14.2618 5.23277 14.2361 4.95861 14.3143 4.70514C14.3925 4.45166 14.5682 4.23964 14.8027 4.1157C15.0372 3.99176 15.3114 3.96607 15.5649 4.04427C15.8183 4.12248 16.0304 4.29817 16.1543 4.5327C16.733 5.63238 17.1808 6.79608 17.4886 8H19C19.2652 8 19.5196 8.10536 19.7071 8.29289C19.8946 8.48043 20 8.73478 20 9C20 9.26522 19.8946 9.51957 19.7071 9.70711C19.5196 9.89464 19.2652 10 19 10H17.8726C18.0425 11.3279 18.0425 12.6721 17.8726 14H19C19.2652 14 19.5196 14.1054 19.7071 14.2929C19.8946 14.4804 20 14.7348 20 15C20 15.2652 19.8946 15.5196 19.7071 15.7071C19.5196 15.8946 19.2652 16 19 16H17.4886Z" fill="#3571E7" style="fill:#3571E7;fill:color(display-p3 0.2078 0.4431 0.9059);fill-opacity:1;"/>
<path d="M13 10V14H15.8411C15.9418 13.338 15.9949 12.6696 16 12C15.9949 11.3304 15.9418 10.662 15.8411 10H13Z" fill="#3571E7" style="fill:#3571E7;fill:color(display-p3 0.2078 0.4431 0.9059);fill-opacity:1;"/>
<path d="M8 12C8.00508 12.6696 8.05818 13.338 8.1589 14H11V10H8.1589C8.05818 10.662 8.00508 11.3304 8 12Z" fill="#3571E7" style="fill:#3571E7;fill:color(display-p3 0.2078 0.4431 0.9059);fill-opacity:1;"/>
</g>
<defs>
<clipPath id="clip0_381_759">
<rect width="24" height="30" fill="white" style="fill:white;fill-opacity:1;"/>
</clipPath>
</defs>
</svg>
