<svg width="24" height="30" viewBox="0 0 24 30" fill="none" xmlns="http://www.w3.org/2000/svg">
<g clip-path="url(#clip0_381_754)">
<path d="M20.27 2.54005C20.1653 1.83115 19.8082 1.18387 19.2644 0.717216C18.7206 0.250562 18.0266 -0.00409972 17.31 4.99239e-05H8.44C7.21646 0.00317031 6.03618 0.453044 5.12098 1.26512C4.20578 2.0772 3.61868 3.19557 3.47 4.41005C2.80544 9.76554 2.84579 15.185 3.59 20.5301C3.72285 21.4878 4.19623 22.3657 4.92345 23.0029C5.65068 23.6401 6.5831 23.9941 7.55 24H17.31C18.0298 24.0004 18.7257 23.7421 19.2709 23.2721C19.8161 22.8022 20.1742 22.152 20.28 21.4401C20.7598 18.3163 21.0005 15.1604 21 12C21.0021 8.83257 20.7581 5.66971 20.27 2.54005ZM7 4.00005C7 3.73483 7.10536 3.48048 7.29289 3.29294C7.48043 3.10541 7.73479 3.00005 8 3.00005C8.26522 3.00005 8.51957 3.10541 8.70711 3.29294C8.89464 3.48048 9 3.73483 9 4.00005V14C9 14.2653 8.89464 14.5196 8.70711 14.7072C8.51957 14.8947 8.26522 15 8 15C7.73479 15 7.48043 14.8947 7.29289 14.7072C7.10536 14.5196 7 14.2653 7 14V4.00005ZM18.3 21.13C18.2684 21.3704 18.1506 21.5911 17.9685 21.7511C17.7864 21.9111 17.5524 21.9996 17.31 22H7.55C7.06437 22.002 6.59483 21.8261 6.23003 21.5055C5.86524 21.185 5.63045 20.7419 5.57 20.26C5.55 20.08 5.53 19.91 5.51 19.73L5.57 19.74C5.63045 19.2582 5.86524 18.8151 6.23003 18.4946C6.59483 18.174 7.06437 17.9981 7.55 18H18.69C18.58 19.05 18.46 20.1 18.3 21.13Z" fill="#6FC3B6" style="fill:#6FC3B6;fill:color(display-p3 0.4353 0.7647 0.7137);fill-opacity:1;"/>
<path d="M12 21H16C16.2652 21 16.5196 20.8946 16.7071 20.7071C16.8946 20.5196 17 20.2652 17 20C17 19.7348 16.8946 19.4804 16.7071 19.2929C16.5196 19.1054 16.2652 19 16 19H12C11.7348 19 11.4804 19.1054 11.2929 19.2929C11.1054 19.4804 11 19.7348 11 20C11 20.2652 11.1054 20.5196 11.2929 20.7071C11.4804 20.8946 11.7348 21 12 21Z" fill="#6FC3B6" style="fill:#6FC3B6;fill:color(display-p3 0.4353 0.7647 0.7137);fill-opacity:1;"/>
</g>
<defs>
<clipPath id="clip0_381_754">
<rect width="24" height="30" fill="white" style="fill:white;fill-opacity:1;"/>
</clipPath>
</defs>
</svg>
