<svg width="24" height="30" viewBox="0 0 24 30" fill="none" xmlns="http://www.w3.org/2000/svg">
<g clip-path="url(#clip0_381_765)">
<path d="M23.53 4.35001C23.3742 3.14553 22.7845 2.0392 21.8714 1.23839C20.9583 0.437588 19.7845 -0.00271595 18.57 1.26059e-05H11.31C10.111 0.00345984 8.95278 0.435879 8.04488 1.21906C7.13697 2.00224 6.53932 3.08447 6.36 4.27001C6.23 5.17001 6.13 6.09001 6.06 7.00001H5C3.67406 7.00049 2.40257 7.52743 1.46499 8.465C0.527415 9.40258 0.000477231 10.6741 1.51347e-07 12V20C-0.000144374 20.5253 0.10322 21.0456 0.304188 21.5309C0.505155 22.0163 0.799788 22.4573 1.17125 22.8288C1.54271 23.2002 1.98373 23.4949 2.4691 23.6958C2.95446 23.8968 3.47467 24.0002 4 24H18.56C19.7835 23.9969 20.9638 23.547 21.879 22.7349C22.7942 21.9229 23.3813 20.8045 23.53 19.59C23.8415 17.072 23.9985 14.5372 24 12C23.9985 9.44284 23.8416 6.88813 23.53 4.35001ZM16 17H11C10.7348 17 10.4804 16.8947 10.2929 16.7071C10.1054 16.5196 10 16.2652 10 16C10 15.7348 10.1054 15.4804 10.2929 15.2929C10.4804 15.1054 10.7348 15 11 15H16C16.2652 15 16.5196 15.1054 16.7071 15.2929C16.8946 15.4804 17 15.7348 17 16C17 16.2652 16.8946 16.5196 16.7071 16.7071C16.5196 16.8947 16.2652 17 16 17ZM11 14C10.7348 14 10.4804 13.8947 10.2929 13.7071C10.1054 13.5196 10 13.2652 10 13C10 12.7348 10.1054 12.4804 10.2929 12.2929C10.4804 12.1054 10.7348 12 11 12H19C19.2652 12 19.5196 12.1054 19.7071 12.2929C19.8946 12.4804 20 12.7348 20 13C20 13.2652 19.8946 13.5196 19.7071 13.7071C19.5196 13.8947 19.2652 14 19 14H11ZM17 10H13C12.2044 10 11.4413 9.68394 10.8787 9.12133C10.3161 8.55872 10 7.79566 10 7.00001C10 6.20436 10.3161 5.4413 10.8787 4.87869C11.4413 4.31608 12.2044 4.00001 13 4.00001H17C17.7956 4.00001 18.5587 4.31608 19.1213 4.87869C19.6839 5.4413 20 6.20436 20 7.00001C20 7.79566 19.6839 8.55872 19.1213 9.12133C18.5587 9.68394 17.7956 10 17 10ZM6.83 19.98C6.62861 20.5703 6.2473 21.0826 5.73968 21.4449C5.23207 21.8072 4.62366 22.0014 4 22C3.47005 21.9985 2.96224 21.7872 2.58751 21.4125C2.21277 21.0378 2.00156 20.53 2 20V12C2.00232 11.2051 2.31914 10.4434 2.88124 9.88126C3.44335 9.31915 4.20506 9.00233 5 9.00001H5.96C5.94 10.02 5.95 11.04 6 12.05C6.11005 14.2304 6.40105 16.3978 6.87 18.53C6.99439 19.0074 6.98052 19.5102 6.83 19.98Z" fill="#E5614D" style="fill:#E5614D;fill:color(display-p3 0.8980 0.3804 0.3020);fill-opacity:1;"/>
<path d="M17 6H13C12.7348 6 12.4804 6.10536 12.2929 6.29289C12.1054 6.48043 12 6.73478 12 7C12 7.26522 12.1054 7.51957 12.2929 7.70711C12.4804 7.89464 12.7348 8 13 8H17C17.2652 8 17.5196 7.89464 17.7071 7.70711C17.8946 7.51957 18 7.26522 18 7C18 6.73478 17.8946 6.48043 17.7071 6.29289C17.5196 6.10536 17.2652 6 17 6Z" fill="#E5614D" style="fill:#E5614D;fill:color(display-p3 0.8980 0.3804 0.3020);fill-opacity:1;"/>
</g>
<defs>
<clipPath id="clip0_381_765">
<rect width="24" height="30" fill="white" style="fill:white;fill-opacity:1;"/>
</clipPath>
</defs>
</svg>
