<svg width="24" height="21" viewBox="0 0 24 21" fill="none" xmlns="http://www.w3.org/2000/svg">
<path d="M17.85 0H5.25C3.85777 0.000500933 2.5227 0.553785 1.53824 1.53824C0.553785 2.5227 0.000500933 3.85777 0 5.25V15.75C0.000500933 17.1422 0.553785 18.4773 1.53824 19.4618C2.5227 20.4462 3.85777 20.9995 5.25 21H17.85C19.2422 20.9995 20.5773 20.4462 21.5618 19.4618C22.5462 18.4773 23.0995 17.1422 23.1 15.75V5.25C23.0995 3.85777 22.5462 2.5227 21.5618 1.53824C20.5773 0.553785 19.2422 0.000500933 17.85 0ZM8.4 18.9H5.25C4.41532 18.8976 3.61552 18.5649 3.02531 17.9747C2.43509 17.3845 2.10244 16.5847 2.1 15.75V8.4H8.4V18.9ZM19.95 12.6C19.95 12.8785 19.8394 13.1455 19.6425 13.3425C19.4456 13.5394 19.1785 13.65 18.9 13.65C18.6215 13.65 18.3545 13.5394 18.1575 13.3425C17.9606 13.1455 17.85 12.8785 17.85 12.6V10.5C17.85 10.2215 17.9606 9.95445 18.1575 9.75754C18.3545 9.56062 18.6215 9.45 18.9 9.45C19.1785 9.45 19.4456 9.56062 19.6425 9.75754C19.8394 9.95445 19.95 10.2215 19.95 10.5V12.6ZM11.55 12.6V10.5C11.55 10.2215 11.6606 9.95445 11.8575 9.75754C12.0545 9.56062 12.3215 9.45 12.6 9.45C12.8785 9.45 13.1455 9.56062 13.3425 9.75754C13.5394 9.95445 13.65 10.2215 13.65 10.5V12.6C13.65 12.8785 13.5394 13.1455 13.3425 13.3425C13.1455 13.5394 12.8785 13.65 12.6 13.65C12.3215 13.65 12.0545 13.5394 11.8575 13.3425C11.6606 13.1455 11.55 12.8785 11.55 12.6ZM16.8 12.6C16.8 12.8785 16.6894 13.1455 16.4925 13.3425C16.2956 13.5394 16.0285 13.65 15.75 13.65C15.4715 13.65 15.2045 13.5394 15.0075 13.3425C14.8106 13.1455 14.7 12.8785 14.7 12.6V10.5C14.7 10.2215 14.8106 9.95445 15.0075 9.75754C15.2045 9.56062 15.4715 9.45 15.75 9.45C16.0285 9.45 16.2956 9.56062 16.4925 9.75754C16.6894 9.95445 16.8 10.2215 16.8 10.5V12.6ZM21 6.3H2.1V5.25C2.10244 4.41532 2.43509 3.61552 3.02531 3.02531C3.61552 2.43509 4.41532 2.10244 5.25 2.1H17.85C18.6847 2.10244 19.4845 2.43509 20.0747 3.02531C20.6649 3.61552 20.9976 4.41532 21 5.25V6.3Z" fill="#3571E7" style="fill:#3571E7;fill:color(display-p3 0.2078 0.4431 0.9059);fill-opacity:1;"/>
<path d="M5.24972 3.15002H4.19972C3.92124 3.15002 3.65417 3.26065 3.45726 3.45756C3.26034 3.65448 3.14972 3.92155 3.14972 4.20002C3.14972 4.4785 3.26034 4.74557 3.45726 4.94249C3.65417 5.1394 3.92124 5.25002 4.19972 5.25002H5.24972C5.5282 5.25002 5.79527 5.1394 5.99218 4.94249C6.18909 4.74557 6.29972 4.4785 6.29972 4.20002C6.29972 3.92155 6.18909 3.65448 5.99218 3.45756C5.79527 3.26065 5.5282 3.15002 5.24972 3.15002Z" fill="#3571E7" style="fill:#3571E7;fill:color(display-p3 0.2078 0.4431 0.9059);fill-opacity:1;"/>
<path d="M9.45059 3.15002H8.40059C8.12211 3.15002 7.85504 3.26065 7.65812 3.45756C7.46121 3.65448 7.35059 3.92155 7.35059 4.20002C7.35059 4.4785 7.46121 4.74557 7.65812 4.94249C7.85504 5.1394 8.12211 5.25002 8.40059 5.25002H9.45059C9.72906 5.25002 9.99613 5.1394 10.193 4.94249C10.39 4.74557 10.5006 4.4785 10.5006 4.20002C10.5006 3.92155 10.39 3.65448 10.193 3.45756C9.99613 3.26065 9.72906 3.15002 9.45059 3.15002Z" fill="#3571E7" style="fill:#3571E7;fill:color(display-p3 0.2078 0.4431 0.9059);fill-opacity:1;"/>
<path d="M13.6502 3.15002H12.6002C12.3218 3.15002 12.0547 3.26065 11.8578 3.45756C11.6609 3.65448 11.5502 3.92155 11.5502 4.20002C11.5502 4.4785 11.6609 4.74557 11.8578 4.94249C12.0547 5.1394 12.3218 5.25002 12.6002 5.25002H13.6502C13.9287 5.25002 14.1958 5.1394 14.3927 4.94249C14.5896 4.74557 14.7002 4.4785 14.7002 4.20002C14.7002 3.92155 14.5896 3.65448 14.3927 3.45756C14.1958 3.26065 13.9287 3.15002 13.6502 3.15002Z" fill="#3571E7" style="fill:#3571E7;fill:color(display-p3 0.2078 0.4431 0.9059);fill-opacity:1;"/>
<path d="M4.19972 11.5501H6.29972C6.5782 11.5501 6.84527 11.4394 7.04218 11.2425C7.23909 11.0456 7.34972 10.7786 7.34972 10.5001C7.34972 10.2216 7.23909 9.95452 7.04218 9.75761C6.84527 9.5607 6.5782 9.45007 6.29972 9.45007H4.19972C3.92124 9.45007 3.65417 9.5607 3.45726 9.75761C3.26034 9.95452 3.14972 10.2216 3.14972 10.5001C3.14972 10.7786 3.26034 11.0456 3.45726 11.2425C3.65417 11.4394 3.92124 11.5501 4.19972 11.5501Z" fill="#3571E7" style="fill:#3571E7;fill:color(display-p3 0.2078 0.4431 0.9059);fill-opacity:1;"/>
<path d="M4.19972 14.6998H6.29972C6.5782 14.6998 6.84527 14.5892 7.04218 14.3923C7.23909 14.1953 7.34972 13.9283 7.34972 13.6498C7.34972 13.3713 7.23909 13.1042 7.04218 12.9073C6.84527 12.7104 6.5782 12.5998 6.29972 12.5998H4.19972C3.92124 12.5998 3.65417 12.7104 3.45726 12.9073C3.26034 13.1042 3.14972 13.3713 3.14972 13.6498C3.14972 13.9283 3.26034 14.1953 3.45726 14.3923C3.65417 14.5892 3.92124 14.6998 4.19972 14.6998Z" fill="#3571E7" style="fill:#3571E7;fill:color(display-p3 0.2078 0.4431 0.9059);fill-opacity:1;"/>
<path d="M4.19972 17.8501H6.29972C6.5782 17.8501 6.84527 17.7395 7.04218 17.5426C7.23909 17.3457 7.34972 17.0786 7.34972 16.8001C7.34972 16.5216 7.23909 16.2546 7.04218 16.0577C6.84527 15.8607 6.5782 15.7501 6.29972 15.7501H4.19972C3.92124 15.7501 3.65417 15.8607 3.45726 16.0577C3.26034 16.2546 3.14972 16.5216 3.14972 16.8001C3.14972 17.0786 3.26034 17.3457 3.45726 17.5426C3.65417 17.7395 3.92124 17.8501 4.19972 17.8501Z" fill="#3571E7" style="fill:#3571E7;fill:color(display-p3 0.2078 0.4431 0.9059);fill-opacity:1;"/>
</svg>
