<svg width="23" height="22" viewBox="0 0 23 22" fill="none" xmlns="http://www.w3.org/2000/svg">
<path d="M3.81498 17.9779C3.56205 17.9779 3.31951 18.0785 3.14067 18.2573C2.96167 18.4362 2.86124 18.6787 2.86124 18.9318V20.8395V20.8393C2.86124 21.18 3.04311 21.4949 3.33819 21.6653C3.63327 21.8357 3.99684 21.8357 4.29193 21.6653C4.58702 21.4949 4.76889 21.18 4.76889 20.8393V18.9318C4.76889 18.6787 4.66829 18.4362 4.48946 18.2573C4.31062 18.0785 4.06805 17.9779 3.81498 17.9779L3.81498 17.9779Z" fill="#070058"/>
<path d="M8.58411 14.1628C8.33119 14.1628 8.08848 14.2633 7.90964 14.4423C7.73081 14.6211 7.63037 14.8637 7.63037 15.1166V20.8394C7.63037 21.1801 7.81208 21.495 8.10716 21.6654C8.40224 21.8357 8.76598 21.8357 9.06107 21.6654C9.35615 21.495 9.53786 21.1801 9.53786 20.8394V15.1166C9.53786 14.8637 9.43742 14.6211 9.25859 14.4423C9.07975 14.2633 8.83706 14.1628 8.58411 14.1628V14.1628Z" fill="#070058"/>
<path d="M14.3069 17.9779C14.054 17.9779 13.8113 18.0785 13.6324 18.2573C13.4536 18.4362 13.3531 18.6787 13.3531 18.9318V20.8395V20.8393C13.3531 21.18 13.5349 21.4949 13.8299 21.6653C14.125 21.8357 14.4888 21.8357 14.7838 21.6653C15.0789 21.4949 15.2606 21.18 15.2606 20.8393V18.9318C15.2606 18.6787 15.1602 18.4362 14.9814 18.2573C14.8025 18.0785 14.5598 17.9779 14.3069 17.9779V17.9779Z" fill="#070058"/>
<path d="M19.076 16.0706C18.8229 16.0706 18.5804 16.171 18.4016 16.3498C18.2227 16.5287 18.1221 16.7714 18.1221 17.0243V20.8394C18.1221 21.1802 18.304 21.4951 18.5991 21.6654C18.8942 21.8358 19.2577 21.8358 19.5528 21.6654C19.8479 21.4951 20.0298 21.1802 20.0298 20.8394V17.0243C20.0298 16.7714 19.9293 16.5287 19.7504 16.3498C19.5715 16.171 19.3289 16.0706 19.076 16.0706L19.076 16.0706Z" fill="#070058"/>
<path d="M21.9374 4.62497H21.7656C21.4643 3.76974 20.775 3.10835 19.9079 2.84282C19.0411 2.57711 18.0995 2.73902 17.3709 3.27873C16.6423 3.81843 16.2132 4.6719 16.2147 5.57872C16.2158 6.0905 16.3576 6.59202 16.6247 7.02842L15.2989 8.63092C14.9823 8.50909 14.6463 8.44442 14.307 8.44011C14.0183 8.44346 13.732 8.49168 13.4581 8.58318L10.9686 5.2544C11.277 4.78366 11.4427 4.23374 11.4456 3.67107C11.451 2.74177 11.0046 1.86753 10.2485 1.32701C9.49227 0.786332 8.52078 0.646778 7.64307 0.952411C6.76532 1.25819 6.09068 1.97115 5.8341 2.86452C5.5775 3.75789 5.77071 4.72013 6.35226 5.44521L4.4352 8.50682C4.23114 8.4653 4.02357 8.44295 3.81518 8.44007C3.22516 8.44311 2.65051 8.62785 2.16923 8.96923C1.68798 9.31046 1.32344 9.79188 1.12559 10.3477H0.953784C0.613037 10.3477 0.298157 10.5294 0.127782 10.8245C-0.0425939 11.1196 -0.0425939 11.4833 0.127782 11.7784C0.298157 12.0735 0.613033 12.2552 0.953784 12.2552H1.12559C1.40263 13.0506 2.01659 13.6829 2.80331 13.9832C3.59003 14.2837 4.46921 14.2214 5.20578 13.8131C5.94238 13.4049 6.46115 12.6924 6.62339 11.8659C6.78546 11.0396 6.57469 10.1837 6.04711 9.52744L7.96416 6.46566C8.16839 6.50734 8.37596 6.52969 8.58419 6.53241C8.87288 6.52921 9.15916 6.48083 9.43304 6.38934L11.9224 9.71812H11.9225C11.6142 10.1889 11.4484 10.7388 11.4456 11.3015C11.4456 12.3237 11.991 13.2683 12.8763 13.7795C13.7615 14.2906 14.8524 14.2906 15.7377 13.7795C16.6229 13.2683 17.1684 12.3237 17.1684 11.3015C17.1672 10.7897 17.0253 10.2881 16.7582 9.85175L18.084 8.24924C18.799 8.52708 19.5963 8.50073 20.2913 8.17659C20.9864 7.85245 21.5189 7.25862 21.7656 6.53239H21.9374C22.2782 6.53239 22.593 6.35068 22.7634 6.0556C22.9338 5.76053 22.9338 5.39679 22.7634 5.1017C22.593 4.80661 22.2782 4.62491 21.9374 4.62491L21.9374 4.62497Z" fill="#070058"/>
</svg>
