<svg width="24" height="20" viewBox="0 0 24 20" fill="none" xmlns="http://www.w3.org/2000/svg">
<path d="M0.991171 5.92458C1.25405 5.92458 1.50615 5.82055 1.69203 5.63537C1.87792 5.45019 1.98234 5.19904 1.98234 4.93715V2.96229C1.98258 2.70048 2.08708 2.44946 2.27291 2.26433C2.45874 2.07921 2.71071 1.9751 2.97351 1.97486H4.95585C5.21873 1.97486 5.47084 1.87083 5.65672 1.68565C5.8426 1.50047 5.94703 1.24931 5.94703 0.987431C5.94703 0.725548 5.8426 0.474391 5.65672 0.289212C5.47084 0.104033 5.21873 0 4.95585 0H2.97351C2.18515 0.0008625 1.42933 0.313237 0.871878 0.868588C0.314424 1.42394 0.000865767 2.17691 0 2.96229V4.93715C0 5.19904 0.104427 5.45019 0.290307 5.63537C0.476188 5.82055 0.728296 5.92458 0.991171 5.92458Z" fill="#E5614D" style="fill:#E5614D;fill:color(display-p3 0.8980 0.3804 0.3020);fill-opacity:1;"/>
<path d="M4.95585 17.7738H2.97351C2.71071 17.7736 2.45874 17.6695 2.27291 17.4843C2.08708 17.2992 1.98258 17.0482 1.98234 16.7864V14.8115C1.98234 14.5496 1.87792 14.2985 1.69203 14.1133C1.50615 13.9281 1.25405 13.8241 0.991171 13.8241C0.728296 13.8241 0.476188 13.9281 0.290307 14.1133C0.104427 14.2985 0 14.5496 0 14.8115L0 16.7864C0.000865767 17.5718 0.314424 18.3247 0.871878 18.8801C1.42933 19.4354 2.18515 19.7478 2.97351 19.7487H4.95585C5.21873 19.7487 5.47084 19.6446 5.65672 19.4595C5.8426 19.2743 5.94703 19.0231 5.94703 18.7613C5.94703 18.4994 5.8426 18.2482 5.65672 18.063C5.47084 17.8779 5.21873 17.7738 4.95585 17.7738Z" fill="#E5614D" style="fill:#E5614D;fill:color(display-p3 0.8980 0.3804 0.3020);fill-opacity:1;"/>
<path d="M20.8151 0H18.8327C18.5698 0 18.3177 0.104033 18.1319 0.289212C17.946 0.474391 17.8416 0.725548 17.8416 0.987431C17.8416 1.24931 17.946 1.50047 18.1319 1.68565C18.3177 1.87083 18.5698 1.97486 18.8327 1.97486H20.8151C21.0779 1.9751 21.3298 2.07921 21.5157 2.26433C21.7015 2.44946 21.806 2.70048 21.8062 2.96229V4.93715C21.8062 5.19904 21.9107 5.45019 22.0965 5.63537C22.2824 5.82055 22.5345 5.92458 22.7974 5.92458C23.0603 5.92458 23.3124 5.82055 23.4983 5.63537C23.6842 5.45019 23.7886 5.19904 23.7886 4.93715V2.96229C23.7877 2.17691 23.4742 1.42394 22.9167 0.868588C22.3592 0.313237 21.6034 0.0008625 20.8151 0Z" fill="#E5614D" style="fill:#E5614D;fill:color(display-p3 0.8980 0.3804 0.3020);fill-opacity:1;"/>
<path d="M22.7974 13.8241C22.5345 13.8241 22.2824 13.9281 22.0965 14.1133C21.9107 14.2985 21.8062 14.5496 21.8062 14.8115V16.7864C21.806 17.0482 21.7015 17.2992 21.5157 17.4843C21.3298 17.6695 21.0779 17.7736 20.8151 17.7738H18.8327C18.5698 17.7738 18.3177 17.8779 18.1319 18.063C17.946 18.2482 17.8416 18.4994 17.8416 18.7613C17.8416 19.0231 17.946 19.2743 18.1319 19.4595C18.3177 19.6446 18.5698 19.7487 18.8327 19.7487H20.8151C21.6034 19.7478 22.3592 19.4354 22.9167 18.8801C23.4742 18.3247 23.7877 17.5718 23.7886 16.7864V14.8115C23.7886 14.5496 23.6842 14.2985 23.4983 14.1133C23.3124 13.9281 23.0603 13.8241 22.7974 13.8241Z" fill="#E5614D" style="fill:#E5614D;fill:color(display-p3 0.8980 0.3804 0.3020);fill-opacity:1;"/>
<path d="M21.5975 12.254C21.7356 11.4682 21.8052 10.672 21.8056 9.87427C21.8028 9.05004 21.7298 8.22753 21.5875 7.41557C21.4028 6.42089 20.9159 5.50675 20.1926 4.79679C19.4694 4.08684 18.5446 3.61534 17.5436 3.44609C13.808 2.80426 9.9897 2.80426 6.25413 3.44609C5.24074 3.62191 4.30656 4.10513 3.57921 4.82974C2.85185 5.55435 2.3668 6.485 2.19032 7.49456C2.05221 8.28034 1.98257 9.07654 1.98218 9.87427C1.98502 10.6985 2.05797 11.521 2.20024 12.333C2.38494 13.3276 2.87186 14.2418 3.59514 14.9517C4.31842 15.6617 5.24315 16.1332 6.24421 16.3024C8.10982 16.6264 10.0002 16.7883 11.8939 16.7863C13.7843 16.7879 15.6713 16.626 17.5337 16.3024C18.547 16.1266 19.4812 15.6434 20.2086 14.9188C20.9359 14.1942 21.421 13.2635 21.5975 12.254ZM17.3453 6.91198V8.88684C17.3453 9.14872 17.2409 9.39988 17.055 9.58506C16.8691 9.77024 16.617 9.87427 16.3542 9.87427C16.0913 9.87427 15.8392 9.77024 15.6533 9.58506C15.4674 9.39988 15.363 9.14872 15.363 8.88684V6.91198C15.363 6.65009 15.4674 6.39894 15.6533 6.21376C15.8392 6.02858 16.0913 5.92455 16.3542 5.92455C16.617 5.92455 16.8691 6.02858 17.055 6.21376C17.2409 6.39894 17.3453 6.65009 17.3453 6.91198ZM12.3895 6.91198C12.3895 6.65009 12.4939 6.39894 12.6798 6.21376C12.8657 6.02858 13.1178 5.92455 13.3806 5.92455C13.6435 5.92455 13.8956 6.02858 14.0815 6.21376C14.2674 6.39894 14.3718 6.65009 14.3718 6.91198V12.8366C14.3718 13.0984 14.2674 13.3496 14.0815 13.5348C13.8956 13.72 13.6435 13.824 13.3806 13.824C13.1178 13.824 12.8657 13.72 12.6798 13.5348C12.4939 13.3496 12.3895 13.0984 12.3895 12.8366V6.91198ZM16.3542 13.824C16.0913 13.824 15.8392 13.72 15.6533 13.5348C15.4674 13.3496 15.363 13.0984 15.363 12.8366V11.8491C15.363 11.5872 15.4674 11.3361 15.6533 11.1509C15.8392 10.9657 16.0913 10.8617 16.3542 10.8617C16.617 10.8617 16.8691 10.9657 17.055 11.1509C17.2409 11.3361 17.3453 11.5872 17.3453 11.8491V12.8366C17.3453 13.0984 17.2409 13.3496 17.055 13.5348C16.8691 13.72 16.617 13.824 16.3542 13.824ZM6.44245 6.91198C6.44245 6.65009 6.54687 6.39894 6.73276 6.21376C6.91864 6.02858 7.17074 5.92455 7.43362 5.92455C7.69649 5.92455 7.9486 6.02858 8.13448 6.21376C8.32036 6.39894 8.42479 6.65009 8.42479 6.91198V8.88684C8.42479 9.14872 8.32036 9.39988 8.13448 9.58506C7.9486 9.77024 7.69649 9.87427 7.43362 9.87427C7.17074 9.87427 6.91864 9.77024 6.73276 9.58506C6.54687 9.39988 6.44245 9.14872 6.44245 8.88684V6.91198ZM6.44245 11.8491C6.44245 11.5872 6.54687 11.3361 6.73276 11.1509C6.91864 10.9657 7.17074 10.8617 7.43362 10.8617C7.69649 10.8617 7.9486 10.9657 8.13448 11.1509C8.32036 11.3361 8.42479 11.5872 8.42479 11.8491V12.8366C8.42479 13.0984 8.32036 13.3496 8.13448 13.5348C7.9486 13.72 7.69649 13.824 7.43362 13.824C7.17074 13.824 6.91864 13.72 6.73276 13.5348C6.54687 13.3496 6.44245 13.0984 6.44245 12.8366V11.8491ZM11.3983 10.8617C11.3983 11.1236 11.2939 11.3747 11.108 11.5599C10.9221 11.7451 10.67 11.8491 10.4071 11.8491C10.1443 11.8491 9.89215 11.7451 9.70627 11.5599C9.52039 11.3747 9.41596 11.1236 9.41596 10.8617V6.91198C9.41596 6.65009 9.52039 6.39894 9.70627 6.21376C9.89215 6.02858 10.1443 5.92455 10.4071 5.92455C10.67 5.92455 10.9221 6.02858 11.108 6.21376C11.2939 6.39894 11.3983 6.65009 11.3983 6.91198V10.8617Z" fill="#E5614D" style="fill:#E5614D;fill:color(display-p3 0.8980 0.3804 0.3020);fill-opacity:1;"/>
</svg>
