<svg width="15" height="13" viewBox="0 0 15 13" fill="none" xmlns="http://www.w3.org/2000/svg">
<path id="Shape" fill-rule="evenodd" clip-rule="evenodd" d="M11.4 1.32251V0.72255C11.4 0.508198 11.2856 0.310118 11.1 0.202941C10.9144 0.0957643 10.6856 0.0957643 10.5 0.202941C10.3143 0.310118 10.2 0.508195 10.2 0.72255V1.32251H7.79996V0.72255C7.79996 0.508198 7.68565 0.310118 7.50003 0.202941C7.31441 0.0957643 7.08559 0.0957643 6.89996 0.202941C6.71433 0.310118 6.60003 0.508195 6.60003 0.72255V1.32251H4.19996V0.72255C4.19996 0.508198 4.08566 0.310118 3.90003 0.202941C3.71441 0.0957643 3.48559 0.0957643 3.29996 0.202941C3.11433 0.310118 3.00003 0.508195 3.00003 0.72255V1.32251C2.20441 1.32282 1.44152 1.63903 0.879017 2.20153C0.316414 2.76413 0.000308571 3.52702 0 4.32255V9.12263C0.000301346 9.91818 0.316414 10.681 0.879017 11.2435C1.44152 11.8061 2.20441 12.1222 3.00003 12.1226H11.3999C12.1955 12.1223 12.9584 11.8061 13.5209 11.2435C14.0835 10.681 14.3996 9.91815 14.3999 9.12263V4.32255C14.3996 3.527 14.0835 2.76413 13.5209 2.20153C12.9584 1.63906 12.1955 1.32285 11.4 1.32251ZM4.19996 9.72259H3.00003C2.78568 9.72259 2.5876 9.60819 2.48042 9.42256C2.37325 9.23693 2.37325 9.00823 2.48042 8.8226C2.5876 8.63697 2.78568 8.52256 3.00003 8.52256H4.19996C4.41431 8.52256 4.61239 8.63697 4.71957 8.8226C4.82675 9.00822 4.82675 9.23693 4.71957 9.42256C4.61239 9.60819 4.41432 9.72259 4.19996 9.72259ZM6.60003 9.72259H7.79996C8.01432 9.72259 8.21239 9.60819 8.31957 9.42256C8.42675 9.23693 8.42675 9.00822 8.31957 8.8226C8.21239 8.63697 8.01431 8.52256 7.79996 8.52256H6.60003C6.38568 8.52256 6.1876 8.63697 6.08042 8.8226C5.97324 9.00823 5.97324 9.23693 6.08042 9.42256C6.1876 9.60819 6.38568 9.72259 6.60003 9.72259ZM7.79996 7.32263H6.60003C6.38568 7.32263 6.1876 7.20822 6.08042 7.0226C5.97324 6.83697 5.97324 6.60826 6.08042 6.42263C6.1876 6.23701 6.38568 6.1226 6.60003 6.1226H7.79996C8.01431 6.1226 8.21239 6.23701 8.31957 6.42263C8.42675 6.60826 8.42675 6.83697 8.31957 7.0226C8.21239 7.20822 8.01432 7.32263 7.79996 7.32263ZM10.2 9.72259H11.4C11.6143 9.72259 11.8124 9.60819 11.9196 9.42256C12.0267 9.23693 12.0267 9.00822 11.9196 8.8226C11.8124 8.63697 11.6143 8.52256 11.4 8.52256H10.2C9.98567 8.52256 9.7876 8.63697 9.68042 8.8226C9.57324 9.00823 9.57324 9.23693 9.68042 9.42256C9.7876 9.60819 9.98567 9.72259 10.2 9.72259ZM11.4 7.32263H10.2C9.98567 7.32263 9.7876 7.20822 9.68042 7.0226C9.57324 6.83697 9.57324 6.60826 9.68042 6.42263C9.7876 6.23701 9.98567 6.1226 10.2 6.1226H11.4C11.6143 6.1226 11.8124 6.23701 11.9196 6.42263C12.0267 6.60826 12.0267 6.83697 11.9196 7.0226C11.8124 7.20822 11.6143 7.32263 11.4 7.32263ZM1.96465 2.85547C1.66191 3.07013 1.43269 3.37297 1.30814 3.72263H13.092C12.9675 3.37297 12.7382 3.07013 12.4355 2.85547C12.1327 2.64073 11.7711 2.52451 11.4 2.5226H3.00016C2.629 2.5245 2.26738 2.64072 1.96465 2.85547Z" fill="#08005C"/>
</svg>
