<svg width="24" height="24" viewBox="0 0 24 24" fill="none" xmlns="http://www.w3.org/2000/svg">
<path fill-rule="evenodd" clip-rule="evenodd" d="M2.6004 13.8043C0.669055 14.0451 -0.606176 11.802 0.659451 10.2527C1.82858 8.82153 4.28706 9.28087 4.53513 11.5156C4.77807 13.7054 5.16737 14.0169 7.19998 14.2492C7.29999 14.2605 7.39855 14.2768 7.49511 14.2977C9.38574 14.0147 9.69627 13.6161 9.81786 11.6811C9.95257 8.7616 13.895 8.7739 14.1639 11.5081C14.403 13.7093 14.7703 14.049 16.8053 14.282C18.9429 14.0332 19.3194 13.7161 19.486 11.7979C19.4824 11.7476 19.4805 11.697 19.4805 11.6458C19.4805 9.71473 21.8271 8.73473 23.2056 10.1198C24.4943 11.4144 23.7492 13.6743 21.8028 13.834C19.5905 14.0665 19.2565 14.4348 19.0162 16.4941C18.9371 17.1269 18.8673 17.5118 18.3689 18.0088C17.9754 18.4054 17.4587 18.6546 16.8952 18.6687C14.9293 18.811 14.3345 19.1767 14.1627 21.1573C14.1566 21.855 14.0328 22.3584 13.4936 22.8834C12.2139 24.1294 9.96447 23.4037 9.8046 21.4557C9.61994 19.6987 9.25459 18.6976 7.27529 18.7299C6.07715 18.7494 4.98119 17.7085 4.96935 16.5069C4.94419 14.6439 4.44311 13.9702 2.6004 13.8043ZM11.7382 19.1296C13.8911 18.904 14.3674 18.6991 14.6283 16.496C14.3692 14.341 14.0445 13.9829 12.0668 13.8262C9.94099 14.0939 9.61918 14.4857 9.41501 16.5197C9.4084 16.5865 9.39936 16.6527 9.38834 16.718C9.61842 18.4998 9.91182 18.9611 11.7382 19.1296Z" fill="#F9AB18"/>
<path fill-rule="evenodd" clip-rule="evenodd" d="M13.4829 1.98285C13.4829 2.80193 12.819 3.4658 12 3.4658C11.181 3.4658 10.517 2.80193 10.517 1.98285C10.517 1.16388 11.181 0.5 12 0.5C12.819 0.5 13.4829 1.16388 13.4829 1.98285Z" fill="#362181"/>
<path fill-rule="evenodd" clip-rule="evenodd" d="M7.16136 4.90961C8.21342 4.90961 9.06617 5.76233 9.06617 6.81438C9.06617 7.86636 8.21342 8.71908 7.16136 8.71908C6.10941 8.71908 5.25659 7.86636 5.25659 6.81438C5.25659 5.76233 6.10941 4.90961 7.16136 4.90961Z" fill="#362181"/>
<path fill-rule="evenodd" clip-rule="evenodd" d="M16.8243 4.90961C17.8764 4.90961 18.7291 5.76233 18.7291 6.81438C18.7291 7.86636 17.8764 8.71908 16.8243 8.71908C15.7724 8.71908 14.9195 7.86636 14.9195 6.81438C14.9195 5.76233 15.7724 4.90961 16.8243 4.90961Z" fill="#362181"/>
</svg>
