<svg width="24" height="26" viewBox="0 0 24 26" fill="none" xmlns="http://www.w3.org/2000/svg">
<path fill-rule="evenodd" clip-rule="evenodd" d="M0 12.871C0 13.7546 0.716348 14.4708 1.59988 14.4708C2.48342 14.4708 3.19963 13.7546 3.19963 12.871C3.19963 11.9875 2.48342 11.2713 1.59988 11.2713C0.716348 11.2713 0 11.9875 0 12.871Z" fill="black"/>
<path fill-rule="evenodd" clip-rule="evenodd" d="M6.70394 6.18341C5.56908 6.18341 4.64911 7.10349 4.64911 8.23828C4.64911 9.37314 5.56908 10.2932 6.70394 10.2932C7.83883 10.2932 8.75881 9.37314 8.75881 8.23828C8.75881 7.10349 7.83883 6.18341 6.70394 6.18341Z" fill="black"/>
<mask id="mask0_1_689" style="mask-type:luminance" maskUnits="userSpaceOnUse" x="8" y="0" width="16" height="26">
<path fill-rule="evenodd" clip-rule="evenodd" d="M11.5561 0.463379C10.2552 0.463379 9.2004 1.51805 9.2004 2.81896C9.2004 4.03885 10.127 5.04178 11.3145 5.16255H11.3148H11.3152C12.3334 5.25562 13.0642 5.42783 13.5007 5.88094C13.9284 6.32474 14.1014 7.07278 14.2565 7.83838C14.2534 7.89103 14.2511 7.94364 14.2511 7.99694C14.2511 9.21645 15.1779 10.2194 16.3655 10.3405H16.3659C17.3843 10.4332 18.1149 10.6058 18.5516 11.0589C18.9681 11.4914 19.1427 12.2119 19.2954 12.9568C19.2011 13.9453 19.0269 14.6567 18.5824 15.0849C18.1386 15.5127 17.3905 15.6856 16.625 15.8408C16.5724 15.8376 16.5197 15.8353 16.4664 15.8353C15.2469 15.8353 14.244 16.7622 14.1228 17.9497V17.9501C14.0332 18.9343 13.8692 19.6496 13.4492 20.0907C12.9716 20.5411 12.1257 20.771 11.2697 20.8266H11.2748C10.0108 20.8691 8.99902 21.9067 8.99902 23.1807C8.99902 24.4816 10.0537 25.5363 11.3546 25.5363C12.5745 25.5363 13.5773 24.6099 13.6982 23.4222V23.4219V23.4215C13.7881 22.4354 13.9526 21.7189 14.3746 21.2783L14.375 21.2779L14.3819 21.2712C14.8616 20.827 15.7016 20.6003 16.5514 20.5454H16.5467C17.8105 20.5029 18.822 19.4654 18.822 18.191L18.8197 18.0869C18.9451 17.3754 19.0862 16.6765 19.5374 16.242C20.0126 15.7838 20.8656 15.5505 21.7293 15.4944H21.7243C22.9881 15.4519 24 14.4144 24 13.1403C24 11.8394 22.9453 10.7847 21.6444 10.7847C21.5657 10.7847 21.4873 10.7886 21.4107 10.796C20.749 10.676 20.114 10.5248 19.7084 10.104C19.2502 9.62835 19.0168 8.77543 18.9611 7.91202V7.91673C18.9186 6.65285 17.8811 5.64136 16.6066 5.64136L16.5027 5.64372C15.7912 5.51827 15.0922 5.37678 14.6578 4.92602C14.1996 4.45074 13.9662 3.59744 13.9101 2.73403V2.73912C13.8677 1.47524 12.8301 0.463379 11.5561 0.463379Z" fill="white"/>
</mask>
<g mask="url(#mask0_1_689)">
<path fill-rule="evenodd" clip-rule="evenodd" d="M11.5561 0.463379C10.2552 0.463379 9.2004 1.51805 9.2004 2.81896C9.2004 4.03885 10.127 5.04178 11.3145 5.16255H11.3148H11.3152C12.3334 5.25562 13.0642 5.42783 13.5007 5.88094C13.9284 6.32474 14.1014 7.07278 14.2565 7.83838C14.2534 7.89103 14.2511 7.94364 14.2511 7.99694C14.2511 9.21645 15.1779 10.2194 16.3655 10.3405H16.3659C17.3843 10.4332 18.1149 10.6058 18.5516 11.0589C18.9681 11.4914 19.1427 12.2119 19.2954 12.9568C19.2011 13.9453 19.0269 14.6567 18.5824 15.0849C18.1386 15.5127 17.3905 15.6856 16.625 15.8408C16.5724 15.8376 16.5197 15.8353 16.4664 15.8353C15.2469 15.8353 14.244 16.7622 14.1228 17.9497V17.9501C14.0332 18.9343 13.8692 19.6496 13.4492 20.0907C12.9716 20.5411 12.1257 20.771 11.2697 20.8266H11.2748C10.0108 20.8691 8.99902 21.9067 8.99902 23.1807C8.99902 24.4816 10.0537 25.5363 11.3546 25.5363C12.5745 25.5363 13.5773 24.6099 13.6982 23.4222V23.4219V23.4215C13.7881 22.4354 13.9526 21.7189 14.3746 21.2783L14.375 21.2779L14.3819 21.2712C14.8616 20.827 15.7016 20.6003 16.5514 20.5454H16.5467C17.8105 20.5029 18.822 19.4654 18.822 18.191L18.8197 18.0869C18.9451 17.3754 19.0862 16.6765 19.5374 16.242C20.0126 15.7838 20.8656 15.5505 21.7293 15.4944H21.7243C22.9881 15.4519 24 14.4144 24 13.1403C24 11.8394 22.9453 10.7847 21.6444 10.7847C21.5657 10.7847 21.4873 10.7886 21.4107 10.796C20.749 10.676 20.114 10.5248 19.7084 10.104C19.2502 9.62835 19.0168 8.77543 18.9611 7.91202V7.91673C18.9186 6.65285 17.8811 5.64136 16.6066 5.64136L16.5027 5.64372C15.7912 5.51827 15.0922 5.37678 14.6578 4.92602C14.1996 4.45074 13.9662 3.59744 13.9101 2.73403V2.73912C13.8677 1.47524 12.8301 0.463379 11.5561 0.463379Z" fill="url(#paint0_linear_1_689)"/>
</g>
<path fill-rule="evenodd" clip-rule="evenodd" d="M6.70394 15.9204C5.56908 15.9204 4.64911 16.8403 4.64911 17.9752C4.64911 19.1101 5.56908 20.0301 6.70394 20.0301C7.83883 20.0301 8.75881 19.1101 8.75881 17.9752C8.75881 16.8403 7.83883 15.9204 6.70394 15.9204Z" fill="black"/>
<path fill-rule="evenodd" clip-rule="evenodd" d="M11.1767 10.701C9.87077 10.701 8.81207 11.7597 8.81207 13.0657C8.81207 14.3716 9.87077 15.4301 11.1767 15.4301C12.4826 15.4301 13.5413 14.3716 13.5413 13.0657C13.5413 11.7597 12.4826 10.701 11.1767 10.701Z" fill="#08005C"/>
<defs>
<linearGradient id="paint0_linear_1_689" x1="-6.39478" y1="55.9472" x2="62.042" y2="71.311" gradientUnits="userSpaceOnUse">
<stop stop-color="#F86A3D"/>
<stop offset="1" stop-color="#F1135A"/>
</linearGradient>
</defs>
</svg>
