<svg width="25" height="26" viewBox="0 0 25 26" fill="none" xmlns="http://www.w3.org/2000/svg">
<path fill-rule="evenodd" clip-rule="evenodd" d="M12.1459 10.7142C10.8403 10.7142 9.78136 11.7731 9.78136 13.0788C9.78136 14.3848 10.8403 15.4433 12.1459 15.4433C13.4519 15.4433 14.5105 14.3848 14.5105 13.0788C14.5105 11.7731 13.4519 10.7142 12.1459 10.7142Z" fill="#08005C"/>
<path fill-rule="evenodd" clip-rule="evenodd" d="M7.41677 15.4309C6.11112 15.4309 5.05215 16.4898 5.05215 17.7954C5.05215 19.1014 6.11112 20.16 7.41677 20.16L7.43503 20.1596C8.14379 20.3116 8.83884 20.4787 9.25766 20.9466C9.69792 21.4387 9.89936 22.3002 9.92354 23.1651V23.16C9.91883 24.4243 10.9182 25.474 12.1915 25.5215C13.4916 25.5698 14.5845 24.5549 14.6328 23.2551C14.6356 23.1826 14.6344 23.1105 14.6309 23.0393C14.7516 22.3668 14.9012 21.7176 15.3287 21.3059C15.8044 20.8476 16.6573 20.6147 17.5206 20.5586H17.516C18.7799 20.5161 19.7914 19.4785 19.7914 18.2041L19.789 18.1002C19.9145 17.3886 20.0555 16.6897 20.5067 16.2552C20.982 15.7971 21.8349 15.5637 22.6986 15.5076H22.6936C23.9575 15.4651 24.9694 14.4276 24.9694 13.1535C24.9694 11.8526 23.9147 10.7979 22.6137 10.7979C22.5351 10.7979 22.4567 10.8018 22.3799 10.8092C21.7184 10.6892 21.0833 10.538 20.6778 10.1172C20.2195 9.6415 19.9862 8.78872 19.9304 7.9253V7.92991C19.888 6.66603 18.8504 5.65455 17.576 5.65455L17.4719 5.6569C16.7605 5.53142 16.0615 5.39007 15.6271 4.93921C15.169 4.46389 14.9356 3.61059 14.8794 2.74728V2.7523C14.837 1.48843 13.7994 0.476562 12.5253 0.476562C11.2244 0.476562 10.1698 1.53131 10.1698 2.83221C10.1698 4.05214 11.0963 5.05496 12.2838 5.17574H12.2842H12.2846C13.3027 5.26891 14.0336 5.44112 14.4699 5.8942C14.8978 6.33799 15.0708 7.08603 15.2258 7.85167C15.2227 7.90418 15.2203 7.95682 15.2203 8.01023C15.2203 9.22974 16.1473 10.2326 17.3348 10.3537H17.3352C18.3537 10.4465 19.0842 10.6191 19.521 11.0722C19.9375 11.5047 20.112 12.2251 20.2647 12.9701C20.1704 13.9585 19.9963 14.6699 19.5517 15.0981C19.1079 15.5259 18.3599 15.6989 17.5943 15.854C17.5417 15.8508 17.4891 15.8486 17.4357 15.8486C16.2162 15.8486 15.2134 16.7754 15.0922 17.963V17.9634C14.9994 18.9818 14.8268 19.7123 14.3737 20.1491C13.9833 20.525 13.3572 20.7043 12.691 20.8477L12.6072 20.8344H12.6068H12.6064C11.5926 20.7035 10.8687 20.5044 10.4495 20.0353C10.0393 19.5767 9.89348 18.8244 9.76733 18.0553C9.77665 17.97 9.78136 17.8831 9.78136 17.7954C9.78136 16.4898 8.72277 15.4309 7.41677 15.4309Z" fill="#4BC6B6"/>
<path fill-rule="evenodd" clip-rule="evenodd" d="M0.96936 12.8844C0.96936 13.7679 1.6856 14.4841 2.56914 14.4841C3.45268 14.4841 4.16899 13.7679 4.16899 12.8844C4.16899 12.0008 3.45268 11.2845 2.56914 11.2845C1.6856 11.2845 0.96936 12.0008 0.96936 12.8844Z" fill="black"/>
<path fill-rule="evenodd" clip-rule="evenodd" d="M7.67328 6.19672C6.53843 6.19672 5.61835 7.11669 5.61835 8.25155C5.61835 9.38644 6.53843 10.3064 7.67328 10.3064C8.80818 10.3064 9.72815 9.38644 9.72815 8.25155C9.72815 7.11669 8.80818 6.19672 7.67328 6.19672Z" fill="black"/>
</svg>
