<svg width="10" height="10" viewBox="0 0 10 10" fill="none" xmlns="http://www.w3.org/2000/svg">
<path id="Vector" d="M9.39167 3.38333L6.71667 0.708329C6.26052 0.254661 5.64334 0 5 0C4.35666 0 3.73948 0.254661 3.28333 0.708329L0.608334 3.38333C0.415263 3.5765 0.262159 3.80582 0.157776 4.0582C0.0533939 4.31058 -0.000219752 4.58105 6.76955e-07 4.85416V7.91667C0.00019946 8.46914 0.219757 8.99893 0.610414 9.38959C1.00107 9.78024 1.53086 9.9998 2.08333 10H2.91667C3.24789 9.99903 3.56527 9.86703 3.79948 9.63281C4.03369 9.3986 4.1657 9.08122 4.16667 8.75V7.91667C4.16667 7.69565 4.25446 7.48369 4.41074 7.32741C4.56702 7.17113 4.77899 7.08333 5 7.08333C5.22101 7.08333 5.43298 7.17113 5.58926 7.32741C5.74554 7.48369 5.83333 7.69565 5.83333 7.91667V8.75C5.8343 9.08122 5.96631 9.3986 6.20052 9.63281C6.43473 9.86703 6.75211 9.99903 7.08333 10H7.91667C8.46914 9.9998 8.99893 9.78024 9.38959 9.38959C9.78024 8.99893 9.9998 8.46914 10 7.91667V4.85416C10.0002 4.58105 9.94661 4.31058 9.84222 4.0582C9.73784 3.80582 9.58474 3.5765 9.39167 3.38333ZM6.75292 3.62791C6.71424 3.66662 6.66832 3.69732 6.61777 3.71827C6.56723 3.73921 6.51305 3.74999 6.45833 3.74999C6.40362 3.74999 6.34944 3.73921 6.29889 3.71827C6.24835 3.69732 6.20243 3.66662 6.16375 3.62791L5.41667 2.88087C5.30367 2.77518 5.15473 2.71638 5 2.71638C4.84527 2.71638 4.69633 2.77518 4.58333 2.88087L3.83625 3.62791C3.75767 3.70381 3.65242 3.74581 3.54317 3.74486C3.43392 3.74391 3.32941 3.70009 3.25216 3.62284C3.17491 3.54558 3.13109 3.44108 3.13014 3.33183C3.12919 3.22258 3.17118 3.11733 3.24708 3.03875L3.99413 2.29166C4.26509 2.03292 4.62534 1.88854 5 1.88854C5.37466 1.88854 5.73491 2.03292 6.00587 2.29166L6.75292 3.03875C6.79162 3.07742 6.82233 3.12334 6.84328 3.17389C6.86423 3.22443 6.87501 3.27861 6.87501 3.33333C6.87501 3.38805 6.86423 3.44223 6.84328 3.49277C6.82233 3.54332 6.79162 3.58924 6.75292 3.62791Z" fill="#5A74AB"/>
</svg>
