<svg width="19" height="19" viewBox="0 0 19 19" fill="none" xmlns="http://www.w3.org/2000/svg">
<path fill-rule="evenodd" clip-rule="evenodd" d="M18.3075 12.3736C18.5623 12.1234 18.7326 11.7997 18.794 11.4478H18.794C19.0008 10.355 19.0008 9.2331 18.794 8.14026C18.7326 7.78844 18.5623 7.46471 18.3075 7.21453C18.0525 6.9642 17.7258 6.80011 17.3728 6.74488C16.8754 6.65507 16.4416 6.35326 16.1842 5.91808C15.9335 5.47958 15.8924 4.95167 16.0723 4.47973C16.1952 4.13912 16.2107 3.76912 16.1169 3.41945C16.0229 3.06991 15.8239 2.75745 15.5469 2.52443C14.7088 1.82118 13.7521 1.27282 12.7217 0.905127C12.3851 0.778671 12.0174 0.760502 11.6699 0.853218C11.3226 0.945799 11.0127 1.14463 10.7837 1.42191C10.4513 1.79582 9.97491 2.00981 9.47454 2.00981C8.97417 2.00981 8.49775 1.79581 8.16538 1.42191C7.83504 1.02539 7.34634 0.79525 6.83028 0.793232C6.62408 0.792652 6.41961 0.830723 6.2274 0.905127C5.19698 1.27283 4.24025 1.82118 3.40219 2.52443C3.12521 2.75743 2.92622 3.06992 2.8322 3.41945C2.73833 3.76913 2.7539 4.13914 2.87676 4.47973C3.05671 4.95167 3.01562 5.47958 2.76486 5.91808C2.5075 6.35326 2.07376 6.65504 1.57627 6.74488C1.2233 6.8001 0.896544 6.96421 0.641609 7.21453C0.386803 7.4647 0.216512 7.78843 0.155083 8.14026C-0.0516943 9.23314 -0.0516943 10.355 0.155083 11.4478C0.216508 11.7997 0.386818 12.1234 0.641609 12.3736C0.896537 12.6239 1.22328 12.788 1.57627 12.8432C2.07372 12.933 2.50747 13.2348 2.76486 13.67C3.01562 14.1085 3.05671 14.6364 2.87676 15.1084C2.75448 15.4482 2.73833 15.8174 2.83061 16.1665C2.9229 16.5157 3.11929 16.8286 3.39355 17.0637C4.23597 17.7653 5.19514 18.3134 6.22744 18.683C6.56398 18.8094 6.93168 18.8276 7.27919 18.7349C7.62655 18.6423 7.93644 18.4435 8.16542 18.1662C8.4978 17.7923 8.97421 17.5783 9.47458 17.5783C9.97494 17.5783 10.4514 17.7923 10.7837 18.1662C11.0127 18.4435 11.3226 18.6423 11.67 18.7349C12.0175 18.8276 12.3852 18.8094 12.7217 18.683C13.7521 18.3153 14.7089 17.7669 15.5469 17.0637C15.8239 16.8307 16.0229 16.5182 16.1169 16.1686C16.2108 15.819 16.1952 15.449 16.0724 15.1084C15.8924 14.6364 15.9335 14.1085 16.1842 13.67C16.4416 13.2348 16.8754 12.933 17.3728 12.8432C17.7258 12.788 18.0526 12.6239 18.3075 12.3736ZM6.42948 6.74875C7.23712 5.94111 8.33258 5.48733 9.47473 5.48733C10.6165 5.48877 11.7112 5.94285 12.5185 6.75019C13.3259 7.55754 13.78 8.65226 13.7814 9.79401C13.7814 10.9362 13.3276 12.0316 12.52 12.8393C11.7123 13.6469 10.6169 14.1007 9.47473 14.1007C8.33258 14.1007 7.23712 13.6469 6.42948 12.8393C5.62184 12.0316 5.16805 10.9362 5.16805 9.79401C5.16805 8.65185 5.62184 7.5564 6.42948 6.74875Z" fill="#070058"/>
<path d="M12.0587 9.79407C12.0587 8.36698 10.9018 7.2101 9.47472 7.2101C8.04763 7.2101 6.89075 8.36698 6.89075 9.79407C6.89075 11.2212 8.04763 12.3781 9.47472 12.3781C10.9018 12.3781 12.0587 11.2212 12.0587 9.79407Z" fill="#070058"/>
</svg>
