<svg width="23" height="22" viewBox="0 0 23 22" fill="none" xmlns="http://www.w3.org/2000/svg">
<path fill-rule="evenodd" clip-rule="evenodd" d="M2.31814 12.5993C0.489152 12.8273 -0.718492 10.7031 0.480058 9.23601C1.58723 7.88065 3.9154 8.31565 4.15033 10.4319C4.3804 12.5056 4.74906 12.8007 6.67394 13.0207C6.76865 13.0314 6.86199 13.0468 6.95343 13.0666C8.74386 12.7986 9.03793 12.4211 9.15307 10.5887C9.28064 7.8239 13.0141 7.83555 13.2688 10.4248C13.4952 12.5093 13.843 12.831 15.7702 13.0518C17.7945 12.8161 18.1511 12.5158 18.3088 10.6992C18.3054 10.6516 18.3036 10.6037 18.3036 10.5552C18.3036 8.72651 20.5258 7.79846 21.8313 9.11012C23.0516 10.3361 22.3461 12.4762 20.5028 12.6275C18.4078 12.8476 18.0914 13.1965 17.8639 15.1466C17.789 15.7459 17.7229 16.1103 17.2509 16.581C16.8783 16.9566 16.389 17.1926 15.8554 17.2059C13.9936 17.3407 13.4304 17.687 13.2677 19.5626C13.2618 20.2233 13.1446 20.7 12.634 21.1973C11.4222 22.3772 9.29192 21.69 9.14052 19.8452C8.96564 18.1813 8.61965 17.2333 6.74526 17.2639C5.61062 17.2824 4.57275 16.2967 4.56154 15.1587C4.53771 13.3945 4.06319 12.7564 2.31814 12.5993ZM10.9716 17.6423C13.0104 17.4286 13.4615 17.2346 13.7086 15.1482C13.4632 13.1074 13.1557 12.7683 11.2829 12.62C9.26969 12.8735 8.96493 13.2445 8.77158 15.1707C8.76532 15.234 8.75676 15.2966 8.74633 15.3585C8.96422 17.0458 9.24206 17.4827 10.9716 17.6423Z" fill="white" style="fill:white;fill-opacity:1;"/>
<path fill-rule="evenodd" clip-rule="evenodd" d="M12.6239 1.40426C12.6239 2.17993 11.9951 2.80862 11.2195 2.80862C10.444 2.80862 9.81519 2.17993 9.81519 1.40426C9.81519 0.628691 10.444 0 11.2195 0C11.9951 0 12.6239 0.628691 12.6239 1.40426Z" fill="white" style="fill:white;fill-opacity:1;"/>
<path fill-rule="evenodd" clip-rule="evenodd" d="M6.63738 4.17627C7.63367 4.17627 8.44123 4.98379 8.44123 5.98009C8.44123 6.97632 7.63367 7.78385 6.63738 7.78385C5.64118 7.78385 4.83356 6.97632 4.83356 5.98009C4.83356 4.98379 5.64118 4.17627 6.63738 4.17627Z" fill="white" style="fill:white;fill-opacity:1;"/>
<path fill-rule="evenodd" clip-rule="evenodd" d="M15.7882 4.17627C16.7845 4.17627 17.592 4.98379 17.592 5.98009C17.592 6.97632 16.7845 7.78385 15.7882 7.78385C14.792 7.78385 13.9844 6.97632 13.9844 5.98009C13.9844 4.98379 14.792 4.17627 15.7882 4.17627Z" fill="white" style="fill:white;fill-opacity:1;"/>
</svg>
