<svg width="21" height="24" viewBox="0 0 21 24" fill="none" xmlns="http://www.w3.org/2000/svg">
<path d="M1.52581 14.7974C1.33629 14.7974 1.14862 14.8347 0.973524 14.9072C0.798427 14.9797 0.63933 15.0861 0.505316 15.2201C0.371302 15.3541 0.264997 15.5132 0.192469 15.6883C0.119941 15.8634 0.0826113 16.051 0.0826111 16.2406V22.4633C0.0826146 22.6967 0.175318 22.9205 0.340329 23.0855C0.50534 23.2505 0.729142 23.3432 0.962503 23.3432H4.78514C4.90332 23.3433 5.02031 23.3196 5.12911 23.2734C5.23791 23.2273 5.33629 23.1597 5.41837 23.0747C5.50045 22.9897 5.56455 22.889 5.60683 22.7786C5.64911 22.6682 5.66871 22.5505 5.66445 22.4324C5.59638 20.6401 5.67958 19.6542 5.36848 17.9843C5.20032 17.0883 4.72415 16.2792 4.0224 15.6972C3.32065 15.1152 2.4375 14.7969 1.52581 14.7974Z" fill="#070058"/>
<path d="M2.78708 7.73999C1.00507 7.73999 0 9.06406 0 10.8461C0.0261171 11.6441 0.239378 12.4249 0.622593 13.1255C0.91621 13.0397 1.22059 12.9964 1.52647 12.9968C2.74807 12.9955 3.93763 13.3876 4.91899 14.1151C5.51413 13.2198 5.79199 11.9026 5.79199 10.8461C5.79198 9.06406 4.56738 7.73999 2.78708 7.73999Z" fill="#070058"/>
<path d="M19.4751 14.7974C18.5634 14.7969 17.6802 15.1152 16.9785 15.6972C16.2767 16.2792 15.8006 17.0883 15.6324 17.9843C15.3213 19.6542 15.4045 20.6401 15.3364 22.4324C15.3322 22.5505 15.3518 22.6682 15.3941 22.7786C15.4364 22.889 15.5004 22.9897 15.5825 23.0747C15.6646 23.1597 15.763 23.2273 15.8718 23.2734C15.9806 23.3196 16.0976 23.3433 16.2158 23.3432H20.0384C20.2718 23.3432 20.4956 23.2505 20.6606 23.0855C20.8256 22.9205 20.9183 22.6967 20.9183 22.4633V16.2406C20.9183 16.051 20.881 15.8634 20.8084 15.6883C20.7359 15.5132 20.6296 15.3541 20.4956 15.2201C20.3616 15.0861 20.2025 14.9797 20.0274 14.9072C19.8523 14.8347 19.6646 14.7974 19.4751 14.7974Z" fill="#070058"/>
<path d="M19.4752 12.9968C19.7811 12.9964 20.0855 13.0397 20.3791 13.1255C20.7618 12.4248 20.9745 11.644 21 10.8461C21 9.06406 19.9966 7.73999 18.2146 7.73999C16.4326 7.73999 15.2097 9.06406 15.2097 10.8461C15.2097 11.9026 15.4859 13.2198 16.0827 14.1151C17.0643 13.3881 18.2537 12.996 19.4752 12.9968Z" fill="#070058"/>
<path d="M14.5859 5.88126C14.3262 5.97629 14.0475 6.00742 13.7733 5.97199C13.4991 5.93657 13.2375 5.83565 13.0105 5.67775C12.7835 5.51986 12.5979 5.30964 12.4693 5.06487C12.3408 4.8201 12.273 4.54796 12.2718 4.27148C12.2706 3.995 12.336 3.72229 12.4625 3.47641C12.5889 3.23053 12.7727 3.01872 12.9983 2.85887C13.2239 2.69902 13.4847 2.59584 13.7586 2.55804C14.0325 2.52025 14.3114 2.54896 14.5719 2.64174C14.6061 2.09626 14.6608 1.55459 14.7359 1.01674C14.7549 0.882506 14.7425 0.745683 14.6995 0.617084C14.6566 0.488484 14.5844 0.371633 14.4885 0.275761C14.3926 0.17989 14.2758 0.107625 14.1472 0.0646782C14.0186 0.0217309 13.8818 0.00927734 13.7475 0.0283015C13.209 0.103693 12.6673 0.158395 12.1225 0.192406C12.2154 0.453032 12.2442 0.732199 12.2065 1.0063C12.1687 1.2804 12.0655 1.54138 11.9055 1.76716C11.7456 1.99294 11.5336 2.17688 11.2876 2.30344C11.0415 2.43 10.7686 2.49545 10.4919 2.49425C10.2152 2.49305 9.94289 2.42525 9.69795 2.29656C9.453 2.16788 9.24264 1.98211 9.08466 1.75495C8.92667 1.5278 8.82571 1.26594 8.79031 0.991523C8.75491 0.717106 8.78611 0.438199 8.88127 0.178386C8.3295 0.138979 7.77504 0.0817623 7.21789 0.00673714C7.08421 -0.00994234 6.94849 0.00444948 6.82129 0.0487925C6.69409 0.0931355 6.57883 0.166234 6.4845 0.262398C6.39016 0.358562 6.31929 0.475198 6.27739 0.603228C6.2355 0.731258 6.22371 0.867229 6.24295 1.00056C6.32132 1.58562 6.38018 2.16748 6.41954 2.74614C6.1564 2.60483 5.86104 2.53436 5.56245 2.54163C5.26385 2.54891 4.97228 2.63368 4.71633 2.78764C4.46039 2.9416 4.24886 3.15945 4.10251 3.41982C3.95616 3.68018 3.88 3.97413 3.88152 4.27281C3.88304 4.57149 3.96218 4.86464 4.11118 5.1235C4.26017 5.38237 4.4739 5.59806 4.7314 5.7494C4.9889 5.90075 5.28132 5.98255 5.57997 5.98679C5.87863 5.99102 6.17325 5.91755 6.43494 5.77357C6.40001 6.35754 6.34239 6.93779 6.2621 7.51432C6.2432 7.64828 6.25569 7.78479 6.29857 7.91309C6.34145 8.0414 6.41356 8.15798 6.5092 8.25366C6.60484 8.34933 6.7214 8.42148 6.84969 8.46441C6.97798 8.50734 7.11449 8.51987 7.24845 8.50103C7.8253 8.42038 8.40591 8.36283 8.99026 8.32837C8.84634 8.58903 8.77277 8.88267 8.7768 9.1804C8.78669 9.62343 8.96517 10.046 9.27586 10.362C9.58655 10.678 10.0061 10.8636 10.4489 10.881C10.751 10.8899 11.0501 10.8191 11.3163 10.6758C11.5824 10.5325 11.8061 10.3217 11.965 10.0646C12.1239 9.80742 12.2124 9.51302 12.2215 9.21089C12.2307 8.90877 12.1602 8.60956 12.0171 8.3433C12.596 8.38239 13.178 8.44116 13.7633 8.51959C13.8967 8.53883 14.0327 8.52702 14.1608 8.4851C14.2889 8.44318 14.4055 8.37227 14.5017 8.27789C14.5979 8.18352 14.6711 8.06822 14.7154 7.94097C14.7598 7.81371 14.7742 7.67794 14.7575 7.54422C14.6825 6.98696 14.6253 6.43264 14.5859 5.88126Z" fill="#070058"/>
</svg>
