<svg width="16" height="15" viewBox="0 0 16 15" fill="none" xmlns="http://www.w3.org/2000/svg">
<path d="M11.3417 4.57764C12.5724 4.57764 13.7526 5.06006 14.6228 5.91887C15.4929 6.77767 15.9819 7.94243 15.9819 9.15697V14.4996H12.8884V9.15697C12.8884 8.75213 12.7255 8.3639 12.4354 8.07757C12.1453 7.79134 11.752 7.63048 11.3417 7.63048C10.9315 7.63048 10.5381 7.79134 10.2481 8.07757C9.95798 8.3639 9.79499 8.75213 9.79499 9.15697V14.4996H6.7016V9.15697C6.7016 7.94243 7.19045 6.77767 8.06066 5.91887C8.93087 5.06006 10.1111 4.57764 11.3417 4.57764Z" fill="#070058" fill-opacity="0.2"/>
<path d="M3.60831 5.34131H0.514893V14.5H3.60831V5.34131Z" fill="#070058" fill-opacity="0.2"/>
<path d="M2.0616 3.05289C2.91582 3.05289 3.60831 2.36947 3.60831 1.52645C3.60831 0.683408 2.91582 0 2.0616 0C1.20738 0 0.514893 0.683408 0.514893 1.52645C0.514893 2.36947 1.20738 3.05289 2.0616 3.05289Z" fill="#070058" fill-opacity="0.2"/>
</svg>
