<svg width="22" height="23" viewBox="0 0 22 23" fill="none" xmlns="http://www.w3.org/2000/svg">
<g clip-path="url(#clip0_338_182)">
<path fill-rule="evenodd" clip-rule="evenodd" d="M9.21029 2.3773C8.9815 0.503581 11.1091 -0.73362 12.582 0.491636C14.0283 1.69471 13.3586 4.08208 11.4264 4.25102C9.20194 4.44556 8.98484 5.06331 8.78778 6.84317C8.65919 8.00187 7.86927 8.95751 6.72865 8.96263C5.20393 8.96775 4.05997 9.59402 4.16017 11.3534C4.37894 13.4882 5.12043 14.0258 6.6535 14.0548C8.1849 14.0838 9.0483 13.4814 9.19359 11.5036C9.36226 8.69812 12.9661 8.76638 13.3085 11.2186C13.4722 12.3927 12.6388 13.4865 11.3913 13.6026C9.30047 13.8346 8.75939 14.4507 8.75605 16.1657C8.75271 17.9404 9.47582 18.763 11.2594 18.763C13.0931 18.763 14.0249 21.0411 12.709 22.379C11.4798 23.6299 9.3322 22.9063 9.18023 21.0172C8.95979 18.8705 8.60909 18.5462 6.6535 18.3125C6.0523 18.2357 5.68656 18.1674 5.21395 17.6845C4.76472 17.2237 4.64114 16.8363 4.58435 16.2049C4.34721 14.1299 4.04661 13.763 2.22463 13.6026C1.54326 13.5957 1.07399 13.466 0.584675 12.9524C-0.599364 11.7101 0.090351 9.52747 1.94072 9.37218C4.24367 9.17935 4.36558 8.56843 4.61107 6.62645C4.7547 5.49505 5.6064 4.67935 6.6535 4.67935C8.39699 4.67935 9.35725 3.72713 9.20862 2.38071L9.21029 2.3773Z" fill="white" style="fill:white;fill-opacity:1;"/>
<path d="M20.4398 13.0866C21.3012 13.0866 21.9996 12.373 21.9996 11.4928C21.9996 10.6125 21.3012 9.89893 20.4398 9.89893C19.5783 9.89893 18.88 10.6125 18.88 11.4928C18.88 12.373 19.5783 13.0866 20.4398 13.0866Z" fill="white" style="fill:white;fill-opacity:1;"/>
<path d="M13.9958 6.8032C13.9958 7.84978 14.8261 8.6982 15.8503 8.6982C16.8745 8.6982 17.7048 7.84978 17.7048 6.8032C17.7048 5.75662 16.8745 4.9082 15.8503 4.9082C14.8261 4.9082 13.9958 5.75662 13.9958 6.8032Z" fill="white" style="fill:white;fill-opacity:1;"/>
<path d="M13.9958 16.1826C13.9958 17.2292 14.8261 18.0776 15.8503 18.0776C16.8745 18.0776 17.7048 17.2292 17.7048 16.1826C17.7048 15.136 16.8745 14.2876 15.8503 14.2876C14.8261 14.2876 13.9958 15.136 13.9958 16.1826Z" fill="white" style="fill:white;fill-opacity:1;"/>
</g>
<defs>
<clipPath id="clip0_338_182">
<rect width="22" height="23" fill="white" style="fill:white;fill-opacity:1;"/>
</clipPath>
</defs>
</svg>
