<svg width="23" height="14" viewBox="0 0 23 14" fill="none" xmlns="http://www.w3.org/2000/svg">
<path fill-rule="evenodd" clip-rule="evenodd" d="M0.490167 13.1835C1.69346 14.6984 4.08039 13.997 4.24939 11.9721C4.44372 9.64172 5.06136 9.41442 6.84098 9.20763C7.99961 9.0733 8.95558 8.24579 8.95958 7.04982C8.96491 5.45155 9.59023 4.25285 11.3505 4.35881C13.4854 4.58884 14.0224 5.36576 14.0511 6.97121C14.0798 8.57666 14.4488 9.17926 16.1644 9.17516C17.939 9.17105 18.7613 9.92883 18.7613 11.7992C18.7613 13.7215 21.0386 14.6966 22.3768 13.3185C23.6278 12.0302 22.9048 9.78015 21.0152 9.62121C18.868 9.38981 18.5436 9.02305 18.3103 6.97326C18.2336 6.34332 18.1656 5.9605 17.682 5.46557C17.2213 4.99422 16.8333 4.86604 16.2024 4.8052C14.1264 4.55739 13.7608 4.24191 13.5991 2.33191C13.5931 1.61857 13.4631 1.12637 12.9498 0.613669C11.7075 -0.626393 9.52423 0.0958376 9.3689 2.03489C9.17591 4.44733 8.56459 4.57551 6.62298 4.83289C5.49102 4.98294 4.67537 5.87573 4.67537 6.9736C4.67537 8.79986 3.72374 9.80612 2.37644 9.65095C0.502166 9.41134 -0.73513 11.6409 0.490167 13.1835Z" fill="white"/>
</svg>
