<svg width="16" height="22" viewBox="0 0 16 22" fill="none" xmlns="http://www.w3.org/2000/svg">
<path fill-rule="evenodd" clip-rule="evenodd" d="M11.3749 0.793213H4.37508C3.21479 0.793652 2.10223 1.25465 1.28191 2.07512C0.461441 2.89544 0.000450003 4.008 0 5.16829V17.4181C0.000439466 18.5784 0.461441 19.691 1.28191 20.5113C2.10223 21.3318 3.21479 21.7928 4.37508 21.7932H11.3751C12.5354 21.7928 13.648 21.3318 14.4683 20.5113C15.2887 19.691 15.7497 18.5784 15.7502 17.4181V5.16829C15.7498 4.008 15.2887 2.89544 14.4683 2.07512C13.648 1.25465 12.5354 0.793663 11.3751 0.793213H11.3749ZM10.4999 2.54328C10.4992 2.77502 10.4069 2.99722 10.2428 3.16117C10.0789 3.32523 9.8567 3.41752 9.62495 3.41825H6.12483C5.89308 3.41752 5.67088 3.32523 5.50693 3.16117C5.34287 2.99725 5.25058 2.77503 5.24985 2.54328H10.4999ZM4.37508 17.4184L11.3749 17.4185L11.3751 17.4184C11.6877 17.4184 11.9766 17.2517 12.1329 16.981C12.2892 16.7102 12.2892 16.3766 12.1329 16.1059C11.9766 15.8351 11.6877 15.6684 11.3751 15.6684H4.37508C4.06248 15.6684 3.77361 15.8351 3.61731 16.1059C3.46101 16.3766 3.46101 16.7102 3.61731 16.981C3.77361 17.2517 4.06248 17.4184 4.37508 17.4184ZM11.3749 13.9185L4.37508 13.9184C4.06248 13.9184 3.77361 13.7515 3.61731 13.4808C3.46101 13.2101 3.46101 12.8766 3.61731 12.6059C3.77361 12.3352 4.06248 12.1683 4.37508 12.1683H11.3751C11.6877 12.1683 11.9766 12.3352 12.1329 12.6059C12.2892 12.8766 12.2892 13.2101 12.1329 13.4808C11.9766 13.7515 11.6877 13.9184 11.3751 13.9184L11.3749 13.9185ZM4.37508 10.4184L11.3749 10.4186L11.3751 10.4184C11.6877 10.4184 11.9766 10.2516 12.1329 9.98086C12.2892 9.71014 12.2892 9.37661 12.1329 9.1059C11.9766 8.83519 11.6877 8.66835 11.3751 8.66835H4.37508C4.06248 8.66835 3.77361 8.83519 3.61731 9.1059C3.46101 9.37662 3.46101 9.71015 3.61731 9.98086C3.77361 10.2516 4.06248 10.4184 4.37508 10.4184Z" fill="#070058"/>
</svg>
