<svg width="21" height="22" viewBox="0 0 21 22" fill="none" xmlns="http://www.w3.org/2000/svg">
<path fill-rule="evenodd" clip-rule="evenodd" d="M0 10.6315C0 11.3885 0.613803 12.0023 1.37086 12.0023C2.12792 12.0023 2.74161 11.3885 2.74161 10.6315C2.74161 9.87443 2.12792 9.26074 1.37086 9.26074C0.613803 9.26074 0 9.87443 0 10.6315Z" fill="white"/>
<path fill-rule="evenodd" clip-rule="evenodd" d="M5.74427 4.90137C4.77186 4.90137 3.98358 5.68974 3.98358 6.66208C3.98358 7.63448 4.77186 8.42285 5.74427 8.42285C6.7167 8.42285 7.50498 7.63448 7.50498 6.66208C7.50498 5.68974 6.7167 4.90137 5.74427 4.90137Z" fill="white"/>
<mask id="mask0_1_967" style="mask-type:luminance" maskUnits="userSpaceOnUse" x="7" y="0" width="14" height="22">
<path fill-rule="evenodd" clip-rule="evenodd" d="M9.90183 0C8.78715 0 7.88336 0.903699 7.88336 2.01838C7.88336 3.06364 8.67728 3.923 9.6948 4.02649H9.69512H9.69545C10.5679 4.10624 11.1941 4.2538 11.5681 4.64204C11.9346 5.02231 12.0828 5.66327 12.2157 6.31927C12.213 6.36438 12.211 6.40947 12.211 6.45514C12.211 7.50008 13.0052 8.35944 14.0228 8.46325H14.0231C14.8958 8.54267 15.5217 8.69056 15.896 9.0788C16.2528 9.4494 16.4024 10.0667 16.5333 10.705C16.4524 11.552 16.3032 12.1616 15.9224 12.5284C15.5421 12.895 14.9011 13.0432 14.2451 13.1761C14.2 13.1734 14.1549 13.1714 14.1093 13.1714C13.0643 13.1714 12.205 13.9657 12.1012 14.9832V14.9835C12.0244 15.8268 11.8839 16.4398 11.5239 16.8176C11.1147 17.2036 10.3899 17.4006 9.65642 17.4483H9.66079C8.57774 17.4847 7.71082 18.3738 7.71082 19.4654C7.71082 20.5801 8.61451 21.4838 9.72919 21.4838C10.7745 21.4838 11.6337 20.6899 11.7373 19.6723V19.672V19.6717C11.8144 18.8268 11.9553 18.2128 12.3169 17.8352L12.3172 17.8349L12.3232 17.8292C12.7341 17.4486 13.4539 17.2544 14.182 17.2073H14.178C15.261 17.1709 16.1277 16.2819 16.1277 15.1899L16.1256 15.1007C16.2331 14.4911 16.354 13.8922 16.7406 13.52C17.1478 13.1273 17.8787 12.9274 18.6188 12.8793H18.6144C19.6974 12.8429 20.5644 11.9539 20.5644 10.8622C20.5644 9.74754 19.6607 8.84384 18.546 8.84384C18.4786 8.84384 18.4114 8.84714 18.3457 8.85352C17.7788 8.75071 17.2347 8.62117 16.8871 8.26061C16.4945 7.85301 16.2946 7.12219 16.2468 6.38237V6.38641C16.2104 5.30345 15.3214 4.43676 14.2294 4.43676L14.1403 4.43878C13.5307 4.33128 12.9317 4.21005 12.5596 3.82382C12.1669 3.41658 11.967 2.68543 11.9188 1.94561V1.94997C11.8825 0.867017 10.9935 0 9.90183 0Z" fill="white"/>
</mask>
<g mask="url(#mask0_1_967)">
<path fill-rule="evenodd" clip-rule="evenodd" d="M9.90183 0C8.78715 0 7.88336 0.903699 7.88336 2.01838C7.88336 3.06364 8.67728 3.923 9.6948 4.02649H9.69512H9.69545C10.5679 4.10624 11.1941 4.2538 11.5681 4.64204C11.9346 5.02231 12.0828 5.66327 12.2157 6.31927C12.213 6.36438 12.211 6.40947 12.211 6.45514C12.211 7.50008 13.0052 8.35944 14.0228 8.46325H14.0231C14.8958 8.54267 15.5217 8.69056 15.896 9.0788C16.2528 9.4494 16.4024 10.0667 16.5333 10.705C16.4524 11.552 16.3032 12.1616 15.9224 12.5284C15.5421 12.895 14.9011 13.0432 14.2451 13.1761C14.2 13.1734 14.1549 13.1714 14.1093 13.1714C13.0643 13.1714 12.205 13.9657 12.1012 14.9832V14.9835C12.0244 15.8268 11.8839 16.4398 11.5239 16.8176C11.1147 17.2036 10.3899 17.4006 9.65642 17.4483H9.66079C8.57774 17.4847 7.71082 18.3738 7.71082 19.4654C7.71082 20.5801 8.61451 21.4838 9.72919 21.4838C10.7745 21.4838 11.6337 20.6899 11.7373 19.6723V19.672V19.6717C11.8144 18.8268 11.9553 18.2128 12.3169 17.8352L12.3172 17.8349L12.3232 17.8292C12.7341 17.4486 13.4539 17.2544 14.182 17.2073H14.178C15.261 17.1709 16.1277 16.2819 16.1277 15.1899L16.1256 15.1007C16.2331 14.4911 16.354 13.8922 16.7406 13.52C17.1478 13.1273 17.8787 12.9274 18.6188 12.8793H18.6144C19.6974 12.8429 20.5644 11.9539 20.5644 10.8622C20.5644 9.74754 19.6607 8.84384 18.546 8.84384C18.4786 8.84384 18.4114 8.84714 18.3457 8.85352C17.7788 8.75071 17.2347 8.62117 16.8871 8.26061C16.4945 7.85301 16.2946 7.12219 16.2468 6.38237V6.38641C16.2104 5.30345 15.3214 4.43676 14.2294 4.43676L14.1403 4.43878C13.5307 4.33128 12.9317 4.21005 12.5596 3.82382C12.1669 3.41658 11.967 2.68543 11.9188 1.94561V1.94997C11.8825 0.867017 10.9935 0 9.90183 0Z" fill="white"/>
</g>
<path fill-rule="evenodd" clip-rule="evenodd" d="M5.74427 13.2441C4.77186 13.2441 3.98358 14.0324 3.98358 15.0048C3.98358 15.9773 4.77186 16.7655 5.74427 16.7655C6.7167 16.7655 7.50498 15.9773 7.50498 15.0048C7.50498 14.0324 6.7167 13.2441 5.74427 13.2441Z" fill="white"/>
<path fill-rule="evenodd" clip-rule="evenodd" d="M9.57677 8.77197C8.45779 8.77197 7.55064 9.67911 7.55064 10.7981C7.55064 11.9171 8.45779 12.8241 9.57677 12.8241C10.6957 12.8241 11.6029 11.9171 11.6029 10.7981C11.6029 9.67911 10.6957 8.77197 9.57677 8.77197Z" fill="white"/>
</svg>
