<svg width="21" height="22" viewBox="0 0 21 22" fill="none" xmlns="http://www.w3.org/2000/svg">
<path fill-rule="evenodd" clip-rule="evenodd" d="M0 10.479C0 11.2252 0.605006 11.8302 1.35122 11.8302C2.09743 11.8302 2.70232 11.2252 2.70232 10.479C2.70232 9.73282 2.09743 9.12793 1.35122 9.12793C0.605006 9.12793 0 9.73282 0 10.479Z" fill="white" style="fill:white;fill-opacity:1;"/>
<path fill-rule="evenodd" clip-rule="evenodd" d="M5.66193 4.83105C4.70347 4.83105 3.92648 5.60813 3.92648 6.56654C3.92648 7.525 4.70347 8.30207 5.66193 8.30207C6.62043 8.30207 7.39742 7.525 7.39742 6.56654C7.39742 5.60813 6.62043 4.83105 5.66193 4.83105Z" fill="white" style="fill:white;fill-opacity:1;"/>
<mask id="mask0_1_967" style="mask-type:luminance" maskUnits="userSpaceOnUse" x="7" y="0" width="14" height="22">
<path fill-rule="evenodd" clip-rule="evenodd" d="M9.75993 0C8.66122 0 7.77039 0.890748 7.77039 1.98945C7.77039 3.01974 8.55293 3.86678 9.55586 3.96879H9.55618H9.5565C10.4164 4.04739 11.0337 4.19283 11.4023 4.57552C11.7635 4.95033 11.9097 5.58211 12.0406 6.22871C12.038 6.27318 12.036 6.31761 12.036 6.36263C12.036 7.39259 12.8188 8.23964 13.8218 8.34196H13.8221C14.6823 8.42024 15.2993 8.56601 15.6681 8.94869C16.0199 9.31397 16.1673 9.92246 16.2963 10.5516C16.2167 11.3864 16.0696 11.9873 15.6942 12.3489C15.3194 12.7102 14.6875 12.8563 14.041 12.9873C13.9965 12.9846 13.9521 12.9827 13.9071 12.9827C12.8771 12.9827 12.0301 13.7655 11.9277 14.7685V14.7688C11.852 15.6 11.7135 16.2041 11.3588 16.5766C10.9554 16.9571 10.241 17.1512 9.51804 17.1982H9.52234C8.45481 17.2341 7.60031 18.1104 7.60031 19.1864C7.60031 20.2851 8.49106 21.1759 9.58976 21.1759C10.62 21.1759 11.467 20.3934 11.5691 19.3904V19.3901V19.3897C11.645 18.557 11.7839 17.9518 12.1403 17.5796L12.1407 17.5793L12.1465 17.5737C12.5516 17.1985 13.2611 17.0071 13.9788 16.9607H13.9748C15.0423 16.9248 15.8965 16.0485 15.8965 14.9722L15.8945 14.8843C16.0005 14.2834 16.1197 13.6931 16.5007 13.3262C16.9021 12.9392 17.6224 12.7421 18.352 12.6947H18.3477C19.4151 12.6589 20.2697 11.7826 20.2697 10.7066C20.2697 9.60785 19.379 8.7171 18.2802 8.7171C18.2138 8.7171 18.1476 8.72035 18.0828 8.72664C17.524 8.62531 16.9877 8.49762 16.6451 8.14222C16.2581 7.74047 16.061 7.02012 16.014 6.2909V6.29488C15.9781 5.22745 15.1019 4.37318 14.0255 4.37318L13.9377 4.37517C13.3368 4.26921 12.7464 4.14971 12.3796 3.76902C11.9926 3.36761 11.7955 2.64694 11.748 1.91773V1.92203C11.7122 0.854591 10.8359 0 9.75993 0Z" fill="white" style="fill:white;fill-opacity:1;"/>
</mask>
<g mask="url(#mask0_1_967)">
<path fill-rule="evenodd" clip-rule="evenodd" d="M9.75993 0C8.66122 0 7.77039 0.890748 7.77039 1.98945C7.77039 3.01974 8.55293 3.86678 9.55586 3.96879H9.55618H9.5565C10.4164 4.04739 11.0337 4.19283 11.4023 4.57552C11.7635 4.95033 11.9097 5.58211 12.0406 6.22871C12.038 6.27318 12.036 6.31761 12.036 6.36263C12.036 7.39259 12.8188 8.23964 13.8218 8.34196H13.8221C14.6823 8.42024 15.2993 8.56601 15.6681 8.94869C16.0199 9.31397 16.1673 9.92246 16.2963 10.5516C16.2167 11.3864 16.0696 11.9873 15.6942 12.3489C15.3194 12.7102 14.6875 12.8563 14.041 12.9873C13.9965 12.9846 13.9521 12.9827 13.9071 12.9827C12.8771 12.9827 12.0301 13.7655 11.9277 14.7685V14.7688C11.852 15.6 11.7135 16.2041 11.3588 16.5766C10.9554 16.9571 10.241 17.1512 9.51804 17.1982H9.52234C8.45481 17.2341 7.60031 18.1104 7.60031 19.1864C7.60031 20.2851 8.49106 21.1759 9.58976 21.1759C10.62 21.1759 11.467 20.3934 11.5691 19.3904V19.3901V19.3897C11.645 18.557 11.7839 17.9518 12.1403 17.5796L12.1407 17.5793L12.1465 17.5737C12.5516 17.1985 13.2611 17.0071 13.9788 16.9607H13.9748C15.0423 16.9248 15.8965 16.0485 15.8965 14.9722L15.8945 14.8843C16.0005 14.2834 16.1197 13.6931 16.5007 13.3262C16.9021 12.9392 17.6224 12.7421 18.352 12.6947H18.3477C19.4151 12.6589 20.2697 11.7826 20.2697 10.7066C20.2697 9.60785 19.379 8.7171 18.2802 8.7171C18.2138 8.7171 18.1476 8.72035 18.0828 8.72664C17.524 8.62531 16.9877 8.49762 16.6451 8.14222C16.2581 7.74047 16.061 7.02012 16.014 6.2909V6.29488C15.9781 5.22745 15.1019 4.37318 14.0255 4.37318L13.9377 4.37517C13.3368 4.26921 12.7464 4.14971 12.3796 3.76902C11.9926 3.36761 11.7955 2.64694 11.748 1.91773V1.92203C11.7122 0.854591 10.8359 0 9.75993 0Z" fill="white" style="fill:white;fill-opacity:1;"/>
</g>
<path fill-rule="evenodd" clip-rule="evenodd" d="M5.66193 13.0542C4.70347 13.0542 3.92648 13.8312 3.92648 14.7897C3.92648 15.7481 4.70347 16.5251 5.66193 16.5251C6.62043 16.5251 7.39742 15.7481 7.39742 14.7897C7.39742 13.8312 6.62043 13.0542 5.66193 13.0542Z" fill="white" style="fill:white;fill-opacity:1;"/>
<path fill-rule="evenodd" clip-rule="evenodd" d="M9.4395 8.64648C8.33655 8.64648 7.44241 9.54063 7.44241 10.6436C7.44241 11.7465 8.33655 12.6405 9.4395 12.6405C10.5424 12.6405 11.4366 11.7465 11.4366 10.6436C11.4366 9.54063 10.5424 8.64648 9.4395 8.64648Z" fill="white" style="fill:white;fill-opacity:1;"/>
</svg>
