<svg width="23" height="23" viewBox="0 0 23 23" fill="none" xmlns="http://www.w3.org/2000/svg">
<path fill-rule="evenodd" clip-rule="evenodd" d="M2.35184 13.6849C0.496264 13.9162 -0.728938 11.7611 0.487038 10.2727C1.61031 8.89761 3.97233 9.33893 4.21067 11.486C4.44409 13.5898 4.81811 13.8892 6.77097 14.1124C6.86706 14.1232 6.96176 14.1389 7.05453 14.1589C8.87099 13.887 9.16934 13.5041 9.28615 11.645C9.41558 8.84004 13.2033 8.85185 13.4617 11.4788C13.6914 13.5936 14.0443 13.92 15.9995 14.1439C18.0532 13.9048 18.415 13.6001 18.575 11.7572C18.5716 11.7089 18.5697 11.6603 18.5697 11.6111C18.5697 9.75577 20.8243 8.81422 22.1487 10.145C23.3868 11.3888 22.671 13.56 20.8009 13.7135C18.6754 13.9368 18.3545 14.2907 18.1236 16.2692C18.0476 16.8772 17.9806 17.2469 17.5017 17.7245C17.1237 18.1055 16.6273 18.3449 16.0859 18.3584C14.1971 18.4952 13.6256 18.8465 13.4606 20.7494C13.4547 21.4197 13.3357 21.9034 12.8177 22.4079C11.5882 23.6049 9.42702 22.9077 9.27342 21.0361C9.096 19.348 8.74498 18.3862 6.84333 18.4173C5.6922 18.436 4.63923 17.436 4.62786 16.2815C4.60369 14.4916 4.12226 13.8443 2.35184 13.6849ZM11.1311 18.8013C13.1996 18.5845 13.6573 18.3877 13.9079 16.271C13.659 14.2005 13.347 13.8565 11.4469 13.706C9.40445 13.9632 9.09527 14.3395 8.89911 16.2938C8.89276 16.3579 8.88407 16.4215 8.87348 16.4843C9.09454 18.1961 9.37643 18.6394 11.1311 18.8013Z" fill="white"/>
<path fill-rule="evenodd" clip-rule="evenodd" d="M12.8074 2.32702C12.8074 3.11396 12.1695 3.7518 11.3827 3.7518C10.5958 3.7518 9.9579 3.11396 9.9579 2.32702C9.9579 1.54018 10.5958 0.902344 11.3827 0.902344C12.1695 0.902344 12.8074 1.54018 12.8074 2.32702Z" fill="white"/>
<path fill-rule="evenodd" clip-rule="evenodd" d="M6.73388 5.13916C7.74466 5.13916 8.56396 5.95843 8.56396 6.96921C8.56396 7.97992 7.74466 8.79919 6.73388 8.79919C5.72319 8.79919 4.90383 7.97992 4.90383 6.96921C4.90383 5.95843 5.72319 5.13916 6.73388 5.13916Z" fill="white"/>
<path fill-rule="evenodd" clip-rule="evenodd" d="M16.0177 5.13916C17.0285 5.13916 17.8478 5.95843 17.8478 6.96921C17.8478 7.97992 17.0285 8.79919 16.0177 8.79919C15.0071 8.79919 14.1877 7.97992 14.1877 6.96921C14.1877 5.95843 15.0071 5.13916 16.0177 5.13916Z" fill="white"/>
</svg>
