<svg width="23" height="22" viewBox="0 0 23 22" fill="none" xmlns="http://www.w3.org/2000/svg">
<g clip-path="url(#clip0_338_175)">
<path d="M11.3815 19.0672C12.1919 19.0672 12.8487 19.7236 12.8487 20.5333C12.8487 21.3431 12.1919 21.9995 11.3815 21.9995C10.5712 21.9995 9.91432 21.3431 9.91432 20.5333C9.91432 19.7236 10.5712 19.0672 11.3815 19.0672Z" fill="white" style="fill:white;fill-opacity:1;"/>
<path d="M9.01667 15.854C9.01667 14.8134 8.17246 13.9698 7.13108 13.9698C6.0897 13.9698 5.24549 14.8134 5.24549 15.854C5.24549 16.8947 6.0897 17.7383 7.13108 17.7383C8.17246 17.7383 9.01667 16.8947 9.01667 15.854Z" fill="white" style="fill:white;fill-opacity:1;"/>
<path fill-rule="evenodd" clip-rule="evenodd" d="M-1.35881e-06 11.4065C-1.30667e-06 12.5994 0.967191 13.5659 2.16093 13.5659C3.27974 13.5659 4.19988 12.7161 4.31141 11.6277C4.3968 10.6943 4.55539 10.0238 4.97015 9.62502C5.37794 9.2332 6.06281 9.07472 6.76512 8.93193C6.81391 8.93541 6.86096 8.93715 6.90976 8.93715C8.02857 8.93715 8.9487 8.08733 9.06024 6.99893C9.14563 6.06552 9.30421 5.39506 9.71897 4.99627C10.1163 4.6149 10.7768 4.45469 11.4599 4.31363C12.3661 4.4007 13.0196 4.55917 13.4117 4.96667C13.8038 5.37416 13.9624 6.05855 14.1053 6.76035C14.1018 6.80911 14.1001 6.85613 14.1001 6.90489C14.1001 8.02289 14.9505 8.94237 16.0397 9.05383C16.9424 9.13567 17.5994 9.28544 18.0037 9.67204C18.4167 10.1091 18.6276 10.8858 18.6781 11.6695L18.6781 11.6642C18.7165 12.8223 19.6697 13.7505 20.8373 13.7505C22.0311 13.7505 22.9983 12.784 22.9983 11.5911C22.9983 10.4731 22.1478 9.55362 21.0586 9.44217C20.1542 9.36032 19.4972 9.20881 19.0929 8.82221L19.0859 8.81525C18.6781 8.37641 18.4708 7.60495 18.4202 6.82653L18.4202 6.83001C18.3819 5.67195 17.4304 4.74376 16.261 4.74376L16.1652 4.7455C15.5134 4.63057 14.8721 4.5017 14.473 4.08724C14.053 3.65188 13.8387 2.86998 13.7864 2.07762L13.7864 2.08285C13.7481 0.924788 12.7966 -0.0033985 11.6272 -0.00339845C10.4335 -0.0033984 9.46628 0.963099 9.46628 2.15599C9.46628 2.22738 9.46977 2.30052 9.47674 2.37018C9.36695 2.9762 9.22753 3.55959 8.8424 3.93051C8.40673 4.3502 7.62426 4.5644 6.83134 4.6149L6.83482 4.6149C5.67594 4.65321 4.74708 5.60403 4.74708 6.77254L4.74882 6.86832C4.63381 7.51962 4.50311 8.16047 4.09009 8.55926C3.65442 8.97894 2.87195 9.19314 2.07903 9.24539L2.08425 9.24539C0.925366 9.2837 -0.00348679 10.2345 -0.00348674 11.403L-1.35881e-06 11.4065Z" fill="white" style="fill:white;fill-opacity:1;"/>
<path d="M17.9497 15.854C17.9497 14.8134 17.1055 13.9698 16.0641 13.9698C15.0227 13.9698 14.1785 14.8134 14.1785 15.854C14.1785 16.8947 15.0227 17.7383 16.0641 17.7383C17.1055 17.7383 17.9497 16.8947 17.9497 15.854Z" fill="white" style="fill:white;fill-opacity:1;"/>
<path d="M13.7289 11.7548C13.7289 10.5574 12.7575 9.58667 11.5592 9.58667C10.361 9.58667 9.3896 10.5574 9.3896 11.7548C9.3896 12.9522 10.361 13.9229 11.5593 13.9229C12.7575 13.9229 13.7289 12.9522 13.7289 11.7548Z" fill="white" style="fill:white;fill-opacity:1;"/>
</g>
<defs>
<clipPath id="clip0_338_175">
<rect width="22" height="23" fill="white" style="fill:white;fill-opacity:1;" transform="translate(0 22) rotate(-90)"/>
</clipPath>
</defs>
</svg>
