<svg width="21" height="22" viewBox="0 0 21 22" fill="none" xmlns="http://www.w3.org/2000/svg">
<g clip-path="url(#clip0_542_446)">
<path fill-rule="evenodd" clip-rule="evenodd" d="M2.19092 13.779C-1.90491 10.6707 0.998747 7.85659 0.998747 7.85659C0.647302 9.59687 1.43998 12.1872 2.19092 13.779ZM18.8095 13.779C22.9054 10.6707 20.0017 7.85659 20.0017 7.85659C20.3531 9.59687 19.5605 12.1872 18.8095 13.779ZM9.04362 21.9005C8.52477 21.7812 7.8396 21.5242 7.18845 21.088C6.53746 20.6519 5.92036 20.037 5.49437 19.3026C5.06839 18.5683 4.83322 17.7146 4.7248 16.9296C4.34317 14.1687 5.18559 13.5213 5.9199 12.8598C6.12072 12.5479 6.09623 12.3631 5.94669 12.1269C5.87508 12.0135 5.80762 11.9618 5.69966 11.8789C5.64853 11.8396 5.578 11.7854 5.48467 11.7013C5.37733 11.6043 5.24057 11.4688 5.09888 11.3084L5.0978 11.3093C4.98661 11.1835 4.87095 11.0401 4.76222 10.8853C4.65103 10.7271 4.55216 10.5622 4.48285 10.3805C4.4154 10.2035 4.37212 10.0023 4.3675 9.76322V9.76104C4.36227 9.49197 4.40416 9.17224 4.49071 8.83813C4.57403 8.5159 4.69708 8.18898 4.85694 7.89005C5.02095 7.58361 5.22548 7.30266 5.45957 7.06001C5.68811 6.82315 5.945 6.62381 6.21929 6.47434C6.47925 6.33269 6.75446 6.23482 7.02444 6.17369C7.33368 6.10365 7.63738 6.08035 7.90505 6.09317C8.14884 6.1049 8.35922 6.14695 8.54202 6.20605C8.72529 6.26531 8.88531 6.34301 9.0253 6.42494C9.1696 6.50936 9.29173 6.59738 9.39522 6.68134V6.68353C9.51596 6.78125 9.60221 6.86192 9.6712 6.92884V6.93103C9.75067 7.0081 9.81382 7.07267 9.86849 7.13037C9.9113 7.17555 9.9669 7.23699 10.0228 7.29891C10.2724 7.57345 10.7274 7.57345 10.977 7.29891C11.0329 7.23699 11.0887 7.17555 11.1313 7.13037C11.186 7.07252 11.2492 7.0081 11.3286 6.93103V6.92884C11.3976 6.86192 11.4839 6.78125 11.6046 6.68353V6.68134C11.7083 6.59738 11.8302 6.50936 11.9745 6.42494C12.1147 6.34285 12.2745 6.26531 12.4578 6.20605C12.6405 6.14695 12.851 6.1049 13.0948 6.09317C13.3625 6.08019 13.6662 6.10365 13.9754 6.17369C14.2454 6.23482 14.5206 6.33269 14.7805 6.47434C15.055 6.62381 15.3117 6.82315 15.5403 7.06001C15.7744 7.30266 15.979 7.58361 16.1429 7.89005C16.3028 8.18883 16.4258 8.5159 16.5091 8.83813C16.5957 9.17224 16.6374 9.49197 16.6323 9.76104V9.76322C16.6279 10.0024 16.5844 10.2035 16.517 10.3805C16.4477 10.5622 16.3488 10.7271 16.2376 10.8853C16.129 11.0401 16.0132 11.1835 15.902 11.3093L15.901 11.3084C15.7591 11.4688 15.6225 11.6043 15.5152 11.7013C15.422 11.7854 15.3513 11.8396 15.3002 11.8789C15.1922 11.9616 15.1249 12.0135 15.0531 12.1269C14.9036 12.3631 14.8791 12.5479 15.0799 12.8598C15.8144 13.5211 16.6567 14.1687 16.275 16.9296C16.1665 17.7145 15.9314 18.5681 15.5055 19.3026C15.0795 20.037 14.4625 20.6521 13.8114 21.088C13.1604 21.524 12.4752 21.781 11.9562 21.9005C11.3802 22.0329 9.619 22.0329 9.04285 21.9005H9.04362ZM13.5148 16.8593C13.719 16.6248 13.701 16.2708 13.4747 16.069C13.2485 15.867 12.8994 15.8934 12.6953 16.1279C11.3574 17.6627 9.64333 17.6627 8.30547 16.1279C8.10125 15.8934 7.75227 15.867 7.52604 16.069C7.2998 16.2709 7.28178 16.6249 7.48599 16.8593C9.3327 18.9776 11.6684 18.9776 13.5149 16.8593H13.5148ZM11.4012 14.5729C11.5515 14.834 11.866 14.9137 12.1031 14.7511C12.3405 14.5885 12.411 14.245 12.2607 13.9839C11.7577 12.2141 9.24291 12.2141 8.73992 13.9839C8.58961 14.245 8.65999 14.5885 8.89747 14.7511C9.1348 14.9139 9.44913 14.834 9.59944 14.5729C10.1363 13.6448 10.8643 13.645 11.4012 14.5729ZM11.1709 0.0143008C13.4022 0.145475 22.0947 2.97392 17.784 13.6514C17.1536 12.9846 16.5795 12.6605 16.2526 12.5418C16.3848 12.4223 16.5522 12.2563 16.7252 12.0609V12.0587C16.8663 11.8991 17.01 11.7218 17.1398 11.5368C17.297 11.3129 17.4403 11.0712 17.5491 10.7856C17.6596 10.4957 17.7306 10.1688 17.7381 9.78324C17.7453 9.40926 17.6916 8.98259 17.5804 8.55233C17.4768 8.15146 17.3204 7.73839 17.1144 7.35363C16.9008 6.95432 16.6345 6.58847 16.3297 6.27281C16.0234 5.95559 15.6773 5.68745 15.3057 5.48483C14.9561 5.29424 14.5828 5.16198 14.2146 5.07849C13.8038 4.98546 13.3999 4.95451 13.0435 4.9717C12.699 4.98828 12.3947 5.05003 12.1248 5.13727C11.8558 5.2242 11.6251 5.33583 11.4249 5.45309C11.2295 5.56738 11.0614 5.68855 10.9173 5.80549L10.9162 5.80409C10.4494 6.1826 10.5515 6.1826 10.0847 5.80409L10.0836 5.80549C9.93948 5.6887 9.77146 5.56738 9.57603 5.45309C9.37582 5.33599 9.14512 5.22436 8.87607 5.13727C8.6064 5.05003 8.30193 4.98828 7.95741 4.9717C7.60104 4.95451 7.19723 4.98546 6.78634 5.07849C6.41811 5.16182 6.0448 5.29424 5.6952 5.48483C5.32342 5.68745 4.97737 5.95559 4.6712 6.27281C4.36642 6.58847 4.10015 6.95432 3.88654 7.35363C3.68048 7.73855 3.52431 8.15146 3.42051 8.55233C3.30916 8.98259 3.25557 9.40926 3.26281 9.78324C3.27035 10.1688 3.34135 10.4957 3.45177 10.7856C3.56066 11.0712 3.70388 11.3129 3.86113 11.5368C3.99095 11.7218 4.13464 11.8992 4.27571 12.0587V12.0609C4.44851 12.2563 4.61607 12.4225 4.74836 12.5418C4.4214 12.6605 3.84727 12.9846 3.21691 13.6514C-1.09375 2.97392 7.59873 0.145475 9.82999 0.0143008C10.1573 -0.00492969 10.8438 -0.00492969 11.1711 0.0143008H11.1709ZM13.9434 9.75181C13.8369 9.94427 13.5186 10.0421 13.2326 9.97054C12.9466 9.89893 12.8011 9.68474 12.9075 9.49228C12.908 9.4915 13.0754 9.18787 13.0689 9.18365C12.8476 9.04278 12.8379 8.80764 13.0474 8.6588C13.2568 8.5098 13.6061 8.50339 13.8274 8.64426C14.3664 8.98759 13.9444 9.74978 13.9434 9.75197V9.75181ZM7.05755 9.75181C7.16397 9.94427 7.4823 10.0421 7.76829 9.97054C8.05428 9.89893 8.19982 9.68474 8.0934 9.49228C8.09294 9.4915 7.92553 9.18787 7.932 9.18365C8.15331 9.04278 8.16301 8.80764 7.95356 8.6588C7.74411 8.5098 7.39482 8.50339 7.17351 8.64426C6.63449 8.98759 7.05647 9.74978 7.05755 9.75197V9.75181Z" fill="#060054" style="fill:#060054;fill:color(display-p3 0.0235 0.0000 0.3294);fill-opacity:1;"/>
</g>
<defs>
<clipPath id="clip0_542_446">
<rect width="21" height="22" fill="white" style="fill:white;fill-opacity:1;"/>
</clipPath>
</defs>
</svg>
