<svg width="20" height="20" viewBox="0 0 20 20" fill="none" xmlns="http://www.w3.org/2000/svg">
<path id="Shape" fill-rule="evenodd" clip-rule="evenodd" d="M3.11052 3.11079C4.93754 1.28366 7.41596 0.257102 9.9999 0.257102L9.99964 0.256836C12.5832 0.258468 15.0607 1.28529 16.8875 3.11231C18.7143 4.93933 19.7413 7.41664 19.743 10.0002C19.743 12.5841 18.7164 15.0623 16.8893 16.8895C15.0623 18.7167 12.5838 19.7432 9.9999 19.7432C7.41596 19.7432 4.93781 18.7167 3.11052 16.8895C1.28339 15.0625 0.256836 12.5841 0.256836 10.0002C0.256836 7.41622 1.28339 4.93808 3.11052 3.11079ZM12.4977 2.43609C11.6919 2.1689 10.8488 2.03144 9.99992 2.02862C9.15103 2.03143 8.3079 2.16888 7.50213 2.43609L9.061 4.77435C9.68142 4.65632 10.3184 4.65632 10.9388 4.77435L12.4977 2.43609ZM2.43559 12.498C1.89231 10.8772 1.89231 9.12329 2.43559 7.50247L4.77386 9.06134C4.65583 9.68176 4.65583 10.3188 4.77386 10.9392L2.43559 12.498ZM7.50209 17.5644C8.30786 17.8316 9.15099 17.969 9.99988 17.9719C10.8487 17.9691 11.6918 17.8316 12.4976 17.5644L12.4977 17.5645V17.5644L12.4976 17.5644L10.9388 15.2261C10.3184 15.3442 9.68138 15.3442 9.06096 15.2261V15.226L7.50209 17.5644ZM9.9999 13.5431C9.06024 13.5431 8.15914 13.1698 7.49469 12.5054C6.83023 11.8409 6.45701 10.9398 6.45701 10.0002C6.45701 9.0605 6.83023 8.15941 7.49469 7.49495C8.15914 6.8305 9.06024 6.45728 9.9999 6.45728C10.9396 6.45728 11.8407 6.8305 12.5051 7.49495C13.1696 8.15941 13.5428 9.0605 13.5428 10.0002C13.5431 10.9398 13.1699 11.8412 12.5054 12.5057C11.841 13.1701 10.9396 13.5434 9.9999 13.5431ZM15.2259 10.9391V10.9389L15.2259 10.9389C15.2259 10.939 15.2259 10.939 15.2259 10.9391ZM17.5642 7.50243C18.1074 9.12327 18.1074 10.8771 17.5641 12.4979L15.2259 10.9389C15.3439 10.3186 15.3439 9.6816 15.2259 9.06122L17.5642 7.50243ZM17.5642 7.50243C17.5642 7.50241 17.5641 7.50238 17.5641 7.50235H17.5643L17.5642 7.50243Z" fill="#08005C"/>
</svg>
