<svg width="19" height="18" viewBox="0 0 19 18" fill="none" xmlns="http://www.w3.org/2000/svg">
<path id="Shape" fill-rule="evenodd" clip-rule="evenodd" d="M16.2503 13.0649V13.4999C17.0541 13.4999 17.7969 13.9289 18.1988 14.6249C18.6008 15.321 18.6008 16.1789 18.1988 16.875C17.7969 17.5711 17.0541 18 16.2503 18H2.75001C1.94617 18 1.20336 17.5711 0.801441 16.875C0.39952 16.1789 0.39952 15.321 0.801441 14.6249C1.20336 13.9288 1.94617 13.4999 2.75001 13.4999V13.0649C2.74775 12.755 2.81166 12.4481 2.93747 12.1648L7.73006 1.12484C7.93986 0.678339 8.31051 0.327651 8.76781 0.142701C9.22521 -0.042123 9.73549 -0.0476484 10.1967 0.127508C10.6578 0.302657 11.0358 0.645435 11.2552 1.08728L16.0629 12.1649C16.1887 12.4481 16.2526 12.755 16.2503 13.0649ZM7.24277 5.99993H11.7576L13.0552 8.99994H5.94504L7.24277 5.99993ZM2.75007 16.4999H16.2503C16.5183 16.4999 16.7659 16.357 16.8999 16.125C17.0338 15.8929 17.0338 15.6069 16.8999 15.3749C16.7659 15.1429 16.5183 15 16.2503 15H2.75007C2.48213 15 2.23453 15.1428 2.10055 15.3749C1.96658 15.6069 1.96658 15.893 2.10055 16.125C2.23453 16.357 2.48213 16.4999 2.75007 16.4999Z" fill="url(#paint0_linear_175_763)"/>
<defs>
<linearGradient id="paint0_linear_175_763" x1="9.50014" y1="0" x2="9.50014" y2="18" gradientUnits="userSpaceOnUse">
<stop stop-color="#FF9100"/>
<stop offset="1" stop-color="#C88100"/>
</linearGradient>
</defs>
</svg>
