<svg width="18" height="10" viewBox="0 0 18 10" fill="none" xmlns="http://www.w3.org/2000/svg">
<path d="M14.25 0H6.75C6.17113 0.000654611 5.60044 0.130168 5.08347 0.378204C4.5665 0.626241 4.11757 0.985932 3.7725 1.42857H0.75C0.551088 1.42857 0.360322 1.50383 0.21967 1.63778C0.0790176 1.77174 0 1.95342 0 2.14286C0 2.3323 0.0790176 2.51398 0.21967 2.64793C0.360322 2.78189 0.551088 2.85714 0.75 2.85714H3.075C3.02703 3.09254 3.00192 3.33165 3 3.57143V4.28571H0.75C0.551088 4.28571 0.360322 4.36097 0.21967 4.49492C0.0790176 4.62888 0 4.81056 0 5C0 5.18944 0.0790176 5.37112 0.21967 5.50508C0.360322 5.63903 0.551088 5.71429 0.75 5.71429H3V6.42857C3.00192 6.66835 3.02703 6.90746 3.075 7.14286H0.75C0.551088 7.14286 0.360322 7.21811 0.21967 7.35207C0.0790176 7.48602 0 7.6677 0 7.85714C0 8.04658 0.0790176 8.22827 0.21967 8.36222C0.360322 8.49617 0.551088 8.57143 0.75 8.57143H3.7725C4.11757 9.01407 4.5665 9.37376 5.08347 9.6218C5.60044 9.86983 6.17113 9.99935 6.75 10H14.25C15.2445 9.99966 16.1981 9.62328 16.9013 8.95358C17.6044 8.28388 17.9996 7.37567 18 6.42857V3.57143C17.9996 2.62433 17.6044 1.71612 16.9013 1.04642C16.1981 0.376725 15.2445 0.000340771 14.25 0ZM14.2425 1.42857L10.95 3.78571C10.8192 3.87624 10.6617 3.925 10.5 3.925C10.3383 3.925 10.1808 3.87624 10.05 3.78571L6.7575 1.42857H14.2425Z" fill="#070058"/>
</svg>
