<svg width="23" height="20" viewBox="0 0 23 20" fill="none" xmlns="http://www.w3.org/2000/svg">
<path fill-rule="evenodd" clip-rule="evenodd" d="M21.8502 17.8933V3.64323C21.848 2.88793 21.5469 2.16431 21.013 1.63038C20.479 1.09633 19.7553 0.795411 19.0002 0.793213H15.2001C14.4449 0.795439 13.7213 1.09634 13.1872 1.63038C12.6533 2.16427 12.3523 2.88793 12.3501 3.64323V17.8933H10.4502V8.39298C10.4479 7.63785 10.1469 6.91423 9.61298 6.38014C9.07893 5.84625 8.35527 5.54517 7.60014 5.54297H3.80001C3.04488 5.5452 2.32126 5.84626 1.78716 6.38014C1.25327 6.91419 0.95219 7.63785 0.949992 8.39298V17.8933C0.6106 17.8933 0.296972 18.0743 0.127274 18.3682C-0.0424245 18.6621 -0.0424245 19.0244 0.127274 19.3183C0.296972 19.6122 0.610596 19.7932 0.949992 19.7932H21.8504C22.1898 19.7932 22.5034 19.6122 22.6731 19.3183C22.8428 19.0244 22.8428 18.6621 22.6731 18.3682C22.5034 18.0743 22.1898 17.8933 21.8504 17.8933H21.8502ZM6.64986 15.0433C6.64986 15.3827 6.46887 15.6963 6.17497 15.866C5.88106 16.0357 5.51877 16.0357 5.22485 15.866C4.93094 15.6963 4.74996 15.3827 4.74996 15.0433V10.2931C4.74996 9.95374 4.93095 9.64011 5.22485 9.47041C5.51876 9.30072 5.88105 9.30072 6.17497 9.47041C6.46889 9.64011 6.64986 9.95374 6.64986 10.2931V15.0433ZM17.575 15.866C17.8689 15.6963 18.0499 15.3827 18.0499 15.0433V5.54297C18.0499 5.20357 17.8689 4.88995 17.575 4.72025C17.2811 4.55055 16.9188 4.55055 16.6249 4.72025C16.331 4.88995 16.15 5.20358 16.15 5.54297V15.0433C16.15 15.3827 16.331 15.6963 16.6249 15.866C16.9188 16.0357 17.2811 16.0357 17.575 15.866Z" fill="#070058"/>
</svg>
