<svg width="18" height="15" viewBox="0 0 18 15" fill="none" xmlns="http://www.w3.org/2000/svg">
<g id="Group" opacity="0.2">
<path id="Vector" d="M4.71428 2.14286C5.30602 2.14286 5.78571 1.66316 5.78571 1.07143C5.78571 0.479695 5.30602 0 4.71428 0C4.12255 0 3.64285 0.479695 3.64285 1.07143C3.64285 1.66316 4.12255 2.14286 4.71428 2.14286Z" fill="#070058"/>
<path id="Vector_2" d="M8.99999 2.14286C9.59172 2.14286 10.0714 1.66316 10.0714 1.07143C10.0714 0.479695 9.59172 0 8.99999 0C8.40825 0 7.92856 0.479695 7.92856 1.07143C7.92856 1.66316 8.40825 2.14286 8.99999 2.14286Z" fill="#070058"/>
<path id="Vector_3" d="M13.2857 2.14286C13.8774 2.14286 14.3571 1.66316 14.3571 1.07143C14.3571 0.479695 13.8774 0 13.2857 0C12.694 0 12.2143 0.479695 12.2143 1.07143C12.2143 1.66316 12.694 2.14286 13.2857 2.14286Z" fill="#070058"/>
<path id="Vector_4" d="M8.99999 4.28564C4.74106 4.28564 0.428558 5.75886 0.428558 8.57136C0.428558 11.1481 4.04731 12.5892 7.92856 12.8249V10.6821C4.58302 10.4464 2.57142 9.25707 2.57142 8.57136C2.57142 7.816 5.01159 6.4285 8.99999 6.4285C12.9884 6.4285 15.4286 7.816 15.4286 8.57136C15.4286 9.10707 14.258 9.91064 12.2143 10.3794V12.5678C15.1875 12.0133 17.5714 10.6633 17.5714 8.57136C17.5714 5.75886 13.2589 4.28564 8.99999 4.28564Z" fill="#070058"/>
<path id="Vector_5" d="M7.12498 8.57129V14.9999L10.3393 11.7856L7.12498 8.57129Z" fill="#070058"/>
</g>
</svg>
