<svg width="23" height="26" viewBox="0 0 23 26" fill="none" xmlns="http://www.w3.org/2000/svg">
<g id="Layer 31">
<path id="Vector" d="M11.895 23.8673C10.5154 23.7199 9.17786 23.2981 7.95879 22.6259C6.73972 21.9537 5.66298 21.0443 4.79005 19.9495C3.02709 17.7386 2.20131 14.9072 2.49438 12.078C2.78744 9.24889 4.17534 6.65385 6.35276 4.86377C8.53017 3.07368 11.3187 2.2352 14.105 2.53277C16.2897 2.76562 18.3473 3.68904 19.9875 5.17277L17.8263 5.32952L17.94 6.97952L22.815 6.63302L22.4738 1.68302L20.8488 1.79852L20.9869 3.85277C18.6855 1.82184 15.7179 0.740599 12.6699 0.822444C9.62185 0.90429 6.71473 2.14327 4.52227 4.29488C2.32981 6.44649 1.01128 9.35441 0.826886 12.4448C0.642496 15.5351 1.60564 18.5834 3.52625 20.988C4.53035 22.2547 5.77197 23.3065 7.1792 24.0826C8.58643 24.8586 10.1313 25.3435 11.7244 25.509C12.1482 25.5532 12.574 25.5753 13 25.575C15.7871 25.576 18.4897 24.603 20.6538 22.8195L19.6463 21.5325C18.5699 22.4218 17.3308 23.086 16.0005 23.4867C14.6701 23.8874 13.2748 24.0168 11.895 23.8673Z" fill="#070058"/>
<path id="Vector_2" d="M8.9375 13.2C8.9375 14.0158 9.17576 14.8133 9.62216 15.4917C10.0685 16.17 10.703 16.6987 11.4453 17.011C12.1877 17.3232 13.0045 17.4049 13.7926 17.2457C14.5806 17.0865 15.3045 16.6937 15.8726 16.1168C16.4408 15.5399 16.8277 14.8049 16.9844 14.0047C17.1412 13.2045 17.0607 12.3751 16.7533 11.6214C16.4458 10.8676 15.9251 10.2234 15.257 9.77014C14.5889 9.31688 13.8035 9.07495 13 9.07495C11.9226 9.07495 10.8892 9.50955 10.1274 10.2831C9.36551 11.0567 8.9375 12.1059 8.9375 13.2ZM15.4375 13.2C15.4375 13.6895 15.2945 14.168 15.0267 14.575C14.7589 14.982 14.3782 15.2992 13.9328 15.4866C13.4874 15.6739 12.9973 15.7229 12.5245 15.6274C12.0516 15.5319 11.6173 15.2962 11.2764 14.95C10.9355 14.6039 10.7034 14.1629 10.6093 13.6828C10.5153 13.2027 10.5636 12.7051 10.748 12.2528C10.9325 11.8006 11.245 11.414 11.6458 11.1421C12.0466 10.8701 12.5179 10.725 13 10.725C13.6465 10.725 14.2665 10.9857 14.7236 11.4499C15.1807 11.914 15.4375 12.5435 15.4375 13.2Z" fill="#070058"/>
</g>
</svg>
