<svg width="11" height="14" viewBox="0 0 11 14" fill="none" xmlns="http://www.w3.org/2000/svg">
<g id="Group 2">
<path id="Shape" fill-rule="evenodd" clip-rule="evenodd" d="M2.67599 5.88407C3.30899 6.51698 4.16743 6.87256 5.0625 6.87256C5.95728 6.87162 6.81516 6.51565 7.44788 5.88294C8.08059 5.25022 8.43656 4.39234 8.4375 3.49756C8.4375 2.60248 8.08192 1.74405 7.44901 1.11105C6.81601 0.478139 5.95757 0.122559 5.0625 0.122559C4.16743 0.122559 3.30899 0.478139 2.67599 1.11105C2.04308 1.74405 1.6875 2.60248 1.6875 3.49756C1.6875 4.39263 2.04308 5.25106 2.67599 5.88407ZM3.47153 1.90663C3.8935 1.48466 4.46575 1.24764 5.0625 1.24764C5.65906 1.24829 6.23095 1.4855 6.65273 1.90738C7.0746 2.32916 7.31181 2.90105 7.31247 3.49761C7.31247 4.09436 7.07545 4.66661 6.65347 5.08858C6.2315 5.51055 5.65925 5.74757 5.0625 5.74757C4.46575 5.74757 3.8935 5.51055 3.47153 5.08858C3.04955 4.66661 2.81253 4.09436 2.81253 3.49761C2.81253 2.90086 3.04955 2.3286 3.47153 1.90663Z" fill="#08005C"/>
<path id="Path" d="M7.60491 6.87256C7.28154 6.87727 6.96296 6.95213 6.67124 7.09197C6.1648 7.31722 5.61675 7.43362 5.06248 7.43362C4.5082 7.43362 3.96013 7.31723 3.45371 7.09197C3.16197 6.95213 2.84341 6.87727 2.52004 6.87256C1.85191 6.87341 1.21138 7.13916 0.738932 7.61149C0.266577 8.08394 0.00084375 8.72447 0 9.3926V10.81C0.000282512 11.5559 0.296638 12.2711 0.824079 12.7985C1.35142 13.3259 2.06663 13.6223 2.81253 13.6226H7.31261H7.31252C8.05842 13.6223 8.77363 13.3259 9.30097 12.7985C9.82841 12.2711 10.1248 11.5559 10.1251 10.81V9.3926C10.1242 8.72447 9.85845 8.08394 9.38612 7.61149C8.91367 7.13914 8.27314 6.8734 7.60501 6.87256L7.60491 6.87256Z" fill="#08005C"/>
</g>
</svg>
