<svg width="20" height="24" viewBox="0 0 20 24" fill="none" xmlns="http://www.w3.org/2000/svg">
<path fill-rule="evenodd" clip-rule="evenodd" d="M12.1729 6.98215C13.9094 7.55185 14.1174 9.92435 12.4073 10.7544C10.4391 11.7096 10.4529 12.3389 10.884 14.0018C11.165 15.0843 10.771 16.2177 9.72797 16.6222C8.33413 17.1627 7.50231 18.1245 8.19991 19.6652C8.91666 21.2058 7.70223 22.1665 7.20286 22.3582C6.57788 22.5919 6.10339 22.6405 5.47923 22.3527C3.96934 21.6559 3.84956 19.4588 5.48942 18.6697C7.52973 17.6883 7.43153 17.0979 6.98888 15.273C6.73082 14.2091 7.23008 13.1794 8.18878 12.8114C9.78354 12.1992 10.3351 11.0098 9.73653 9.85535C8.88304 8.25733 10.4047 6.40202 12.1729 6.98215Z" fill="white" style="fill:white;fill-opacity:1;"/>
<path fill-rule="evenodd" clip-rule="evenodd" d="M14.7737 1.18234C16.5102 1.75204 16.7181 4.12454 15.0081 4.95461C13.0398 5.90979 13.0537 6.53906 13.4848 8.20195C13.7658 9.28448 13.3717 10.4179 12.3287 10.8224C10.9349 11.3629 10.1031 12.3247 10.8007 13.8654C11.5174 15.406 10.303 16.3667 9.80363 16.5583C9.17865 16.7921 8.70416 16.8407 8.08 16.5529C6.57011 15.8561 6.45032 13.659 8.09019 12.8699C10.1305 11.8885 10.0323 11.2981 9.58966 9.47318C9.3316 8.40926 9.83085 7.37962 10.7896 7.0116C12.3843 6.39943 12.9359 5.20997 12.3373 4.05554C11.4838 2.45753 13.0055 0.60221 14.7737 1.18234Z" fill="white" style="fill:white;fill-opacity:1;"/>
</svg>
