<svg width="20" height="23" viewBox="0 0 20 23" fill="none" xmlns="http://www.w3.org/2000/svg">
<path fill-rule="evenodd" clip-rule="evenodd" d="M11.8507 6.60738C13.6124 7.18537 13.8234 9.59237 12.0885 10.4345C10.0916 11.4036 10.1056 12.042 10.543 13.7291C10.8281 14.8273 10.4284 15.9772 9.37019 16.3876C7.95608 16.936 7.11217 17.9117 7.81991 19.4748C8.54709 21.0378 7.315 22.0125 6.80837 22.2069C6.1743 22.4441 5.69291 22.4934 5.05968 22.2014C3.52783 21.4945 3.40631 19.2655 5.07001 18.4649C7.13999 17.4692 7.04036 16.8702 6.59128 15.0188C6.32946 13.9394 6.83598 12.8948 7.80862 12.5214C9.42657 11.9003 9.9862 10.6936 9.37887 9.52236C8.51298 7.90111 10.0568 6.01882 11.8507 6.60738Z" fill="white"/>
<path fill-rule="evenodd" clip-rule="evenodd" d="M14.4893 0.723097C16.251 1.30109 16.462 3.70808 14.727 4.55022C12.7302 5.51929 12.7442 6.15771 13.1816 7.84477C13.4667 8.94304 13.0669 10.0929 12.0088 10.5033C10.5947 11.0517 9.75076 12.0274 10.4585 13.5906C11.1857 15.1536 9.95358 16.1282 9.44695 16.3227C8.81288 16.5598 8.33149 16.6091 7.69826 16.3171C6.16641 15.6102 6.04489 13.3812 7.7086 12.5806C9.77857 11.5849 9.67895 10.9859 9.22987 9.13449C8.96805 8.0551 9.47457 7.01048 10.4472 6.63712C12.0652 6.01605 12.6248 4.80929 12.0175 3.63808C11.1516 2.01683 12.6954 0.134536 14.4893 0.723097Z" fill="white"/>
</svg>
