<svg width="54" height="83" viewBox="0 0 54 83" fill="none" xmlns="http://www.w3.org/2000/svg">
<g id="Group 219">
<g id="Vector">
<path d="M11.9905 24.4052L9.16802 21.2413L6.79883 23.3542L11.8475 29.0276L18.5099 22.4084L19.3032 21.6312L17.0568 19.3713L11.9905 24.4052Z" fill="#BBE2FA" style="fill:#BBE2FA;fill:color(display-p3 0.7333 0.8863 0.9804);fill-opacity:1;"/>
<path d="M11.9905 24.4052L9.16802 21.2413L6.79883 23.3542L11.8475 29.0276L18.5099 22.4084L19.3032 21.6312L17.0568 19.3713L11.9905 24.4052Z" fill="#060054" style="fill:#060054;fill:color(display-p3 0.0235 0.0000 0.3294);fill-opacity:1;"/>
</g>
<g id="Vector_2">
<path d="M11.9905 39.0403L9.16802 35.8751L6.79883 37.9893L11.8543 43.6532L18.5085 37.0422L19.3032 36.265L17.0568 34.0065L11.9905 39.0403Z" fill="#BBE2FA" style="fill:#BBE2FA;fill:color(display-p3 0.7333 0.8863 0.9804);fill-opacity:1;"/>
<path d="M11.9905 39.0403L9.16802 35.8751L6.79883 37.9893L11.8543 43.6532L18.5085 37.0422L19.3032 36.265L17.0568 34.0065L11.9905 39.0403Z" fill="#060054" style="fill:#060054;fill:color(display-p3 0.0235 0.0000 0.3294);fill-opacity:1;"/>
</g>
<g id="Vector_3">
<path d="M47.0644 22.5414H23.1484V25.8186H47.0644V22.5414Z" fill="#BBE2FA" style="fill:#BBE2FA;fill:color(display-p3 0.7333 0.8863 0.9804);fill-opacity:1;"/>
<path d="M47.0644 22.5414H23.1484V25.8186H47.0644V22.5414Z" fill="#060054" style="fill:#060054;fill:color(display-p3 0.0235 0.0000 0.3294);fill-opacity:1;"/>
</g>
<g id="Vector_4">
<path d="M47.0149 37.226H23.2002V40.402H47.0149V37.226Z" fill="#BBE2FA" style="fill:#BBE2FA;fill:color(display-p3 0.7333 0.8863 0.9804);fill-opacity:1;"/>
<path d="M47.0149 37.226H23.2002V40.402H47.0149V37.226Z" fill="#060054" style="fill:#060054;fill:color(display-p3 0.0235 0.0000 0.3294);fill-opacity:1;"/>
</g>
<g id="Vector_5">
<path d="M47.0149 51.9048H23.2002V55.0822H47.0149V51.9048Z" fill="#BBE2FA" style="fill:#BBE2FA;fill:color(display-p3 0.7333 0.8863 0.9804);fill-opacity:1;"/>
<path d="M47.0149 51.9048H23.2002V55.0822H47.0149V51.9048Z" fill="#060054" style="fill:#060054;fill:color(display-p3 0.0235 0.0000 0.3294);fill-opacity:1;"/>
</g>
<g id="Group">
<path id="Vector_6" d="M53.6495 35.5501C53.663 28.3669 53.6629 21.8786 53.6629 13.4731L53.6495 11.5694C53.636 11.0446 53.636 10.5319 53.636 10.007C53.636 9.36345 53.6495 8.81163 53.6616 8.30028C53.7007 6.11997 52.9263 4.0449 51.4287 2.50816C49.8784 0.905313 47.6334 0 45.3087 0C41.2773 0.013492 37.2324 0.013492 33.174 0.013492L8.85197 0C3.93953 0 0.629946 3.2961 0.629946 8.19504V63.8779C0.629946 67.3183 0.629947 70.8519 0.59082 74.3841V74.4623C0.59082 76.787 1.39224 78.8351 2.91549 80.3462C4.43874 81.9086 6.65817 82.8018 8.98284 82.8018H9.0611C20.2635 82.6965 31.6629 82.7235 42.6683 82.7491H45.4004C47.6469 82.7491 49.8137 81.8695 51.3491 80.3192C52.8467 78.8095 53.6603 76.7735 53.6603 74.5932V74.515C53.6346 70.5483 53.6211 66.1891 53.6211 60.7909C53.6211 59.2812 53.6211 45.1753 53.6346 35.5757C53.6373 35.5622 53.6495 35.5622 53.6495 35.5501ZM50.6691 74.6081C50.6691 76.0139 50.1834 77.2606 49.2241 78.2199C48.2392 79.2183 46.8603 79.7566 45.3505 79.7566H42.1327C31.2973 79.731 20.0827 79.704 9.03681 79.7957H8.98419C7.44745 79.7957 6.01595 79.2439 5.03104 78.2455C4.08525 77.2862 3.58604 75.9869 3.58604 74.4758V74.4097C3.61168 71.7963 3.61168 69.1829 3.62517 66.5952H50.6421C50.6421 69.4973 50.6556 72.0986 50.6677 74.5541V74.6081H50.6691ZM50.6691 24.1102C50.6691 24.0967 50.6556 24.0846 50.6434 24.0846V26.1731C50.6434 28.5639 50.6299 58.2976 50.6299 60.687C50.6299 62.2899 50.63 63.7996 50.6434 65.2311H3.62517V13.6822H50.6677V24.1102H50.6691ZM50.6691 8.20583C50.6556 8.74417 50.6434 9.30948 50.6434 9.97868C50.6434 10.5305 50.6569 11.0553 50.6569 11.5937L50.6704 12.3155H3.62517V8.19234C3.62517 4.98799 5.62199 2.99118 8.85197 2.99118L33.174 3.00467C37.2324 3.00467 41.2773 3.00467 45.3748 2.99118C46.8724 2.99118 48.2904 3.58213 49.2888 4.60617C49.9189 5.24974 50.6812 6.37902 50.6812 8.06012L50.6691 8.20583Z" fill="#BBE2FA" style="fill:#BBE2FA;fill:color(display-p3 0.7333 0.8863 0.9804);fill-opacity:1;"/>
<g id="Vector_7">
<path d="M18.6242 53.4892C18.6242 56.5762 16.1161 59.0709 13.0426 59.0709C9.9691 59.0709 7.46094 56.5762 7.46094 53.4892C7.46094 50.4158 9.9691 47.9076 13.0426 47.9076C16.1161 47.9076 18.6242 50.4171 18.6242 53.4892Z" fill="#BBE2FA" style="fill:#BBE2FA;fill:color(display-p3 0.7333 0.8863 0.9804);fill-opacity:1;"/>
<path d="M18.6242 53.4892C18.6242 56.5762 16.1161 59.0709 13.0426 59.0709C9.9691 59.0709 7.46094 56.5762 7.46094 53.4892C7.46094 50.4158 9.9691 47.9076 13.0426 47.9076C16.1161 47.9076 18.6242 50.4171 18.6242 53.4892Z" fill="#060054" style="fill:#060054;fill:color(display-p3 0.0235 0.0000 0.3294);fill-opacity:1;"/>
</g>
</g>
</g>
</svg>
