<svg width="21" height="22" viewBox="0 0 21 22" fill="none" xmlns="http://www.w3.org/2000/svg">
<path d="M12.4512 6.99512H11.4512V8.99512C11.4506 9.52536 11.2397 10.0337 10.8647 10.4087C10.4898 10.7836 9.98142 10.9945 9.45117 10.9951H7.45117V13.9951C7.45141 14.2603 7.55684 14.5145 7.74433 14.702C7.93181 14.8894 8.18603 14.9949 8.45117 14.9951H12.4512C12.7163 14.9949 12.9705 14.8894 13.158 14.702C13.3455 14.5145 13.4509 14.2603 13.4512 13.9951V7.99512C13.4509 7.72997 13.3455 7.47576 13.158 7.28827C12.9705 7.10079 12.7163 6.99536 12.4512 6.99512Z" fill="#1273EF" style="fill:#1273EF;fill:color(display-p3 0.0706 0.4510 0.9373);fill-opacity:1;"/>
<path d="M20.1713 12.515C19.946 12.331 19.7645 12.0991 19.6399 11.8362C19.5154 11.5732 19.4509 11.2859 19.4513 10.995C19.4523 10.7053 19.5164 10.4193 19.639 10.1569C19.7616 9.8944 19.9398 9.66173 20.1613 9.475C20.4847 9.21471 20.7184 8.85963 20.8296 8.45964C20.9408 8.05965 20.9239 7.63488 20.7813 7.245C20.5636 6.64048 20.296 6.05512 19.9813 5.495C19.6537 4.93735 19.279 4.40875 18.8613 3.915C18.592 3.60093 18.2323 3.37764 17.8314 3.27562C17.4305 3.1736 17.0079 3.19783 16.6213 3.345C16.3492 3.44592 16.0583 3.48558 15.7692 3.46112C15.4801 3.43667 15.2 3.34872 14.9488 3.20354C14.6976 3.05836 14.4815 2.85953 14.316 2.62125C14.1505 2.38296 14.0396 2.11108 13.9913 1.825C13.9228 1.41116 13.7271 1.02893 13.4314 0.731437C13.1357 0.433939 12.7547 0.235954 12.3413 0.165001C11.0909 -0.0550002 9.81165 -0.0550002 8.56125 0.165001C8.14714 0.234319 7.7652 0.431773 7.46921 0.729563C7.17321 1.02735 6.97807 1.41048 6.91125 1.825C6.85966 2.11045 6.74721 2.38144 6.58156 2.61956C6.41591 2.85769 6.20094 3.05736 5.95125 3.205C5.69982 3.34881 5.41963 3.43506 5.13085 3.45754C4.84208 3.48001 4.55191 3.43817 4.28125 3.335C3.88808 3.18749 3.45855 3.167 3.05312 3.27643C2.6477 3.38586 2.28681 3.61969 2.02125 3.945C1.20289 4.91643 0.559952 6.02297 0.121254 7.215C-0.020814 7.60883 -0.0384941 8.03679 0.0706054 8.44099C0.179705 8.8452 0.410319 9.20614 0.731254 9.475C0.956547 9.65905 1.13805 9.89094 1.26258 10.1538C1.38712 10.4168 1.45157 10.7041 1.45125 10.995C1.45019 11.2847 1.38613 11.5707 1.26354 11.8331C1.14094 12.0956 0.962725 12.3283 0.741254 12.515C0.417826 12.7753 0.184085 13.1304 0.0728778 13.5304C-0.038329 13.9303 -0.0214111 14.3551 0.121254 14.745C0.338891 15.3495 0.606482 15.9349 0.921254 16.495C1.24883 17.0527 1.62353 17.5813 2.04125 18.075C2.31052 18.3891 2.67016 18.6124 3.07108 18.7144C3.47199 18.8164 3.89463 18.7922 4.28125 18.645C4.55327 18.5441 4.8442 18.5044 5.1333 18.5289C5.4224 18.5533 5.70254 18.6413 5.95374 18.7865C6.20493 18.9316 6.421 19.1305 6.58651 19.3688C6.75202 19.607 6.86291 19.8789 6.91125 20.165C6.97971 20.5788 7.17539 20.9611 7.47109 21.2586C7.7668 21.5561 8.14784 21.754 8.56125 21.825C9.18174 21.9366 9.81082 21.9934 10.4413 21.995C11.0783 21.993 11.714 21.9361 12.3413 21.825C12.7554 21.7557 13.1373 21.5582 13.4333 21.2604C13.7293 20.9626 13.9244 20.5795 13.9913 20.165C14.0428 19.8796 14.1553 19.6086 14.3209 19.3704C14.4866 19.1323 14.7016 18.9326 14.9513 18.785C15.2027 18.6412 15.4829 18.5549 15.7717 18.5325C16.0604 18.51 16.3506 18.5518 16.6213 18.655C17.0147 18.8001 17.4436 18.8194 17.8484 18.7101C18.2533 18.6008 18.6142 18.3684 18.8813 18.045C19.7017 17.075 20.3448 15.9681 20.7813 14.775C20.9233 14.3812 20.941 13.9532 20.8319 13.549C20.7228 13.1448 20.4922 12.7839 20.1713 12.515ZM15.4513 13.995C15.4504 14.7904 15.134 15.5529 14.5716 16.1154C14.0092 16.6778 13.2466 16.9941 12.4513 16.995H8.45125C7.65587 16.9941 6.89332 16.6778 6.3309 16.1154C5.76848 15.5529 5.45213 14.7904 5.45125 13.995V9.8236C5.45025 9.42943 5.52741 9.03896 5.67827 8.6748C5.82913 8.31063 6.0507 7.97999 6.33015 7.702L8.15825 5.8739C8.4361 5.5944 8.76665 5.37279 9.13074 5.22193C9.49484 5.07106 9.88524 4.99393 10.2794 4.995H12.4513C13.2466 4.99587 14.0092 5.31223 14.5716 5.87465C15.134 6.43707 15.4504 7.19962 15.4513 7.995V13.995Z" fill="#1273EF" style="fill:#1273EF;fill:color(display-p3 0.0706 0.4510 0.9373);fill-opacity:1;"/>
<path d="M9.45123 7.40918L7.86523 8.99518H9.45123V7.40918Z" fill="#1273EF" style="fill:#1273EF;fill:color(display-p3 0.0706 0.4510 0.9373);fill-opacity:1;"/>
</svg>
