<svg width="19" height="16" viewBox="0 0 19 16" fill="none" xmlns="http://www.w3.org/2000/svg">
<path fill-rule="evenodd" clip-rule="evenodd" d="M17.5952 13.7701V2.29501C17.5934 1.6868 17.3509 1.1041 16.921 0.674144C16.491 0.244091 15.9082 0.00177044 15.3002 0H12.2401C11.632 0.00179296 11.0493 0.244101 10.6192 0.674144C10.1893 1.10407 9.94682 1.6868 9.94505 2.29501V13.7701H8.41512V6.11982C8.41333 5.51174 8.1709 4.92903 7.74098 4.49895C7.31093 4.06903 6.72819 3.82657 6.12011 3.8248H3.06001C2.45193 3.8266 1.86922 4.06903 1.43914 4.49895C1.00922 4.929 0.766764 5.51174 0.764993 6.11982V13.7701C0.491693 13.7701 0.23914 13.9158 0.102489 14.1525C-0.0341629 14.3892 -0.0341629 14.6809 0.102489 14.9176C0.23914 15.1543 0.49169 15.3 0.764993 15.3H17.5953C17.8686 15.3 18.1212 15.1543 18.2578 14.9176C18.3945 14.6809 18.3945 14.3892 18.2578 14.1525C18.1212 13.9158 17.8686 13.7701 17.5953 13.7701H17.5952ZM5.35489 11.4751C5.35489 11.7484 5.20915 12.0009 4.97247 12.1376C4.7358 12.2742 4.44406 12.2742 4.20738 12.1376C3.9707 12.0009 3.82497 11.7484 3.82497 11.4751V7.64993C3.82497 7.37663 3.97071 7.12408 4.20738 6.98743C4.44405 6.85078 4.73579 6.85078 4.97247 6.98743C5.20916 7.12408 5.35489 7.37663 5.35489 7.64993V11.4751ZM14.1525 12.1376C14.3892 12.0009 14.5349 11.7484 14.5349 11.4751V3.8248C14.5349 3.5515 14.3892 3.29895 14.1525 3.1623C13.9158 3.02565 13.6241 3.02565 13.3874 3.1623C13.1508 3.29895 13.005 3.5515 13.005 3.8248V11.4751C13.005 11.7484 13.1508 12.0009 13.3874 12.1376C13.6241 12.2742 13.9159 12.2742 14.1525 12.1376Z" fill="#DD355D" style="fill:#DD355D;fill:color(display-p3 0.8667 0.2078 0.3647);fill-opacity:1;"/>
</svg>
