<svg width="74" height="74" viewBox="0 0 74 74" fill="none" xmlns="http://www.w3.org/2000/svg">
<path d="M64.8692 41.707C64.7501 41.3496 64.2734 41.2304 64.0351 41.4687L63.9159 41.5879L48.4248 55.5306C47.5907 56.2456 46.9949 56.8414 46.2799 57.4372C44.7308 58.748 42.9433 59.463 41.0367 59.463H40.6792C38.7726 59.463 36.866 58.748 35.3169 57.4372C34.6019 56.8414 34.0061 56.2456 33.2911 55.6498L17.8 41.707C17.6808 41.5879 17.5617 41.5879 17.4425 41.4687H17.2042C16.9659 41.4687 16.7275 41.5879 16.6084 41.8262C16.4892 42.0645 16.4892 42.5412 16.8467 42.6603L29.0013 53.6233L18.515 64.1096C18.3958 64.2288 18.2767 64.3479 18.2767 64.5863C18.2767 64.7054 18.3958 64.9438 18.515 65.0629C18.7533 65.3012 19.23 65.3012 19.3491 65.0629L29.9546 54.4574L32.2187 56.4832C33.0528 57.1982 33.7678 57.9132 34.6019 58.509C36.3894 60.0581 38.5343 60.7731 40.7984 60.7731H41.0367C43.1816 60.7731 45.3266 59.9389 47.114 58.509C47.9482 57.794 48.6631 57.079 49.4973 56.4832L51.7614 54.4574L62.3668 64.9438C62.486 65.0629 62.6052 65.1821 62.8435 65.1821C62.9626 65.1821 63.201 65.0629 63.3201 64.9438C63.4393 64.8246 63.5585 64.7054 63.5585 64.4671C63.5585 64.3479 63.4393 64.1096 63.3201 63.9905L52.8338 53.5041L64.9884 42.5412C64.9884 42.3029 65.1076 41.9454 64.8692 41.707Z" fill="#BBE2FA" style="fill:#BBE2FA;fill:color(display-p3 0.7333 0.8863 0.9804);fill-opacity:1;"/>
<path d="M61.0548 25.3825H54.8583V28.3616H61.0548C66.4171 28.3616 70.8261 32.7706 70.8261 38.1329V61.4888C70.8261 66.8511 66.4171 71.2601 61.0548 71.2601H20.5395C15.1771 71.2601 10.7681 66.8511 10.7681 61.4888V38.0131V36.9406C9.81483 36.464 8.98069 35.9873 8.02739 35.3915C7.78906 36.2256 7.78906 37.1789 7.78906 38.0131V61.369C7.78906 68.3996 13.5089 74.0002 20.4203 74.0002H60.9356C67.9662 74.0002 73.5668 68.2804 73.5668 61.369V38.0131C73.686 31.1016 67.9662 25.3818 61.0548 25.3818V25.3825Z" fill="#BBE2FA" style="fill:#BBE2FA;fill:color(display-p3 0.7333 0.8863 0.9804);fill-opacity:1;"/>
<path fill-rule="evenodd" clip-rule="evenodd" d="M49.0208 45.5201C49.2591 45.7585 49.7358 45.9968 50.2124 45.9968V45.9961C51.1657 45.9961 51.8807 45.2811 51.7615 44.2087V11.9163C51.7615 4.52818 45.5651 0 39.8453 0H39.2495C35.6746 0.119163 34.0063 0.119163 29.7165 0.119163H21.9709H20.8984H13.1529H12.1996C9.45881 0.119163 6.9564 0.953301 4.81147 2.62158C1.8324 4.76651 0.164125 8.10306 0.044962 11.6779V11.9163C-0.0742007 15.7295 -0.0742007 18.9469 1.59408 22.9984C2.42821 24.905 3.38152 26.6924 4.69231 28.2415C7.55221 31.8164 11.3654 34.438 15.4169 35.6296C18.1577 36.4638 20.0643 36.5829 21.7326 36.5829H26.3799C30.0739 36.4638 35.1979 36.4638 38.2962 36.4638H39.607C39.7261 36.4638 39.9644 36.4638 40.0836 36.5829L49.0208 45.5201ZM39.607 33.4847H38.177C35.0788 33.4847 30.0739 33.4847 26.2607 33.723H21.6134C20.1834 33.723 18.5152 33.6039 16.1319 32.8889C12.6762 31.8164 9.33965 29.5523 6.9564 26.4541C5.88393 25.0242 5.04979 23.5942 4.33482 21.9259C2.81349 18.5322 2.90113 15.828 3.01763 12.2333C3.01975 12.1676 3.02189 12.1017 3.02403 12.0354V11.7971C3.14319 9.05636 4.45398 6.55395 6.59891 4.88567C8.26718 3.69404 10.1738 2.97907 12.1996 3.09823H13.1529H20.8984H21.9709H29.7165C32.0364 3.09823 33.5976 3.06524 35.0769 3.03397C36.409 3.00582 37.6748 2.97907 39.3686 2.97907H39.9644C44.3735 2.97907 49.0208 6.31562 49.0208 11.9163V41.4686L48.0675 40.5153C46.1609 38.4895 43.8968 36.2254 42.3477 34.7955L42.1094 34.5572C41.3944 33.8422 40.4411 33.4847 39.607 33.4847Z" fill="#070058" style="fill:#070058;fill:color(display-p3 0.0275 0.0000 0.3451);fill-opacity:1;"/>
</svg>
