<svg width="22" height="24" viewBox="0 0 22 24" fill="none" xmlns="http://www.w3.org/2000/svg">
<path d="M17 8.00244H10C9.73478 8.00244 9.48043 8.1078 9.29289 8.29533C9.10536 8.48287 9 8.73722 9 9.00244C9 9.26766 9.10536 9.52201 9.29289 9.70955C9.48043 9.89708 9.73478 10.0024 10 10.0024H17C17.2652 10.0024 17.5196 9.89708 17.7071 9.70955C17.8946 9.52201 18 9.26766 18 9.00244C18 8.73722 17.8946 8.48287 17.7071 8.29533C17.5196 8.1078 17.2652 8.00244 17 8.00244Z" fill="#E5614D" style="fill:#E5614D;fill:color(display-p3 0.8980 0.3804 0.3020);fill-opacity:1;"/>
<path d="M6 8.00244H5C4.73478 8.00244 4.48043 8.1078 4.29289 8.29533C4.10536 8.48287 4 8.73722 4 9.00244C4 9.26766 4.10536 9.52201 4.29289 9.70955C4.48043 9.89708 4.73478 10.0024 5 10.0024H6C6.26522 10.0024 6.51957 9.89708 6.70711 9.70955C6.89464 9.52201 7 9.26766 7 9.00244C7 8.73722 6.89464 8.48287 6.70711 8.29533C6.51957 8.1078 6.26522 8.00244 6 8.00244Z" fill="#E5614D" style="fill:#E5614D;fill:color(display-p3 0.8980 0.3804 0.3020);fill-opacity:1;"/>
<path d="M21.9999 9.00248C22.0001 8.47716 21.8967 7.95695 21.6958 7.47158C21.4948 6.98621 21.2002 6.5452 20.8287 6.17373C20.4572 5.80227 20.0162 5.50764 19.5309 5.30667C19.0455 5.1057 18.5253 5.00234 17.9999 5.00248H16.4099L17.7099 3.71248C17.8038 3.61938 17.8784 3.50866 17.9293 3.38668C17.9803 3.26469 18.0067 3.13384 18.0069 3.00163C18.0072 2.86943 17.9814 2.73847 17.9309 2.61628C17.8804 2.49409 17.8063 2.38306 17.7129 2.28958C17.6194 2.19609 17.5083 2.12199 17.3862 2.07153C17.264 2.02106 17.133 1.99522 17.0008 1.99549C16.8686 1.99576 16.7377 2.02213 16.6158 2.0731C16.4938 2.12406 16.383 2.19862 16.2899 2.29248L15.9999 2.59248V1.00248C15.9999 0.737267 15.8946 0.482913 15.7071 0.295377C15.5195 0.10784 15.2652 0.0024834 14.9999 0.0024834C14.7347 0.0024834 14.4804 0.10784 14.2928 0.295377C14.1053 0.482913 13.9999 0.737267 13.9999 1.00248V2.59248L13.7099 2.29248C13.5214 2.10545 13.2664 2.00074 13.0008 2.00128C12.7352 2.00183 12.4806 2.10757 12.2928 2.29538C12.105 2.48318 11.9993 2.73774 11.9987 3.00333C11.9982 3.26893 12.1029 3.52392 12.2899 3.71248L13.5899 5.00248H7.99995V3.41248L8.28995 3.71248C8.47952 3.89837 8.73444 4.0025 8.99995 4.0025C9.26545 4.0025 9.52037 3.89837 9.70995 3.71248C9.8973 3.52368 10.0024 3.26847 10.0024 3.00248C10.0024 2.7365 9.8973 2.48129 9.70995 2.29248L7.70995 0.292483C7.52114 0.105132 7.26593 0 6.99995 0C6.73396 0 6.47875 0.105132 6.28995 0.292483L4.28995 2.29248C4.10291 2.48105 3.99821 2.73604 3.99875 3.00163C3.99929 3.26723 4.10504 3.52179 4.29284 3.70959C4.48064 3.89739 4.7352 4.00314 5.0008 4.00368C5.26639 4.00422 5.52138 3.89952 5.70995 3.71248L5.99995 3.41248V5.00248H3.99995C3.18579 4.99935 2.39021 5.24569 1.72028 5.70835C1.05035 6.17102 0.538223 6.8278 0.252828 7.5903C-0.0325669 8.35281 -0.0775342 9.18444 0.123978 9.97327C0.325491 10.7621 0.763811 11.4703 1.37995 12.0025C0.763811 12.5347 0.325491 13.2429 0.123978 14.0317C-0.0775342 14.8205 -0.0325669 15.6522 0.252828 16.4147C0.538223 17.1772 1.05035 17.834 1.72028 18.2966C2.39021 18.7593 3.18579 19.0056 3.99995 19.0025H5.58995L4.28995 20.2925C4.10291 20.4811 3.99821 20.736 3.99875 21.0016C3.99929 21.2672 4.10504 21.5218 4.29284 21.7096C4.48064 21.8974 4.7352 22.0031 5.0008 22.0037C5.26639 22.0042 5.52138 21.8995 5.70995 21.7125L5.99995 21.4125V23.0025C5.99995 23.2677 6.1053 23.5221 6.29284 23.7096C6.48038 23.8971 6.73473 24.0025 6.99995 24.0025C7.26516 24.0025 7.51952 23.8971 7.70705 23.7096C7.89459 23.5221 7.99995 23.2677 7.99995 23.0025V21.4125L8.28995 21.7125C8.47952 21.8984 8.73444 22.0025 8.99995 22.0025C9.26545 22.0025 9.52037 21.8984 9.70995 21.7125C9.8973 21.5237 10.0024 21.2685 10.0024 21.0025C10.0024 20.7365 9.8973 20.4813 9.70995 20.2925L8.40995 19.0025H13.9999V20.5925L13.7099 20.2925C13.5214 20.1054 13.2664 20.0007 13.0008 20.0013C12.7352 20.0018 12.4806 20.1076 12.2928 20.2954C12.105 20.4832 11.9993 20.7377 11.9987 21.0033C11.9982 21.2689 12.1029 21.5239 12.2899 21.7125L14.2899 23.7125C14.4795 23.8984 14.7344 24.0025 14.9999 24.0025C15.2655 24.0025 15.5204 23.8984 15.7099 23.7125L17.7099 21.7125C17.897 21.5239 18.0017 21.2689 18.0011 21.0033C18.0006 20.7377 17.8949 20.4832 17.7071 20.2954C17.5193 20.1076 17.2647 20.0018 16.9991 20.0013C16.7335 20.0007 16.4785 20.1054 16.2899 20.2925L15.9999 20.5925V19.0025H17.9999C18.8141 19.0056 19.6097 18.7593 20.2796 18.2966C20.9495 17.834 21.4617 17.1772 21.7471 16.4147C22.0325 15.6522 22.0774 14.8205 21.8759 14.0317C21.6744 13.2429 21.2361 12.5347 20.6199 12.0025C21.0519 11.6309 21.3988 11.1706 21.6369 10.6529C21.8751 10.1352 21.9989 9.57231 21.9999 9.00248ZM5.99995 16.0025H4.99995C4.73473 16.0025 4.48038 15.8971 4.29284 15.7096C4.1053 15.5221 3.99995 15.2677 3.99995 15.0025C3.99995 14.7373 4.1053 14.4829 4.29284 14.2954C4.48038 14.1078 4.73473 14.0025 4.99995 14.0025H5.99995C6.26516 14.0025 6.51952 14.1078 6.70705 14.2954C6.89459 14.4829 6.99995 14.7373 6.99995 15.0025C6.99995 15.2677 6.89459 15.5221 6.70705 15.7096C6.51952 15.8971 6.26516 16.0025 5.99995 16.0025ZM16.9999 16.0025H9.99995C9.73473 16.0025 9.48038 15.8971 9.29284 15.7096C9.1053 15.5221 8.99995 15.2677 8.99995 15.0025C8.99995 14.7373 9.1053 14.4829 9.29284 14.2954C9.48038 14.1078 9.73473 14.0025 9.99995 14.0025H16.9999C17.2652 14.0025 17.5195 14.1078 17.7071 14.2954C17.8946 14.4829 17.9999 14.7373 17.9999 15.0025C17.9999 15.2677 17.8946 15.5221 17.7071 15.7096C17.5195 15.8971 17.2652 16.0025 16.9999 16.0025ZM17.9999 11.0025H3.99995C3.46951 11.0025 2.96081 10.7918 2.58573 10.4167C2.21066 10.0416 1.99995 9.53292 1.99995 9.00248C1.99995 8.47205 2.21066 7.96334 2.58573 7.58827C2.96081 7.2132 3.46951 7.00248 3.99995 7.00248H17.9999C18.5304 7.00248 19.0391 7.2132 19.4142 7.58827C19.7892 7.96334 19.9999 8.47205 19.9999 9.00248C19.9999 9.53292 19.7892 10.0416 19.4142 10.4167C19.0391 10.7918 18.5304 11.0025 17.9999 11.0025Z" fill="#E5614D" style="fill:#E5614D;fill:color(display-p3 0.8980 0.3804 0.3020);fill-opacity:1;"/>
</svg>
