<svg width="24" height="20" viewBox="0 0 24 20" fill="none" xmlns="http://www.w3.org/2000/svg">
<path d="M20 12.0088H16.89C17.8858 11.0366 18.5692 9.78975 18.8529 8.42736C19.1367 7.06498 19.0079 5.64893 18.4831 4.36006C17.9583 3.0712 17.0612 1.96802 15.9064 1.1914C14.7517 0.414793 13.3916 0 12 0C10.6084 0 9.24833 0.414793 8.09357 1.1914C6.9388 1.96802 6.04172 3.0712 5.51689 4.36006C4.99206 5.64893 4.86331 7.06498 5.14707 8.42736C5.43084 9.78975 6.11424 11.0366 7.11 12.0088H4C2.93913 12.0088 1.92172 12.4302 1.17157 13.1804C0.421427 13.9305 0 14.9479 0 16.0088C0 17.0696 0.421427 18.0871 1.17157 18.8372C1.92172 19.5874 2.93913 20.0088 4 20.0088H20C21.0609 20.0088 22.0783 19.5874 22.8284 18.8372C23.5786 18.0871 24 17.0696 24 16.0088C24 14.9479 23.5786 13.9305 22.8284 13.1804C22.0783 12.4302 21.0609 12.0088 20 12.0088ZM10 17.0088H4C3.73478 17.0088 3.48043 16.9034 3.29289 16.7159C3.10536 16.5284 3 16.274 3 16.0088C3 15.7436 3.10536 15.4892 3.29289 15.3017C3.48043 15.1141 3.73478 15.0088 4 15.0088H10C10.2652 15.0088 10.5196 15.1141 10.7071 15.3017C10.8946 15.4892 11 15.7436 11 16.0088C11 16.274 10.8946 16.5284 10.7071 16.7159C10.5196 16.9034 10.2652 17.0088 10 17.0088ZM12 9.00878C12.6359 9.01218 13.2546 9.21597 13.768 9.59119C14.2815 9.9664 14.6636 10.4939 14.86 11.0988C14.0238 11.6908 13.0245 12.0088 12 12.0088C10.9755 12.0088 9.97617 11.6908 9.14 11.0988C9.33641 10.4939 9.7185 9.9664 10.232 9.59119C10.7454 9.21597 11.3641 9.01218 12 9.00878ZM11 6.00878C11 5.811 11.0586 5.61766 11.1685 5.45321C11.2784 5.28876 11.4346 5.16059 11.6173 5.0849C11.8 5.00922 12.0011 4.98941 12.1951 5.028C12.3891 5.06658 12.5673 5.16182 12.7071 5.30168C12.847 5.44153 12.9422 5.61971 12.9808 5.81369C13.0194 6.00767 12.9996 6.20874 12.9239 6.39147C12.8482 6.57419 12.72 6.73037 12.5556 6.84025C12.3911 6.95013 12.1978 7.00878 12 7.00878C11.735 7.00802 11.4811 6.90241 11.2937 6.71504C11.1064 6.52767 11.0008 6.27376 11 6.00878ZM15 17.0088H13C12.7348 17.0088 12.4804 16.9034 12.2929 16.7159C12.1054 16.5284 12 16.274 12 16.0088C12 15.7436 12.1054 15.4892 12.2929 15.3017C12.4804 15.1141 12.7348 15.0088 13 15.0088H15C15.2652 15.0088 15.5196 15.1141 15.7071 15.3017C15.8946 15.4892 16 15.7436 16 16.0088C16 16.274 15.8946 16.5284 15.7071 16.7159C15.5196 16.9034 15.2652 17.0088 15 17.0088ZM14.49 7.68878C14.7934 7.23731 14.9683 6.71186 14.9961 6.16863C15.0239 5.6254 14.9034 5.08484 14.6476 4.6048C14.3919 4.12475 14.0104 3.72327 13.544 3.44333C13.0776 3.16338 12.5439 3.01549 12 3.01549C11.4561 3.01549 10.9224 3.16338 10.456 3.44333C9.98963 3.72327 9.60815 4.12475 9.35237 4.6048C9.0966 5.08484 8.97615 5.6254 9.00391 6.16863C9.03168 6.71186 9.20661 7.23731 9.51 7.68878C8.75654 8.12395 8.12931 8.74773 7.69 9.49878C7.24125 8.74551 7.00296 7.88558 7 7.00878C7 5.6827 7.52678 4.41093 8.46447 3.47325C9.40215 2.53557 10.6739 2.00878 12 2.00878C13.3261 2.00878 14.5979 2.53557 15.5355 3.47325C16.4732 4.41093 17 5.6827 17 7.00878C16.997 7.88558 16.7587 8.74551 16.31 9.49878C15.8707 8.74773 15.2435 8.12395 14.49 7.68878ZM20 17.0088H18C17.7348 17.0088 17.4804 16.9034 17.2929 16.7159C17.1054 16.5284 17 16.274 17 16.0088C17 15.7436 17.1054 15.4892 17.2929 15.3017C17.4804 15.1141 17.7348 15.0088 18 15.0088H20C20.2652 15.0088 20.5196 15.1141 20.7071 15.3017C20.8946 15.4892 21 15.7436 21 16.0088C21 16.274 20.8946 16.5284 20.7071 16.7159C20.5196 16.9034 20.2652 17.0088 20 17.0088Z" fill="#6FC3B6" style="fill:#6FC3B6;fill:color(display-p3 0.4353 0.7647 0.7137);fill-opacity:1;"/>
</svg>
