<svg width="83" height="67" viewBox="0 0 83 67" fill="none" xmlns="http://www.w3.org/2000/svg">
<path fill-rule="evenodd" clip-rule="evenodd" d="M0 10.8568C0 11.63 0.626822 12.2567 1.39994 12.2567C2.17306 12.2567 2.79976 11.63 2.79976 10.8568C2.79976 10.0837 2.17306 9.45703 1.39994 9.45703C0.626822 9.45703 0 10.0837 0 10.8568Z" fill="#E5614D" style="fill:#E5614D;fill:color(display-p3 0.8980 0.3804 0.3020);fill-opacity:1;"/>
<path fill-rule="evenodd" clip-rule="evenodd" d="M5.86639 5.00488C4.87336 5.00488 4.06836 5.80997 4.06836 6.80294C4.06836 7.79597 4.87336 8.60106 5.86639 8.60106C6.85945 8.60106 7.66445 7.79597 7.66445 6.80294C7.66445 5.80997 6.85945 5.00488 5.86639 5.00488Z" fill="#E5614D" style="fill:#E5614D;fill:color(display-p3 0.8980 0.3804 0.3020);fill-opacity:1;"/>
<mask id="mask0_808_1249" style="mask-type:luminance" maskUnits="userSpaceOnUse" x="7" y="0" width="14" height="22">
<path fill-rule="evenodd" clip-rule="evenodd" d="M10.1115 0C8.97319 0 8.05023 0.922867 8.05023 2.06119C8.05023 3.12863 8.86099 4.00621 9.90009 4.1119H9.90042H9.90075C10.7917 4.19333 11.4312 4.34402 11.8131 4.74051C12.1874 5.12884 12.3388 5.78339 12.4744 6.45331C12.4717 6.49938 12.4697 6.54542 12.4697 6.59206C12.4697 7.65916 13.2807 8.53675 14.3199 8.64276H14.3202C15.2114 8.72387 15.8506 8.87489 16.2328 9.27137C16.5972 9.64983 16.75 10.2803 16.8836 10.9321C16.8011 11.797 16.6487 12.4195 16.2597 12.7942C15.8714 13.1685 15.2168 13.3199 14.5469 13.4556C14.5009 13.4529 14.4548 13.4508 14.4082 13.4508C13.3411 13.4508 12.4635 14.2619 12.3575 15.301V15.3013C12.2791 16.1625 12.1356 16.7885 11.768 17.1744C11.3501 17.5685 10.61 17.7697 9.8609 17.8184H9.86536C8.75934 17.8556 7.87402 18.7635 7.87402 19.8783C7.87402 21.0166 8.79689 21.9394 9.93521 21.9394C11.0026 21.9394 11.8801 21.1288 11.9859 20.0896V20.0893V20.0889C12.0646 19.2261 12.2085 18.5991 12.5778 18.2135L12.5781 18.2132L12.5842 18.2074C13.0039 17.8187 13.7389 17.6203 14.4825 17.5722H14.4784C15.5843 17.5351 16.4694 16.6272 16.4694 15.5121L16.4673 15.421C16.5771 14.7985 16.7006 14.1869 17.0953 13.8067C17.5112 13.4058 18.2575 13.2016 19.0134 13.1525H19.0089C20.1148 13.1153 21.0003 12.2075 21.0003 11.0926C21.0003 9.9543 20.0774 9.03143 18.9391 9.03143C18.8702 9.03143 18.8016 9.03479 18.7345 9.04131C18.1555 8.93632 17.5999 8.80403 17.245 8.43582C16.844 8.01958 16.6398 7.27325 16.5911 6.51775V6.52187C16.5539 5.41594 15.6461 4.53087 14.5309 4.53087L14.4399 4.53293C13.8174 4.42316 13.2057 4.29935 12.8256 3.90493C12.4247 3.48904 12.2205 2.74239 12.1713 1.98688V1.99133C12.1342 0.885407 11.2263 0 10.1115 0Z" fill="white" style="fill:white;fill-opacity:1;"/>
</mask>
<g mask="url(#mask0_808_1249)">
<path fill-rule="evenodd" clip-rule="evenodd" d="M10.1115 0C8.97319 0 8.05023 0.922867 8.05023 2.06119C8.05023 3.12863 8.86099 4.00621 9.90009 4.1119H9.90042H9.90075C10.7917 4.19333 11.4312 4.34402 11.8131 4.74051C12.1874 5.12884 12.3388 5.78339 12.4744 6.45331C12.4717 6.49938 12.4697 6.54542 12.4697 6.59206C12.4697 7.65916 13.2807 8.53675 14.3199 8.64276H14.3202C15.2114 8.72387 15.8506 8.87489 16.2328 9.27137C16.5972 9.64983 16.75 10.2803 16.8836 10.9321C16.8011 11.797 16.6487 12.4195 16.2597 12.7942C15.8714 13.1685 15.2168 13.3199 14.5469 13.4556C14.5009 13.4529 14.4548 13.4508 14.4082 13.4508C13.3411 13.4508 12.4635 14.2619 12.3575 15.301V15.3013C12.2791 16.1625 12.1356 16.7885 11.768 17.1744C11.3501 17.5685 10.61 17.7697 9.8609 17.8184H9.86536C8.75934 17.8556 7.87402 18.7635 7.87402 19.8783C7.87402 21.0166 8.79689 21.9394 9.93521 21.9394C11.0026 21.9394 11.8801 21.1288 11.9859 20.0896V20.0893V20.0889C12.0646 19.2261 12.2085 18.5991 12.5778 18.2135L12.5781 18.2132L12.5842 18.2074C13.0039 17.8187 13.7389 17.6203 14.4825 17.5722H14.4784C15.5843 17.5351 16.4694 16.6272 16.4694 15.5121L16.4673 15.421C16.5771 14.7985 16.7006 14.1869 17.0953 13.8067C17.5112 13.4058 18.2575 13.2016 19.0134 13.1525H19.0089C20.1148 13.1153 21.0003 12.2075 21.0003 11.0926C21.0003 9.9543 20.0774 9.03143 18.9391 9.03143C18.8702 9.03143 18.8016 9.03479 18.7345 9.04131C18.1555 8.93632 17.5999 8.80403 17.245 8.43582C16.844 8.01958 16.6398 7.27325 16.5911 6.51775V6.52187C16.5539 5.41594 15.6461 4.53087 14.5309 4.53087L14.4399 4.53293C13.8174 4.42316 13.2057 4.29935 12.8256 3.90493C12.4247 3.48904 12.2205 2.74239 12.1713 1.98688V1.99133C12.1342 0.885407 11.2263 0 10.1115 0Z" fill="#E5614D" style="fill:#E5614D;fill:color(display-p3 0.8980 0.3804 0.3020);fill-opacity:1;"/>
</g>
<path fill-rule="evenodd" clip-rule="evenodd" d="M5.86639 13.5254C4.87336 13.5254 4.06836 14.3304 4.06836 15.3234C4.06836 16.3165 4.87336 17.1215 5.86639 17.1215C6.85945 17.1215 7.66445 16.3165 7.66445 15.3234C7.66445 14.3304 6.85945 13.5254 5.86639 13.5254Z" fill="#E5614D" style="fill:#E5614D;fill:color(display-p3 0.8980 0.3804 0.3020);fill-opacity:1;"/>
<path fill-rule="evenodd" clip-rule="evenodd" d="M9.78004 8.95801C8.63732 8.95801 7.71094 9.88439 7.71094 11.0271C7.71094 12.1698 8.63732 13.0961 9.78004 13.0961C10.9227 13.0961 11.8491 12.1698 11.8491 11.0271C11.8491 9.88439 10.9227 8.95801 9.78004 8.95801Z" fill="#E5614D" style="fill:#E5614D;fill:color(display-p3 0.8980 0.3804 0.3020);fill-opacity:1;"/>
<path d="M60.1096 66.034H60.1076C53.7006 66.033 47.5936 64.808 42.4466 62.492C41.5596 62.093 40.7336 61.592 40.0276 61.153L39.8326 61.035C39.1946 60.653 38.0436 59.964 38.0516 58.466C38.0516 58.215 38.0476 57.939 38.0396 57.736L38.0236 57.301C37.9786 55.808 37.9286 54.178 38.5866 52.714C40.3816 48.74 45.5586 46.569 49.5856 45.447C54.0246 44.212 54.2926 42.168 53.9706 40.332C53.8826 39.841 53.4366 39.33 52.9626 38.789C52.7756 38.574 52.5886 38.36 52.4176 38.143C51.2736 36.703 50.3976 35.068 49.8866 33.418C49.8766 33.384 49.8656 33.351 49.8556 33.316C48.9406 33.086 48.2566 32.555 47.8166 31.729C47.1576 30.496 46.8246 29.102 46.8246 27.589C46.8246 26.842 47.0506 25.634 48.3986 25.101C48.3936 25.064 48.3886 25.027 48.3826 24.99C48.0616 22.523 48.5386 20.421 49.7996 18.737C52.0196 15.771 55.9766 14 60.3836 14C64.7816 14 68.7306 15.771 70.9446 18.738C72.2046 20.42 72.6816 22.522 72.3616 24.982C72.3566 25.021 72.3506 25.06 72.3446 25.099C73.6936 25.63 73.9196 26.84 73.9196 27.588C73.9196 29.103 73.5856 30.496 72.9266 31.729C72.4876 32.554 71.8036 33.086 70.8876 33.315C70.8766 33.351 70.8656 33.387 70.8546 33.423C70.3466 35.065 69.4706 36.699 68.3226 38.144C68.1536 38.358 67.9676 38.572 67.7806 38.787C67.3076 39.328 66.8606 39.839 66.7716 40.334C66.4506 42.166 66.7186 44.21 71.1566 45.445C75.7466 46.723 80.2546 48.488 82.1556 52.713C82.8136 54.172 82.7646 55.801 82.7216 57.238L82.7026 57.733C82.6956 57.933 82.6916 58.21 82.6916 58.469C82.6996 59.959 81.5486 60.649 80.9306 61.02L80.8346 61.074C78.2226 63.063 74.6586 63.937 71.7946 64.639C68.0346 65.566 64.1016 66.034 60.1096 66.034ZM41.3976 59.032C42.0256 59.421 42.7526 59.861 43.4836 60.19C48.3066 62.361 54.0546 63.509 60.1076 63.51H60.1096C63.8996 63.51 67.6306 63.066 71.1976 62.191C73.8326 61.544 77.1136 60.74 79.2876 59.078C79.3836 59.004 79.4986 58.934 79.6156 58.869C79.8186 58.749 80.1226 58.566 80.1796 58.477C80.1716 58.181 80.1756 57.869 80.1846 57.64L80.2016 57.204C80.2406 55.887 80.2776 54.681 79.8586 53.751C78.3836 50.473 74.4816 48.991 70.4846 47.878C65.6796 46.541 63.5946 43.854 64.2896 39.896C64.5026 38.708 65.2676 37.831 65.8826 37.127C66.0426 36.945 66.2016 36.763 66.3466 36.579C67.3036 35.374 68.0296 34.024 68.4476 32.672C68.5006 32.503 68.5346 32.335 68.5696 32.163L68.8396 30.946L69.8256 30.922C70.5076 30.905 70.6196 30.696 70.7016 30.542C71.1636 29.677 71.3976 28.683 71.3976 27.588C71.3976 27.519 71.3936 27.469 71.3886 27.434C71.3416 27.419 71.2636 27.399 71.1446 27.383C71.0116 27.364 70.8886 27.34 70.7676 27.316L69.5546 27.087L69.7376 25.405C69.7836 25.142 69.8266 24.895 69.8606 24.647C70.0956 22.845 69.7886 21.404 68.9236 20.249C67.1816 17.915 63.9886 16.523 60.3836 16.523C56.7676 16.523 53.5656 17.916 51.8196 20.248C50.9546 21.404 50.6486 22.845 50.8846 24.656C50.9176 24.899 50.9606 25.147 51.0066 25.412L51.2826 27.068L50.0706 27.297C49.8556 27.338 49.7326 27.362 49.6076 27.38C49.4846 27.397 49.4046 27.417 49.3566 27.433C49.3526 27.468 49.3486 27.518 49.3486 27.587C49.3486 28.682 49.5826 29.675 50.0446 30.54C50.1266 30.694 50.2386 30.904 50.9206 30.921L51.9046 30.945L52.1786 32.169C52.2136 32.337 52.2466 32.503 52.2966 32.661C52.7186 34.024 53.4446 35.373 54.3976 36.574C54.5456 36.761 54.7056 36.943 54.8646 37.125C55.4796 37.829 56.2446 38.705 56.4566 39.89C57.1526 43.853 55.0686 46.539 50.2626 47.876C45.3036 49.257 41.9736 51.344 40.8876 53.75C40.4686 54.68 40.5056 55.889 40.5446 57.168L40.5616 57.636C40.5706 57.864 40.5756 58.177 40.5756 58.469C40.6256 58.565 40.9286 58.746 41.1096 58.855C41.2196 58.917 41.3136 58.973 41.3976 59.032Z" fill="#060054" style="fill:#060054;fill:color(display-p3 0.0235 0.0000 0.3294);fill-opacity:1;"/>
<path d="M60.3168 61.3535L60.2518 61.3525C60.0608 61.3425 59.8788 61.2655 59.7378 61.1305L59.4218 60.8165C58.8178 60.2135 57.8408 59.2395 57.2748 58.6805C57.0628 58.4695 56.9758 58.2165 57.0118 57.9265C57.1818 56.6205 57.3848 55.3195 57.5878 54.0175L57.8348 52.4205C57.9018 51.9755 57.9828 51.5325 58.0658 51.0895C58.1518 50.6285 58.2368 50.1685 58.3038 49.7035C58.4308 48.8185 58.4488 48.1965 58.1768 47.4445L57.9088 46.7165C57.8368 46.5155 57.8648 46.2955 57.9858 46.1235C58.1058 45.9545 58.2998 45.8525 58.5058 45.8525H62.1038C62.3098 45.8525 62.5048 45.9545 62.6238 46.1235C62.7448 46.2955 62.7738 46.5165 62.7018 46.7125L62.4318 47.4475C62.1598 48.1995 62.1778 48.8205 62.3068 49.7025C62.3738 50.1715 62.4598 50.6345 62.5458 51.0975C62.6288 51.5375 62.7098 51.9785 62.7758 52.4215L63.0318 54.0775C63.2328 55.3585 63.4318 56.6405 63.5998 57.9245C63.6338 58.2185 63.5458 58.4705 63.3378 58.6785C62.7988 59.2105 61.8908 60.1155 61.2848 60.7215L60.8818 61.1225C60.7198 61.2735 60.5228 61.3535 60.3168 61.3535ZM58.9848 46.8265L59.0898 47.1095C59.4308 48.0485 59.4098 48.8515 59.2678 49.8425C59.1988 50.3195 59.1108 50.7945 59.0228 51.2675C58.9428 51.6995 58.8628 52.1305 58.7978 52.5665L58.5508 54.1685C58.3488 55.4615 58.1468 56.7545 57.9788 58.0505C58.5268 58.5475 59.5068 59.5235 60.1108 60.1265L60.3058 60.3205L60.5958 60.0325C61.2028 59.4265 62.1118 58.5195 62.6498 57.9885C62.4668 56.7745 62.2688 55.5005 62.0698 54.2275L61.8128 52.5665C61.7478 52.1335 61.6688 51.7045 61.5888 51.2745C61.4998 50.7985 61.4108 50.3225 61.3428 49.8415C61.1988 48.8535 61.1788 48.0525 61.5188 47.1135L61.6248 46.8265H58.9848Z" fill="#BBE2FA" style="fill:#BBE2FA;fill:color(display-p3 0.7333 0.8863 0.9804);fill-opacity:1;"/>
<path d="M48.552 38.9846C48.189 38.2276 47.865 37.4706 47.583 36.7026C46.301 38.1056 44.706 39.1356 42.989 39.6306C41.677 40.0146 40.768 40.0646 39.98 40.0646C39.566 40.0646 39.142 40.0546 38.688 40.0346C38.123 40.0146 37.517 39.9846 36.8 39.9846C34.074 39.9846 31.348 39.9946 28.612 39.9946C28.077 40.0046 27.512 40.2366 27.128 40.6106L26.997 40.7416C26.098 41.6296 24.705 43.0236 23.524 44.1946V23.4166C23.544 20.4076 26.078 18.5406 28.481 18.5406C32.671 18.6016 36.104 18.5906 39.819 18.5806C41.394 18.5806 43.019 18.5706 44.776 18.5706H45.25C45.745 18.5706 46.219 18.6416 46.674 18.7826C46.967 17.9646 47.34 17.1976 47.785 16.4806C46.977 16.1876 46.129 16.0466 45.251 16.0466H44.777C43.02 16.0466 41.385 16.0566 39.81 16.0566C36.115 16.0666 32.692 16.0766 28.512 16.0166H28.41C24.866 16.0166 21.03 18.8436 21 23.4166V46.1836C21 47.1226 21.767 47.8796 22.706 47.8796C23.15 47.8796 23.574 47.7076 23.897 47.3846L25.27 46.0216C26.451 44.8506 27.865 43.4366 28.773 42.5386L28.793 42.5186C31.458 42.5186 34.134 42.5086 36.819 42.5086C37.475 42.5086 38.051 42.5386 38.586 42.5586C39.081 42.5786 39.535 42.5886 39.979 42.5886C40.908 42.5886 42.079 42.5276 43.694 42.0536C45.501 41.5186 47.218 40.5296 48.651 39.1866C48.623 39.1156 48.582 39.0546 48.552 38.9846Z" fill="#060054" style="fill:#060054;fill:color(display-p3 0.0235 0.0000 0.3294);fill-opacity:1;"/>
</svg>
