<svg width="97" height="68" viewBox="0 0 97 68" fill="none" xmlns="http://www.w3.org/2000/svg">
<path fill-rule="evenodd" clip-rule="evenodd" d="M0 10.8568C0 11.63 0.626822 12.2567 1.39994 12.2567C2.17306 12.2567 2.79976 11.63 2.79976 10.8568C2.79976 10.0837 2.17306 9.45703 1.39994 9.45703C0.626822 9.45703 0 10.0837 0 10.8568Z" fill="#E5614D" style="fill:#E5614D;fill:color(display-p3 0.8980 0.3804 0.3020);fill-opacity:1;"/>
<path fill-rule="evenodd" clip-rule="evenodd" d="M5.86639 5.00488C4.87336 5.00488 4.06836 5.80997 4.06836 6.80294C4.06836 7.79597 4.87336 8.60106 5.86639 8.60106C6.85945 8.60106 7.66445 7.79597 7.66445 6.80294C7.66445 5.80997 6.85945 5.00488 5.86639 5.00488Z" fill="#E5614D" style="fill:#E5614D;fill:color(display-p3 0.8980 0.3804 0.3020);fill-opacity:1;"/>
<mask id="mask0_808_1363" style="mask-type:luminance" maskUnits="userSpaceOnUse" x="7" y="0" width="14" height="22">
<path fill-rule="evenodd" clip-rule="evenodd" d="M10.1115 0C8.97319 0 8.05023 0.922867 8.05023 2.06119C8.05023 3.12863 8.86099 4.00621 9.90009 4.1119H9.90042H9.90075C10.7917 4.19333 11.4312 4.34402 11.8131 4.74051C12.1874 5.12884 12.3388 5.78339 12.4744 6.45331C12.4717 6.49938 12.4697 6.54542 12.4697 6.59206C12.4697 7.65916 13.2807 8.53675 14.3199 8.64276H14.3202C15.2114 8.72387 15.8506 8.87489 16.2328 9.27137C16.5972 9.64983 16.75 10.2803 16.8836 10.9321C16.8011 11.797 16.6487 12.4195 16.2597 12.7942C15.8714 13.1685 15.2168 13.3199 14.5469 13.4556C14.5009 13.4529 14.4548 13.4508 14.4082 13.4508C13.3411 13.4508 12.4635 14.2619 12.3575 15.301V15.3013C12.2791 16.1625 12.1356 16.7885 11.768 17.1744C11.3501 17.5685 10.61 17.7697 9.8609 17.8184H9.86536C8.75934 17.8556 7.87402 18.7635 7.87402 19.8783C7.87402 21.0166 8.79689 21.9394 9.93521 21.9394C11.0026 21.9394 11.8801 21.1288 11.9859 20.0896V20.0893V20.0889C12.0646 19.2261 12.2085 18.5991 12.5778 18.2135L12.5781 18.2132L12.5842 18.2074C13.0039 17.8187 13.7389 17.6203 14.4825 17.5722H14.4784C15.5843 17.5351 16.4694 16.6272 16.4694 15.5121L16.4673 15.421C16.5771 14.7985 16.7006 14.1869 17.0953 13.8067C17.5112 13.4058 18.2575 13.2016 19.0134 13.1525H19.0089C20.1148 13.1153 21.0003 12.2075 21.0003 11.0926C21.0003 9.9543 20.0774 9.03143 18.9391 9.03143C18.8702 9.03143 18.8016 9.03479 18.7345 9.04131C18.1555 8.93632 17.5999 8.80403 17.245 8.43582C16.844 8.01958 16.6398 7.27325 16.5911 6.51775V6.52187C16.5539 5.41594 15.6461 4.53087 14.5309 4.53087L14.4399 4.53293C13.8174 4.42316 13.2057 4.29935 12.8256 3.90493C12.4247 3.48904 12.2205 2.74239 12.1713 1.98688V1.99133C12.1342 0.885407 11.2263 0 10.1115 0Z" fill="white" style="fill:white;fill-opacity:1;"/>
</mask>
<g mask="url(#mask0_808_1363)">
<path fill-rule="evenodd" clip-rule="evenodd" d="M10.1115 0C8.97319 0 8.05023 0.922867 8.05023 2.06119C8.05023 3.12863 8.86099 4.00621 9.90009 4.1119H9.90042H9.90075C10.7917 4.19333 11.4312 4.34402 11.8131 4.74051C12.1874 5.12884 12.3388 5.78339 12.4744 6.45331C12.4717 6.49938 12.4697 6.54542 12.4697 6.59206C12.4697 7.65916 13.2807 8.53675 14.3199 8.64276H14.3202C15.2114 8.72387 15.8506 8.87489 16.2328 9.27137C16.5972 9.64983 16.75 10.2803 16.8836 10.9321C16.8011 11.797 16.6487 12.4195 16.2597 12.7942C15.8714 13.1685 15.2168 13.3199 14.5469 13.4556C14.5009 13.4529 14.4548 13.4508 14.4082 13.4508C13.3411 13.4508 12.4635 14.2619 12.3575 15.301V15.3013C12.2791 16.1625 12.1356 16.7885 11.768 17.1744C11.3501 17.5685 10.61 17.7697 9.8609 17.8184H9.86536C8.75934 17.8556 7.87402 18.7635 7.87402 19.8783C7.87402 21.0166 8.79689 21.9394 9.93521 21.9394C11.0026 21.9394 11.8801 21.1288 11.9859 20.0896V20.0893V20.0889C12.0646 19.2261 12.2085 18.5991 12.5778 18.2135L12.5781 18.2132L12.5842 18.2074C13.0039 17.8187 13.7389 17.6203 14.4825 17.5722H14.4784C15.5843 17.5351 16.4694 16.6272 16.4694 15.5121L16.4673 15.421C16.5771 14.7985 16.7006 14.1869 17.0953 13.8067C17.5112 13.4058 18.2575 13.2016 19.0134 13.1525H19.0089C20.1148 13.1153 21.0003 12.2075 21.0003 11.0926C21.0003 9.9543 20.0774 9.03143 18.9391 9.03143C18.8702 9.03143 18.8016 9.03479 18.7345 9.04131C18.1555 8.93632 17.5999 8.80403 17.245 8.43582C16.844 8.01958 16.6398 7.27325 16.5911 6.51775V6.52187C16.5539 5.41594 15.6461 4.53087 14.5309 4.53087L14.4399 4.53293C13.8174 4.42316 13.2057 4.29935 12.8256 3.90493C12.4247 3.48904 12.2205 2.74239 12.1713 1.98688V1.99133C12.1342 0.885407 11.2263 0 10.1115 0Z" fill="#E5614D" style="fill:#E5614D;fill:color(display-p3 0.8980 0.3804 0.3020);fill-opacity:1;"/>
</g>
<path fill-rule="evenodd" clip-rule="evenodd" d="M5.86639 13.5254C4.87336 13.5254 4.06836 14.3304 4.06836 15.3234C4.06836 16.3165 4.87336 17.1215 5.86639 17.1215C6.85945 17.1215 7.66445 16.3165 7.66445 15.3234C7.66445 14.3304 6.85945 13.5254 5.86639 13.5254Z" fill="#E5614D" style="fill:#E5614D;fill:color(display-p3 0.8980 0.3804 0.3020);fill-opacity:1;"/>
<path fill-rule="evenodd" clip-rule="evenodd" d="M9.78004 8.95801C8.63732 8.95801 7.71094 9.88439 7.71094 11.0271C7.71094 12.1698 8.63732 13.0961 9.78004 13.0961C10.9227 13.0961 11.8491 12.1698 11.8491 11.0271C11.8491 9.88439 10.9227 8.95801 9.78004 8.95801Z" fill="#E5614D" style="fill:#E5614D;fill:color(display-p3 0.8980 0.3804 0.3020);fill-opacity:1;"/>
<path d="M76.0379 68.0007C76.917 68.0007 77.6296 67.2881 77.6296 66.409C77.6296 65.53 76.917 64.8174 76.0379 64.8174C75.1589 64.8174 74.4463 65.53 74.4463 66.409C74.4463 67.2881 75.1589 68.0007 76.0379 68.0007Z" fill="#BBE2FA" style="fill:#BBE2FA;fill:color(display-p3 0.7333 0.8863 0.9804);fill-opacity:1;"/>
<path d="M86.8719 68.0007C87.751 68.0007 88.4636 67.2881 88.4636 66.409C88.4636 65.53 87.751 64.8174 86.8719 64.8174C85.9929 64.8174 85.2803 65.53 85.2803 66.409C85.2803 67.2881 85.9929 68.0007 86.8719 68.0007Z" fill="#BBE2FA" style="fill:#BBE2FA;fill:color(display-p3 0.7333 0.8863 0.9804);fill-opacity:1;"/>
<path d="M96.4185 49.838C95.9734 49.0204 95.1987 48.4328 94.298 48.2268L67.6381 41.8406L67.5415 41.3459C67.2455 38.1999 65.2271 38.0086 65.0864 38H61.7209C61.3229 38 61 38.3229 61 38.7209C61 39.119 61.3229 39.4418 61.7209 39.4418L65.0314 39.4394C65.0406 39.44 65.9388 39.5947 66.1088 41.5116L69.4187 58.4884C69.4578 58.9231 69.8033 61.3812 72.6337 62.3241L72.7432 62.3608L72.8594 62.3614C72.8594 62.3614 90.3504 62.4195 90.384 62.4195C90.3877 62.4195 90.3913 62.4195 90.395 62.4195C93.1503 62.4195 94.2692 59.1897 94.8079 57.6366C95.3784 55.9869 95.9887 54.2301 96.6185 52.4997C96.9365 51.6253 96.8637 50.6555 96.4185 49.838ZM70.5988 57.0435L70.4575 56.3183L67.9414 43.3956L93.9696 49.6307C94.4741 49.7463 94.9052 50.0728 95.1528 50.5271C95.3998 50.9814 95.4408 51.5207 95.2635 52.0068C94.6306 53.7471 94.0179 55.5093 93.4456 57.1652C92.7589 59.1457 91.9145 60.9777 90.3938 60.9777C90.3913 60.9777 90.3901 60.9777 90.3877 60.9777C90.2923 60.9777 74.5244 60.9251 72.9847 60.9202C70.9969 60.1987 70.8593 58.4266 70.855 58.3563L70.7388 57.7601L70.715 57.6378L70.5988 57.0435Z" fill="#BBE2FA" style="fill:#BBE2FA;fill:color(display-p3 0.7333 0.8863 0.9804);fill-opacity:1;"/>
<path d="M36.1096 65.034H36.1076C29.7006 65.033 23.5936 63.808 18.4466 61.492C17.5596 61.093 16.7336 60.592 16.0276 60.153L15.8326 60.035C15.1946 59.653 14.0436 58.964 14.0516 57.466C14.0516 57.215 14.0476 56.939 14.0396 56.736L14.0236 56.301C13.9786 54.808 13.9286 53.178 14.5866 51.714C16.3816 47.74 21.5586 45.569 25.5856 44.447C30.0246 43.212 30.2926 41.168 29.9706 39.332C29.8826 38.841 29.4366 38.33 28.9626 37.789C28.7756 37.574 28.5886 37.36 28.4176 37.143C27.2736 35.703 26.3976 34.068 25.8866 32.418C25.8766 32.384 25.8656 32.351 25.8556 32.316C24.9406 32.086 24.2566 31.555 23.8166 30.729C23.1576 29.496 22.8246 28.102 22.8246 26.589C22.8246 25.842 23.0506 24.634 24.3986 24.101C24.3936 24.064 24.3886 24.027 24.3826 23.99C24.0616 21.523 24.5386 19.421 25.7996 17.737C28.0196 14.771 31.9766 13 36.3836 13C40.7816 13 44.7306 14.771 46.9446 17.738C48.2046 19.42 48.6816 21.522 48.3616 23.982C48.3566 24.021 48.3506 24.06 48.3446 24.099C49.6936 24.63 49.9196 25.84 49.9196 26.588C49.9196 28.103 49.5856 29.496 48.9266 30.729C48.4876 31.554 47.8036 32.086 46.8876 32.315C46.8766 32.351 46.8656 32.387 46.8546 32.423C46.3466 34.065 45.4706 35.699 44.3226 37.144C44.1536 37.358 43.9676 37.572 43.7806 37.787C43.3076 38.328 42.8606 38.839 42.7716 39.334C42.4506 41.166 42.7186 43.21 47.1566 44.445C51.7466 45.723 56.2546 47.488 58.1556 51.713C58.8136 53.172 58.7646 54.801 58.7216 56.238L58.7026 56.733C58.6956 56.933 58.6916 57.21 58.6916 57.469C58.6996 58.959 57.5486 59.649 56.9306 60.02L56.8346 60.074C54.2226 62.063 50.6586 62.937 47.7946 63.639C44.0346 64.566 40.1016 65.034 36.1096 65.034ZM17.3976 58.032C18.0256 58.421 18.7526 58.861 19.4836 59.19C24.3066 61.361 30.0546 62.509 36.1076 62.51H36.1096C39.8996 62.51 43.6306 62.066 47.1976 61.191C49.8326 60.544 53.1136 59.74 55.2876 58.078C55.3836 58.004 55.4986 57.934 55.6156 57.869C55.8186 57.749 56.1226 57.566 56.1796 57.477C56.1716 57.181 56.1756 56.869 56.1846 56.64L56.2016 56.204C56.2406 54.887 56.2776 53.681 55.8586 52.751C54.3836 49.473 50.4816 47.991 46.4846 46.878C41.6796 45.541 39.5946 42.854 40.2896 38.896C40.5026 37.708 41.2676 36.831 41.8826 36.127C42.0426 35.945 42.2016 35.763 42.3466 35.579C43.3036 34.374 44.0296 33.024 44.4476 31.672C44.5006 31.503 44.5346 31.335 44.5696 31.163L44.8396 29.946L45.8256 29.922C46.5076 29.905 46.6196 29.696 46.7016 29.542C47.1636 28.677 47.3976 27.683 47.3976 26.588C47.3976 26.519 47.3936 26.469 47.3886 26.434C47.3416 26.419 47.2636 26.399 47.1446 26.383C47.0116 26.364 46.8886 26.34 46.7676 26.316L45.5546 26.087L45.7376 24.405C45.7836 24.142 45.8266 23.895 45.8606 23.647C46.0956 21.845 45.7886 20.404 44.9236 19.249C43.1816 16.915 39.9886 15.523 36.3836 15.523C32.7676 15.523 29.5656 16.916 27.8196 19.248C26.9546 20.404 26.6486 21.845 26.8846 23.656C26.9176 23.899 26.9606 24.147 27.0066 24.412L27.2826 26.068L26.0706 26.297C25.8556 26.338 25.7326 26.362 25.6076 26.38C25.4846 26.397 25.4046 26.417 25.3566 26.433C25.3526 26.468 25.3486 26.518 25.3486 26.587C25.3486 27.682 25.5826 28.675 26.0446 29.54C26.1266 29.694 26.2386 29.904 26.9206 29.921L27.9046 29.945L28.1786 31.169C28.2136 31.337 28.2466 31.503 28.2966 31.661C28.7186 33.024 29.4446 34.373 30.3976 35.574C30.5456 35.761 30.7056 35.943 30.8646 36.125C31.4796 36.829 32.2446 37.705 32.4566 38.89C33.1526 42.853 31.0686 45.539 26.2626 46.876C21.3036 48.257 17.9736 50.344 16.8876 52.75C16.4686 53.68 16.5056 54.889 16.5446 56.168L16.5616 56.636C16.5706 56.864 16.5756 57.177 16.5756 57.469C16.6256 57.565 16.9286 57.746 17.1096 57.855C17.2196 57.917 17.3136 57.973 17.3976 58.032Z" fill="#060054" style="fill:#060054;fill:color(display-p3 0.0235 0.0000 0.3294);fill-opacity:1;"/>
</svg>
