<svg width="65" height="68" viewBox="0 0 65 68" fill="none" xmlns="http://www.w3.org/2000/svg">
<path fill-rule="evenodd" clip-rule="evenodd" d="M0 33.6041C0 35.997 1.94011 37.9369 4.33302 37.9369C6.72594 37.9369 8.66567 35.997 8.66567 33.6041C8.66567 31.2112 6.72594 29.2715 4.33302 29.2715C1.94011 29.2715 0 31.2112 0 33.6041" fill="#E5614D" style="fill:#E5614D;fill:color(display-p3 0.8980 0.3804 0.3020);fill-opacity:1;"/>
<path fill-rule="evenodd" clip-rule="evenodd" d="M18.157 15.4922C15.0834 15.4922 12.5918 17.9841 12.5918 21.0575C12.5918 24.131 15.0834 26.6229 18.157 26.6229C21.2306 26.6229 23.7222 24.131 23.7222 21.0575C23.7222 17.9841 21.2306 15.4922 18.157 15.4922" fill="#E5614D" style="fill:#E5614D;fill:color(display-p3 0.8980 0.3804 0.3020);fill-opacity:1;"/>
<mask id="mask0_675_354" style="mask-type:luminance" maskUnits="userSpaceOnUse" x="24" y="0" width="42" height="68">
<path fill-rule="evenodd" clip-rule="evenodd" d="M31.2984 0C27.7751 0 24.9184 2.85641 24.9184 6.37969C24.9184 9.68356 27.4279 12.3998 30.644 12.7269H30.6451H30.6461C33.4036 12.979 35.383 13.4454 36.565 14.6726C37.7235 15.8745 38.1921 17.9005 38.612 19.974C38.6037 20.1166 38.5973 20.259 38.5973 20.4034C38.5973 23.7062 41.1075 26.4225 44.3239 26.7506H44.325C47.0833 27.0017 49.0618 27.4691 50.2446 28.6963C51.3727 29.8677 51.8454 31.8189 52.2591 33.8363C52.0036 36.5135 51.5318 38.4403 50.3281 39.5999C49.1262 40.7585 47.1 41.227 45.0267 41.6471C44.8841 41.6386 44.7417 41.6322 44.5973 41.6322C41.2944 41.6322 38.5782 44.1427 38.25 47.3588V47.3599C38.0073 50.0254 37.5632 51.9628 36.4256 53.1572C35.132 54.3773 32.8412 54.9998 30.5227 55.1505H30.5365C27.1132 55.2656 24.373 58.0758 24.373 61.5262C24.373 65.0495 27.2295 67.9059 30.7527 67.9059C34.0566 67.9059 36.7726 65.3967 37.1 62.1803V62.1793V62.1782C37.3435 59.5076 37.7889 57.5671 38.9318 56.3737L38.9329 56.3726L38.9517 56.3545C40.2508 55.1515 42.5258 54.5376 44.8273 54.3887H44.8145C48.2375 54.2738 50.977 51.4637 50.977 48.0122L50.9706 47.7303C51.3104 45.8035 51.6925 43.9105 52.9144 42.7339C54.2016 41.4929 56.5116 40.8609 58.851 40.709H58.8372C62.2602 40.5939 65.0007 37.784 65.0007 34.3333C65.0007 30.81 62.1443 27.9536 58.621 27.9536C58.4078 27.9536 58.1956 27.964 57.9879 27.9842C56.1959 27.6593 54.4761 27.2498 53.3776 26.1101C52.1365 24.8218 51.5045 22.5118 51.3537 20.1734V20.1862C51.2386 16.7632 48.4287 14.0237 44.977 14.0237L44.6954 14.0301C42.7686 13.6903 40.8753 13.3071 39.699 12.0863C38.4579 10.7991 37.8259 8.48809 37.6738 6.14968V6.16347C37.559 2.74047 34.7488 0 31.2984 0" fill="white" style="fill:white;fill-opacity:1;"/>
</mask>
<g mask="url(#mask0_675_354)">
<path fill-rule="evenodd" clip-rule="evenodd" d="M31.2984 0C27.7751 0 24.9184 2.85641 24.9184 6.37969C24.9184 9.68356 27.4279 12.3998 30.644 12.7269H30.6451H30.6461C33.4036 12.979 35.383 13.4454 36.565 14.6726C37.7235 15.8745 38.1921 17.9005 38.612 19.974C38.6037 20.1166 38.5973 20.259 38.5973 20.4034C38.5973 23.7062 41.1075 26.4225 44.3239 26.7506H44.325C47.0833 27.0017 49.0618 27.4691 50.2446 28.6963C51.3727 29.8677 51.8454 31.8189 52.2591 33.8363C52.0036 36.5135 51.5318 38.4403 50.3281 39.5999C49.1262 40.7585 47.1 41.227 45.0267 41.6471C44.8841 41.6386 44.7417 41.6322 44.5973 41.6322C41.2944 41.6322 38.5782 44.1427 38.25 47.3588V47.3599C38.0073 50.0254 37.5632 51.9628 36.4256 53.1572C35.132 54.3773 32.8412 54.9998 30.5227 55.1505H30.5365C27.1132 55.2656 24.373 58.0758 24.373 61.5262C24.373 65.0495 27.2295 67.9059 30.7527 67.9059C34.0566 67.9059 36.7726 65.3967 37.1 62.1803V62.1793V62.1782C37.3435 59.5076 37.7889 57.5671 38.9318 56.3737L38.9329 56.3726L38.9517 56.3545C40.2508 55.1515 42.5258 54.5376 44.8273 54.3887H44.8145C48.2375 54.2738 50.977 51.4637 50.977 48.0122L50.9706 47.7303C51.3104 45.8035 51.6925 43.9105 52.9144 42.7339C54.2016 41.4929 56.5116 40.8609 58.851 40.709H58.8372C62.2602 40.5939 65.0007 37.784 65.0007 34.3333C65.0007 30.81 62.1443 27.9536 58.621 27.9536C58.4078 27.9536 58.1956 27.964 57.9879 27.9842C56.1959 27.6593 54.4761 27.2498 53.3776 26.1101C52.1365 24.8218 51.5045 22.5118 51.3537 20.1734V20.1862C51.2386 16.7632 48.4287 14.0237 44.977 14.0237L44.6954 14.0301C42.7686 13.6903 40.8753 13.3071 39.699 12.0863C38.4579 10.7991 37.8259 8.48809 37.6738 6.14968V6.16347C37.559 2.74047 34.7488 0 31.2984 0" fill="#E5614D" style="fill:#E5614D;fill:color(display-p3 0.8980 0.3804 0.3020);fill-opacity:1;"/>
</g>
<path fill-rule="evenodd" clip-rule="evenodd" d="M18.157 41.8633C15.0834 41.8633 12.5918 44.3548 12.5918 47.4285C12.5918 50.5021 15.0834 52.9936 18.157 52.9936C21.2306 52.9936 23.7222 50.5021 23.7222 47.4285C23.7222 44.3548 21.2306 41.8633 18.157 41.8633" fill="#E5614D" style="fill:#E5614D;fill:color(display-p3 0.8980 0.3804 0.3020);fill-opacity:1;"/>
<path fill-rule="evenodd" clip-rule="evenodd" d="M30.2704 27.7275C26.7335 27.7275 23.8662 30.5948 23.8662 34.1317C23.8662 37.6685 26.7335 40.5355 30.2704 40.5355C33.8072 40.5355 36.6745 37.6685 36.6745 34.1317C36.6745 30.5948 33.8072 27.7275 30.2704 27.7275" fill="#E5614D" style="fill:#E5614D;fill:color(display-p3 0.8980 0.3804 0.3020);fill-opacity:1;"/>
</svg>
