<svg width="72" height="64" viewBox="0 0 72 64" fill="none" xmlns="http://www.w3.org/2000/svg">
<path d="M53.8805 63.815C52.2524 63.815 50.6261 63.4102 49.1787 62.645L37.0184 56.2147C30.3524 52.6884 24.3676 48.104 19.2303 42.5899L18.7812 42.1065C15.7744 38.881 15.1392 34.0934 17.201 30.1939L21.2595 22.5195C23.0602 19.1151 26.5703 17 30.4201 17C30.9225 17 31.4293 17.037 31.9281 17.1102L32.0627 17.1301C39.6738 18.2468 46.9786 20.6366 53.7757 24.2316L66.0588 30.7278C68.4377 31.9864 70.1833 34.0952 70.9766 36.6665C71.768 39.2379 71.5124 41.9647 70.2538 44.3427L62.7954 58.4482C61.0435 61.7595 57.6273 63.815 53.8805 63.815ZM30.4201 19.1991C27.3871 19.1991 24.6215 20.8661 23.203 23.5486L19.1444 31.2229C17.5199 34.2949 18.0205 38.067 20.3904 40.6085L20.8394 41.091C25.8096 46.4262 31.5992 50.8597 38.0466 54.2713L50.2059 60.7015C51.3389 61.3005 52.6093 61.6168 53.8805 61.6168C56.8106 61.6168 59.4813 60.0094 60.851 57.4218L68.3094 43.3163C69.2933 41.456 69.4948 39.3247 68.8741 37.3144C68.2552 35.3041 66.89 33.6552 65.0306 32.6722L52.7484 26.1751C46.1727 22.6975 39.1055 20.3854 31.7447 19.3057L31.6101 19.2859C31.2161 19.2289 30.8159 19.1991 30.4201 19.1991Z" fill="#060054" style="fill:#060054;fill:color(display-p3 0.0235 0.0000 0.3294);fill-opacity:1;"/>
<path d="M29.7516 37.6487C28.8309 37.6487 27.9112 37.4201 27.0917 36.9864C24.3143 35.5182 23.25 32.0632 24.7191 29.2849C25.7093 27.4138 27.641 26.251 29.7597 26.251C30.6804 26.251 31.6002 26.4805 32.4196 26.9132C33.7649 27.6252 34.7525 28.8169 35.2006 30.2716C35.6497 31.7262 35.5042 33.2676 34.7922 34.6129C33.8029 36.4859 31.8712 37.6487 29.7516 37.6487ZM29.7597 27.1301C27.9672 27.1301 26.3336 28.1131 25.4961 29.696C24.2547 32.0451 25.1546 34.9662 27.5028 36.2085C28.1958 36.5744 28.9728 36.7687 29.7516 36.7687C31.5441 36.7687 33.1786 35.7856 34.0161 34.2018C34.6179 33.0643 34.7398 31.7605 34.3613 30.53C33.9818 29.3003 33.147 28.2911 32.0085 27.6903C31.3156 27.3243 30.5385 27.1301 29.7597 27.1301Z" fill="#BBE2FA" style="fill:#BBE2FA;fill:color(display-p3 0.7333 0.8863 0.9804);fill-opacity:1;"/>
<path d="M51.6259 54.11C51.625 54.11 51.625 54.11 51.6259 54.11C51.2022 54.11 50.792 54.016 50.4053 53.8326C50.202 53.736 50.0041 53.6122 49.8162 53.464C49.3906 53.1315 48.9886 52.7159 48.554 52.1566C47.9974 51.4438 47.4635 50.7101 46.9322 49.9774C45.9989 50.0036 45.0656 50.0198 44.1313 50.0361L43.9253 50.0379C43.5793 50.0379 43.3019 50.0208 43.0453 49.9837C41.7343 49.7904 40.7712 49.0685 40.399 48.0032C40.2318 47.5244 40.0421 46.5233 40.6682 45.225L40.7586 45.0723L42.8059 42.154C42.4698 41.2161 42.1391 40.2792 41.831 39.3359C41.6467 38.7667 41.5509 38.2183 41.5473 37.7051C41.5392 36.8242 41.8572 36.03 42.4418 35.4707C42.9758 34.9585 43.6814 34.6874 44.4783 34.6874L44.6463 34.6928C45.4017 34.7308 46.0712 34.925 46.663 35.0958C47.2069 35.253 47.7237 35.4165 48.2396 35.5819L48.9696 35.8105L49.7484 35.2205C50.2923 34.8076 50.8344 34.3947 51.3892 33.9971C51.9186 33.6213 52.5023 33.3376 53.0805 33.1777C54.4846 32.7837 56.0314 33.5833 56.5274 34.9548C56.7298 35.5132 56.8463 36.1348 56.8716 36.8016C56.9051 37.7114 56.9141 38.6655 56.8978 39.7181C57.6062 40.1934 58.5142 40.8113 59.4313 41.4908C59.9182 41.8522 60.3483 42.3066 60.679 42.8054C61.5382 44.0929 61.2916 45.6641 60.0773 46.6245C59.6111 46.9922 59.0391 47.3066 58.4211 47.5352C57.5601 47.8551 56.6485 48.1632 55.6365 48.4776C55.3185 49.5482 54.9951 50.6062 54.6562 51.6552C54.5207 52.0672 54.3021 52.4774 54.0048 52.8767C53.4212 53.6601 52.5529 54.11 51.6259 54.11ZM48.0318 47.7484L48.6461 48.595C49.1837 49.3386 49.724 50.0822 50.2878 50.8068C50.6095 51.2197 50.8895 51.5133 51.1714 51.7338C51.2338 51.7835 51.2943 51.8214 51.3512 51.8485C51.4398 51.891 51.5328 51.9118 51.625 51.9118C51.8527 51.9118 52.0795 51.7835 52.2457 51.5612C52.3975 51.357 52.5095 51.1528 52.5682 50.9739C52.9107 49.9105 53.2405 48.8317 53.5648 47.7385L53.8666 46.7212L54.8803 46.4095C55.8959 46.0959 56.8057 45.7896 57.6595 45.4734C58.0652 45.3234 58.4311 45.1238 58.7175 44.8979C59.0247 44.6558 59.0717 44.3522 58.8503 44.0224C58.657 43.7297 58.4067 43.4658 58.1239 43.2553C57.2014 42.5732 56.2789 41.947 55.5787 41.4781L54.6833 40.8791L54.7005 39.8003C54.7186 38.7387 54.7105 37.7846 54.677 36.8829C54.6599 36.4456 54.5876 36.0472 54.462 35.702C54.3454 35.3804 54.0048 35.1997 53.6705 35.2937C53.3353 35.3867 52.9893 35.5566 52.6685 35.7852C52.1355 36.1673 51.6096 36.5676 51.0829 36.9678L49.3961 38.2454L47.5773 37.6753C47.075 37.5145 46.5789 37.3564 46.0558 37.2064C45.5309 37.0546 45.0376 36.9118 44.5578 36.8865L44.4439 36.8847C44.2569 36.8856 44.0835 36.9444 43.9624 37.0591C43.8205 37.1946 43.7446 37.4178 43.7464 37.6888C43.7483 37.978 43.807 38.3023 43.9217 38.6538C44.2352 39.6124 44.5732 40.5656 44.9147 41.5215L45.2643 42.5018L42.6153 46.255C42.3632 46.816 42.4328 47.1539 42.4752 47.2768C42.5972 47.6265 43.0245 47.7584 43.3625 47.8081C43.517 47.8307 43.6949 47.8388 43.9163 47.8388L44.1033 47.837C45.0574 47.8207 46.0206 47.8045 46.9846 47.7765L48.0318 47.7484Z" fill="#060054" style="fill:#060054;fill:color(display-p3 0.0235 0.0000 0.3294);fill-opacity:1;"/>
<path fill-rule="evenodd" clip-rule="evenodd" d="M0 10.8568C0 11.63 0.626822 12.2567 1.39994 12.2567C2.17306 12.2567 2.79976 11.63 2.79976 10.8568C2.79976 10.0837 2.17306 9.45703 1.39994 9.45703C0.626822 9.45703 0 10.0837 0 10.8568Z" fill="#E5614D" style="fill:#E5614D;fill:color(display-p3 0.8980 0.3804 0.3020);fill-opacity:1;"/>
<path fill-rule="evenodd" clip-rule="evenodd" d="M5.86639 5.00488C4.87336 5.00488 4.06836 5.80997 4.06836 6.80294C4.06836 7.79597 4.87336 8.60106 5.86639 8.60106C6.85945 8.60106 7.66445 7.79597 7.66445 6.80294C7.66445 5.80997 6.85945 5.00488 5.86639 5.00488Z" fill="#E5614D" style="fill:#E5614D;fill:color(display-p3 0.8980 0.3804 0.3020);fill-opacity:1;"/>
<mask id="mask0_808_1321" style="mask-type:luminance" maskUnits="userSpaceOnUse" x="7" y="0" width="14" height="22">
<path fill-rule="evenodd" clip-rule="evenodd" d="M10.1115 0C8.97319 0 8.05023 0.922867 8.05023 2.06119C8.05023 3.12863 8.86099 4.00621 9.90009 4.1119H9.90042H9.90075C10.7917 4.19333 11.4312 4.34402 11.8131 4.74051C12.1874 5.12884 12.3388 5.78339 12.4744 6.45331C12.4717 6.49938 12.4697 6.54542 12.4697 6.59206C12.4697 7.65916 13.2807 8.53675 14.3199 8.64276H14.3202C15.2114 8.72387 15.8506 8.87489 16.2328 9.27137C16.5972 9.64983 16.75 10.2803 16.8836 10.9321C16.8011 11.797 16.6487 12.4195 16.2597 12.7942C15.8714 13.1685 15.2168 13.3199 14.5469 13.4556C14.5009 13.4529 14.4548 13.4508 14.4082 13.4508C13.3411 13.4508 12.4635 14.2619 12.3575 15.301V15.3013C12.2791 16.1625 12.1356 16.7885 11.768 17.1744C11.3501 17.5685 10.61 17.7697 9.8609 17.8184H9.86536C8.75934 17.8556 7.87402 18.7635 7.87402 19.8783C7.87402 21.0166 8.79689 21.9394 9.93521 21.9394C11.0026 21.9394 11.8801 21.1288 11.9859 20.0896V20.0893V20.0889C12.0646 19.2261 12.2085 18.5991 12.5778 18.2135L12.5781 18.2132L12.5842 18.2074C13.0039 17.8187 13.7389 17.6203 14.4825 17.5722H14.4784C15.5843 17.5351 16.4694 16.6272 16.4694 15.5121L16.4673 15.421C16.5771 14.7985 16.7006 14.1869 17.0953 13.8067C17.5112 13.4058 18.2575 13.2016 19.0134 13.1525H19.0089C20.1148 13.1153 21.0003 12.2075 21.0003 11.0926C21.0003 9.9543 20.0774 9.03143 18.9391 9.03143C18.8702 9.03143 18.8016 9.03479 18.7345 9.04131C18.1555 8.93632 17.5999 8.80403 17.245 8.43582C16.844 8.01958 16.6398 7.27325 16.5911 6.51775V6.52187C16.5539 5.41594 15.6461 4.53087 14.5309 4.53087L14.4399 4.53293C13.8174 4.42316 13.2057 4.29935 12.8256 3.90493C12.4247 3.48904 12.2205 2.74239 12.1713 1.98688V1.99133C12.1342 0.885407 11.2263 0 10.1115 0Z" fill="white" style="fill:white;fill-opacity:1;"/>
</mask>
<g mask="url(#mask0_808_1321)">
<path fill-rule="evenodd" clip-rule="evenodd" d="M10.1115 0C8.97319 0 8.05023 0.922867 8.05023 2.06119C8.05023 3.12863 8.86099 4.00621 9.90009 4.1119H9.90042H9.90075C10.7917 4.19333 11.4312 4.34402 11.8131 4.74051C12.1874 5.12884 12.3388 5.78339 12.4744 6.45331C12.4717 6.49938 12.4697 6.54542 12.4697 6.59206C12.4697 7.65916 13.2807 8.53675 14.3199 8.64276H14.3202C15.2114 8.72387 15.8506 8.87489 16.2328 9.27137C16.5972 9.64983 16.75 10.2803 16.8836 10.9321C16.8011 11.797 16.6487 12.4195 16.2597 12.7942C15.8714 13.1685 15.2168 13.3199 14.5469 13.4556C14.5009 13.4529 14.4548 13.4508 14.4082 13.4508C13.3411 13.4508 12.4635 14.2619 12.3575 15.301V15.3013C12.2791 16.1625 12.1356 16.7885 11.768 17.1744C11.3501 17.5685 10.61 17.7697 9.8609 17.8184H9.86536C8.75934 17.8556 7.87402 18.7635 7.87402 19.8783C7.87402 21.0166 8.79689 21.9394 9.93521 21.9394C11.0026 21.9394 11.8801 21.1288 11.9859 20.0896V20.0893V20.0889C12.0646 19.2261 12.2085 18.5991 12.5778 18.2135L12.5781 18.2132L12.5842 18.2074C13.0039 17.8187 13.7389 17.6203 14.4825 17.5722H14.4784C15.5843 17.5351 16.4694 16.6272 16.4694 15.5121L16.4673 15.421C16.5771 14.7985 16.7006 14.1869 17.0953 13.8067C17.5112 13.4058 18.2575 13.2016 19.0134 13.1525H19.0089C20.1148 13.1153 21.0003 12.2075 21.0003 11.0926C21.0003 9.9543 20.0774 9.03143 18.9391 9.03143C18.8702 9.03143 18.8016 9.03479 18.7345 9.04131C18.1555 8.93632 17.5999 8.80403 17.245 8.43582C16.844 8.01958 16.6398 7.27325 16.5911 6.51775V6.52187C16.5539 5.41594 15.6461 4.53087 14.5309 4.53087L14.4399 4.53293C13.8174 4.42316 13.2057 4.29935 12.8256 3.90493C12.4247 3.48904 12.2205 2.74239 12.1713 1.98688V1.99133C12.1342 0.885407 11.2263 0 10.1115 0Z" fill="#E5614D" style="fill:#E5614D;fill:color(display-p3 0.8980 0.3804 0.3020);fill-opacity:1;"/>
</g>
<path fill-rule="evenodd" clip-rule="evenodd" d="M5.86639 13.5254C4.87336 13.5254 4.06836 14.3304 4.06836 15.3234C4.06836 16.3165 4.87336 17.1215 5.86639 17.1215C6.85945 17.1215 7.66445 16.3165 7.66445 15.3234C7.66445 14.3304 6.85945 13.5254 5.86639 13.5254Z" fill="#E5614D" style="fill:#E5614D;fill:color(display-p3 0.8980 0.3804 0.3020);fill-opacity:1;"/>
<path fill-rule="evenodd" clip-rule="evenodd" d="M9.78004 8.95801C8.63732 8.95801 7.71094 9.88439 7.71094 11.0271C7.71094 12.1698 8.63732 13.0961 9.78004 13.0961C10.9227 13.0961 11.8491 12.1698 11.8491 11.0271C11.8491 9.88439 10.9227 8.95801 9.78004 8.95801Z" fill="#E5614D" style="fill:#E5614D;fill:color(display-p3 0.8980 0.3804 0.3020);fill-opacity:1;"/>
</svg>
