<svg width="78" height="58" viewBox="0 0 78 58" fill="none" xmlns="http://www.w3.org/2000/svg">
<path d="M41.53 24H20.957C18.777 24 17 25.776 17 27.957V53.877C17 56.057 18.776 57.834 20.957 57.834H41.53C43.71 57.834 45.487 56.058 45.487 53.877V51.428H43.109V53.877C43.109 54.742 42.404 55.456 41.53 55.456H20.957C20.092 55.456 19.378 54.742 19.378 53.877V27.957C19.378 27.083 20.092 26.378 20.957 26.378H41.53C42.404 26.378 43.109 27.083 43.109 27.957V30.603L43.814 30.612H45.487V27.957C45.486 25.776 43.71 24 41.53 24ZM43.109 47.257L45.487 47.266V34.774C44.698 34.774 43.908 34.774 43.109 34.783V47.257Z" fill="#060054" style="fill:#060054;fill:color(display-p3 0.0235 0.0000 0.3294);fill-opacity:1;"/>
<path d="M73.2487 24H52.6758C50.4958 24 48.7188 25.776 48.7188 27.957V30.613H51.0967V27.957C51.0967 27.083 51.8018 26.378 52.6758 26.378H73.2487C74.1137 26.378 74.8277 27.083 74.8277 27.957V53.877C74.8277 54.742 74.1137 55.456 73.2487 55.456H52.6758C51.8018 55.456 51.0967 54.742 51.0967 53.877V51.428H48.7188V53.877C48.7188 56.057 50.4948 57.834 52.6758 57.834H73.2487C75.4287 57.834 77.2057 56.058 77.2057 53.877V27.957C77.2057 25.776 75.4297 24 73.2487 24ZM51.0967 34.784L48.7188 34.775V47.267C49.5077 47.267 50.3067 47.258 51.0967 47.258V34.784Z" fill="#060054" style="fill:#060054;fill:color(display-p3 0.0235 0.0000 0.3294);fill-opacity:1;"/>
<path d="M59.1096 39.5459C58.7846 39.5459 58.5746 39.7859 58.5746 40.1589L58.5756 41.6499C58.5776 42.1649 58.5796 42.6519 58.5656 43.1419C58.5066 44.7619 57.9276 46.1179 56.8436 47.1729C55.7416 48.2369 54.3946 48.7809 52.8416 48.7919C50.6216 48.8019 48.4036 48.8019 46.1836 48.8019L37.3026 48.7919L39.4516 46.5699C39.5876 46.4219 39.6536 46.2609 39.6426 46.1149C39.6426 45.9849 39.5866 45.8629 39.4746 45.7509C39.2476 45.5459 38.9336 45.5609 38.6676 45.8039L37.5006 47.0099C37.1926 47.3229 36.8816 47.6359 36.5716 47.9489C36.2446 48.2789 35.9176 48.6079 35.5936 48.9379C35.3526 49.1789 35.3306 49.5299 35.5446 49.7559C36.7496 50.9729 37.8196 52.0389 38.8156 53.0169C38.8986 53.1009 39.0146 53.1459 39.1406 53.1459C39.3796 53.1459 39.6026 52.9889 39.6676 52.7759C39.7466 52.5519 39.6946 52.3639 39.4986 52.1679L37.1956 49.8909H44.3946C47.1196 49.8909 49.8456 49.8909 52.5716 49.8809C52.9906 49.8809 53.4086 49.8519 53.8126 49.7929C57.0216 49.2799 59.6476 46.2239 59.6666 42.9799V40.1669C59.6636 39.7789 59.4566 39.5459 59.1096 39.5459Z" fill="#BBE2FA" style="fill:#BBE2FA;fill:color(display-p3 0.7333 0.8863 0.9804);fill-opacity:1;"/>
<path d="M35.9529 42.4945C36.2739 42.4945 36.4979 42.2545 36.4979 41.9105V41.1995C36.4979 40.7915 36.4979 40.3745 36.5079 39.9635V39.5855C36.5179 39.0515 36.5269 38.5465 36.6139 38.0215C37.0449 35.2635 39.3789 33.2565 42.1639 33.2465C44.2079 33.2365 46.2419 33.2365 48.2859 33.2365L57.7609 33.2565L55.6129 35.4785C55.4109 35.6905 55.4089 35.8525 55.4329 35.9835C55.4789 36.2015 55.5969 36.3365 55.8079 36.4065C55.8709 36.4275 55.9289 36.4365 55.9869 36.4365C56.1259 36.4365 56.2529 36.3775 56.3759 36.2555L58.0979 34.4835C58.5159 34.0555 58.9449 33.6275 59.3729 33.2085L59.4909 33.0915C59.6089 32.9725 59.6739 32.8195 59.6739 32.6625C59.6739 32.5065 59.6109 32.3635 59.5009 32.2625C58.4569 31.2105 57.3779 30.1205 56.3079 29.0705C56.2319 28.9935 56.0929 28.9285 55.9359 28.8975L55.9069 28.8955C55.7029 28.8955 55.5259 29.0055 55.4159 29.2115C55.3539 29.3755 55.3109 29.5955 55.5459 29.8415L57.8609 32.1455L42.7749 32.1365C42.4049 32.1365 42.0959 32.1485 41.8039 32.1755C40.3099 32.2935 38.9609 32.8845 37.7939 33.9335C36.2489 35.3395 35.4459 37.0785 35.4069 39.1055C35.3969 39.7855 35.3969 40.4815 35.4069 41.1695V41.9105C35.4079 42.2545 35.6319 42.4945 35.9529 42.4945Z" fill="#BBE2FA" style="fill:#BBE2FA;fill:color(display-p3 0.7333 0.8863 0.9804);fill-opacity:1;"/>
<path d="M38.043 55.4561C38.391 55.5881 38.767 55.6631 39.143 55.6631C39.528 55.6631 39.904 55.5881 40.252 55.4561H38.043Z" fill="black" style="fill:black;fill-opacity:1;"/>
<path fill-rule="evenodd" clip-rule="evenodd" d="M0 10.8568C0 11.63 0.626822 12.2567 1.39994 12.2567C2.17306 12.2567 2.79976 11.63 2.79976 10.8568C2.79976 10.0837 2.17306 9.45703 1.39994 9.45703C0.626822 9.45703 0 10.0837 0 10.8568Z" fill="#E5614D" style="fill:#E5614D;fill:color(display-p3 0.8980 0.3804 0.3020);fill-opacity:1;"/>
<path fill-rule="evenodd" clip-rule="evenodd" d="M5.86639 5.00488C4.87336 5.00488 4.06836 5.80997 4.06836 6.80294C4.06836 7.79597 4.87336 8.60106 5.86639 8.60106C6.85945 8.60106 7.66445 7.79597 7.66445 6.80294C7.66445 5.80997 6.85945 5.00488 5.86639 5.00488Z" fill="#E5614D" style="fill:#E5614D;fill:color(display-p3 0.8980 0.3804 0.3020);fill-opacity:1;"/>
<mask id="mask0_808_1274" style="mask-type:luminance" maskUnits="userSpaceOnUse" x="7" y="0" width="14" height="22">
<path fill-rule="evenodd" clip-rule="evenodd" d="M10.1115 0C8.97319 0 8.05023 0.922867 8.05023 2.06119C8.05023 3.12863 8.86099 4.00621 9.90009 4.1119H9.90042H9.90075C10.7917 4.19333 11.4312 4.34402 11.8131 4.74051C12.1874 5.12884 12.3388 5.78339 12.4744 6.45331C12.4717 6.49938 12.4697 6.54542 12.4697 6.59206C12.4697 7.65916 13.2807 8.53675 14.3199 8.64276H14.3202C15.2114 8.72387 15.8506 8.87489 16.2328 9.27137C16.5972 9.64983 16.75 10.2803 16.8836 10.9321C16.8011 11.797 16.6487 12.4195 16.2597 12.7942C15.8714 13.1685 15.2168 13.3199 14.5469 13.4556C14.5009 13.4529 14.4548 13.4508 14.4082 13.4508C13.3411 13.4508 12.4635 14.2619 12.3575 15.301V15.3013C12.2791 16.1625 12.1356 16.7885 11.768 17.1744C11.3501 17.5685 10.61 17.7697 9.8609 17.8184H9.86536C8.75934 17.8556 7.87402 18.7635 7.87402 19.8783C7.87402 21.0166 8.79689 21.9394 9.93521 21.9394C11.0026 21.9394 11.8801 21.1288 11.9859 20.0896V20.0893V20.0889C12.0646 19.2261 12.2085 18.5991 12.5778 18.2135L12.5781 18.2132L12.5842 18.2074C13.0039 17.8187 13.7389 17.6203 14.4825 17.5722H14.4784C15.5843 17.5351 16.4694 16.6272 16.4694 15.5121L16.4673 15.421C16.5771 14.7985 16.7006 14.1869 17.0953 13.8067C17.5112 13.4058 18.2575 13.2016 19.0134 13.1525H19.0089C20.1148 13.1153 21.0003 12.2075 21.0003 11.0926C21.0003 9.9543 20.0774 9.03143 18.9391 9.03143C18.8702 9.03143 18.8016 9.03479 18.7345 9.04131C18.1555 8.93632 17.5999 8.80403 17.245 8.43582C16.844 8.01958 16.6398 7.27325 16.5911 6.51775V6.52187C16.5539 5.41594 15.6461 4.53087 14.5309 4.53087L14.4399 4.53293C13.8174 4.42316 13.2057 4.29935 12.8256 3.90493C12.4247 3.48904 12.2205 2.74239 12.1713 1.98688V1.99133C12.1342 0.885407 11.2263 0 10.1115 0Z" fill="white" style="fill:white;fill-opacity:1;"/>
</mask>
<g mask="url(#mask0_808_1274)">
<path fill-rule="evenodd" clip-rule="evenodd" d="M10.1115 0C8.97319 0 8.05023 0.922867 8.05023 2.06119C8.05023 3.12863 8.86099 4.00621 9.90009 4.1119H9.90042H9.90075C10.7917 4.19333 11.4312 4.34402 11.8131 4.74051C12.1874 5.12884 12.3388 5.78339 12.4744 6.45331C12.4717 6.49938 12.4697 6.54542 12.4697 6.59206C12.4697 7.65916 13.2807 8.53675 14.3199 8.64276H14.3202C15.2114 8.72387 15.8506 8.87489 16.2328 9.27137C16.5972 9.64983 16.75 10.2803 16.8836 10.9321C16.8011 11.797 16.6487 12.4195 16.2597 12.7942C15.8714 13.1685 15.2168 13.3199 14.5469 13.4556C14.5009 13.4529 14.4548 13.4508 14.4082 13.4508C13.3411 13.4508 12.4635 14.2619 12.3575 15.301V15.3013C12.2791 16.1625 12.1356 16.7885 11.768 17.1744C11.3501 17.5685 10.61 17.7697 9.8609 17.8184H9.86536C8.75934 17.8556 7.87402 18.7635 7.87402 19.8783C7.87402 21.0166 8.79689 21.9394 9.93521 21.9394C11.0026 21.9394 11.8801 21.1288 11.9859 20.0896V20.0893V20.0889C12.0646 19.2261 12.2085 18.5991 12.5778 18.2135L12.5781 18.2132L12.5842 18.2074C13.0039 17.8187 13.7389 17.6203 14.4825 17.5722H14.4784C15.5843 17.5351 16.4694 16.6272 16.4694 15.5121L16.4673 15.421C16.5771 14.7985 16.7006 14.1869 17.0953 13.8067C17.5112 13.4058 18.2575 13.2016 19.0134 13.1525H19.0089C20.1148 13.1153 21.0003 12.2075 21.0003 11.0926C21.0003 9.9543 20.0774 9.03143 18.9391 9.03143C18.8702 9.03143 18.8016 9.03479 18.7345 9.04131C18.1555 8.93632 17.5999 8.80403 17.245 8.43582C16.844 8.01958 16.6398 7.27325 16.5911 6.51775V6.52187C16.5539 5.41594 15.6461 4.53087 14.5309 4.53087L14.4399 4.53293C13.8174 4.42316 13.2057 4.29935 12.8256 3.90493C12.4247 3.48904 12.2205 2.74239 12.1713 1.98688V1.99133C12.1342 0.885407 11.2263 0 10.1115 0Z" fill="#E5614D" style="fill:#E5614D;fill:color(display-p3 0.8980 0.3804 0.3020);fill-opacity:1;"/>
</g>
<path fill-rule="evenodd" clip-rule="evenodd" d="M5.86639 13.5254C4.87336 13.5254 4.06836 14.3304 4.06836 15.3234C4.06836 16.3165 4.87336 17.1215 5.86639 17.1215C6.85945 17.1215 7.66445 16.3165 7.66445 15.3234C7.66445 14.3304 6.85945 13.5254 5.86639 13.5254Z" fill="#E5614D" style="fill:#E5614D;fill:color(display-p3 0.8980 0.3804 0.3020);fill-opacity:1;"/>
<path fill-rule="evenodd" clip-rule="evenodd" d="M9.78004 8.95801C8.63732 8.95801 7.71094 9.88439 7.71094 11.0271C7.71094 12.1698 8.63732 13.0961 9.78004 13.0961C10.9227 13.0961 11.8491 12.1698 11.8491 11.0271C11.8491 9.88439 10.9227 8.95801 9.78004 8.95801Z" fill="#E5614D" style="fill:#E5614D;fill:color(display-p3 0.8980 0.3804 0.3020);fill-opacity:1;"/>
</svg>
