<svg width="72" height="69" viewBox="0 0 72 69" fill="none" xmlns="http://www.w3.org/2000/svg">
<path d="M49.076 57.8656C48.08 57.6866 47.112 57.4336 46.181 57.1046C46.284 57.4146 46.416 57.6966 46.585 57.9596C47.318 59.1346 47.205 59.5576 46.491 60.2336L46.435 60.2896C45.805 60.8906 45.213 61.4646 44.762 61.4646C44.527 61.4646 44.208 61.3046 43.822 60.9856C43.268 60.5436 42.591 60.3656 42.065 60.2336C41.952 60.2056 41.858 60.1776 41.783 60.1486L41.651 60.1016L41.416 60.0926C39.48 60.0926 37.149 61.2956 35.843 62.4796C35.11 63.1376 34.649 63.8146 34.49 64.4716C34.161 65.8156 33.832 66.0416 33.043 66.0506H32.329C31.427 66.0976 31.041 65.9186 30.694 64.4806C30.149 62.2626 26.267 60.0916 23.758 60.0916H23.579L23.4 60.1476C23.334 60.1756 23.25 60.1946 23.174 60.2136L23.08 60.2416C22.582 60.3636 21.905 60.5426 21.323 61.0026C20.872 61.3876 20.581 61.4636 20.411 61.4636C19.96 61.4636 19.368 60.8906 18.729 60.2796L18.682 60.2326C17.977 59.5556 17.864 59.1326 18.635 57.9486C19.471 56.5666 19.453 54.5556 18.597 52.5826C17.704 50.5526 16.172 49.1336 14.471 48.7766C13.343 48.5606 13.306 48.1566 13.268 47.6206V45.9946C13.306 45.3556 13.334 44.9606 14.499 44.7256C16.2 44.3686 17.741 42.9216 18.615 40.8626C19.451 38.8986 19.442 36.9246 18.596 35.5806C17.853 34.3686 17.957 33.9736 18.671 33.2776L18.756 33.2026C19.376 32.6106 19.968 32.0556 20.429 32.0556C20.589 32.0556 20.88 32.1306 21.312 32.4876C21.876 32.9576 22.543 33.1356 23.098 33.2766C23.201 33.3046 23.286 33.3236 23.361 33.3516L23.558 33.4266H23.765C26.274 33.4076 30.156 31.2276 30.682 29.0286C31.02 27.6756 31.349 27.4496 32.176 27.4496H32.862C33.783 27.4116 34.131 27.5716 34.488 29.0376C34.507 29.1126 34.535 29.1976 34.563 29.2726C34.986 28.4076 35.465 27.5716 36.01 26.7536C35.474 25.8706 34.591 25.1836 33.012 25.1836C32.927 25.1836 32.843 25.1836 32.805 25.1926H32.429C29.656 25.0606 28.848 27.0256 28.491 28.4816C28.284 29.3176 25.765 31.0376 23.914 31.1506C23.82 31.1226 23.707 31.0946 23.594 31.0656C23.284 30.9906 22.936 30.8966 22.758 30.7456C21.978 30.1066 21.207 29.7966 20.427 29.7966C19.074 29.7966 18.124 30.6896 17.203 31.5446L17.109 31.6386C15.126 33.5656 15.831 35.3886 16.667 36.7706C17.109 37.4656 17.052 38.7536 16.526 39.9756C15.962 41.3106 14.975 42.3066 14.026 42.5036C11.517 43.0296 11.094 44.5896 11 45.9156L11.009 47.6916C11.056 48.3776 11.206 50.4546 14.026 50.9906C14.975 51.1876 15.934 52.1466 16.517 53.4906C17.062 54.7316 17.137 56.0466 16.714 56.7426C15.896 58.0016 15.06 59.9096 17.156 61.9026C18.086 62.7956 19.045 63.7256 20.408 63.7256C21.207 63.7256 21.968 63.4056 22.748 62.7576C22.936 62.6076 23.35 62.5036 23.65 62.4196C23.744 62.4006 23.829 62.3726 23.913 62.3536C25.858 62.4476 28.302 64.2516 28.49 65.0136C28.838 66.4326 29.599 68.3126 32.184 68.3126C32.259 68.3126 32.353 68.3036 32.381 68.3036H32.729C32.832 68.3126 32.936 68.3126 33.039 68.3126H33.048C34.317 68.2936 35.144 67.8146 35.689 67.1756C36.234 66.5276 36.516 65.7096 36.685 65.0136C36.694 64.9756 36.779 64.6656 37.352 64.1486C38.395 63.1996 40.106 62.4196 41.262 62.3536C41.337 62.3726 41.431 62.4006 41.516 62.4196C41.826 62.5046 42.24 62.6076 42.399 62.7396C43.188 63.3976 43.959 63.7266 44.758 63.7266C46.121 63.7266 47.07 62.8056 48 61.9126L48.047 61.8656C49.574 60.4316 49.518 59.0216 49.076 57.8656Z" fill="#060054" style="fill:#060054;fill:color(display-p3 0.0235 0.0000 0.3294);fill-opacity:1;"/>
<path d="M40.5143 54.05C39.1323 55.535 37.3373 56.644 35.2983 57.18C34.4333 57.406 33.5313 57.537 32.6103 57.537C30.8533 57.528 29.1803 57.105 27.6193 56.296C24.2733 54.548 22.0743 51.287 21.7363 47.584V45.996C22.2433 40.319 26.9153 36.015 32.6013 35.968H32.6573C32.6953 35.648 32.7323 35.329 32.7793 35.009C32.7233 35 32.6573 35 32.6003 35C26.4163 35.056 21.3313 39.756 20.7773 45.949V47.631C21.1443 51.691 23.5403 55.253 27.1773 57.152C28.8693 58.035 30.6923 58.487 32.6093 58.505C33.6153 58.496 34.6113 58.355 35.5513 58.101C37.7973 57.509 39.7803 56.278 41.2843 54.624C41.0223 54.444 40.7683 54.256 40.5143 54.05Z" fill="#BBE2FA" style="fill:#BBE2FA;fill:color(display-p3 0.7333 0.8863 0.9804);fill-opacity:1;"/>
<path d="M68.4915 24.1767C68.4875 24.9067 68.2605 25.5857 67.8745 26.1477C66.4085 24.2997 64.6065 22.7277 62.5635 21.5257C63.1965 20.9717 64.0295 20.6357 64.9395 20.6387C66.9065 20.6467 68.4965 22.2297 68.4915 24.1767Z" fill="#060054" style="fill:#060054;fill:color(display-p3 0.0235 0.0000 0.3294);fill-opacity:1;"/>
<path d="M36.9365 24.1767C36.9405 24.9067 37.1675 25.5857 37.5535 26.1477C39.0195 24.2997 40.8215 22.7277 42.8645 21.5257C42.2315 20.9717 41.3985 20.6357 40.4885 20.6387C38.5215 20.6467 36.9305 22.2297 36.9365 24.1767Z" fill="#060054" style="fill:#060054;fill:color(display-p3 0.0235 0.0000 0.3294);fill-opacity:1;"/>
<path d="M70.9352 34.8011C69.4282 26.9951 63.8612 21.4231 56.0422 19.8991C55.7562 19.8431 55.5792 19.7941 55.4702 19.7611C55.4702 19.7321 55.4702 19.6981 55.4712 19.6561L56.3372 19.6601C56.7012 19.6601 56.9992 19.6561 57.2782 19.6481C59.1482 19.5871 59.5052 18.2141 59.5722 17.6271C59.6702 16.7711 59.6762 15.8611 59.5892 14.9231C59.4842 13.7901 58.6712 13.0251 57.5642 13.0191C53.9632 12.9921 50.9842 12.9941 48.1382 13.0231C46.8732 13.0331 45.9552 13.9631 45.9042 15.2851C45.8872 15.7461 45.8912 16.2211 45.8952 16.6791L45.8972 16.9111C45.9082 18.6871 46.8632 19.6361 48.6572 19.6541C48.9582 19.6571 49.2612 19.6581 49.5632 19.6581L50.5482 19.6561C50.5492 19.6761 50.5492 19.6951 50.5492 19.7111C50.4552 19.7351 50.3102 19.7661 50.0862 19.8001C49.9352 19.8221 49.7892 19.8541 49.6252 19.8901C49.5352 19.9111 49.4462 19.9301 49.3592 19.9471C44.6762 20.8021 40.4092 23.6241 37.6492 27.6891C34.8592 31.8021 33.8442 36.6651 34.7902 41.3821C36.5572 50.1861 43.9802 56.3351 52.8412 56.3351C54.1462 56.3351 55.4652 56.1981 56.7622 55.9291C66.2752 53.9641 72.7662 44.2881 70.9352 34.8011ZM52.7512 18.8091L52.6062 17.3931H51.1822L49.5612 17.3971C49.2662 17.3971 48.9712 17.3961 48.6772 17.3931C48.1592 17.3871 48.1592 17.3871 48.1562 16.8951L48.1542 16.6611C48.1502 16.2351 48.1472 15.7931 48.1622 15.3681C48.1642 15.3281 48.1682 15.2991 48.1692 15.2831C50.9442 15.2561 53.8102 15.2541 57.3482 15.2781C57.4082 16.0121 57.3982 16.7141 57.3232 17.3691C57.3242 17.3721 57.3242 17.3751 57.3242 17.3781C57.2922 17.3821 57.2522 17.3851 57.2032 17.3871C56.9462 17.3961 56.6732 17.3991 56.3382 17.3991L53.3952 17.3911L53.2642 18.8181C53.0812 20.7481 53.3772 21.6831 55.6082 22.1181C62.4902 23.4601 67.3892 28.3621 68.7132 35.2291C70.3152 43.5291 64.6312 51.9951 56.3012 53.7161C55.1592 53.9541 53.9952 54.0751 52.8402 54.0751C45.0702 54.0751 38.5582 48.6731 37.0062 40.9381C36.1812 36.8201 37.0742 32.5671 39.5202 28.9601C41.9412 25.3931 45.6752 22.9191 49.7662 22.1721C49.8892 22.1501 50.0142 22.1221 50.1422 22.0931C50.2352 22.0721 50.3242 22.0521 50.4212 22.0371C52.6432 21.6931 52.9432 20.7231 52.7512 18.8091Z" fill="#060054" style="fill:#060054;fill:color(display-p3 0.0235 0.0000 0.3294);fill-opacity:1;"/>
<path d="M61.161 33.7582C60.855 33.1592 60.123 32.9212 59.524 33.2272L54.375 35.8532C53.938 35.5392 53.406 35.3482 52.827 35.3482C51.358 35.3482 50.167 36.5392 50.167 38.0082C50.167 39.4772 51.358 40.6682 52.827 40.6682C54.293 40.6682 55.481 39.4822 55.486 38.0172L60.63 35.3932C61.229 35.0892 61.467 34.3562 61.161 33.7582Z" fill="#BBE2FA" style="fill:#BBE2FA;fill:color(display-p3 0.7333 0.8863 0.9804);fill-opacity:1;"/>
<path fill-rule="evenodd" clip-rule="evenodd" d="M0 10.8568C0 11.63 0.626822 12.2567 1.39994 12.2567C2.17306 12.2567 2.79976 11.63 2.79976 10.8568C2.79976 10.0837 2.17306 9.45703 1.39994 9.45703C0.626822 9.45703 0 10.0837 0 10.8568Z" fill="#E5614D" style="fill:#E5614D;fill:color(display-p3 0.8980 0.3804 0.3020);fill-opacity:1;"/>
<path fill-rule="evenodd" clip-rule="evenodd" d="M5.86639 5.00488C4.87336 5.00488 4.06836 5.80997 4.06836 6.80294C4.06836 7.79597 4.87336 8.60106 5.86639 8.60106C6.85945 8.60106 7.66445 7.79597 7.66445 6.80294C7.66445 5.80997 6.85945 5.00488 5.86639 5.00488Z" fill="#E5614D" style="fill:#E5614D;fill:color(display-p3 0.8980 0.3804 0.3020);fill-opacity:1;"/>
<mask id="mask0_808_1305" style="mask-type:luminance" maskUnits="userSpaceOnUse" x="7" y="0" width="14" height="22">
<path fill-rule="evenodd" clip-rule="evenodd" d="M10.1115 0C8.97319 0 8.05023 0.922867 8.05023 2.06119C8.05023 3.12863 8.86099 4.00621 9.90009 4.1119H9.90042H9.90075C10.7917 4.19333 11.4312 4.34402 11.8131 4.74051C12.1874 5.12884 12.3388 5.78339 12.4744 6.45331C12.4717 6.49938 12.4697 6.54542 12.4697 6.59206C12.4697 7.65916 13.2807 8.53675 14.3199 8.64276H14.3202C15.2114 8.72387 15.8506 8.87489 16.2328 9.27137C16.5972 9.64983 16.75 10.2803 16.8836 10.9321C16.8011 11.797 16.6487 12.4195 16.2597 12.7942C15.8714 13.1685 15.2168 13.3199 14.5469 13.4556C14.5009 13.4529 14.4548 13.4508 14.4082 13.4508C13.3411 13.4508 12.4635 14.2619 12.3575 15.301V15.3013C12.2791 16.1625 12.1356 16.7885 11.768 17.1744C11.3501 17.5685 10.61 17.7697 9.8609 17.8184H9.86536C8.75934 17.8556 7.87402 18.7635 7.87402 19.8783C7.87402 21.0166 8.79689 21.9394 9.93521 21.9394C11.0026 21.9394 11.8801 21.1288 11.9859 20.0896V20.0893V20.0889C12.0646 19.2261 12.2085 18.5991 12.5778 18.2135L12.5781 18.2132L12.5842 18.2074C13.0039 17.8187 13.7389 17.6203 14.4825 17.5722H14.4784C15.5843 17.5351 16.4694 16.6272 16.4694 15.5121L16.4673 15.421C16.5771 14.7985 16.7006 14.1869 17.0953 13.8067C17.5112 13.4058 18.2575 13.2016 19.0134 13.1525H19.0089C20.1148 13.1153 21.0003 12.2075 21.0003 11.0926C21.0003 9.9543 20.0774 9.03143 18.9391 9.03143C18.8702 9.03143 18.8016 9.03479 18.7345 9.04131C18.1555 8.93632 17.5999 8.80403 17.245 8.43582C16.844 8.01958 16.6398 7.27325 16.5911 6.51775V6.52187C16.5539 5.41594 15.6461 4.53087 14.5309 4.53087L14.4399 4.53293C13.8174 4.42316 13.2057 4.29935 12.8256 3.90493C12.4247 3.48904 12.2205 2.74239 12.1713 1.98688V1.99133C12.1342 0.885407 11.2263 0 10.1115 0Z" fill="white" style="fill:white;fill-opacity:1;"/>
</mask>
<g mask="url(#mask0_808_1305)">
<path fill-rule="evenodd" clip-rule="evenodd" d="M10.1115 0C8.97319 0 8.05023 0.922867 8.05023 2.06119C8.05023 3.12863 8.86099 4.00621 9.90009 4.1119H9.90042H9.90075C10.7917 4.19333 11.4312 4.34402 11.8131 4.74051C12.1874 5.12884 12.3388 5.78339 12.4744 6.45331C12.4717 6.49938 12.4697 6.54542 12.4697 6.59206C12.4697 7.65916 13.2807 8.53675 14.3199 8.64276H14.3202C15.2114 8.72387 15.8506 8.87489 16.2328 9.27137C16.5972 9.64983 16.75 10.2803 16.8836 10.9321C16.8011 11.797 16.6487 12.4195 16.2597 12.7942C15.8714 13.1685 15.2168 13.3199 14.5469 13.4556C14.5009 13.4529 14.4548 13.4508 14.4082 13.4508C13.3411 13.4508 12.4635 14.2619 12.3575 15.301V15.3013C12.2791 16.1625 12.1356 16.7885 11.768 17.1744C11.3501 17.5685 10.61 17.7697 9.8609 17.8184H9.86536C8.75934 17.8556 7.87402 18.7635 7.87402 19.8783C7.87402 21.0166 8.79689 21.9394 9.93521 21.9394C11.0026 21.9394 11.8801 21.1288 11.9859 20.0896V20.0893V20.0889C12.0646 19.2261 12.2085 18.5991 12.5778 18.2135L12.5781 18.2132L12.5842 18.2074C13.0039 17.8187 13.7389 17.6203 14.4825 17.5722H14.4784C15.5843 17.5351 16.4694 16.6272 16.4694 15.5121L16.4673 15.421C16.5771 14.7985 16.7006 14.1869 17.0953 13.8067C17.5112 13.4058 18.2575 13.2016 19.0134 13.1525H19.0089C20.1148 13.1153 21.0003 12.2075 21.0003 11.0926C21.0003 9.9543 20.0774 9.03143 18.9391 9.03143C18.8702 9.03143 18.8016 9.03479 18.7345 9.04131C18.1555 8.93632 17.5999 8.80403 17.245 8.43582C16.844 8.01958 16.6398 7.27325 16.5911 6.51775V6.52187C16.5539 5.41594 15.6461 4.53087 14.5309 4.53087L14.4399 4.53293C13.8174 4.42316 13.2057 4.29935 12.8256 3.90493C12.4247 3.48904 12.2205 2.74239 12.1713 1.98688V1.99133C12.1342 0.885407 11.2263 0 10.1115 0Z" fill="#E5614D" style="fill:#E5614D;fill:color(display-p3 0.8980 0.3804 0.3020);fill-opacity:1;"/>
</g>
<path fill-rule="evenodd" clip-rule="evenodd" d="M5.86639 13.5254C4.87336 13.5254 4.06836 14.3304 4.06836 15.3234C4.06836 16.3165 4.87336 17.1215 5.86639 17.1215C6.85945 17.1215 7.66445 16.3165 7.66445 15.3234C7.66445 14.3304 6.85945 13.5254 5.86639 13.5254Z" fill="#E5614D" style="fill:#E5614D;fill:color(display-p3 0.8980 0.3804 0.3020);fill-opacity:1;"/>
<path fill-rule="evenodd" clip-rule="evenodd" d="M9.78004 8.95801C8.63732 8.95801 7.71094 9.88439 7.71094 11.0271C7.71094 12.1698 8.63732 13.0961 9.78004 13.0961C10.9227 13.0961 11.8491 12.1698 11.8491 11.0271C11.8491 9.88439 10.9227 8.95801 9.78004 8.95801Z" fill="#E5614D" style="fill:#E5614D;fill:color(display-p3 0.8980 0.3804 0.3020);fill-opacity:1;"/>
</svg>
