<svg width="87" height="67" viewBox="0 0 87 67" fill="none" xmlns="http://www.w3.org/2000/svg">
<path d="M56.1055 56.7367C54.9045 56.6927 53.9735 55.6967 53.9885 54.4727C54.0035 53.2637 54.9775 52.2677 56.1645 52.2607C57.3875 52.2607 58.3545 53.2937 58.3255 54.5827C58.2955 55.7837 57.2625 56.7807 56.1055 56.7367Z" fill="#060054" style="fill:#060054;fill:color(display-p3 0.0235 0.0000 0.3294);fill-opacity:1;"/>
<path d="M61.6108 44.4543H55.4238V32.1143H61.6108V44.4543ZM56.3678 43.5103H60.6678V33.0583H56.3678V43.5103Z" fill="#BBE2FA" style="fill:#BBE2FA;fill:color(display-p3 0.7333 0.8863 0.9804);fill-opacity:1;"/>
<path d="M69.7573 44.4541H63.5703V21.5781H69.7573V44.4541ZM64.5143 43.5101H68.8143V22.5221H64.5143V43.5101Z" fill="#BBE2FA" style="fill:#BBE2FA;fill:color(display-p3 0.7333 0.8863 0.9804);fill-opacity:1;"/>
<path d="M78.0073 44.4544H71.8203V25.2754H78.0073V44.4544ZM72.7643 43.5104H77.0643V26.2184H72.7643V43.5104Z" fill="#BBE2FA" style="fill:#BBE2FA;fill:color(display-p3 0.7333 0.8863 0.9804);fill-opacity:1;"/>
<path d="M37.4109 42.5733L37.0199 42.3043C34.6359 40.6713 33.2129 37.9723 33.2129 35.0863C33.2129 33.4993 33.6429 31.9433 34.4559 30.5893L34.7179 30.1543L39.4789 33.5133L39.3139 33.8703C39.1369 34.2513 39.0479 34.6603 39.0479 35.0873C39.0479 36.0403 39.5159 36.9343 40.2999 37.4793L40.6819 37.7453L37.4109 42.5733ZM35.0169 31.5203C34.4529 32.6183 34.1559 33.8413 34.1559 35.0863C34.1559 37.5033 35.2739 39.7713 37.1699 41.2473L39.3929 37.9633C38.5789 37.2363 38.1039 36.1913 38.1039 35.0863C38.1039 34.6573 38.1729 34.2393 38.3089 33.8423L35.0169 31.5203Z" fill="#BBE2FA" style="fill:#BBE2FA;fill:color(display-p3 0.7333 0.8863 0.9804);fill-opacity:1;"/>
<path d="M42.8285 45.0435C41.2725 45.0435 39.7795 44.7015 38.3925 44.0285L37.9025 43.7895L41.6955 38.1905L42.0125 38.2665C42.2765 38.3305 42.5515 38.3625 42.8285 38.3625C44.7575 38.3625 46.3265 36.7935 46.3265 34.8645C46.3265 32.9355 44.7575 31.3665 42.8285 31.3665C41.9095 31.3665 41.0425 31.7205 40.3855 32.3615L40.1045 32.6365L34.6455 28.7875L34.9685 28.3955C36.9105 26.0375 39.7755 24.6855 42.8275 24.6855C48.4405 24.6855 53.0065 29.2515 53.0065 34.8645C53.0065 40.4775 48.4405 45.0435 42.8285 45.0435ZM39.3035 43.4045C40.4175 43.8665 41.6015 44.1015 42.8285 44.1015C47.9215 44.1015 52.0645 39.9585 52.0645 34.8655C52.0645 29.7725 47.9215 25.6295 42.8285 25.6295C40.2295 25.6295 37.7805 26.7105 36.0315 28.6115L40.0205 31.4245C40.8115 30.7765 41.7945 30.4245 42.8275 30.4245C45.2765 30.4245 47.2685 32.4165 47.2685 34.8655C47.2685 37.3145 45.2765 39.3065 42.8275 39.3065C42.5885 39.3065 42.3505 39.2875 42.1165 39.2495L39.3035 43.4045Z" fill="#BBE2FA" style="fill:#BBE2FA;fill:color(display-p3 0.7333 0.8863 0.9804);fill-opacity:1;"/>
<path d="M80.902 14H31.778C28.592 14 26 16.592 26 19.778V54.744C26 57.93 28.592 60.522 31.778 60.522H80.902C84.088 60.522 86.68 57.929 86.68 54.744V19.778C86.68 16.592 84.088 14 80.902 14ZM31.778 16.358H80.902C82.788 16.358 84.322 17.892 84.322 19.778V47.81H28.358V19.778C28.358 17.892 29.892 16.358 31.778 16.358ZM80.902 58.165H31.778C29.892 58.165 28.358 56.631 28.358 54.745V50.169H84.322V54.745C84.322 56.631 82.788 58.165 80.902 58.165Z" fill="#060054" style="fill:#060054;fill:color(display-p3 0.0235 0.0000 0.3294);fill-opacity:1;"/>
<path d="M66.4833 63.8701H46.1973V66.2291H66.4833V63.8701Z" fill="#060054" style="fill:#060054;fill:color(display-p3 0.0235 0.0000 0.3294);fill-opacity:1;"/>
<path fill-rule="evenodd" clip-rule="evenodd" d="M0 10.8568C0 11.63 0.626822 12.2567 1.39994 12.2567C2.17306 12.2567 2.79976 11.63 2.79976 10.8568C2.79976 10.0837 2.17306 9.45703 1.39994 9.45703C0.626822 9.45703 0 10.0837 0 10.8568Z" fill="#E5614D" style="fill:#E5614D;fill:color(display-p3 0.8980 0.3804 0.3020);fill-opacity:1;"/>
<path fill-rule="evenodd" clip-rule="evenodd" d="M5.86639 5.00488C4.87336 5.00488 4.06836 5.80997 4.06836 6.80294C4.06836 7.79597 4.87336 8.60106 5.86639 8.60106C6.85945 8.60106 7.66445 7.79597 7.66445 6.80294C7.66445 5.80997 6.85945 5.00488 5.86639 5.00488Z" fill="#E5614D" style="fill:#E5614D;fill:color(display-p3 0.8980 0.3804 0.3020);fill-opacity:1;"/>
<mask id="mask0_808_1217" style="mask-type:luminance" maskUnits="userSpaceOnUse" x="7" y="0" width="14" height="22">
<path fill-rule="evenodd" clip-rule="evenodd" d="M10.1115 0C8.97319 0 8.05023 0.922867 8.05023 2.06119C8.05023 3.12863 8.86099 4.00621 9.90009 4.1119H9.90042H9.90075C10.7917 4.19333 11.4312 4.34402 11.8131 4.74051C12.1874 5.12884 12.3388 5.78339 12.4744 6.45331C12.4717 6.49938 12.4697 6.54542 12.4697 6.59206C12.4697 7.65916 13.2807 8.53675 14.3199 8.64276H14.3202C15.2114 8.72387 15.8506 8.87489 16.2328 9.27137C16.5972 9.64983 16.75 10.2803 16.8836 10.9321C16.8011 11.797 16.6487 12.4195 16.2597 12.7942C15.8714 13.1685 15.2168 13.3199 14.5469 13.4556C14.5009 13.4529 14.4548 13.4508 14.4082 13.4508C13.3411 13.4508 12.4635 14.2619 12.3575 15.301V15.3013C12.2791 16.1625 12.1356 16.7885 11.768 17.1744C11.3501 17.5685 10.61 17.7697 9.8609 17.8184H9.86536C8.75934 17.8556 7.87402 18.7635 7.87402 19.8783C7.87402 21.0166 8.79689 21.9394 9.93521 21.9394C11.0026 21.9394 11.8801 21.1288 11.9859 20.0896V20.0893V20.0889C12.0646 19.2261 12.2085 18.5991 12.5778 18.2135L12.5781 18.2132L12.5842 18.2074C13.0039 17.8187 13.7389 17.6203 14.4825 17.5722H14.4784C15.5843 17.5351 16.4694 16.6272 16.4694 15.5121L16.4673 15.421C16.5771 14.7985 16.7006 14.1869 17.0953 13.8067C17.5112 13.4058 18.2575 13.2016 19.0134 13.1525H19.0089C20.1148 13.1153 21.0003 12.2075 21.0003 11.0926C21.0003 9.9543 20.0774 9.03143 18.9391 9.03143C18.8702 9.03143 18.8016 9.03479 18.7345 9.04131C18.1555 8.93632 17.5999 8.80403 17.245 8.43582C16.844 8.01958 16.6398 7.27325 16.5911 6.51775V6.52187C16.5539 5.41594 15.6461 4.53087 14.5309 4.53087L14.4399 4.53293C13.8174 4.42316 13.2057 4.29935 12.8256 3.90493C12.4247 3.48904 12.2205 2.74239 12.1713 1.98688V1.99133C12.1342 0.885407 11.2263 0 10.1115 0Z" fill="white" style="fill:white;fill-opacity:1;"/>
</mask>
<g mask="url(#mask0_808_1217)">
<path fill-rule="evenodd" clip-rule="evenodd" d="M10.1115 0C8.97319 0 8.05023 0.922867 8.05023 2.06119C8.05023 3.12863 8.86099 4.00621 9.90009 4.1119H9.90042H9.90075C10.7917 4.19333 11.4312 4.34402 11.8131 4.74051C12.1874 5.12884 12.3388 5.78339 12.4744 6.45331C12.4717 6.49938 12.4697 6.54542 12.4697 6.59206C12.4697 7.65916 13.2807 8.53675 14.3199 8.64276H14.3202C15.2114 8.72387 15.8506 8.87489 16.2328 9.27137C16.5972 9.64983 16.75 10.2803 16.8836 10.9321C16.8011 11.797 16.6487 12.4195 16.2597 12.7942C15.8714 13.1685 15.2168 13.3199 14.5469 13.4556C14.5009 13.4529 14.4548 13.4508 14.4082 13.4508C13.3411 13.4508 12.4635 14.2619 12.3575 15.301V15.3013C12.2791 16.1625 12.1356 16.7885 11.768 17.1744C11.3501 17.5685 10.61 17.7697 9.8609 17.8184H9.86536C8.75934 17.8556 7.87402 18.7635 7.87402 19.8783C7.87402 21.0166 8.79689 21.9394 9.93521 21.9394C11.0026 21.9394 11.8801 21.1288 11.9859 20.0896V20.0893V20.0889C12.0646 19.2261 12.2085 18.5991 12.5778 18.2135L12.5781 18.2132L12.5842 18.2074C13.0039 17.8187 13.7389 17.6203 14.4825 17.5722H14.4784C15.5843 17.5351 16.4694 16.6272 16.4694 15.5121L16.4673 15.421C16.5771 14.7985 16.7006 14.1869 17.0953 13.8067C17.5112 13.4058 18.2575 13.2016 19.0134 13.1525H19.0089C20.1148 13.1153 21.0003 12.2075 21.0003 11.0926C21.0003 9.9543 20.0774 9.03143 18.9391 9.03143C18.8702 9.03143 18.8016 9.03479 18.7345 9.04131C18.1555 8.93632 17.5999 8.80403 17.245 8.43582C16.844 8.01958 16.6398 7.27325 16.5911 6.51775V6.52187C16.5539 5.41594 15.6461 4.53087 14.5309 4.53087L14.4399 4.53293C13.8174 4.42316 13.2057 4.29935 12.8256 3.90493C12.4247 3.48904 12.2205 2.74239 12.1713 1.98688V1.99133C12.1342 0.885407 11.2263 0 10.1115 0Z" fill="#E5614D" style="fill:#E5614D;fill:color(display-p3 0.8980 0.3804 0.3020);fill-opacity:1;"/>
</g>
<path fill-rule="evenodd" clip-rule="evenodd" d="M5.86639 13.5254C4.87336 13.5254 4.06836 14.3304 4.06836 15.3234C4.06836 16.3165 4.87336 17.1215 5.86639 17.1215C6.85945 17.1215 7.66445 16.3165 7.66445 15.3234C7.66445 14.3304 6.85945 13.5254 5.86639 13.5254Z" fill="#E5614D" style="fill:#E5614D;fill:color(display-p3 0.8980 0.3804 0.3020);fill-opacity:1;"/>
<path fill-rule="evenodd" clip-rule="evenodd" d="M9.78004 8.95801C8.63732 8.95801 7.71094 9.88439 7.71094 11.0271C7.71094 12.1698 8.63732 13.0961 9.78004 13.0961C10.9227 13.0961 11.8491 12.1698 11.8491 11.0271C11.8491 9.88439 10.9227 8.95801 9.78004 8.95801Z" fill="#E5614D" style="fill:#E5614D;fill:color(display-p3 0.8980 0.3804 0.3020);fill-opacity:1;"/>
</svg>
