<svg width="88" height="66" viewBox="0 0 88 66" fill="none" xmlns="http://www.w3.org/2000/svg">
<path fill-rule="evenodd" clip-rule="evenodd" d="M0 10.8568C0 11.63 0.626822 12.2567 1.39994 12.2567C2.17306 12.2567 2.79976 11.63 2.79976 10.8568C2.79976 10.0837 2.17306 9.45703 1.39994 9.45703C0.626822 9.45703 0 10.0837 0 10.8568Z" fill="#E5614D" style="fill:#E5614D;fill:color(display-p3 0.8980 0.3804 0.3020);fill-opacity:1;"/>
<path fill-rule="evenodd" clip-rule="evenodd" d="M5.86639 5.00488C4.87336 5.00488 4.06836 5.80997 4.06836 6.80294C4.06836 7.79597 4.87336 8.60106 5.86639 8.60106C6.85945 8.60106 7.66445 7.79597 7.66445 6.80294C7.66445 5.80997 6.85945 5.00488 5.86639 5.00488Z" fill="#E5614D" style="fill:#E5614D;fill:color(display-p3 0.8980 0.3804 0.3020);fill-opacity:1;"/>
<mask id="mask0_808_1333" style="mask-type:luminance" maskUnits="userSpaceOnUse" x="7" y="0" width="14" height="22">
<path fill-rule="evenodd" clip-rule="evenodd" d="M10.1115 0C8.97319 0 8.05023 0.922867 8.05023 2.06119C8.05023 3.12863 8.86099 4.00621 9.90009 4.1119H9.90042H9.90075C10.7917 4.19333 11.4312 4.34402 11.8131 4.74051C12.1874 5.12884 12.3388 5.78339 12.4744 6.45331C12.4717 6.49938 12.4697 6.54542 12.4697 6.59206C12.4697 7.65916 13.2807 8.53675 14.3199 8.64276H14.3202C15.2114 8.72387 15.8506 8.87489 16.2328 9.27137C16.5972 9.64983 16.75 10.2803 16.8836 10.9321C16.8011 11.797 16.6487 12.4195 16.2597 12.7942C15.8714 13.1685 15.2168 13.3199 14.5469 13.4556C14.5009 13.4529 14.4548 13.4508 14.4082 13.4508C13.3411 13.4508 12.4635 14.2619 12.3575 15.301V15.3013C12.2791 16.1625 12.1356 16.7885 11.768 17.1744C11.3501 17.5685 10.61 17.7697 9.8609 17.8184H9.86536C8.75934 17.8556 7.87402 18.7635 7.87402 19.8783C7.87402 21.0166 8.79689 21.9394 9.93521 21.9394C11.0026 21.9394 11.8801 21.1288 11.9859 20.0896V20.0893V20.0889C12.0646 19.2261 12.2085 18.5991 12.5778 18.2135L12.5781 18.2132L12.5842 18.2074C13.0039 17.8187 13.7389 17.6203 14.4825 17.5722H14.4784C15.5843 17.5351 16.4694 16.6272 16.4694 15.5121L16.4673 15.421C16.5771 14.7985 16.7006 14.1869 17.0953 13.8067C17.5112 13.4058 18.2575 13.2016 19.0134 13.1525H19.0089C20.1148 13.1153 21.0003 12.2075 21.0003 11.0926C21.0003 9.9543 20.0774 9.03143 18.9391 9.03143C18.8702 9.03143 18.8016 9.03479 18.7345 9.04131C18.1555 8.93632 17.5999 8.80403 17.245 8.43582C16.844 8.01958 16.6398 7.27325 16.5911 6.51775V6.52187C16.5539 5.41594 15.6461 4.53087 14.5309 4.53087L14.4399 4.53293C13.8174 4.42316 13.2057 4.29935 12.8256 3.90493C12.4247 3.48904 12.2205 2.74239 12.1713 1.98688V1.99133C12.1342 0.885407 11.2263 0 10.1115 0Z" fill="white" style="fill:white;fill-opacity:1;"/>
</mask>
<g mask="url(#mask0_808_1333)">
<path fill-rule="evenodd" clip-rule="evenodd" d="M10.1115 0C8.97319 0 8.05023 0.922867 8.05023 2.06119C8.05023 3.12863 8.86099 4.00621 9.90009 4.1119H9.90042H9.90075C10.7917 4.19333 11.4312 4.34402 11.8131 4.74051C12.1874 5.12884 12.3388 5.78339 12.4744 6.45331C12.4717 6.49938 12.4697 6.54542 12.4697 6.59206C12.4697 7.65916 13.2807 8.53675 14.3199 8.64276H14.3202C15.2114 8.72387 15.8506 8.87489 16.2328 9.27137C16.5972 9.64983 16.75 10.2803 16.8836 10.9321C16.8011 11.797 16.6487 12.4195 16.2597 12.7942C15.8714 13.1685 15.2168 13.3199 14.5469 13.4556C14.5009 13.4529 14.4548 13.4508 14.4082 13.4508C13.3411 13.4508 12.4635 14.2619 12.3575 15.301V15.3013C12.2791 16.1625 12.1356 16.7885 11.768 17.1744C11.3501 17.5685 10.61 17.7697 9.8609 17.8184H9.86536C8.75934 17.8556 7.87402 18.7635 7.87402 19.8783C7.87402 21.0166 8.79689 21.9394 9.93521 21.9394C11.0026 21.9394 11.8801 21.1288 11.9859 20.0896V20.0893V20.0889C12.0646 19.2261 12.2085 18.5991 12.5778 18.2135L12.5781 18.2132L12.5842 18.2074C13.0039 17.8187 13.7389 17.6203 14.4825 17.5722H14.4784C15.5843 17.5351 16.4694 16.6272 16.4694 15.5121L16.4673 15.421C16.5771 14.7985 16.7006 14.1869 17.0953 13.8067C17.5112 13.4058 18.2575 13.2016 19.0134 13.1525H19.0089C20.1148 13.1153 21.0003 12.2075 21.0003 11.0926C21.0003 9.9543 20.0774 9.03143 18.9391 9.03143C18.8702 9.03143 18.8016 9.03479 18.7345 9.04131C18.1555 8.93632 17.5999 8.80403 17.245 8.43582C16.844 8.01958 16.6398 7.27325 16.5911 6.51775V6.52187C16.5539 5.41594 15.6461 4.53087 14.5309 4.53087L14.4399 4.53293C13.8174 4.42316 13.2057 4.29935 12.8256 3.90493C12.4247 3.48904 12.2205 2.74239 12.1713 1.98688V1.99133C12.1342 0.885407 11.2263 0 10.1115 0Z" fill="#E5614D" style="fill:#E5614D;fill:color(display-p3 0.8980 0.3804 0.3020);fill-opacity:1;"/>
</g>
<path fill-rule="evenodd" clip-rule="evenodd" d="M5.86639 13.5254C4.87336 13.5254 4.06836 14.3304 4.06836 15.3234C4.06836 16.3165 4.87336 17.1215 5.86639 17.1215C6.85945 17.1215 7.66445 16.3165 7.66445 15.3234C7.66445 14.3304 6.85945 13.5254 5.86639 13.5254Z" fill="#E5614D" style="fill:#E5614D;fill:color(display-p3 0.8980 0.3804 0.3020);fill-opacity:1;"/>
<path fill-rule="evenodd" clip-rule="evenodd" d="M9.78004 8.95801C8.63732 8.95801 7.71094 9.88439 7.71094 11.0271C7.71094 12.1698 8.63732 13.0961 9.78004 13.0961C10.9227 13.0961 11.8491 12.1698 11.8491 11.0271C11.8491 9.88439 10.9227 8.95801 9.78004 8.95801Z" fill="#E5614D" style="fill:#E5614D;fill:color(display-p3 0.8980 0.3804 0.3020);fill-opacity:1;"/>
<path d="M48.3305 52.328C47.5515 52.435 46.8125 52.639 46.1205 52.951L40.9715 32.705L38.8695 24.422C38.6455 23.585 38.4315 22.748 38.2465 21.911C38.0035 20.811 37.2145 20.451 36.6405 20.276C33.4575 19.303 30.2745 18.32 27.0915 17.327C26.7895 17.239 25.8165 16.859 26.0305 15.944C26.1575 15.37 26.5855 15 27.0915 15C27.1985 15 27.3155 15.019 27.4225 15.049C31.0045 16.09 34.8395 17.229 39.1615 18.543C39.5215 18.65 39.9695 18.903 40.2125 19.867C40.9425 22.807 41.6725 25.736 42.4025 28.666L48.3305 52.328Z" fill="#060054" style="fill:#060054;fill:color(display-p3 0.0235 0.0000 0.3294);fill-opacity:1;"/>
<path d="M49.3772 65.8804H49.3302C46.1622 65.8544 43.6912 63.3374 43.7032 60.1504C43.7142 57.0724 46.2662 54.5674 49.3912 54.5674C50.9312 54.5734 52.3602 55.1744 53.4322 56.2614C54.4912 57.3344 55.0682 58.7444 55.0552 60.2314C55.0292 63.3474 52.4812 65.8804 49.3772 65.8804ZM49.4032 57.0014C47.6032 57.0014 46.1432 58.4184 46.1362 60.1604C46.1292 61.9894 47.5402 63.4334 49.3502 63.4474H49.3772C51.1512 63.4474 52.6072 61.9964 52.6232 60.2114C52.6302 59.3754 52.3032 58.5804 51.7022 57.9724C51.0872 57.3494 50.2702 57.0054 49.4032 57.0014Z" fill="#060054" style="fill:#060054;fill:color(display-p3 0.0235 0.0000 0.3294);fill-opacity:1;"/>
<path d="M84.3343 56.8932C80.9953 57.7202 77.6673 58.5382 74.3283 59.3562L67.5733 61.0102C64.3613 61.7982 61.1493 62.5872 57.9373 63.3562C57.6943 63.4142 57.1103 63.5602 56.5453 63.7062C56.7203 63.3462 56.8763 62.9762 56.9933 62.5872C57.3043 62.5092 57.5673 62.4512 57.7133 62.4122C60.9253 61.6432 64.1273 60.8552 67.3393 60.0662L74.0943 58.4112C77.4333 57.5932 80.7613 56.7762 84.1003 55.9482C85.5703 55.5882 86.4463 54.3522 86.2413 52.9602C86.0173 51.3642 84.4693 50.3612 82.8153 50.7702L56.7683 57.1552C56.6413 56.8442 56.4953 56.5522 56.3203 56.2602L82.5813 49.8262C82.9223 49.7482 83.2533 49.6992 83.5933 49.6992C85.4523 49.6992 86.9413 50.9842 87.2043 52.8142C87.4873 54.7322 86.3003 56.4062 84.3343 56.8932Z" fill="#BBE2FA" style="fill:#BBE2FA;fill:color(display-p3 0.7333 0.8863 0.9804);fill-opacity:1;"/>
<path d="M78.6793 42.5948C77.0833 36.0438 75.4573 29.5028 73.8123 22.9618C73.2773 20.8498 71.0873 19.6228 68.9363 20.1488C67.1743 20.5768 65.4223 21.0148 63.6603 21.4628C62.9203 21.6478 62.1713 21.8428 61.4123 22.0468C61.8503 23.7498 62.2593 25.3858 62.6973 27.0988C61.2083 27.4788 59.8063 27.8388 58.3563 28.1988C57.9373 26.6028 57.5383 25.1328 57.1783 23.6528C57.0903 23.2638 56.9543 23.1268 56.5453 23.2248C54.1803 23.8278 51.7953 24.3738 49.4403 25.0158C47.0653 25.6678 45.9263 27.6728 46.5103 30.0478C48.0873 36.4328 49.6733 42.8088 51.2603 49.1838C51.9023 51.7438 53.9373 52.9508 56.4973 52.3178C58.0843 51.9288 59.6703 51.5298 61.2573 51.1298V51.1398L70.9223 48.7258C72.5093 48.3268 74.0763 47.9378 75.6233 47.5478C77.9873 46.9658 79.2533 44.9798 78.6793 42.5948ZM75.0383 45.1938C73.4813 45.5828 71.9233 45.9728 70.3273 46.3618L62.5603 48.3088V48.2988L59.7963 48.9898C58.5013 49.3108 57.2073 49.6418 55.9123 49.9538C55.6593 50.0218 55.4163 50.0508 55.1923 50.0508C54.8613 50.0508 53.9853 50.0508 53.6253 48.6008C52.0293 42.2258 50.4523 35.8498 48.8753 29.4648C48.6023 28.3548 48.9923 27.6638 50.0823 27.3718C51.5423 26.9728 53.0123 26.6128 54.4723 26.2528C54.7453 26.1848 55.0073 26.1168 55.2803 26.0488C55.4073 26.5448 55.5433 27.0418 55.6693 27.5578L56.6133 31.1588L65.6463 28.8618L64.3613 23.7908C66.0843 23.3628 67.7973 22.9338 69.5103 22.5158C70.3673 22.3018 71.2523 22.7788 71.4473 23.5568C73.1993 30.5158 74.7953 36.9308 76.3143 43.1698C76.6353 44.5028 75.7973 44.9998 75.0383 45.1938Z" fill="#060054" style="fill:#060054;fill:color(display-p3 0.0235 0.0000 0.3294);fill-opacity:1;"/>
</svg>
