<svg width="77" height="71" viewBox="0 0 77 71" fill="none" xmlns="http://www.w3.org/2000/svg">
<path d="M47.229 70.1381H47.222C47.098 70.1381 46.959 70.1371 46.819 70.1301L46.314 70.132C46.252 70.1361 46.143 70.1381 46.036 70.1381C42.766 70.1381 41.78 67.8501 41.287 65.8591C40.965 64.5241 37.241 61.9611 34.498 61.8581C34.371 61.896 34.232 61.9331 34.085 61.9711C33.605 62.0961 33.008 62.2531 32.682 62.5101C31.683 63.3471 30.692 63.765 29.682 63.765C27.946 63.765 26.671 62.536 25.437 61.347C22.753 58.799 23.727 56.4471 24.869 54.6761C25.531 53.5791 25.445 51.6441 24.631 49.7761C23.77 47.799 22.338 46.383 20.894 46.0821C17.638 45.4611 17.113 43.372 17.003 41.856L17 39.4121C17.117 37.6961 17.663 35.7351 20.893 35.0571C22.336 34.7551 23.81 33.285 24.65 31.3111C25.433 29.472 25.498 27.5811 24.815 26.4931C23.66 24.5911 22.83 22.3291 25.367 19.8571L25.494 19.7381C26.717 18.5901 27.981 17.4031 29.699 17.4031C30.7 17.4031 31.682 17.8081 32.699 18.6421C33.009 18.9051 33.541 19.0421 34.011 19.1631C34.187 19.2081 34.353 19.2521 34.503 19.2971C37.096 19.1701 40.937 16.7271 41.285 15.2851C41.796 13.2201 42.816 10.8541 46.365 11.0071L46.91 11.0061C46.973 11.0021 47.083 11.0001 47.191 11.0001C50.417 11.0001 51.388 13.1631 51.912 15.2791C52.294 16.7511 56.081 19.1721 58.696 19.2971C58.845 19.2521 59.011 19.2081 59.186 19.1631C59.656 19.0421 60.189 18.9051 60.487 18.6541C61.518 17.8091 62.502 17.4041 63.51 17.4041C65.273 17.4041 66.556 18.6341 67.796 19.8231C70.389 22.2961 69.551 24.5741 68.393 26.4801C68.058 27.0181 67.895 27.736 67.917 28.566C67.98 31.159 69.908 34.5591 72.3 35.0571C75.537 35.7351 76.083 37.6971 76.197 39.33L76.2 41.772C76.182 42.106 76.148 42.36 76.1 42.605C75.77 44.511 74.519 45.659 72.281 46.0871C70.85 46.3861 69.419 47.8101 68.566 49.7971C67.768 51.6571 67.698 53.5811 68.389 54.6971C69.491 56.4701 70.424 58.824 67.821 61.293L67.748 61.363C66.518 62.545 65.246 63.7671 63.516 63.7671C62.507 63.7671 61.517 63.3501 60.49 62.4891C60.189 62.2551 59.592 62.098 59.112 61.972C58.966 61.9341 58.828 61.897 58.702 61.861C57 61.931 54.522 63.0481 52.967 64.4611C52.118 65.2271 51.945 65.7241 51.912 65.8591C51.426 67.833 50.454 70.1031 47.236 70.1411H47.229V70.1381ZM46.885 67.7731C47.039 67.7801 47.131 67.778 47.215 67.779C48.611 67.761 49.151 67.201 49.622 65.292C49.829 64.445 50.423 63.577 51.384 62.709C53.14 61.114 56.277 59.495 58.869 59.495H59.062L59.245 59.557C59.377 59.601 59.536 59.6431 59.711 59.688C60.363 59.8591 61.257 60.094 61.972 60.653C62.58 61.162 63.089 61.4061 63.515 61.4061C64.295 61.4061 65.137 60.597 66.113 59.66L66.191 59.585C67.391 58.445 67.433 57.628 66.382 55.938C65.264 54.1301 65.271 51.4871 66.397 48.8651C67.565 46.1421 69.591 44.237 71.816 43.772C73.427 43.4641 73.663 42.8401 73.779 42.1711C73.813 41.9991 73.832 41.8501 73.841 41.6971L73.839 39.41C73.766 38.415 73.593 37.7351 71.816 37.3631C68.181 36.6061 65.645 32.2321 65.557 28.6221C65.525 27.3301 65.81 26.1601 66.383 25.2411C67.454 23.4791 67.416 22.7181 66.194 21.5531C65.216 20.6161 64.324 19.7591 63.508 19.7591C63.074 19.7591 62.565 19.9961 61.993 20.4641C61.296 21.0531 60.415 21.2791 59.772 21.4451C59.586 21.4931 59.415 21.5341 59.276 21.5851L59.074 21.6601L58.859 21.6591C55.622 21.6381 50.365 18.7111 49.623 15.8571C49.111 13.7891 48.537 13.2871 46.959 13.3621L46.312 13.3631C46.183 13.3581 46.107 13.3571 46.033 13.3571C44.604 13.3571 44.053 13.9151 43.574 15.8441C42.884 18.7001 37.617 21.6381 34.335 21.6591L34.12 21.6601L33.919 21.5851C33.781 21.5341 33.609 21.4931 33.423 21.4451C32.776 21.2791 31.891 21.0521 31.184 20.4501C30.631 19.9971 30.124 19.7601 29.696 19.7601C28.912 19.7601 28.074 20.5461 27.105 21.4561L26.994 21.5611C25.791 22.7331 25.752 23.4961 26.819 25.2541C27.923 27.0141 27.925 29.6281 26.817 32.2341C25.649 34.9781 23.614 36.8961 21.373 37.3651C19.602 37.7371 19.428 38.4181 19.353 39.4951L19.356 41.772C19.428 42.729 19.608 43.437 21.353 43.7701C23.586 44.236 25.611 46.129 26.791 48.835C27.934 51.461 27.963 54.1111 26.867 55.9261C25.768 57.6301 25.802 58.444 27 59.5821L27.071 59.6501C28.049 60.5931 28.895 61.4071 29.679 61.4071C30.107 61.4071 30.616 61.1631 31.192 60.68C31.932 60.097 32.829 59.8621 33.484 59.6901C33.659 59.6441 33.819 59.6031 33.951 59.5591L34.134 59.4971H34.327C37.608 59.4971 42.88 62.4201 43.575 65.298C44.076 67.321 44.676 67.8561 46.261 67.7741L46.885 67.7731Z" fill="#060054" style="fill:#060054;fill:color(display-p3 0.0235 0.0000 0.3294);fill-opacity:1;"/>
<path d="M46.6238 56.6985H46.6198C44.0008 56.6805 41.4928 56.0555 39.1648 54.8425C34.1718 52.2355 30.8898 47.3475 30.3868 41.7695L30.3848 39.4575C31.1438 30.9465 38.1228 24.5065 46.6188 24.4375C52.9938 24.4925 58.8018 28.2895 61.4228 34.1095C62.1728 35.7705 62.6398 37.5555 62.8098 39.4145L62.8118 41.7265C62.1898 48.6175 57.3078 54.3985 50.6618 56.1535C49.3678 56.5025 48.0088 56.6865 46.6268 56.6975L46.6238 56.6985ZM46.6198 25.3805C38.6188 25.4455 32.0408 31.5155 31.3278 39.4995L31.3298 41.7275C31.8028 46.9435 34.8958 51.5485 39.6028 54.0065C41.7948 55.1485 44.1578 55.7365 46.6238 55.7555C47.9248 55.7435 49.2018 55.5715 50.4208 55.2435C56.6878 53.5885 61.2888 48.1405 61.8728 41.6855L61.8708 39.4585C61.7128 37.7475 61.2718 36.0635 60.5648 34.4985C58.0928 29.0105 52.6198 25.4325 46.6198 25.3805Z" fill="#BBE2FA" style="fill:#BBE2FA;fill:color(display-p3 0.7333 0.8863 0.9804);fill-opacity:1;"/>
<path fill-rule="evenodd" clip-rule="evenodd" d="M0 10.8568C0 11.63 0.626822 12.2567 1.39994 12.2567C2.17306 12.2567 2.79976 11.63 2.79976 10.8568C2.79976 10.0837 2.17306 9.45703 1.39994 9.45703C0.626822 9.45703 0 10.0837 0 10.8568Z" fill="#E5614D" style="fill:#E5614D;fill:color(display-p3 0.8980 0.3804 0.3020);fill-opacity:1;"/>
<path fill-rule="evenodd" clip-rule="evenodd" d="M5.86639 5.00488C4.87336 5.00488 4.06836 5.80997 4.06836 6.80294C4.06836 7.79597 4.87336 8.60106 5.86639 8.60106C6.85945 8.60106 7.66445 7.79597 7.66445 6.80294C7.66445 5.80997 6.85945 5.00488 5.86639 5.00488Z" fill="#E5614D" style="fill:#E5614D;fill:color(display-p3 0.8980 0.3804 0.3020);fill-opacity:1;"/>
<mask id="mask0_808_1262" style="mask-type:luminance" maskUnits="userSpaceOnUse" x="7" y="0" width="14" height="22">
<path fill-rule="evenodd" clip-rule="evenodd" d="M10.1115 0C8.97319 0 8.05023 0.922867 8.05023 2.06119C8.05023 3.12863 8.86099 4.00621 9.90009 4.1119H9.90042H9.90075C10.7917 4.19333 11.4312 4.34402 11.8131 4.74051C12.1874 5.12884 12.3388 5.78339 12.4744 6.45331C12.4717 6.49938 12.4697 6.54542 12.4697 6.59206C12.4697 7.65916 13.2807 8.53675 14.3199 8.64276H14.3202C15.2114 8.72387 15.8506 8.87489 16.2328 9.27137C16.5972 9.64983 16.75 10.2803 16.8836 10.9321C16.8011 11.797 16.6487 12.4195 16.2597 12.7942C15.8714 13.1685 15.2168 13.3199 14.5469 13.4556C14.5009 13.4529 14.4548 13.4508 14.4082 13.4508C13.3411 13.4508 12.4635 14.2619 12.3575 15.301V15.3013C12.2791 16.1625 12.1356 16.7885 11.768 17.1744C11.3501 17.5685 10.61 17.7697 9.8609 17.8184H9.86536C8.75934 17.8556 7.87402 18.7635 7.87402 19.8783C7.87402 21.0166 8.79689 21.9394 9.93521 21.9394C11.0026 21.9394 11.8801 21.1288 11.9859 20.0896V20.0893V20.0889C12.0646 19.2261 12.2085 18.5991 12.5778 18.2135L12.5781 18.2132L12.5842 18.2074C13.0039 17.8187 13.7389 17.6203 14.4825 17.5722H14.4784C15.5843 17.5351 16.4694 16.6272 16.4694 15.5121L16.4673 15.421C16.5771 14.7985 16.7006 14.1869 17.0953 13.8067C17.5112 13.4058 18.2575 13.2016 19.0134 13.1525H19.0089C20.1148 13.1153 21.0003 12.2075 21.0003 11.0926C21.0003 9.9543 20.0774 9.03143 18.9391 9.03143C18.8702 9.03143 18.8016 9.03479 18.7345 9.04131C18.1555 8.93632 17.5999 8.80403 17.245 8.43582C16.844 8.01958 16.6398 7.27325 16.5911 6.51775V6.52187C16.5539 5.41594 15.6461 4.53087 14.5309 4.53087L14.4399 4.53293C13.8174 4.42316 13.2057 4.29935 12.8256 3.90493C12.4247 3.48904 12.2205 2.74239 12.1713 1.98688V1.99133C12.1342 0.885407 11.2263 0 10.1115 0Z" fill="white" style="fill:white;fill-opacity:1;"/>
</mask>
<g mask="url(#mask0_808_1262)">
<path fill-rule="evenodd" clip-rule="evenodd" d="M10.1115 0C8.97319 0 8.05023 0.922867 8.05023 2.06119C8.05023 3.12863 8.86099 4.00621 9.90009 4.1119H9.90042H9.90075C10.7917 4.19333 11.4312 4.34402 11.8131 4.74051C12.1874 5.12884 12.3388 5.78339 12.4744 6.45331C12.4717 6.49938 12.4697 6.54542 12.4697 6.59206C12.4697 7.65916 13.2807 8.53675 14.3199 8.64276H14.3202C15.2114 8.72387 15.8506 8.87489 16.2328 9.27137C16.5972 9.64983 16.75 10.2803 16.8836 10.9321C16.8011 11.797 16.6487 12.4195 16.2597 12.7942C15.8714 13.1685 15.2168 13.3199 14.5469 13.4556C14.5009 13.4529 14.4548 13.4508 14.4082 13.4508C13.3411 13.4508 12.4635 14.2619 12.3575 15.301V15.3013C12.2791 16.1625 12.1356 16.7885 11.768 17.1744C11.3501 17.5685 10.61 17.7697 9.8609 17.8184H9.86536C8.75934 17.8556 7.87402 18.7635 7.87402 19.8783C7.87402 21.0166 8.79689 21.9394 9.93521 21.9394C11.0026 21.9394 11.8801 21.1288 11.9859 20.0896V20.0893V20.0889C12.0646 19.2261 12.2085 18.5991 12.5778 18.2135L12.5781 18.2132L12.5842 18.2074C13.0039 17.8187 13.7389 17.6203 14.4825 17.5722H14.4784C15.5843 17.5351 16.4694 16.6272 16.4694 15.5121L16.4673 15.421C16.5771 14.7985 16.7006 14.1869 17.0953 13.8067C17.5112 13.4058 18.2575 13.2016 19.0134 13.1525H19.0089C20.1148 13.1153 21.0003 12.2075 21.0003 11.0926C21.0003 9.9543 20.0774 9.03143 18.9391 9.03143C18.8702 9.03143 18.8016 9.03479 18.7345 9.04131C18.1555 8.93632 17.5999 8.80403 17.245 8.43582C16.844 8.01958 16.6398 7.27325 16.5911 6.51775V6.52187C16.5539 5.41594 15.6461 4.53087 14.5309 4.53087L14.4399 4.53293C13.8174 4.42316 13.2057 4.29935 12.8256 3.90493C12.4247 3.48904 12.2205 2.74239 12.1713 1.98688V1.99133C12.1342 0.885407 11.2263 0 10.1115 0Z" fill="#E5614D" style="fill:#E5614D;fill:color(display-p3 0.8980 0.3804 0.3020);fill-opacity:1;"/>
</g>
<path fill-rule="evenodd" clip-rule="evenodd" d="M5.86639 13.5254C4.87336 13.5254 4.06836 14.3304 4.06836 15.3234C4.06836 16.3165 4.87336 17.1215 5.86639 17.1215C6.85945 17.1215 7.66445 16.3165 7.66445 15.3234C7.66445 14.3304 6.85945 13.5254 5.86639 13.5254Z" fill="#E5614D" style="fill:#E5614D;fill:color(display-p3 0.8980 0.3804 0.3020);fill-opacity:1;"/>
<path fill-rule="evenodd" clip-rule="evenodd" d="M9.78004 8.95801C8.63732 8.95801 7.71094 9.88439 7.71094 11.0271C7.71094 12.1698 8.63732 13.0961 9.78004 13.0961C10.9227 13.0961 11.8491 12.1698 11.8491 11.0271C11.8491 9.88439 10.9227 8.95801 9.78004 8.95801Z" fill="#E5614D" style="fill:#E5614D;fill:color(display-p3 0.8980 0.3804 0.3020);fill-opacity:1;"/>
</svg>
