<svg width="77" height="66" viewBox="0 0 77 66" fill="none" xmlns="http://www.w3.org/2000/svg">
<path fill-rule="evenodd" clip-rule="evenodd" d="M0 10.8568C0 11.63 0.626822 12.2567 1.39994 12.2567C2.17306 12.2567 2.79976 11.63 2.79976 10.8568C2.79976 10.0837 2.17306 9.45703 1.39994 9.45703C0.626822 9.45703 0 10.0837 0 10.8568Z" fill="#E5614D" style="fill:#E5614D;fill:color(display-p3 0.8980 0.3804 0.3020);fill-opacity:1;"/>
<path fill-rule="evenodd" clip-rule="evenodd" d="M5.86639 5.00488C4.87336 5.00488 4.06836 5.80997 4.06836 6.80294C4.06836 7.79597 4.87336 8.60106 5.86639 8.60106C6.85945 8.60106 7.66445 7.79597 7.66445 6.80294C7.66445 5.80997 6.85945 5.00488 5.86639 5.00488Z" fill="#E5614D" style="fill:#E5614D;fill:color(display-p3 0.8980 0.3804 0.3020);fill-opacity:1;"/>
<mask id="mask0_808_1380" style="mask-type:luminance" maskUnits="userSpaceOnUse" x="7" y="0" width="14" height="22">
<path fill-rule="evenodd" clip-rule="evenodd" d="M10.1115 0C8.97319 0 8.05023 0.922867 8.05023 2.06119C8.05023 3.12863 8.86099 4.00621 9.90009 4.1119H9.90042H9.90075C10.7917 4.19333 11.4312 4.34402 11.8131 4.74051C12.1874 5.12884 12.3388 5.78339 12.4744 6.45331C12.4717 6.49938 12.4697 6.54542 12.4697 6.59206C12.4697 7.65916 13.2807 8.53675 14.3199 8.64276H14.3202C15.2114 8.72387 15.8506 8.87489 16.2328 9.27137C16.5972 9.64983 16.75 10.2803 16.8836 10.9321C16.8011 11.797 16.6487 12.4195 16.2597 12.7942C15.8714 13.1685 15.2168 13.3199 14.5469 13.4556C14.5009 13.4529 14.4548 13.4508 14.4082 13.4508C13.3411 13.4508 12.4635 14.2619 12.3575 15.301V15.3013C12.2791 16.1625 12.1356 16.7885 11.768 17.1744C11.3501 17.5685 10.61 17.7697 9.8609 17.8184H9.86536C8.75934 17.8556 7.87402 18.7635 7.87402 19.8783C7.87402 21.0166 8.79689 21.9394 9.93521 21.9394C11.0026 21.9394 11.8801 21.1288 11.9859 20.0896V20.0893V20.0889C12.0646 19.2261 12.2085 18.5991 12.5778 18.2135L12.5781 18.2132L12.5842 18.2074C13.0039 17.8187 13.7389 17.6203 14.4825 17.5722H14.4784C15.5843 17.5351 16.4694 16.6272 16.4694 15.5121L16.4673 15.421C16.5771 14.7985 16.7006 14.1869 17.0953 13.8067C17.5112 13.4058 18.2575 13.2016 19.0134 13.1525H19.0089C20.1148 13.1153 21.0003 12.2075 21.0003 11.0926C21.0003 9.9543 20.0774 9.03143 18.9391 9.03143C18.8702 9.03143 18.8016 9.03479 18.7345 9.04131C18.1555 8.93632 17.5999 8.80403 17.245 8.43582C16.844 8.01958 16.6398 7.27325 16.5911 6.51775V6.52187C16.5539 5.41594 15.6461 4.53087 14.5309 4.53087L14.4399 4.53293C13.8174 4.42316 13.2057 4.29935 12.8256 3.90493C12.4247 3.48904 12.2205 2.74239 12.1713 1.98688V1.99133C12.1342 0.885407 11.2263 0 10.1115 0Z" fill="white" style="fill:white;fill-opacity:1;"/>
</mask>
<g mask="url(#mask0_808_1380)">
<path fill-rule="evenodd" clip-rule="evenodd" d="M10.1115 0C8.97319 0 8.05023 0.922867 8.05023 2.06119C8.05023 3.12863 8.86099 4.00621 9.90009 4.1119H9.90042H9.90075C10.7917 4.19333 11.4312 4.34402 11.8131 4.74051C12.1874 5.12884 12.3388 5.78339 12.4744 6.45331C12.4717 6.49938 12.4697 6.54542 12.4697 6.59206C12.4697 7.65916 13.2807 8.53675 14.3199 8.64276H14.3202C15.2114 8.72387 15.8506 8.87489 16.2328 9.27137C16.5972 9.64983 16.75 10.2803 16.8836 10.9321C16.8011 11.797 16.6487 12.4195 16.2597 12.7942C15.8714 13.1685 15.2168 13.3199 14.5469 13.4556C14.5009 13.4529 14.4548 13.4508 14.4082 13.4508C13.3411 13.4508 12.4635 14.2619 12.3575 15.301V15.3013C12.2791 16.1625 12.1356 16.7885 11.768 17.1744C11.3501 17.5685 10.61 17.7697 9.8609 17.8184H9.86536C8.75934 17.8556 7.87402 18.7635 7.87402 19.8783C7.87402 21.0166 8.79689 21.9394 9.93521 21.9394C11.0026 21.9394 11.8801 21.1288 11.9859 20.0896V20.0893V20.0889C12.0646 19.2261 12.2085 18.5991 12.5778 18.2135L12.5781 18.2132L12.5842 18.2074C13.0039 17.8187 13.7389 17.6203 14.4825 17.5722H14.4784C15.5843 17.5351 16.4694 16.6272 16.4694 15.5121L16.4673 15.421C16.5771 14.7985 16.7006 14.1869 17.0953 13.8067C17.5112 13.4058 18.2575 13.2016 19.0134 13.1525H19.0089C20.1148 13.1153 21.0003 12.2075 21.0003 11.0926C21.0003 9.9543 20.0774 9.03143 18.9391 9.03143C18.8702 9.03143 18.8016 9.03479 18.7345 9.04131C18.1555 8.93632 17.5999 8.80403 17.245 8.43582C16.844 8.01958 16.6398 7.27325 16.5911 6.51775V6.52187C16.5539 5.41594 15.6461 4.53087 14.5309 4.53087L14.4399 4.53293C13.8174 4.42316 13.2057 4.29935 12.8256 3.90493C12.4247 3.48904 12.2205 2.74239 12.1713 1.98688V1.99133C12.1342 0.885407 11.2263 0 10.1115 0Z" fill="#E5614D" style="fill:#E5614D;fill:color(display-p3 0.8980 0.3804 0.3020);fill-opacity:1;"/>
</g>
<path fill-rule="evenodd" clip-rule="evenodd" d="M5.86639 13.5254C4.87336 13.5254 4.06836 14.3304 4.06836 15.3234C4.06836 16.3165 4.87336 17.1215 5.86639 17.1215C6.85945 17.1215 7.66445 16.3165 7.66445 15.3234C7.66445 14.3304 6.85945 13.5254 5.86639 13.5254Z" fill="#E5614D" style="fill:#E5614D;fill:color(display-p3 0.8980 0.3804 0.3020);fill-opacity:1;"/>
<path fill-rule="evenodd" clip-rule="evenodd" d="M9.78004 8.95801C8.63732 8.95801 7.71094 9.88439 7.71094 11.0271C7.71094 12.1698 8.63732 13.0961 9.78004 13.0961C10.9227 13.0961 11.8491 12.1698 11.8491 11.0271C11.8491 9.88439 10.9227 8.95801 9.78004 8.95801Z" fill="#E5614D" style="fill:#E5614D;fill:color(display-p3 0.8980 0.3804 0.3020);fill-opacity:1;"/>
<path d="M61.88 40.9555L62.235 40.6375L62.668 40.8355C62.986 40.9805 63.295 41.1365 63.603 41.2935C64.243 41.6175 64.846 41.9245 65.513 42.1115C67.005 42.5305 68.611 42.7355 70.423 42.7355C71.734 42.7355 73.176 42.6275 74.833 42.4025C75.259 42.3525 75.707 42.1685 76.066 42.0215C76.552 41.8095 76.876 41.5635 76.963 41.3375C76.982 41.2885 77.041 41.1365 76.893 40.8065C76.722 40.4315 76.54 40.0535 76.359 39.6755C76.066 39.0675 75.773 38.4585 75.514 37.8425C74.268 34.9125 73.03 31.9705 71.813 29.0285C71.605 28.5195 71.011 28.1835 70.047 28.0295C69.345 27.9165 68.546 27.8635 67.534 27.8635L46.997 27.8535L26.47 27.8625C25.459 27.8625 24.657 27.9155 23.947 28.0285C22.983 28.1835 22.388 28.5185 22.181 29.0245C21.019 31.8535 19.773 34.8205 18.478 37.8445C18.236 38.4185 17.964 38.9895 17.691 39.5595C17.493 39.9735 17.296 40.3875 17.111 40.8025C16.957 41.1385 17.014 41.2885 17.033 41.3375C17.119 41.5625 17.443 41.8075 17.944 42.0265C18.348 42.1895 18.759 42.3535 19.147 42.3995C23.126 42.9395 25.911 42.8335 28.492 42.1105C29.146 41.9245 29.747 41.6195 30.382 41.2975C30.693 41.1395 31.005 40.9815 31.326 40.8355L31.76 40.6375L32.116 40.9555C33.407 42.1125 36.107 42.8295 39.162 42.8295C42.266 42.8295 45.081 42.0805 46.507 40.8735L46.988 40.4505L46.998 40.4585L47.02 40.4395L47.261 40.6805L47.489 40.8725C48.92 42.0795 51.735 42.8295 54.838 42.8295C57.889 42.8295 60.589 42.1125 61.88 40.9555ZM48.114 40.1295L47.052 39.2355L46.932 39.2465L45.882 40.1305C44.618 41.1975 42.043 41.8595 39.163 41.8595C36.388 41.8595 33.878 41.2215 32.769 40.2345L31.937 39.4985L30.927 39.9555C30.598 40.1065 30.274 40.2685 29.95 40.4305L29.823 40.4925C29.275 40.7665 28.757 41.0265 28.218 41.1715C25.724 41.8745 23.136 41.9575 19.288 41.4435C19.119 41.4085 18.976 41.3725 18.832 41.3245L18.004 41.0485L18.489 40.1485C18.52 40.0825 18.553 40.0165 18.587 39.9535C18.848 39.4015 19.127 38.8145 19.387 38.2185C20.61 35.3455 21.816 32.4565 23.012 29.5675L23.124 29.2965L23.393 29.1785C23.59 29.0925 23.831 29.0285 24.108 28.9885C24.753 28.8865 25.53 28.8355 26.47 28.8355C40.154 28.8255 53.841 28.8255 67.536 28.8355C68.48 28.8355 69.254 28.8865 69.9 28.9905C70.167 29.0285 70.408 29.0925 70.603 29.1785L70.872 29.2965L70.984 29.5675C72.18 32.4565 73.396 35.3445 74.621 38.2345C74.87 38.8155 75.148 39.3995 75.424 39.9735L75.466 40.0555C75.516 40.1535 75.565 40.2495 75.607 40.3515L75.909 41.0765L75.164 41.3245C75.016 41.3735 74.879 41.4105 74.755 41.4355C70.976 41.9475 68.284 41.8675 65.784 41.1805C65.263 41.0295 64.768 40.7855 64.244 40.5265L64.049 40.4305C63.721 40.2665 63.398 40.1045 63.065 39.9515L62.06 39.4965L61.236 40.2315C60.112 41.2205 57.599 41.8575 54.832 41.8575C51.953 41.8595 49.379 41.1965 48.114 40.1295Z" fill="#BBE2FA" style="fill:#BBE2FA;fill:color(display-p3 0.7333 0.8863 0.9804);fill-opacity:1;"/>
<path d="M42.0627 23.1224C42.0727 23.5314 41.8977 23.9494 41.5857 24.2714C41.2747 24.5924 40.8557 24.7774 40.4367 24.7774C39.5897 24.7774 38.8407 24.0374 38.8207 23.2004C38.8107 22.7814 38.9957 22.3634 39.3077 22.0324C39.6187 21.7114 40.0377 21.5264 40.4567 21.5264C41.2647 21.5254 42.0427 22.3044 42.0627 23.1224Z" fill="#060054" style="fill:#060054;fill:color(display-p3 0.0235 0.0000 0.3294);fill-opacity:1;"/>
<path d="M29.1755 23.1312C29.1855 23.5302 29.0105 23.9392 28.6985 24.2602C28.3775 24.5812 27.9585 24.7762 27.5405 24.7762V25.2632L27.5305 24.7762C26.7035 24.7662 25.9345 24.0072 25.9145 23.1802C25.9045 22.7712 26.0795 22.3532 26.4015 22.0312C26.7125 21.7102 27.1215 21.5352 27.5505 21.5352C28.3865 21.5452 29.1555 22.3042 29.1755 23.1312Z" fill="#060054" style="fill:#060054;fill:color(display-p3 0.0235 0.0000 0.3294);fill-opacity:1;"/>
<path d="M35.5707 23.1621C35.5607 24.0871 34.8987 24.7581 34.0037 24.7681L33.9847 25.2551V24.7681C33.5657 24.7681 33.1667 24.6021 32.8747 24.3011C32.5637 23.9901 32.3977 23.5611 32.4077 23.0941C32.4267 22.2471 33.1477 21.5371 34.0237 21.5371C34.9087 21.5561 35.5797 22.2561 35.5707 23.1621Z" fill="#060054" style="fill:#060054;fill:color(display-p3 0.0235 0.0000 0.3294);fill-opacity:1;"/>
<path d="M71.9371 59.937C71.9371 61.874 70.3701 63.451 68.4331 63.451H25.4691C23.5321 63.451 21.9551 61.874 21.9551 59.937V44.636C21.2251 44.587 20.4461 44.519 19.6191 44.422V59.937C19.6191 63.169 22.2371 65.787 25.4691 65.787H68.4331C71.6451 65.787 74.2831 63.169 74.2831 59.937V44.431C73.4651 44.528 72.6871 44.596 71.9371 44.635V59.937ZM68.4331 16H25.4691C22.2371 16 19.6191 18.628 19.6191 21.86V30.133C19.8721 29.51 20.1251 28.897 20.3781 28.284C20.6021 27.739 21.0501 27.097 21.9551 26.639V21.86C21.9551 19.923 23.5321 18.346 25.4691 18.346H68.4331C70.3701 18.346 71.9371 19.923 71.9371 21.86V26.581C72.9101 27.048 73.3871 27.72 73.6211 28.294C73.8351 28.82 74.0591 29.355 74.2831 29.881V21.861C74.2831 18.628 71.6451 16 68.4331 16Z" fill="#060054" style="fill:#060054;fill:color(display-p3 0.0235 0.0000 0.3294);fill-opacity:1;"/>
<path d="M30.0808 31.6296C29.8468 31.3666 29.5158 31.2106 29.1758 31.2016L28.6798 31.1826C28.0178 31.1826 27.4628 31.6786 27.4048 32.3406L26.9858 37.1006C26.9568 37.4506 27.0738 37.8016 27.2968 38.0546C27.5308 38.3176 27.8618 38.4736 28.2118 38.4926L28.6988 38.5026C29.3708 38.5026 29.9158 38.0066 29.9738 37.3446L30.3928 32.5846C30.4218 32.2426 30.3148 31.8926 30.0808 31.6296ZM29.0008 37.2556C28.9908 37.4116 28.8648 37.5286 28.6988 37.5286L28.2608 37.5186C28.1728 37.5186 28.0758 37.4696 28.0178 37.4116C27.9688 37.3536 27.9498 37.2656 27.9498 37.1876L28.3688 32.4276C28.3878 32.2716 28.5148 32.1546 28.6418 32.1546L29.1478 32.1736C29.2158 32.1736 29.2938 32.2126 29.3518 32.2706C29.4008 32.3286 29.4298 32.4166 29.4198 32.4946L29.0008 37.2556Z" fill="#BBE2FA" style="fill:#BBE2FA;fill:color(display-p3 0.7333 0.8863 0.9804);fill-opacity:1;"/>
<path d="M41.2757 31.1816H40.8277C40.1267 31.1816 39.5527 31.7556 39.5527 32.4566V37.2256C39.5527 37.9266 40.1267 38.5006 40.8277 38.5006H41.2757C41.9867 38.5006 42.5507 37.9266 42.5507 37.2256V32.4566C42.5507 31.7556 41.9857 31.1816 41.2757 31.1816ZM41.5767 37.2266C41.5767 37.3916 41.4407 37.5286 41.2747 37.5286H40.8267C40.6607 37.5286 40.5247 37.3926 40.5247 37.2266V32.4576C40.5247 32.2926 40.6607 32.1556 40.8267 32.1556H41.2747C41.4407 32.1556 41.5767 32.2916 41.5767 32.4576V37.2266Z" fill="#BBE2FA" style="fill:#BBE2FA;fill:color(display-p3 0.7333 0.8863 0.9804);fill-opacity:1;"/>
<path d="M55.4045 37.0996L54.9855 32.3396C54.9275 31.6776 54.3825 31.1816 53.6715 31.1816L53.2235 31.2006C52.8735 31.2106 52.5425 31.3656 52.3185 31.6286C52.0845 31.8916 51.9685 32.2416 51.9975 32.5826L52.4255 37.3426C52.4835 38.0046 53.0285 38.5006 53.6905 38.5006L54.1865 38.4906C54.5365 38.4716 54.8675 38.3156 55.0915 38.0526C55.3265 37.7906 55.4435 37.4496 55.4045 37.0996ZM54.3535 37.4206C54.3045 37.4786 54.2175 37.5176 54.1685 37.5176L53.6815 37.5276C53.5255 37.5276 53.4085 37.4106 53.3895 37.2546L52.9615 32.4946C52.9615 32.4266 52.9905 32.3386 53.0585 32.2606C53.0975 32.2116 53.1755 32.1726 53.2625 32.1726L53.6715 32.1536C53.8665 32.1536 54.0025 32.2606 54.0125 32.4266L54.4315 37.2056C54.4405 37.2946 54.4025 37.3626 54.3535 37.4206Z" fill="#BBE2FA" style="fill:#BBE2FA;fill:color(display-p3 0.7333 0.8863 0.9804);fill-opacity:1;"/>
<path d="M66.9133 37.0996L66.4943 32.3396C66.4363 31.6776 65.8913 31.1816 65.1803 31.1816L64.7323 31.2006C64.3823 31.2106 64.0513 31.3656 63.8273 31.6286C63.5933 31.8916 63.4773 32.2416 63.5063 32.5826L63.9343 37.3426C63.9923 38.0046 64.5373 38.5006 65.1993 38.5006L65.6953 38.4906C66.0453 38.4716 66.3763 38.3156 66.6003 38.0526C66.8353 37.7906 66.9513 37.4496 66.9133 37.0996ZM65.8523 37.4206C65.8133 37.4786 65.7253 37.5176 65.6773 37.5176L65.1903 37.5276C65.0343 37.5276 64.9173 37.4106 64.8983 37.2546L64.4703 32.4946C64.4703 32.4266 64.4993 32.3386 64.5673 32.2606C64.6063 32.2026 64.6843 32.1726 64.7713 32.1726L65.1803 32.1536C65.3753 32.1536 65.5113 32.2606 65.5213 32.4266L65.9403 37.2056C65.9493 37.2946 65.9103 37.3626 65.8523 37.4206Z" fill="#BBE2FA" style="fill:#BBE2FA;fill:color(display-p3 0.7333 0.8863 0.9804);fill-opacity:1;"/>
</svg>
