<svg width="78" height="66" viewBox="0 0 78 66" fill="none" xmlns="http://www.w3.org/2000/svg">
<path d="M69.666 65.431L33.658 65.429C29.154 65.428 26.009 62.281 26.009 57.776V49.643C26.01 40.523 26.01 31.401 26 22.281C25.998 20.914 26.473 19.786 27.451 18.833C31.236 15.143 35.004 11.435 38.766 7.721C39.923 6.579 41.338 6 42.97 6L69.799 6.004C74.057 6.006 77.27 9.234 77.273 13.51C77.276 18.276 77.276 23.042 77.275 27.809L77.276 57.802C77.277 59.963 76.52 61.911 75.143 63.291C73.769 64.671 71.824 65.431 69.666 65.431ZM69.666 63.073C71.215 63.073 72.533 62.573 73.477 61.626C74.421 60.679 74.92 59.357 74.92 57.803L74.919 27.809C74.92 23.043 74.92 18.278 74.917 13.512C74.915 10.481 72.81 8.363 69.799 8.362L42.971 8.359C41.954 8.359 41.144 8.69 40.424 9.4C36.659 13.118 32.887 16.829 29.098 20.522C28.579 21.028 28.358 21.553 28.359 22.278C28.369 31.399 28.368 40.521 28.368 49.642V57.775C28.368 60.991 30.445 63.069 33.659 63.07L58.967 63.071L69.664 63.072" fill="#060054" style="fill:#060054;fill:color(display-p3 0.0235 0.0000 0.3294);fill-opacity:1;"/>
<path d="M51.644 58.6492L34.245 58.6482C33.144 58.6482 32.791 58.3042 32.791 57.2342L32.79 26.0702C32.79 25.9522 32.797 25.8342 32.806 25.6922L32.84 25.0222H40.878C43.593 25.0222 45.027 23.5972 45.027 20.9032V12.7852H68.922C70.184 12.7852 70.493 13.0912 70.494 14.3412L70.493 57.1672C70.493 58.3022 70.154 58.6482 69.04 58.6482L51.644 58.6492ZM33.781 57.6792C33.802 57.6792 33.914 57.7052 34.245 57.7052L51.643 57.7062L69.041 57.7052C69.408 57.7052 69.502 57.6752 69.527 57.6612C69.521 57.6522 69.551 57.5452 69.551 57.1682L69.552 14.3432C69.552 14.0082 69.535 13.8102 69.505 13.7512C69.472 13.7452 69.268 13.7292 68.924 13.7292H45.973V20.9052C45.973 24.1222 44.116 25.9672 40.879 25.9672H33.737C33.736 26.0022 33.735 26.0362 33.735 26.0702L33.736 57.2342C33.736 57.5782 33.768 57.6622 33.779 57.6802C33.779 57.6792 33.779 57.6792 33.781 57.6792Z" fill="#BBE2FA" style="fill:#BBE2FA;fill:color(display-p3 0.7333 0.8863 0.9804);fill-opacity:1;"/>
<path d="M64.8964 37.6826H39.4404V38.6256H64.8964V37.6826Z" fill="#BBE2FA" style="fill:#BBE2FA;fill:color(display-p3 0.7333 0.8863 0.9804);fill-opacity:1;"/>
<path d="M64.8964 44.71H39.4404V45.653H64.8964V44.71Z" fill="#BBE2FA" style="fill:#BBE2FA;fill:color(display-p3 0.7333 0.8863 0.9804);fill-opacity:1;"/>
<path d="M64.8964 51.7354H39.4404V52.6784H64.8964V51.7354Z" fill="#BBE2FA" style="fill:#BBE2FA;fill:color(display-p3 0.7333 0.8863 0.9804);fill-opacity:1;"/>
<path d="M55.1276 23.873L55.1898 22.2315L58.2485 27.5772H55.9778L54.0597 23.873L54.9566 24.001L53.562 25.957L53.7279 24.6192V27.5772H51.6387V19.7158H53.7279V23.6385L53.3443 23.4786L55.9208 19.7158H58.1137L55.1276 23.873Z" fill="#060054" style="fill:#060054;fill:color(display-p3 0.0235 0.0000 0.3294);fill-opacity:1;"/>
<path d="M61.6785 27.7158C61.0184 27.7158 60.4516 27.5861 59.9781 27.3267C59.5046 27.0674 59.1417 26.712 58.8894 26.2608C58.6371 25.8095 58.511 25.2961 58.511 24.7205C58.511 24.1413 58.6371 23.6332 58.8894 23.1962C59.1417 22.7591 59.5046 22.418 59.9781 22.1728C60.4516 21.9241 61.0184 21.7998 61.6785 21.7998C62.1658 21.7998 62.5944 21.8708 62.9642 22.013C63.334 22.1551 63.6416 22.3434 63.887 22.5779C64.1358 22.8089 64.3224 23.0629 64.4469 23.3401C64.5747 23.6172 64.6387 23.8926 64.6387 24.1662C64.6387 24.1733 64.6387 24.1822 64.6387 24.1928C64.6387 24.1999 64.6387 24.207 64.6387 24.2142H62.5702C62.5702 24.1928 62.5685 24.1733 62.565 24.1555C62.565 24.1378 62.5615 24.12 62.5546 24.1022C62.527 24.0098 62.4838 23.9139 62.425 23.8144C62.3663 23.7149 62.2764 23.6314 62.1554 23.5639C62.0379 23.4929 61.872 23.4573 61.6578 23.4573C61.4469 23.4573 61.2638 23.5071 61.1082 23.6066C60.9562 23.706 60.8387 23.85 60.7557 24.0383C60.6728 24.2266 60.6313 24.454 60.6313 24.7205C60.6313 24.9799 60.6728 25.2108 60.7557 25.4134C60.8387 25.6159 60.9562 25.774 61.1082 25.8877C61.2638 26.0014 61.4469 26.0583 61.6578 26.0583C61.8651 26.0583 62.031 26.0263 62.1554 25.9623C62.2833 25.8984 62.3784 25.8113 62.4406 25.7012C62.5062 25.5875 62.5477 25.4595 62.565 25.3174H64.6387C64.6387 25.5875 64.5747 25.8646 64.4469 26.1489C64.3224 26.4296 64.1358 26.6889 63.887 26.927C63.6416 27.1615 63.334 27.3516 62.9642 27.4973C62.5944 27.643 62.1658 27.7158 61.6785 27.7158ZM59.5945 19.7158H60.8646L61.8392 20.883H61.3052L62.2902 19.7158H63.5655L62.228 21.2668H60.9372L59.5945 19.7158Z" fill="#060054" style="fill:#060054;fill:color(display-p3 0.0235 0.0000 0.3294);fill-opacity:1;"/>
<path fill-rule="evenodd" clip-rule="evenodd" d="M0 10.8568C0 11.63 0.626822 12.2567 1.39994 12.2567C2.17306 12.2567 2.79976 11.63 2.79976 10.8568C2.79976 10.0837 2.17306 9.45703 1.39994 9.45703C0.626822 9.45703 0 10.0837 0 10.8568Z" fill="#E5614D" style="fill:#E5614D;fill:color(display-p3 0.8980 0.3804 0.3020);fill-opacity:1;"/>
<path fill-rule="evenodd" clip-rule="evenodd" d="M5.86639 5.00488C4.87336 5.00488 4.06836 5.80997 4.06836 6.80294C4.06836 7.79597 4.87336 8.60106 5.86639 8.60106C6.85945 8.60106 7.66445 7.79597 7.66445 6.80294C7.66445 5.80997 6.85945 5.00488 5.86639 5.00488Z" fill="#E5614D" style="fill:#E5614D;fill:color(display-p3 0.8980 0.3804 0.3020);fill-opacity:1;"/>
<mask id="mask0_808_1290" style="mask-type:luminance" maskUnits="userSpaceOnUse" x="7" y="0" width="14" height="22">
<path fill-rule="evenodd" clip-rule="evenodd" d="M10.1115 0C8.97319 0 8.05023 0.922867 8.05023 2.06119C8.05023 3.12863 8.86099 4.00621 9.90009 4.1119H9.90042H9.90075C10.7917 4.19333 11.4312 4.34402 11.8131 4.74051C12.1874 5.12884 12.3388 5.78339 12.4744 6.45331C12.4717 6.49938 12.4697 6.54542 12.4697 6.59206C12.4697 7.65916 13.2807 8.53675 14.3199 8.64276H14.3202C15.2114 8.72387 15.8506 8.87489 16.2328 9.27137C16.5972 9.64983 16.75 10.2803 16.8836 10.9321C16.8011 11.797 16.6487 12.4195 16.2597 12.7942C15.8714 13.1685 15.2168 13.3199 14.5469 13.4556C14.5009 13.4529 14.4548 13.4508 14.4082 13.4508C13.3411 13.4508 12.4635 14.2619 12.3575 15.301V15.3013C12.2791 16.1625 12.1356 16.7885 11.768 17.1744C11.3501 17.5685 10.61 17.7697 9.8609 17.8184H9.86536C8.75934 17.8556 7.87402 18.7635 7.87402 19.8783C7.87402 21.0166 8.79689 21.9394 9.93521 21.9394C11.0026 21.9394 11.8801 21.1288 11.9859 20.0896V20.0893V20.0889C12.0646 19.2261 12.2085 18.5991 12.5778 18.2135L12.5781 18.2132L12.5842 18.2074C13.0039 17.8187 13.7389 17.6203 14.4825 17.5722H14.4784C15.5843 17.5351 16.4694 16.6272 16.4694 15.5121L16.4673 15.421C16.5771 14.7985 16.7006 14.1869 17.0953 13.8067C17.5112 13.4058 18.2575 13.2016 19.0134 13.1525H19.0089C20.1148 13.1153 21.0003 12.2075 21.0003 11.0926C21.0003 9.9543 20.0774 9.03143 18.9391 9.03143C18.8702 9.03143 18.8016 9.03479 18.7345 9.04131C18.1555 8.93632 17.5999 8.80403 17.245 8.43582C16.844 8.01958 16.6398 7.27325 16.5911 6.51775V6.52187C16.5539 5.41594 15.6461 4.53087 14.5309 4.53087L14.4399 4.53293C13.8174 4.42316 13.2057 4.29935 12.8256 3.90493C12.4247 3.48904 12.2205 2.74239 12.1713 1.98688V1.99133C12.1342 0.885407 11.2263 0 10.1115 0Z" fill="white" style="fill:white;fill-opacity:1;"/>
</mask>
<g mask="url(#mask0_808_1290)">
<path fill-rule="evenodd" clip-rule="evenodd" d="M10.1115 0C8.97319 0 8.05023 0.922867 8.05023 2.06119C8.05023 3.12863 8.86099 4.00621 9.90009 4.1119H9.90042H9.90075C10.7917 4.19333 11.4312 4.34402 11.8131 4.74051C12.1874 5.12884 12.3388 5.78339 12.4744 6.45331C12.4717 6.49938 12.4697 6.54542 12.4697 6.59206C12.4697 7.65916 13.2807 8.53675 14.3199 8.64276H14.3202C15.2114 8.72387 15.8506 8.87489 16.2328 9.27137C16.5972 9.64983 16.75 10.2803 16.8836 10.9321C16.8011 11.797 16.6487 12.4195 16.2597 12.7942C15.8714 13.1685 15.2168 13.3199 14.5469 13.4556C14.5009 13.4529 14.4548 13.4508 14.4082 13.4508C13.3411 13.4508 12.4635 14.2619 12.3575 15.301V15.3013C12.2791 16.1625 12.1356 16.7885 11.768 17.1744C11.3501 17.5685 10.61 17.7697 9.8609 17.8184H9.86536C8.75934 17.8556 7.87402 18.7635 7.87402 19.8783C7.87402 21.0166 8.79689 21.9394 9.93521 21.9394C11.0026 21.9394 11.8801 21.1288 11.9859 20.0896V20.0893V20.0889C12.0646 19.2261 12.2085 18.5991 12.5778 18.2135L12.5781 18.2132L12.5842 18.2074C13.0039 17.8187 13.7389 17.6203 14.4825 17.5722H14.4784C15.5843 17.5351 16.4694 16.6272 16.4694 15.5121L16.4673 15.421C16.5771 14.7985 16.7006 14.1869 17.0953 13.8067C17.5112 13.4058 18.2575 13.2016 19.0134 13.1525H19.0089C20.1148 13.1153 21.0003 12.2075 21.0003 11.0926C21.0003 9.9543 20.0774 9.03143 18.9391 9.03143C18.8702 9.03143 18.8016 9.03479 18.7345 9.04131C18.1555 8.93632 17.5999 8.80403 17.245 8.43582C16.844 8.01958 16.6398 7.27325 16.5911 6.51775V6.52187C16.5539 5.41594 15.6461 4.53087 14.5309 4.53087L14.4399 4.53293C13.8174 4.42316 13.2057 4.29935 12.8256 3.90493C12.4247 3.48904 12.2205 2.74239 12.1713 1.98688V1.99133C12.1342 0.885407 11.2263 0 10.1115 0Z" fill="#E5614D" style="fill:#E5614D;fill:color(display-p3 0.8980 0.3804 0.3020);fill-opacity:1;"/>
</g>
<path fill-rule="evenodd" clip-rule="evenodd" d="M5.86639 13.5254C4.87336 13.5254 4.06836 14.3304 4.06836 15.3234C4.06836 16.3165 4.87336 17.1215 5.86639 17.1215C6.85945 17.1215 7.66445 16.3165 7.66445 15.3234C7.66445 14.3304 6.85945 13.5254 5.86639 13.5254Z" fill="#E5614D" style="fill:#E5614D;fill:color(display-p3 0.8980 0.3804 0.3020);fill-opacity:1;"/>
<path fill-rule="evenodd" clip-rule="evenodd" d="M9.78004 8.95801C8.63732 8.95801 7.71094 9.88439 7.71094 11.0271C7.71094 12.1698 8.63732 13.0961 9.78004 13.0961C10.9227 13.0961 11.8491 12.1698 11.8491 11.0271C11.8491 9.88439 10.9227 8.95801 9.78004 8.95801Z" fill="#E5614D" style="fill:#E5614D;fill:color(display-p3 0.8980 0.3804 0.3020);fill-opacity:1;"/>
</svg>
