<svg width="71" height="59" viewBox="0 0 71 59" fill="none" xmlns="http://www.w3.org/2000/svg">
<path fill-rule="evenodd" clip-rule="evenodd" d="M0 10.8568C0 11.63 0.626822 12.2567 1.39994 12.2567C2.17306 12.2567 2.79976 11.63 2.79976 10.8568C2.79976 10.0837 2.17306 9.45703 1.39994 9.45703C0.626822 9.45703 0 10.0837 0 10.8568Z" fill="#E5614D" style="fill:#E5614D;fill:color(display-p3 0.8980 0.3804 0.3020);fill-opacity:1;"/>
<path fill-rule="evenodd" clip-rule="evenodd" d="M5.86639 5.00488C4.87336 5.00488 4.06836 5.80997 4.06836 6.80294C4.06836 7.79597 4.87336 8.60106 5.86639 8.60106C6.85945 8.60106 7.66445 7.79597 7.66445 6.80294C7.66445 5.80997 6.85945 5.00488 5.86639 5.00488Z" fill="#E5614D" style="fill:#E5614D;fill:color(display-p3 0.8980 0.3804 0.3020);fill-opacity:1;"/>
<mask id="mask0_808_1347" style="mask-type:luminance" maskUnits="userSpaceOnUse" x="7" y="0" width="14" height="22">
<path fill-rule="evenodd" clip-rule="evenodd" d="M10.1115 0C8.97319 0 8.05023 0.922867 8.05023 2.06119C8.05023 3.12863 8.86099 4.00621 9.90009 4.1119H9.90042H9.90075C10.7917 4.19333 11.4312 4.34402 11.8131 4.74051C12.1874 5.12884 12.3388 5.78339 12.4744 6.45331C12.4717 6.49938 12.4697 6.54542 12.4697 6.59206C12.4697 7.65916 13.2807 8.53675 14.3199 8.64276H14.3202C15.2114 8.72387 15.8506 8.87489 16.2328 9.27137C16.5972 9.64983 16.75 10.2803 16.8836 10.9321C16.8011 11.797 16.6487 12.4195 16.2597 12.7942C15.8714 13.1685 15.2168 13.3199 14.5469 13.4556C14.5009 13.4529 14.4548 13.4508 14.4082 13.4508C13.3411 13.4508 12.4635 14.2619 12.3575 15.301V15.3013C12.2791 16.1625 12.1356 16.7885 11.768 17.1744C11.3501 17.5685 10.61 17.7697 9.8609 17.8184H9.86536C8.75934 17.8556 7.87402 18.7635 7.87402 19.8783C7.87402 21.0166 8.79689 21.9394 9.93521 21.9394C11.0026 21.9394 11.8801 21.1288 11.9859 20.0896V20.0893V20.0889C12.0646 19.2261 12.2085 18.5991 12.5778 18.2135L12.5781 18.2132L12.5842 18.2074C13.0039 17.8187 13.7389 17.6203 14.4825 17.5722H14.4784C15.5843 17.5351 16.4694 16.6272 16.4694 15.5121L16.4673 15.421C16.5771 14.7985 16.7006 14.1869 17.0953 13.8067C17.5112 13.4058 18.2575 13.2016 19.0134 13.1525H19.0089C20.1148 13.1153 21.0003 12.2075 21.0003 11.0926C21.0003 9.9543 20.0774 9.03143 18.9391 9.03143C18.8702 9.03143 18.8016 9.03479 18.7345 9.04131C18.1555 8.93632 17.5999 8.80403 17.245 8.43582C16.844 8.01958 16.6398 7.27325 16.5911 6.51775V6.52187C16.5539 5.41594 15.6461 4.53087 14.5309 4.53087L14.4399 4.53293C13.8174 4.42316 13.2057 4.29935 12.8256 3.90493C12.4247 3.48904 12.2205 2.74239 12.1713 1.98688V1.99133C12.1342 0.885407 11.2263 0 10.1115 0Z" fill="white" style="fill:white;fill-opacity:1;"/>
</mask>
<g mask="url(#mask0_808_1347)">
<path fill-rule="evenodd" clip-rule="evenodd" d="M10.1115 0C8.97319 0 8.05023 0.922867 8.05023 2.06119C8.05023 3.12863 8.86099 4.00621 9.90009 4.1119H9.90042H9.90075C10.7917 4.19333 11.4312 4.34402 11.8131 4.74051C12.1874 5.12884 12.3388 5.78339 12.4744 6.45331C12.4717 6.49938 12.4697 6.54542 12.4697 6.59206C12.4697 7.65916 13.2807 8.53675 14.3199 8.64276H14.3202C15.2114 8.72387 15.8506 8.87489 16.2328 9.27137C16.5972 9.64983 16.75 10.2803 16.8836 10.9321C16.8011 11.797 16.6487 12.4195 16.2597 12.7942C15.8714 13.1685 15.2168 13.3199 14.5469 13.4556C14.5009 13.4529 14.4548 13.4508 14.4082 13.4508C13.3411 13.4508 12.4635 14.2619 12.3575 15.301V15.3013C12.2791 16.1625 12.1356 16.7885 11.768 17.1744C11.3501 17.5685 10.61 17.7697 9.8609 17.8184H9.86536C8.75934 17.8556 7.87402 18.7635 7.87402 19.8783C7.87402 21.0166 8.79689 21.9394 9.93521 21.9394C11.0026 21.9394 11.8801 21.1288 11.9859 20.0896V20.0893V20.0889C12.0646 19.2261 12.2085 18.5991 12.5778 18.2135L12.5781 18.2132L12.5842 18.2074C13.0039 17.8187 13.7389 17.6203 14.4825 17.5722H14.4784C15.5843 17.5351 16.4694 16.6272 16.4694 15.5121L16.4673 15.421C16.5771 14.7985 16.7006 14.1869 17.0953 13.8067C17.5112 13.4058 18.2575 13.2016 19.0134 13.1525H19.0089C20.1148 13.1153 21.0003 12.2075 21.0003 11.0926C21.0003 9.9543 20.0774 9.03143 18.9391 9.03143C18.8702 9.03143 18.8016 9.03479 18.7345 9.04131C18.1555 8.93632 17.5999 8.80403 17.245 8.43582C16.844 8.01958 16.6398 7.27325 16.5911 6.51775V6.52187C16.5539 5.41594 15.6461 4.53087 14.5309 4.53087L14.4399 4.53293C13.8174 4.42316 13.2057 4.29935 12.8256 3.90493C12.4247 3.48904 12.2205 2.74239 12.1713 1.98688V1.99133C12.1342 0.885407 11.2263 0 10.1115 0Z" fill="#E5614D" style="fill:#E5614D;fill:color(display-p3 0.8980 0.3804 0.3020);fill-opacity:1;"/>
</g>
<path fill-rule="evenodd" clip-rule="evenodd" d="M5.86639 13.5254C4.87336 13.5254 4.06836 14.3304 4.06836 15.3234C4.06836 16.3165 4.87336 17.1215 5.86639 17.1215C6.85945 17.1215 7.66445 16.3165 7.66445 15.3234C7.66445 14.3304 6.85945 13.5254 5.86639 13.5254Z" fill="#E5614D" style="fill:#E5614D;fill:color(display-p3 0.8980 0.3804 0.3020);fill-opacity:1;"/>
<path fill-rule="evenodd" clip-rule="evenodd" d="M9.78004 8.95801C8.63732 8.95801 7.71094 9.88439 7.71094 11.0271C7.71094 12.1698 8.63732 13.0961 9.78004 13.0961C10.9227 13.0961 11.8491 12.1698 11.8491 11.0271C11.8491 9.88439 10.9227 8.95801 9.78004 8.95801Z" fill="#E5614D" style="fill:#E5614D;fill:color(display-p3 0.8980 0.3804 0.3020);fill-opacity:1;"/>
<path d="M70.1266 38.8483C70.1356 37.3569 69.6313 36.1231 68.5767 35.0757C65.7389 32.2524 62.9191 29.4209 60.0904 26.5624L60.0003 26.4651C59.8112 26.2877 55.4595 22 50.8737 22H50.7656C48.5222 22.009 46.2789 22.018 44.0355 22.018L26.2965 22.009H20.9731C18.0903 22.009 16 23.9885 16 26.7047C16.009 33.2115 16.018 39.7192 16.036 46.217V48.1343C16.054 50.4426 17.721 52.3419 20.0004 52.6706C20.7029 52.7598 21.3883 52.7679 22.0277 52.7679C22.0367 52.7679 22.0367 52.7679 22.0367 52.7679L23.7217 52.7859H23.7937C24.0639 56.2478 27.0098 58.991 30.5959 59H30.6049C34.1992 59 37.1459 56.2658 37.4431 52.7769H48.0107C48.2899 56.2478 51.2357 58.991 54.8219 59H54.8309C58.4162 59 61.3719 56.2658 61.6691 52.7769H65.1103C68.0561 52.7679 70.1104 50.7172 70.1104 47.7966V45.5866C70.1086 43.3396 70.0996 41.0935 70.1266 38.8483ZM30.595 56.78C28.2616 56.771 26.3244 55.0221 26.0542 52.785C26.0272 52.6076 26.0182 52.4302 26.0182 52.2437C26.0182 51.6575 26.1263 51.0901 26.3424 50.5659C26.5676 49.9887 26.9188 49.4654 27.3691 49.0214C28.2337 48.1605 29.3873 47.6894 30.6301 47.6894C32.5583 47.6985 34.2244 48.8881 34.8918 50.5569C35.1079 51.0721 35.216 51.6313 35.216 52.2167C35.216 52.4122 35.207 52.5986 35.18 52.785C34.9008 55.0311 32.9546 56.78 30.6031 56.78M54.821 56.78C52.4786 56.771 50.5414 55.0221 50.2712 52.776C50.2442 52.5986 50.2352 52.4212 50.2352 52.2437C50.2352 51.6575 50.3523 51.0901 50.5684 50.5569C50.7935 49.9887 51.1448 49.4654 51.5951 49.0214C52.4596 48.1605 53.6133 47.6894 54.8471 47.6894C56.7843 47.6985 58.4504 48.8881 59.1177 50.5569C59.3339 51.0721 59.4419 51.6313 59.4419 52.2167C59.4419 52.4032 59.4329 52.5896 59.3969 52.776C59.1177 55.0221 57.1806 56.78 54.8291 56.78M67.8571 45.5857V47.7957C67.8571 49.5176 66.8304 50.5569 65.1004 50.5569H61.4791C60.7406 47.6543 58.0469 45.4884 54.83 45.4704C53.0099 45.4704 51.2898 46.1719 50.001 47.4499C49.1094 48.3289 48.4961 49.3943 48.2079 50.5569H37.2531C36.5146 47.6543 33.821 45.4884 30.604 45.4704C28.7839 45.4704 27.0728 46.1719 25.775 47.4499C24.8925 48.3289 24.2702 49.4033 23.982 50.5659H23.7208L22.0448 50.5479C21.4774 50.5479 20.874 50.5479 20.3147 50.4678C19.153 50.3084 18.2965 49.3141 18.2875 48.1244V46.2161C18.2695 39.7183 18.2605 33.2016 18.2515 26.7038C18.2515 25.2214 19.3412 24.2272 20.9722 24.2272H26.2965L44.0355 24.2362C46.2879 24.2362 48.5313 24.2272 50.7746 24.2182H50.8737C53.9096 24.2182 57.3337 26.9704 58.3874 28.0268L58.4774 28.1069C61.3152 30.9744 64.1259 33.8149 66.9727 36.6473C67.6031 37.2687 67.8823 37.9432 67.8733 38.8312C67.8481 41.0764 67.8571 43.3306 67.8571 45.5857Z" fill="#060054" style="fill:#060054;fill:color(display-p3 0.0235 0.0000 0.3294);fill-opacity:1;"/>
<path d="M53.3706 29.5436C52.7041 28.8952 51.9107 28.5674 51.0101 28.5674L50.893 28.5764H48.9829C47.74 28.5764 47.1357 29.1798 47.1357 30.4226V37.0807C47.1357 38.3235 47.8112 38.9891 49.0819 38.9891H57.9555C58.766 38.9891 59.5774 38.9891 60.406 38.98C60.7482 38.962 61.3426 38.7666 61.5137 38.3586C61.6578 37.9327 61.3606 37.4085 61.1355 37.169C58.5508 34.6221 55.9652 32.0824 53.3706 29.5436ZM60.3889 38.093C59.5783 38.102 58.7669 38.102 57.9564 38.102H49.0828C48.3173 38.102 48.0381 37.8354 48.0381 37.0807V30.4226C48.0381 29.6769 48.2543 29.4635 48.9838 29.4635H50.2626C50.4787 29.4635 50.6949 29.4635 51.0101 29.4545C51.6675 29.4545 52.2349 29.694 52.7401 30.1821C55.3347 32.7119 57.9204 35.2507 60.4879 37.7904C60.551 37.8525 60.605 37.9588 60.641 38.0209C60.56 38.0569 60.4609 38.084 60.3889 38.093Z" fill="#BBE2FA" style="fill:#BBE2FA;fill:color(display-p3 0.7333 0.8863 0.9804);fill-opacity:1;"/>
<path d="M23.2429 30.4163H37.9577C38.58 30.4163 39.0835 29.9192 39.0835 29.3068C39.0835 28.6944 38.5791 28.1973 37.9577 28.1973H23.2429C22.6206 28.1973 22.1172 28.6944 22.1172 29.3068C22.1172 29.9192 22.6215 30.4163 23.2429 30.4163Z" fill="#060054" style="fill:#060054;fill:color(display-p3 0.0235 0.0000 0.3294);fill-opacity:1;"/>
<path d="M26.8474 36.2816H37.958C38.5804 36.2816 39.0838 35.7844 39.0838 35.172C39.0838 34.5596 38.5795 34.0625 37.958 34.0625H26.8474C26.2251 34.0625 25.7217 34.5596 25.7217 35.172C25.7217 35.7844 26.2251 36.2816 26.8474 36.2816Z" fill="#060054" style="fill:#060054;fill:color(display-p3 0.0235 0.0000 0.3294);fill-opacity:1;"/>
<path d="M30.4509 41.6077H37.9583C38.5806 41.6077 39.084 41.1106 39.084 40.4982C39.084 39.8849 38.5797 39.3887 37.9583 39.3887H30.4509C29.8286 39.3887 29.3252 39.8858 29.3252 40.4982C29.3252 41.1115 29.8286 41.6077 30.4509 41.6077Z" fill="#060054" style="fill:#060054;fill:color(display-p3 0.0235 0.0000 0.3294);fill-opacity:1;"/>
<path d="M30.6763 54.712C32.0028 54.712 33.0782 53.6524 33.0782 52.3453C33.0782 51.0381 32.0028 49.9785 30.6763 49.9785C29.3498 49.9785 28.2744 51.0381 28.2744 52.3453C28.2744 53.6524 29.3498 54.712 30.6763 54.712Z" fill="#060054" style="fill:#060054;fill:color(display-p3 0.0235 0.0000 0.3294);fill-opacity:1;"/>
<path d="M54.8726 54.712C56.1991 54.712 57.2745 53.6524 57.2745 52.3453C57.2745 51.0381 56.1991 49.9785 54.8726 49.9785C53.5461 49.9785 52.4707 51.0381 52.4707 52.3453C52.4707 53.6524 53.5461 54.712 54.8726 54.712Z" fill="#060054" style="fill:#060054;fill:color(display-p3 0.0235 0.0000 0.3294);fill-opacity:1;"/>
</svg>
