<svg width="88" height="68" viewBox="0 0 88 68" fill="none" xmlns="http://www.w3.org/2000/svg">
<path d="M58.058 67.7632H58.051C57.924 67.7632 57.78 67.7622 57.637 67.7542L57.118 67.7562C57.055 67.7602 56.942 67.7632 56.832 67.7632C53.473 67.7632 52.46 65.4132 51.953 63.3662C51.622 61.9942 47.796 59.3612 44.978 59.2552C44.848 59.2942 44.705 59.3322 44.553 59.3712C44.06 59.5002 43.446 59.6612 43.111 59.9252C42.084 60.7852 41.067 61.2142 40.028 61.2142C38.244 61.2142 36.934 59.9512 35.667 58.7302C32.909 56.1122 33.91 53.6952 35.084 51.8762C35.764 50.7492 35.676 48.7612 34.84 46.8412C33.955 44.8102 32.484 43.3552 31 43.0452C27.654 42.4072 27.115 40.2612 27.003 38.7032L27 36.1922C27.121 34.4292 27.682 32.4142 30.999 31.7172C32.481 31.4072 33.996 29.8972 34.859 27.8682C35.663 25.9782 35.73 24.0352 35.029 22.9182C33.842 20.9642 32.99 18.6392 35.596 16.1002L35.727 15.9772C36.983 14.7982 38.282 13.5782 40.047 13.5782C41.076 13.5782 42.084 13.9942 43.13 14.8512C43.448 15.1212 43.995 15.2622 44.478 15.3862C44.658 15.4322 44.829 15.4772 44.983 15.5242C47.647 15.3942 51.593 12.8842 51.951 11.4022C52.476 9.28123 53.524 6.85023 57.17 7.00723L57.73 7.00623C57.794 7.00223 57.907 7.00023 58.018 7.00023C61.333 7.00023 62.33 9.22223 62.868 11.3962C63.261 12.9082 67.151 15.3962 69.838 15.5252C69.991 15.4792 70.162 15.4342 70.342 15.3872C70.825 15.2632 71.373 15.1222 71.679 14.8642C72.738 13.9962 73.749 13.5792 74.785 13.5792C76.597 13.5792 77.914 14.8432 79.189 16.0652C81.853 18.6062 80.992 20.9472 79.802 22.9052C79.457 23.4582 79.291 24.1952 79.313 25.0492C79.377 27.7132 81.359 31.2062 83.816 31.7182C87.141 32.4152 87.703 34.4302 87.82 36.1092L87.823 38.6182C87.804 38.9622 87.77 39.2222 87.72 39.4742C87.381 41.4322 86.096 42.6122 83.796 43.0512C82.326 43.3592 80.856 44.8212 79.979 46.8632C79.159 48.7742 79.087 50.7512 79.797 51.8982C80.929 53.7192 81.888 56.1382 79.214 58.6752L79.139 58.7472C77.875 59.9612 76.568 61.2172 74.791 61.2172C73.754 61.2172 72.737 60.7882 71.682 59.9042C71.372 59.6642 70.759 59.5032 70.266 59.3732C70.115 59.3342 69.974 59.2962 69.845 59.2582C68.097 59.3302 65.55 60.4772 63.953 61.9292C63.081 62.7162 62.903 63.2272 62.869 63.3652C62.369 65.3942 61.372 67.7262 58.065 67.7652H58.058V67.7632ZM57.704 65.3332C57.862 65.3412 57.957 65.3382 58.043 65.3402C59.478 65.3212 60.032 64.7462 60.516 62.7852C60.729 61.9152 61.339 61.0222 62.327 60.1312C64.131 58.4922 67.354 56.8292 70.017 56.8292H70.216L70.404 56.8922C70.539 56.9372 70.703 56.9802 70.883 57.0262C71.553 57.2022 72.471 57.4432 73.206 58.0172C73.831 58.5402 74.353 58.7902 74.792 58.7902C75.594 58.7902 76.459 57.9592 77.461 56.9962L77.541 56.9192C78.774 55.7482 78.817 54.9082 77.737 53.1712C76.589 51.3142 76.595 48.5982 77.752 45.9042C78.952 43.1062 81.034 41.1492 83.32 40.6712C84.976 40.3552 85.218 39.7132 85.337 39.0262C85.372 38.8492 85.391 38.6972 85.4 38.5392L85.398 36.1902C85.323 35.1682 85.145 34.4692 83.319 34.0872C79.585 33.3092 76.979 28.8152 76.888 25.1062C76.855 23.7782 77.148 22.5772 77.737 21.6332C78.837 19.8232 78.798 19.0412 77.543 17.8442C76.539 16.8812 75.621 16.0012 74.784 16.0012C74.338 16.0012 73.815 16.2452 73.228 16.7252C72.512 17.3302 71.607 17.5632 70.946 17.7332C70.755 17.7822 70.579 17.8242 70.437 17.8772L70.23 17.9542L70.009 17.9532C66.683 17.9322 61.282 14.9242 60.52 11.9922C59.994 9.86723 59.404 9.35223 57.783 9.42923L57.119 9.43023C56.986 9.42523 56.908 9.42423 56.832 9.42423C55.364 9.42423 54.797 9.99723 54.306 11.9792C53.597 14.9132 48.185 17.9322 44.814 17.9532L44.593 17.9542L44.386 17.8772C44.244 17.8242 44.067 17.7822 43.876 17.7332C43.211 17.5632 42.302 17.3292 41.576 16.7102C41.008 16.2452 40.487 16.0012 40.047 16.0012C39.241 16.0012 38.381 16.8082 37.385 17.7442L37.27 17.8512C36.034 19.0562 35.994 19.8392 37.091 21.6452C38.225 23.4532 38.228 26.1392 37.089 28.8162C35.889 31.6352 33.798 33.6062 31.496 34.0882C29.676 34.4702 29.498 35.1692 29.42 36.2762L29.423 38.6152C29.497 39.5982 29.682 40.3252 31.475 40.6682C33.77 41.1472 35.85 43.0912 37.062 45.8722C38.237 48.5702 38.266 51.2932 37.14 53.1582C36.011 54.9092 36.045 55.7452 37.276 56.9142L37.349 56.9842C38.354 57.9522 39.223 58.7892 40.029 58.7892C40.469 58.7892 40.992 58.5382 41.584 58.0422C42.344 57.4432 43.266 57.2012 43.939 57.0242C44.118 56.9772 44.283 56.9352 44.419 56.8902L44.607 56.8272H44.806C48.177 56.8272 53.593 59.8312 54.307 62.7882C54.822 64.8672 55.439 65.4162 57.066 65.3322L57.704 65.3332Z" fill="#060054" style="fill:#060054;fill:color(display-p3 0.0235 0.0000 0.3294);fill-opacity:1;"/>
<path d="M74.7831 36.2313L74.7781 36.1213C74.5961 34.1363 74.0961 32.2263 73.2931 30.4463C70.4871 24.2143 64.2641 20.1503 57.4211 20.0913C48.3241 20.1663 40.8521 27.0773 40.0411 36.1673L40.0361 36.2213L40.0381 38.5793L40.0431 38.6873C40.5821 44.6613 44.0951 49.8933 49.4411 52.6843C51.9341 53.9833 54.6201 54.6523 57.4351 54.6713H57.4441H57.4491C58.9281 54.6593 60.3841 54.4623 61.7711 54.0883C68.8881 52.2093 74.1151 46.0023 74.7801 38.6453L74.7851 38.5903L74.7831 36.2313ZM71.0751 31.4463C71.7601 32.9643 72.1891 34.5933 72.3501 36.2893V36.7943H66.7761L66.7651 36.5253C66.6671 34.0133 66.2891 31.7133 65.6081 29.4943L65.5321 29.2443L68.8861 27.9663C69.7581 29.0093 70.5011 30.1733 71.0751 31.4463ZM64.5121 45.0223L64.4411 45.2633L63.9281 45.1683C62.3261 44.7933 60.6701 44.5633 58.8531 44.4623L58.0051 44.3953V37.9683H65.6011L65.5921 38.2563C65.5231 40.5683 65.1601 42.8443 64.5121 45.0223ZM65.4341 46.7383C65.5181 46.7623 65.6001 46.7873 65.6801 46.8183L66.2801 47.0393C66.8381 47.2423 67.4471 47.4723 68.0411 47.7273C66.6581 49.1323 64.9971 50.2673 63.1421 51.0503C63.6551 50.0943 64.1011 49.1863 64.4781 48.2923L64.8541 47.5173C64.9481 47.3243 65.0231 47.1173 65.0951 46.9143L65.1821 46.6673L65.4341 46.7383ZM53.1011 51.3513C52.1881 49.8113 51.4591 48.2743 50.8731 46.6513L50.7671 46.3573L51.0711 46.2843C52.9701 45.8293 54.7621 45.5903 56.5481 45.5583L56.8331 45.5533V52.2003C55.5801 52.1423 54.3571 51.9293 53.1711 51.5683C53.1631 51.4893 53.1401 51.4163 53.1011 51.3513ZM53.1731 23.1653C54.3391 22.8153 55.5681 22.6163 56.8331 22.5573V29.2123L56.5481 29.2073C54.7581 29.1733 52.9671 28.9363 51.0711 28.4803L50.7671 28.4073L50.8731 28.1133C51.4611 26.4873 52.1891 24.9513 53.1011 23.4163C53.1471 23.3383 53.1681 23.2513 53.1731 23.1653ZM50.9121 29.6023C52.5361 29.9783 54.1741 30.2053 55.9271 30.2973L56.8171 30.3703V36.7953H49.2191L49.2281 36.5073C49.3001 34.1933 49.6641 31.9173 50.3101 29.7433L50.3811 29.5043L50.9121 29.6023ZM56.8181 37.9693V44.3943L55.9381 44.4663C54.1781 44.5583 52.5301 44.7873 50.8901 45.1663L50.3821 45.2623L50.3111 45.0223C49.6641 42.8473 49.3011 40.5723 49.2291 38.2583L49.2201 37.9703L56.8181 37.9693ZM57.9901 22.5503C59.2471 22.6093 60.4771 22.8163 61.6541 23.1743C61.6611 23.2583 61.6811 23.3453 61.7221 23.4133C62.6331 24.9503 63.3621 26.4863 63.9501 28.1123L64.0561 28.4063L63.7521 28.4793C61.8561 28.9343 60.0651 29.1723 58.2751 29.2063L57.9901 29.2113V22.5503ZM58.0051 36.7953V30.3693L58.8421 30.3033C60.6621 30.2023 62.3161 29.9733 63.9081 29.6013L64.4421 29.5013L64.5131 29.7423C65.1611 31.9243 65.5231 34.2003 65.5931 36.5073L65.6021 36.7953H58.0051ZM68.0461 27.0363C67.4551 27.2903 66.8371 27.5233 66.2781 27.7273L65.6751 27.9493C65.5961 27.9773 65.5171 28.0043 65.4341 28.0273L65.1811 28.1003L65.0941 27.8503C65.0241 27.6493 64.9481 27.4443 64.8531 27.2453L64.4891 26.4943C64.0991 25.5773 63.6531 24.6663 63.1461 23.7223C64.9761 24.4973 66.6461 25.6193 68.0461 27.0363ZM51.6851 23.7073C51.1731 24.6603 50.7241 25.5743 50.3381 26.4883L49.9701 27.2483C49.8801 27.4373 49.8061 27.6303 49.7281 27.8503L49.6421 28.0943L49.3921 28.0263C49.3081 28.0033 49.2261 27.9773 49.1471 27.9483L48.4881 27.7053C47.9131 27.4943 47.3401 27.2773 46.7821 27.0373C48.1741 25.6233 49.8331 24.4843 51.6851 23.7073ZM45.9401 27.9673L49.2911 29.2443L49.2151 29.4943C48.5371 31.7023 48.1591 34.0023 48.0581 36.5253L48.0471 36.7943H42.4711V36.3293C42.7671 33.1333 44.0301 30.2613 45.9401 27.9673ZM42.4731 38.5233V37.9703H48.0481L48.0591 38.2393C48.1591 40.7633 48.5371 43.0633 49.2161 45.2713L49.2921 45.5213L45.9301 46.8023C43.9911 44.4893 42.7641 41.6253 42.4731 38.5233ZM46.7671 47.7273C47.3771 47.4653 48.0161 47.2293 48.5451 47.0363L49.1471 46.8153C49.2231 46.7863 49.3041 46.7603 49.3881 46.7363L49.6401 46.6643L49.7271 46.9113C49.8011 47.1213 49.8791 47.3243 49.9711 47.5173L50.3281 48.2523C50.7151 49.1683 51.1611 50.0773 51.6671 51.0213C51.2981 50.8643 50.9271 50.7143 50.5671 50.5273C49.1381 49.7823 47.8621 48.8343 46.7671 47.7273ZM57.9901 52.2173V45.5523L58.2751 45.5573C60.0621 45.5903 61.8531 45.8283 63.7521 46.2833L64.0561 46.3563L63.9501 46.6503C63.3611 48.2783 62.6331 49.8153 61.7221 51.3483C61.6811 51.4173 61.6601 51.5053 61.6501 51.5823C61.4811 51.6333 61.3151 51.6923 61.1441 51.7373C60.1261 52.0123 59.0671 52.1683 57.9901 52.2173ZM68.8811 46.7953L65.5321 45.5193L65.6081 45.2693C66.2881 43.0503 66.6661 40.7493 66.7651 38.2373L66.7761 37.9683H72.3511V38.4803C72.0581 41.6063 70.8071 44.4863 68.8811 46.7953Z" fill="#BBE2FA" style="fill:#BBE2FA;fill:color(display-p3 0.7333 0.8863 0.9804);fill-opacity:1;"/>
<path fill-rule="evenodd" clip-rule="evenodd" d="M0 10.8568C0 11.63 0.626822 12.2567 1.39994 12.2567C2.17306 12.2567 2.79976 11.63 2.79976 10.8568C2.79976 10.0837 2.17306 9.45703 1.39994 9.45703C0.626822 9.45703 0 10.0837 0 10.8568Z" fill="#E5614D" style="fill:#E5614D;fill:color(display-p3 0.8980 0.3804 0.3020);fill-opacity:1;"/>
<path fill-rule="evenodd" clip-rule="evenodd" d="M5.86639 5.00488C4.87336 5.00488 4.06836 5.80997 4.06836 6.80294C4.06836 7.79597 4.87336 8.60106 5.86639 8.60106C6.85945 8.60106 7.66445 7.79597 7.66445 6.80294C7.66445 5.80997 6.85945 5.00488 5.86639 5.00488Z" fill="#E5614D" style="fill:#E5614D;fill:color(display-p3 0.8980 0.3804 0.3020);fill-opacity:1;"/>
<mask id="mask0_808_1401" style="mask-type:luminance" maskUnits="userSpaceOnUse" x="7" y="0" width="14" height="22">
<path fill-rule="evenodd" clip-rule="evenodd" d="M10.1115 0C8.97319 0 8.05023 0.922867 8.05023 2.06119C8.05023 3.12863 8.86099 4.00621 9.90009 4.1119H9.90042H9.90075C10.7917 4.19333 11.4312 4.34402 11.8131 4.74051C12.1874 5.12884 12.3388 5.78339 12.4744 6.45331C12.4717 6.49938 12.4697 6.54542 12.4697 6.59206C12.4697 7.65916 13.2807 8.53675 14.3199 8.64276H14.3202C15.2114 8.72387 15.8506 8.87489 16.2328 9.27137C16.5972 9.64983 16.75 10.2803 16.8836 10.9321C16.8011 11.797 16.6487 12.4195 16.2597 12.7942C15.8714 13.1685 15.2168 13.3199 14.5469 13.4556C14.5009 13.4529 14.4548 13.4508 14.4082 13.4508C13.3411 13.4508 12.4635 14.2619 12.3575 15.301V15.3013C12.2791 16.1625 12.1356 16.7885 11.768 17.1744C11.3501 17.5685 10.61 17.7697 9.8609 17.8184H9.86536C8.75934 17.8556 7.87402 18.7635 7.87402 19.8783C7.87402 21.0166 8.79689 21.9394 9.93521 21.9394C11.0026 21.9394 11.8801 21.1288 11.9859 20.0896V20.0893V20.0889C12.0646 19.2261 12.2085 18.5991 12.5778 18.2135L12.5781 18.2132L12.5842 18.2074C13.0039 17.8187 13.7389 17.6203 14.4825 17.5722H14.4784C15.5843 17.5351 16.4694 16.6272 16.4694 15.5121L16.4673 15.421C16.5771 14.7985 16.7006 14.1869 17.0953 13.8067C17.5112 13.4058 18.2575 13.2016 19.0134 13.1525H19.0089C20.1148 13.1153 21.0003 12.2075 21.0003 11.0926C21.0003 9.9543 20.0774 9.03143 18.9391 9.03143C18.8702 9.03143 18.8016 9.03479 18.7345 9.04131C18.1555 8.93632 17.5999 8.80403 17.245 8.43582C16.844 8.01958 16.6398 7.27325 16.5911 6.51775V6.52187C16.5539 5.41594 15.6461 4.53087 14.5309 4.53087L14.4399 4.53293C13.8174 4.42316 13.2057 4.29935 12.8256 3.90493C12.4247 3.48904 12.2205 2.74239 12.1713 1.98688V1.99133C12.1342 0.885407 11.2263 0 10.1115 0Z" fill="white" style="fill:white;fill-opacity:1;"/>
</mask>
<g mask="url(#mask0_808_1401)">
<path fill-rule="evenodd" clip-rule="evenodd" d="M10.1115 0C8.97319 0 8.05023 0.922867 8.05023 2.06119C8.05023 3.12863 8.86099 4.00621 9.90009 4.1119H9.90042H9.90075C10.7917 4.19333 11.4312 4.34402 11.8131 4.74051C12.1874 5.12884 12.3388 5.78339 12.4744 6.45331C12.4717 6.49938 12.4697 6.54542 12.4697 6.59206C12.4697 7.65916 13.2807 8.53675 14.3199 8.64276H14.3202C15.2114 8.72387 15.8506 8.87489 16.2328 9.27137C16.5972 9.64983 16.75 10.2803 16.8836 10.9321C16.8011 11.797 16.6487 12.4195 16.2597 12.7942C15.8714 13.1685 15.2168 13.3199 14.5469 13.4556C14.5009 13.4529 14.4548 13.4508 14.4082 13.4508C13.3411 13.4508 12.4635 14.2619 12.3575 15.301V15.3013C12.2791 16.1625 12.1356 16.7885 11.768 17.1744C11.3501 17.5685 10.61 17.7697 9.8609 17.8184H9.86536C8.75934 17.8556 7.87402 18.7635 7.87402 19.8783C7.87402 21.0166 8.79689 21.9394 9.93521 21.9394C11.0026 21.9394 11.8801 21.1288 11.9859 20.0896V20.0893V20.0889C12.0646 19.2261 12.2085 18.5991 12.5778 18.2135L12.5781 18.2132L12.5842 18.2074C13.0039 17.8187 13.7389 17.6203 14.4825 17.5722H14.4784C15.5843 17.5351 16.4694 16.6272 16.4694 15.5121L16.4673 15.421C16.5771 14.7985 16.7006 14.1869 17.0953 13.8067C17.5112 13.4058 18.2575 13.2016 19.0134 13.1525H19.0089C20.1148 13.1153 21.0003 12.2075 21.0003 11.0926C21.0003 9.9543 20.0774 9.03143 18.9391 9.03143C18.8702 9.03143 18.8016 9.03479 18.7345 9.04131C18.1555 8.93632 17.5999 8.80403 17.245 8.43582C16.844 8.01958 16.6398 7.27325 16.5911 6.51775V6.52187C16.5539 5.41594 15.6461 4.53087 14.5309 4.53087L14.4399 4.53293C13.8174 4.42316 13.2057 4.29935 12.8256 3.90493C12.4247 3.48904 12.2205 2.74239 12.1713 1.98688V1.99133C12.1342 0.885407 11.2263 0 10.1115 0Z" fill="#E5614D" style="fill:#E5614D;fill:color(display-p3 0.8980 0.3804 0.3020);fill-opacity:1;"/>
</g>
<path fill-rule="evenodd" clip-rule="evenodd" d="M5.86639 13.5254C4.87336 13.5254 4.06836 14.3304 4.06836 15.3234C4.06836 16.3165 4.87336 17.1215 5.86639 17.1215C6.85945 17.1215 7.66445 16.3165 7.66445 15.3234C7.66445 14.3304 6.85945 13.5254 5.86639 13.5254Z" fill="#E5614D" style="fill:#E5614D;fill:color(display-p3 0.8980 0.3804 0.3020);fill-opacity:1;"/>
<path fill-rule="evenodd" clip-rule="evenodd" d="M9.78004 8.95801C8.63732 8.95801 7.71094 9.88439 7.71094 11.0271C7.71094 12.1698 8.63732 13.0961 9.78004 13.0961C10.9227 13.0961 11.8491 12.1698 11.8491 11.0271C11.8491 9.88439 10.9227 8.95801 9.78004 8.95801Z" fill="#E5614D" style="fill:#E5614D;fill:color(display-p3 0.8980 0.3804 0.3020);fill-opacity:1;"/>
</svg>
