<svg width="80" height="84" viewBox="0 0 80 84" fill="none" xmlns="http://www.w3.org/2000/svg">
<path fill-rule="evenodd" clip-rule="evenodd" d="M71.0823 15.4728H72.0206L72.0212 15.473C76.1938 15.473 79.6053 18.8844 79.6065 23.0571L79.6072 68.9357C79.6072 73.1227 76.194 76.5217 72.0212 76.5217H7.58594C3.41145 76.5217 0 73.1227 0 68.9357V23.0587C0 18.8842 3.4132 15.4728 7.58594 15.4728L44.1806 15.4722L42.4269 18.5713H7.58626C5.11199 18.5713 3.08698 20.5961 3.08698 23.0568V59.8414L76.5061 59.8421V23.0575C76.5061 20.5969 74.495 18.5719 72.0206 18.5719H69.3018L71.0823 15.4728ZM72.0206 73.4211C74.4937 73.4211 76.5061 71.41 76.5061 68.9356H76.5045L76.5052 62.9407H3.08601V68.9356C3.08601 71.4087 5.11085 73.4211 7.58529 73.4211H72.0206Z" fill="#BBE2FA" style="fill:#BBE2FA;fill:color(display-p3 0.7333 0.8863 0.9804);fill-opacity:1;"/>
<path d="M42.5353 68.7073C42.4923 70.1736 41.2616 71.4168 39.8258 71.4168L39.7292 71.4056C38.2198 71.3526 37.0522 70.1207 37.0745 68.5789C37.0957 67.0696 38.3158 65.8277 39.8045 65.8164C40.532 65.8164 41.2178 66.0945 41.7315 66.6194C42.267 67.1655 42.5563 67.9155 42.5351 68.7073L42.5353 68.7073Z" fill="#BBE2FA" style="fill:#BBE2FA;fill:color(display-p3 0.7333 0.8863 0.9804);fill-opacity:1;"/>
<path d="M52.4314 83.9998H27.1731C26.7991 83.9998 26.4961 83.6968 26.4961 83.3228V81.5828C26.4961 81.2087 26.7991 80.9058 27.1731 80.9058H52.4314C52.8055 80.9058 53.1085 81.2087 53.1085 81.5828V83.3228C53.1091 83.6968 52.8061 83.9998 52.4314 83.9998Z" fill="#BBE2FA" style="fill:#BBE2FA;fill:color(display-p3 0.7333 0.8863 0.9804);fill-opacity:1;"/>
<path fill-rule="evenodd" clip-rule="evenodd" d="M62.5407 0.60345C64.34 1.62409 66.1317 2.66891 67.9147 3.72315L67.9153 3.72311C70.2083 5.0971 70.833 7.92936 69.3922 10.4718C68.985 11.2188 68.5622 11.9538 68.1366 12.6937L67.9022 13.1015L66.6185 15.3091L66.5949 15.2923L51.1748 42.3381L51.0295 42.4721C50.1583 43.2717 49.2963 44.0927 48.4306 44.9173C48.2636 45.0763 48.0965 45.2355 47.9291 45.3947L47.8967 45.4259L47.8966 45.426L47.8965 45.426C45.7926 47.4456 43.6173 49.5337 41.2789 51.3479C40.6561 51.8292 39.9467 52.1378 39.2384 52.2401C38.2566 52.381 37.2928 52.1384 36.5347 51.535C35.6731 50.8535 35.1406 49.8049 35.0234 48.5618L35.0446 48.207L37.4311 35.3605L53.9034 6.30535L54.4384 5.36084L54.9184 4.53727C55.0248 4.35249 55.13 4.16781 55.2351 3.98339L55.2356 3.98252L55.2357 3.98243L55.2357 3.98235L55.2359 3.98205L55.2359 3.98199L55.236 3.98195C55.4823 3.54968 55.7279 3.11882 55.9851 2.69134C56.8374 1.22626 58.1847 0.258682 59.6722 0.04485C60.6635 -0.0972897 61.6523 0.100965 62.5407 0.60345ZM55.3951 8.84631L39.8602 36.2496L39.7749 36.7376C40.1646 37.0742 40.7986 37.3224 41.811 37.1983L57.2972 9.93545L56.2386 9.32386L55.3951 8.84631ZM45.6121 39.6248C43.2187 39.4222 42.7573 38.1585 42.6682 37.7564L58.1794 10.452L61.3939 12.2999L45.6121 39.6248ZM40.4663 48.7176C42.4257 47.1241 44.3235 45.3143 46.1557 43.5531L46.1559 43.5529C46.5717 43.152 46.9894 42.7511 47.4084 42.3509C46.1315 41.9463 45.6665 41.1459 45.4906 40.6446C42.8766 40.4114 42.025 39.0162 41.7469 38.23C40.7986 38.3148 40.0904 38.1278 39.5642 37.8416L37.8803 46.9525L40.4663 48.7176ZM49.1538 40.717C48.8917 40.9543 48.6323 41.2012 48.372 41.4488L48.3078 41.51C46.8608 41.2837 46.5159 40.5393 46.4337 40.2519V40.2494L62.276 12.8174L64.3682 14.0325L49.1538 40.717ZM66.2014 10.9213C66.5263 10.3566 66.8513 9.79182 67.1662 9.21993L67.1662 9.2199C67.9255 7.89139 67.6924 6.56218 66.607 5.91442C64.8346 4.86697 63.0565 3.84331 61.2679 2.81962C60.2 2.20933 58.9206 2.72361 58.1818 3.9761C57.8592 4.52759 57.5448 5.07854 57.2306 5.62897C57.1982 5.68588 57.1657 5.74279 57.1332 5.79969L56.6625 6.62075L57.5858 7.1488L65.7068 11.7841C65.8707 11.4959 66.036 11.2086 66.2014 10.9213Z" fill="#070058" style="fill:#070058;fill:color(display-p3 0.0275 0.0000 0.3451);fill-opacity:1;"/>
</svg>
