<svg width="23" height="22" viewBox="0 0 23 22" fill="none" xmlns="http://www.w3.org/2000/svg">
<g id="Group 158">
<path id="Vector" d="M11.2426 20.0001C9.82132 20.0042 8.41935 19.6707 7.15216 19.027C5.88498 18.3832 4.78881 17.4477 3.95394 16.2975C3.11906 15.1472 2.56935 13.815 2.35006 12.4107C2.13078 11.0064 2.24819 9.57013 2.69264 8.22009L2.78264 8.31009C3.01228 8.53761 3.29343 8.70636 3.60223 8.802C3.91103 8.89763 4.23835 8.91733 4.55639 8.85941C4.87443 8.8015 5.17379 8.66768 5.42906 8.46933C5.68432 8.27098 5.88795 8.01396 6.02264 7.72009L7.85264 3.68008C8.02297 3.30958 8.07555 2.89574 8.00327 2.49441C7.93099 2.09308 7.73734 1.72359 7.44845 1.43578C7.15956 1.14798 6.78933 0.955729 6.38774 0.88497C5.98614 0.814211 5.5725 0.868351 5.20264 1.04008L1.17264 2.87008C0.878788 3.0034 0.621593 3.2059 0.423046 3.46026C0.224499 3.71462 0.0905061 4.01329 0.0325241 4.33071C-0.0254579 4.64814 -0.00570412 4.97489 0.0900965 5.28302C0.185897 5.59115 0.354894 5.87149 0.582639 6.10008L1.15264 6.67008C0.554908 8.03553 0.245126 9.50955 0.242639 11.0001C0.244387 13.9169 1.40387 16.7138 3.4664 18.7763C5.52892 20.8388 8.32579 21.9983 11.2426 22.0001C11.5079 22.0001 11.7622 21.8947 11.9497 21.7072C12.1373 21.5197 12.2426 21.2653 12.2426 21.0001C12.2426 20.7349 12.1373 20.4805 11.9497 20.293C11.7622 20.1054 11.5079 20.0001 11.2426 20.0001Z" fill="#EFB046" style="fill:#EFB046;fill:color(display-p3 0.9373 0.6902 0.2745);fill-opacity:1;"/>
<path id="Vector_2" d="M21.9022 15.9L21.3322 15.33C21.9299 13.9646 22.2397 12.4905 22.2422 11C22.2404 8.08315 21.081 5.28628 19.0184 3.22376C16.9559 1.16124 14.159 0.00174853 11.2422 0C10.977 0 10.7226 0.105357 10.5351 0.292893C10.3475 0.48043 10.2422 0.734784 10.2422 1C10.2422 1.26522 10.3475 1.51957 10.5351 1.70711C10.7226 1.89464 10.977 2 11.2422 2C12.6635 1.99586 14.0655 2.32939 15.3327 2.97312C16.5999 3.61684 17.696 4.55236 18.5309 5.70264C19.3658 6.85291 19.9155 8.18504 20.1348 9.58935C20.354 10.9937 20.2366 12.43 19.7922 13.78L19.7022 13.69C19.4725 13.4625 19.1914 13.2937 18.8826 13.1981C18.5738 13.1025 18.2465 13.0828 17.9284 13.1407C17.6104 13.1986 17.311 13.3324 17.0558 13.5308C16.8005 13.7291 16.5969 13.9861 16.4622 14.28L14.6322 18.32C14.4617 18.6895 14.4087 19.1023 14.4802 19.5029C14.5517 19.9034 14.7444 20.2724 15.0322 20.56C15.4077 20.9323 15.9134 21.1439 16.4422 21.15C16.7329 21.1504 17.02 21.0855 17.2822 20.96L21.3122 19.13C21.606 18.9967 21.8632 18.7942 22.0618 18.5398C22.2603 18.2855 22.3943 17.9868 22.4523 17.6694C22.5103 17.3519 22.4905 17.0252 22.3947 16.7171C22.2989 16.4089 22.1299 16.1286 21.9022 15.9Z" fill="#EFB046" style="fill:#EFB046;fill:color(display-p3 0.9373 0.6902 0.2745);fill-opacity:1;"/>
<path id="Vector_3" d="M11.2422 7C10.4511 7 9.67771 7.2346 9.01991 7.67412C8.36211 8.11365 7.84942 8.73836 7.54667 9.46927C7.24392 10.2002 7.16471 11.0044 7.31905 11.7804C7.47339 12.5563 7.85435 13.269 8.41376 13.8284C8.97317 14.3878 9.6859 14.7688 10.4618 14.9231C11.2378 15.0775 12.042 14.9983 12.7729 14.6955C13.5038 14.3928 14.1285 13.8801 14.5681 13.2223C15.0076 12.5645 15.2422 11.7911 15.2422 11C15.2411 9.93948 14.8193 8.92271 14.0694 8.1728C13.3195 7.4229 12.3027 7.00111 11.2422 7ZM11.2422 13C10.8466 13 10.4599 12.8827 10.131 12.6629C9.80215 12.4432 9.54581 12.1308 9.39443 11.7654C9.24306 11.3999 9.20345 10.9978 9.28062 10.6098C9.35779 10.2219 9.54827 9.86549 9.82798 9.58579C10.1077 9.30608 10.464 9.1156 10.852 9.03843C11.24 8.96126 11.6421 9.00087 12.0076 9.15224C12.373 9.30362 12.6854 9.55996 12.9051 9.88886C13.1249 10.2178 13.2422 10.6044 13.2422 11C13.2416 11.5302 13.0307 12.0386 12.6557 12.4135C12.2808 12.7885 11.7724 12.9994 11.2422 13Z" fill="#EFB046" style="fill:#EFB046;fill:color(display-p3 0.9373 0.6902 0.2745);fill-opacity:1;"/>
</g>
</svg>
