<svg width="24" height="30" viewBox="0 0 24 30" fill="none" xmlns="http://www.w3.org/2000/svg">
<g clip-path="url(#clip0_416_1038)">
<path d="M3 6H21C21.7956 6 22.5587 5.68393 23.1213 5.12132C23.6839 4.55871 24 3.79565 24 3C24 2.20435 23.6839 1.44129 23.1213 0.87868C22.5587 0.31607 21.7956 0 21 0L3 0C2.20435 0 1.44129 0.31607 0.87868 0.87868C0.31607 1.44129 0 2.20435 0 3C0 3.79565 0.31607 4.55871 0.87868 5.12132C1.44129 5.68393 2.20435 6 3 6Z" fill="#070058" style="fill:#070058;fill:color(display-p3 0.0275 0.0000 0.3451);fill-opacity:1;"/>
<path d="M10 7H5C2.23858 7 0 9.23858 0 12V19C0 21.7614 2.23858 24 5 24H10C12.7614 24 15 21.7614 15 19V12C15 9.23858 12.7614 7 10 7Z" fill="#070058" style="fill:#070058;fill:color(display-p3 0.0275 0.0000 0.3451);fill-opacity:1;"/>
<path d="M21 7H19C18.2046 7.00087 17.4421 7.31722 16.8796 7.87964C16.3172 8.44206 16.0009 9.20462 16 10V12C16.0009 12.7954 16.3172 13.5579 16.8796 14.1204C17.4421 14.6828 18.2046 14.9991 19 15H21C21.7954 14.9991 22.5579 14.6828 23.1204 14.1204C23.6828 13.5579 23.9991 12.7954 24 12V10C23.9991 9.20462 23.6828 8.44206 23.1204 7.87964C22.5579 7.31722 21.7954 7.00087 21 7ZM22 12C21.9998 12.2652 21.8944 12.5194 21.7069 12.7069C21.5194 12.8944 21.2652 12.9998 21 13H19C18.7348 12.9998 18.4806 12.8944 18.2931 12.7069C18.1056 12.5194 18.0002 12.2652 18 12V10C18.0002 9.73483 18.1056 9.48057 18.2931 9.29307C18.4806 9.10557 18.7348 9.00016 19 9H21C21.2652 9.00016 21.5194 9.10557 21.7069 9.29307C21.8944 9.48057 21.9998 9.73483 22 10V12Z" fill="#070058" style="fill:#070058;fill:color(display-p3 0.0275 0.0000 0.3451);fill-opacity:1;"/>
<path d="M21 16H19C18.2046 16.0009 17.4421 16.3172 16.8796 16.8796C16.3172 17.4421 16.0009 18.2046 16 19V21C16.0009 21.7954 16.3172 22.5579 16.8796 23.1204C17.4421 23.6828 18.2046 23.9991 19 24H21C21.7954 23.9991 22.5579 23.6828 23.1204 23.1204C23.6828 22.5579 23.9991 21.7954 24 21V19C23.9991 18.2046 23.6828 17.4421 23.1204 16.8796C22.5579 16.3172 21.7954 16.0009 21 16ZM22 21C21.9998 21.2652 21.8944 21.5194 21.7069 21.7069C21.5194 21.8944 21.2652 21.9998 21 22H19C18.7348 21.9998 18.4806 21.8944 18.2931 21.7069C18.1056 21.5194 18.0002 21.2652 18 21V19C18.0002 18.7348 18.1056 18.4806 18.2931 18.2931C18.4806 18.1056 18.7348 18.0002 19 18H21C21.2652 18.0002 21.5194 18.1056 21.7069 18.2931C21.8944 18.4806 21.9998 18.7348 22 19V21Z" fill="#070058" style="fill:#070058;fill:color(display-p3 0.0275 0.0000 0.3451);fill-opacity:1;"/>
</g>
<defs>
<clipPath id="clip0_416_1038">
<rect width="24" height="30" fill="white" style="fill:white;fill-opacity:1;"/>
</clipPath>
</defs>
</svg>
