<svg width="24" height="22" viewBox="0 0 24 22" fill="none" xmlns="http://www.w3.org/2000/svg">
<g id="Group 157">
<g id="Group">
<path id="Vector" d="M7.55001 7.89249L11.55 9.89249C11.689 9.96476 11.8434 10.0025 12 10.0025C12.1567 10.0025 12.311 9.96476 12.45 9.89249L16.45 7.89249C16.6158 7.8105 16.7552 7.68361 16.8525 7.52627C16.9497 7.36893 17.0008 7.18745 17 7.00249V3.00249C17.0008 2.81753 16.9497 2.63606 16.8525 2.47872C16.7552 2.32138 16.6158 2.19449 16.45 2.11249L12.45 0.112493C12.3115 0.0386342 12.157 0 12 0C11.8431 0 11.6885 0.0386342 11.55 0.112493L7.55001 2.11249C7.38422 2.19449 7.24477 2.32138 7.14754 2.47872C7.0503 2.63606 6.99919 2.81753 7.00001 3.00249V7.00249C6.99919 7.18745 7.0503 7.36893 7.14754 7.52627C7.24477 7.68361 7.38422 7.8105 7.55001 7.89249ZM15 6.38249L13 7.38249V5.62249L15 4.62249V6.38249ZM9.00001 4.62249L11 5.62249V7.38249L9.00001 6.38249V4.62249Z" fill="#6FC3B6" style="fill:#6FC3B6;fill:color(display-p3 0.4353 0.7647 0.7137);fill-opacity:1;"/>
<path id="Vector_2" d="M10 17.0025V13.0025C10.0008 12.8175 9.94972 12.6361 9.85248 12.4787C9.75525 12.3214 9.6158 12.1945 9.45001 12.1125L5.45001 10.1125C5.31151 10.0386 5.15697 10 5.00001 10C4.84305 10 4.6885 10.0386 4.55001 10.1125L0.55001 12.1125C0.384217 12.1945 0.244769 12.3214 0.147536 12.4787C0.0503025 12.6361 -0.000811727 12.8175 9.74792e-06 13.0025V17.0025C-0.000811727 17.1875 0.0503025 17.3689 0.147536 17.5263C0.244769 17.6836 0.384217 17.8105 0.55001 17.8925L4.55001 19.8925C4.689 19.9648 4.84335 20.0025 5.00001 20.0025C5.15667 20.0025 5.31102 19.9648 5.45001 19.8925L9.45001 17.8925C9.6158 17.8105 9.75525 17.6836 9.85248 17.5263C9.94972 17.3689 10.0008 17.1875 10 17.0025ZM4.00001 17.3825L2.00001 16.3825V14.6225L4.00001 15.6225V17.3825ZM8.00001 16.3825L6.00001 17.3825V15.6225L8.00001 14.6225V16.3825Z" fill="#6FC3B6" style="fill:#6FC3B6;fill:color(display-p3 0.4353 0.7647 0.7137);fill-opacity:1;"/>
<path id="Vector_3" d="M23.45 12.1125L19.45 10.1125C19.3115 10.0386 19.157 10 19 10C18.8431 10 18.6885 10.0386 18.55 10.1125L14.55 12.1125C14.3842 12.1945 14.2448 12.3214 14.1475 12.4787C14.0503 12.6361 13.9992 12.8175 14 13.0025V17.0025C13.9992 17.1875 14.0503 17.3689 14.1475 17.5263C14.2448 17.6836 14.3842 17.8105 14.55 17.8925L18.55 19.8925C18.689 19.9648 18.8434 20.0025 19 20.0025C19.1567 20.0025 19.311 19.9648 19.45 19.8925L23.45 17.8925C23.6158 17.8105 23.7552 17.6836 23.8525 17.5263C23.9497 17.3689 24.0008 17.1875 24 17.0025V13.0025C24.0008 12.8175 23.9497 12.6361 23.8525 12.4787C23.7552 12.3214 23.6158 12.1945 23.45 12.1125ZM18 17.3825L16 16.3825V14.6225L18 15.6225V17.3825ZM22 16.3825L20 17.3825V15.6225L22 14.6225V16.3825Z" fill="#6FC3B6" style="fill:#6FC3B6;fill:color(display-p3 0.4353 0.7647 0.7137);fill-opacity:1;"/>
<path id="Vector_4" d="M2.15838 8.95667C2.28366 8.99606 2.41548 9.01039 2.54629 8.99883C2.67711 8.98728 2.80437 8.95007 2.92081 8.88933C3.03724 8.82859 3.14057 8.74551 3.2249 8.64483C3.30923 8.54416 3.3729 8.42786 3.41228 8.30258C3.71755 7.33014 4.1867 6.41701 4.79948 5.60257C4.88035 5.49776 4.93961 5.37794 4.97381 5.25005C5.00801 5.12216 5.01648 4.98876 4.99872 4.85757C4.98096 4.72638 4.93734 4.60003 4.87037 4.48583C4.8034 4.37164 4.71442 4.27188 4.6086 4.19234C4.50278 4.11279 4.38222 4.05506 4.25391 4.02247C4.1256 3.98988 3.9921 3.9831 3.86115 4.0025C3.73019 4.02191 3.6044 4.06713 3.49106 4.13553C3.37772 4.20393 3.27908 4.29416 3.20088 4.40097C2.45122 5.39674 1.87735 6.51337 1.50408 7.70257C1.46467 7.82788 1.45033 7.95973 1.46188 8.09058C1.47344 8.22142 1.51066 8.34872 1.57142 8.46518C1.63218 8.58164 1.71529 8.68499 1.816 8.76932C1.91672 8.85365 2.03306 8.91732 2.15838 8.95667Z" fill="#6FC3B6" style="fill:#6FC3B6;fill:color(display-p3 0.4353 0.7647 0.7137);fill-opacity:1;"/>
<path id="Vector_5" d="M13.8017 19.8217C12.6129 20.062 11.388 20.062 10.1991 19.8217C9.93909 19.769 9.66876 19.8218 9.44761 19.9684C9.33812 20.041 9.24399 20.1344 9.17061 20.2434C9.09722 20.3524 9.04602 20.4747 9.01993 20.6035C8.99384 20.7323 8.99336 20.8649 9.01853 20.9938C9.0437 21.1228 9.09401 21.2455 9.16661 21.355C9.31323 21.5762 9.54169 21.73 9.80173 21.7827C11.2529 22.0756 12.748 22.0756 14.1991 21.7827C14.3279 21.7566 14.4503 21.7054 14.5592 21.632C14.6682 21.5586 14.7617 21.4645 14.8343 21.355C14.9068 21.2455 14.9572 21.1228 14.9823 20.9938C15.0075 20.8649 15.007 20.7323 14.9809 20.6035C14.9548 20.4747 14.9036 20.3524 14.8303 20.2434C14.7569 20.1344 14.6627 20.041 14.5532 19.9684C14.4437 19.8958 14.321 19.8455 14.1921 19.8203C14.0631 19.7951 13.9305 19.7956 13.8017 19.8217Z" fill="#6FC3B6" style="fill:#6FC3B6;fill:color(display-p3 0.4353 0.7647 0.7137);fill-opacity:1;"/>
<path id="Vector_6" d="M20.5877 8.30245C20.6673 8.5555 20.8441 8.76657 21.0793 8.88924C21.3145 9.0119 21.5888 9.03612 21.8418 8.95655C22.0949 8.87699 22.3059 8.70016 22.4286 8.46497C22.5513 8.22978 22.5755 7.9555 22.4959 7.70245C22.1227 6.51318 21.5488 5.39648 20.7991 4.40065C20.7206 4.29478 20.6218 4.20548 20.5086 4.13791C20.3954 4.07034 20.2699 4.02582 20.1395 4.00691C20.009 3.98801 19.876 3.9951 19.7483 4.02777C19.6206 4.06043 19.5006 4.11804 19.3952 4.19727C19.2898 4.27649 19.2011 4.37578 19.1342 4.48941C19.0674 4.60304 19.0236 4.72877 19.0056 4.85937C18.9875 4.98997 18.9954 5.12285 19.0288 5.25038C19.0623 5.37791 19.1207 5.49756 19.2005 5.60245C19.8133 6.41689 20.2825 7.33002 20.5877 8.30245Z" fill="#6FC3B6" style="fill:#6FC3B6;fill:color(display-p3 0.4353 0.7647 0.7137);fill-opacity:1;"/>
</g>
</g>
</svg>
