<svg width="22" height="22" viewBox="0 0 22 22" fill="none" xmlns="http://www.w3.org/2000/svg">
<g id="Group">
<path id="Vector" d="M21 12.007H19.94C19.8431 11.1092 19.607 10.232 19.24 9.407L20.16 8.877C20.3907 8.74439 20.5593 8.52555 20.6287 8.26863C20.6981 8.0117 20.6626 7.73774 20.53 7.507C20.3974 7.27626 20.1786 7.10765 19.9216 7.03826C19.6647 6.96887 19.3907 7.00439 19.16 7.137L18.23 7.677C17.168 6.22865 15.6938 5.13432 14 4.537V3.837C14.0005 3.70469 14.0273 3.57379 14.0788 3.45191C14.1303 3.33003 14.2055 3.21959 14.3 3.127L15.71 1.717C15.8039 1.6239 15.8784 1.51318 15.9294 1.39119C15.9804 1.26921 16.0067 1.13836 16.007 1.00615C16.0073 0.873945 15.9814 0.742988 15.931 0.620795C15.8805 0.498601 15.8064 0.387577 15.7129 0.294094C15.6194 0.200611 15.5084 0.126509 15.3862 0.0760408C15.264 0.0255727 15.1331 -0.000267822 15.0008 2.09287e-06C14.8686 0.000272008 14.7378 0.0266471 14.6158 0.0776137C14.4938 0.12858 14.3831 0.203135 14.29 0.296999L12.88 1.707C12.6 1.98636 12.378 2.31841 12.227 2.68399C12.0759 3.04957 11.9988 3.44145 12 3.837V4.067C11.3357 3.987 10.6643 3.987 10 4.067V3.837C10.0012 3.44145 9.92406 3.04957 9.77302 2.68399C9.62199 2.31841 9.40004 1.98636 9.12 1.707L7.71 0.296999C7.6169 0.203135 7.50618 0.12858 7.38419 0.0776137C7.26221 0.0266471 7.13136 0.000272008 6.99915 2.09287e-06C6.86695 -0.000267822 6.73599 0.0255727 6.6138 0.0760408C6.4916 0.126509 6.38058 0.200611 6.2871 0.294094C6.19361 0.387577 6.11951 0.498601 6.06904 0.620795C6.01857 0.742988 5.99273 0.873945 5.993 1.00615C5.99327 1.13836 6.01965 1.26921 6.07061 1.39119C6.12158 1.51318 6.19614 1.6239 6.29 1.717L7.7 3.127C7.79452 3.21959 7.86971 3.33003 7.92121 3.45191C7.97271 3.57379 7.99949 3.70469 8 3.837V4.537C6.30624 5.13432 4.83203 6.22865 3.77 7.677L2.84 7.137C2.60926 7.00439 2.3353 6.96887 2.07837 7.03826C1.82145 7.10765 1.60261 7.27626 1.47 7.507C1.33739 7.73774 1.30188 8.0117 1.37126 8.26863C1.44065 8.52555 1.60926 8.74439 1.84 8.877L2.76 9.407C2.39305 10.232 2.15688 11.1092 2.06 12.007H1C0.734784 12.007 0.48043 12.1124 0.292893 12.2999C0.105357 12.4874 0 12.7418 0 13.007C0 13.2722 0.105357 13.5266 0.292893 13.7141C0.48043 13.9016 0.734784 14.007 1 14.007H2.06C2.15688 14.9048 2.39305 15.7819 2.76 16.607L1.84 17.137C1.60926 17.2696 1.44065 17.4884 1.37126 17.7454C1.30188 18.0023 1.33739 18.2763 1.47 18.507C1.60261 18.7377 1.82145 18.9063 2.07837 18.9757C2.3353 19.0451 2.60926 19.0096 2.84 18.877L3.77 18.337C4.60156 19.4743 5.68967 20.3993 6.94593 21.037C8.20218 21.6747 9.59116 22.007 11 22.007C12.4088 22.007 13.7978 21.6747 15.0541 21.037C16.3103 20.3993 17.3984 19.4743 18.23 18.337L19.16 18.877C19.3907 19.0096 19.6647 19.0451 19.9216 18.9757C20.1786 18.9063 20.3974 18.7377 20.53 18.507C20.6626 18.2763 20.6981 18.0023 20.6287 17.7454C20.5593 17.4884 20.3907 17.2696 20.16 17.137L19.24 16.607C19.607 15.7819 19.8431 14.9048 19.94 14.007H21C21.2652 14.007 21.5196 13.9016 21.7071 13.7141C21.8946 13.5266 22 13.2722 22 13.007C22 12.7418 21.8946 12.4874 21.7071 12.2999C21.5196 12.1124 21.2652 12.007 21 12.007ZM15.501 10.8024C14.4255 11.4206 13.2333 11.8085 12 11.9414V18.007C12 18.2722 11.8946 18.5266 11.7071 18.7141C11.5196 18.9016 11.2652 19.007 11 19.007C10.7348 19.007 10.4804 18.9016 10.2929 18.7141C10.1054 18.5266 10 18.2722 10 18.007V11.9414C8.76679 11.8083 7.57464 11.4206 6.499 10.8029C6.27739 10.6662 6.11785 10.4484 6.0543 10.1959C5.99076 9.94333 6.02823 9.67598 6.15874 9.45065C6.28925 9.22532 6.50251 9.05978 6.75317 8.98924C7.00383 8.91869 7.27212 8.94871 7.501 9.0729C8.56919 9.67414 9.77429 9.98995 11.0001 9.98987C12.2258 9.98978 13.4309 9.6738 14.499 9.0724C14.6127 9.0037 14.739 8.95836 14.8705 8.93903C15.002 8.9197 15.136 8.92676 15.2647 8.9598C15.3934 8.99284 15.5142 9.0512 15.6201 9.13147C15.726 9.21174 15.8148 9.31231 15.8814 9.4273C15.948 9.5423 15.991 9.6694 16.0079 9.8012C16.0248 9.933 16.0152 10.0668 15.9798 10.1949C15.9444 10.323 15.8838 10.4427 15.8016 10.5471C15.7194 10.6515 15.6172 10.738 15.501 10.8024Z" fill="#E5614D" style="fill:#E5614D;fill:color(display-p3 0.8980 0.3804 0.3020);fill-opacity:1;"/>
</g>
</svg>
