<svg width="50" height="52" viewBox="0 0 50 52" fill="none" xmlns="http://www.w3.org/2000/svg">
<g id="Monkey storage logo 1" clip-path="url(#clip0_407_796)">
<g id="Vrstva_x0020_1">
<path id="Vector" fill-rule="evenodd" clip-rule="evenodd" d="M5.21589 32.5686C-4.53607 25.2217 2.37739 18.5703 2.37739 18.5703C1.54061 22.6837 3.42794 28.8063 5.21589 32.5686ZM44.784 32.5686C54.536 25.2217 47.6225 18.5703 47.6225 18.5703C48.4593 22.6837 46.572 28.8063 44.784 32.5686ZM21.5319 51.7649C20.2965 51.483 18.6651 50.8755 17.1148 49.8444C15.5648 48.8138 14.0955 47.3603 13.0813 45.6246C12.067 43.8889 11.5071 41.8711 11.2489 40.0157C10.3403 33.4899 12.3461 31.9596 14.0944 30.3961C14.5726 29.6588 14.5143 29.222 14.1582 28.6636C13.9877 28.3957 13.8271 28.2734 13.57 28.0775C13.4483 27.9848 13.2804 27.8566 13.0582 27.6577C12.8026 27.4286 12.477 27.1082 12.1396 26.7291L12.137 26.7313C11.8723 26.4338 11.5969 26.0949 11.338 25.7291C11.0733 25.3551 10.8379 24.9653 10.6729 24.5358C10.5123 24.1175 10.4092 23.6419 10.3982 23.0769V23.0717C10.3858 22.4357 10.4855 21.68 10.6916 20.8903C10.89 20.1287 11.1829 19.3559 11.5636 18.6494C11.9541 17.9251 12.441 17.261 12.9984 16.6875C13.5425 16.1276 14.1542 15.6564 14.8072 15.3032C15.4262 14.9683 16.0815 14.737 16.7243 14.5925C17.4606 14.427 18.1837 14.3719 18.821 14.4022C19.4014 14.4299 19.9023 14.5293 20.3376 14.669C20.7739 14.8091 21.1549 14.9927 21.4882 15.1864C21.8318 15.3859 22.1226 15.594 22.369 15.7924V15.7976C22.6565 16.0286 22.8618 16.2193 23.0261 16.3774V16.3826C23.2153 16.5648 23.3656 16.7174 23.4958 16.8538C23.5978 16.9606 23.7301 17.1058 23.8632 17.2521C24.4576 17.901 25.5408 17.901 26.1352 17.2521C26.2683 17.1058 26.4011 16.9606 26.5026 16.8538C26.6328 16.717 26.7831 16.5648 26.9723 16.3826V16.3774C27.1366 16.2193 27.342 16.0286 27.6294 15.7976V15.7924C27.8762 15.594 28.1666 15.3859 28.5102 15.1864C28.8439 14.9924 29.2245 14.8091 29.6609 14.669C30.0958 14.5293 30.597 14.4299 31.1775 14.4022C31.8148 14.3715 32.5379 14.427 33.2742 14.5925C33.917 14.737 34.5722 14.9683 35.1912 15.3032C35.8446 15.6564 36.4559 16.1276 37.0001 16.6875C37.5574 17.261 38.0447 17.9251 38.4349 18.6494C38.8155 19.3556 39.1085 20.1287 39.3069 20.8903C39.5129 21.68 39.6123 22.4357 39.6002 23.0717V23.0769C39.5896 23.6423 39.4862 24.1175 39.3256 24.5358C39.1605 24.9653 38.9251 25.3551 38.6604 25.7291C38.4019 26.0949 38.1261 26.4338 37.8614 26.7313L37.8588 26.7291C37.5211 27.1082 37.1959 27.4286 36.9403 27.6577C36.7184 27.8566 36.5501 27.9848 36.4284 28.0775C36.1713 28.273 36.0111 28.3957 35.8402 28.6636C35.4842 29.222 35.4259 29.6588 35.904 30.3961C37.6527 31.9592 39.6581 33.4899 38.7495 40.0157C38.491 41.8708 37.9314 43.8885 36.9172 45.6246C35.9029 47.3603 34.434 48.8141 32.8837 49.8444C31.3337 50.8751 29.7023 51.4826 28.4666 51.7649C27.0952 52.0779 22.9018 52.0779 21.53 51.7649H21.5319ZM32.1774 39.8494C32.6637 39.2951 32.6207 38.4584 32.0821 37.9813C31.5434 37.5039 30.7122 37.5663 30.2263 38.1206C27.0409 41.7485 22.9597 41.7485 19.7743 38.1206C19.2881 37.5663 18.4572 37.5039 17.9186 37.9813C17.3799 38.4588 17.337 39.2954 17.8232 39.8494C22.2201 44.8563 27.7812 44.8563 32.1778 39.8494H32.1774ZM27.1451 34.4452C27.5029 35.0623 28.2517 35.2508 28.8164 34.8664C29.3815 34.4821 29.5494 33.6702 29.1915 33.0531C27.9939 28.8699 22.0063 28.8699 20.8088 33.0531C20.4509 33.6702 20.6184 34.4821 21.1839 34.8664C21.7489 35.2511 22.4973 35.0623 22.8552 34.4452C24.1335 32.2515 25.8668 32.2519 27.1451 34.4452ZM26.5969 0.0339684C31.9094 0.344016 52.6058 7.02943 42.3423 32.2671C40.8414 30.691 39.4744 29.9249 38.696 29.6444C39.0109 29.3621 39.4095 28.9696 39.8213 28.5077V28.5025C40.1572 28.1252 40.4993 27.7062 40.8084 27.269C41.1828 26.7398 41.5238 26.1685 41.7831 25.4933C42.046 24.8082 42.215 24.0355 42.233 23.1242C42.2502 22.2402 42.1223 21.2317 41.8575 20.2148C41.6107 19.2673 41.2386 18.2909 40.7479 17.3815C40.2393 16.4377 39.6053 15.5729 38.8797 14.8268C38.1503 14.077 37.3264 13.4432 36.4416 12.9643C35.6092 12.5138 34.7204 12.2012 33.8436 12.0039C32.8657 11.784 31.9039 11.7108 31.0554 11.7515C30.2351 11.7906 29.5105 11.9366 28.8681 12.1428C28.2275 12.3483 27.6782 12.6121 27.2015 12.8893C26.7362 13.1594 26.3361 13.4458 25.9929 13.7222L25.9904 13.7189C24.8789 14.6136 25.1221 14.6136 24.0106 13.7189L24.0081 13.7222C23.6649 13.4462 23.2648 13.1594 22.7995 12.8893C22.3228 12.6125 21.7735 12.3486 21.1329 12.1428C20.4908 11.9366 19.7659 11.7906 18.9456 11.7515C18.0971 11.7108 17.1357 11.784 16.1574 12.0039C15.2806 12.2008 14.3918 12.5138 13.5594 12.9643C12.6742 13.4432 11.8503 14.077 11.1213 14.8268C10.3957 15.5729 9.76167 16.4377 9.25308 17.3815C8.76245 18.2913 8.39064 19.2673 8.14349 20.2148C7.87838 21.2317 7.75077 22.2402 7.76801 23.1242C7.78598 24.0355 7.95502 24.8082 8.21793 25.4933C8.47717 26.1685 8.81819 26.7398 9.19257 27.269C9.50169 27.7062 9.84381 28.1256 10.1797 28.5025V28.5077C10.5911 28.9696 10.9901 29.3625 11.305 29.6444C10.5266 29.9249 9.15957 30.691 7.65874 32.2671C-2.60475 7.02943 18.0916 0.344016 23.4041 0.0339684C24.1833 -0.0114855 25.818 -0.0114855 26.5972 0.0339684H26.5969ZM33.1979 23.0499C32.9445 23.5048 32.1866 23.7361 31.5057 23.5669C30.8247 23.3976 30.4782 22.8914 30.7316 22.4365C30.7327 22.4346 31.1313 21.717 31.1159 21.707C30.589 21.374 30.5658 20.8182 31.0645 20.4664C31.5632 20.1142 32.3949 20.0991 32.9218 20.4321C34.2052 21.2436 33.2005 23.0451 33.1979 23.0503V23.0499ZM16.8031 23.0499C17.0565 23.5048 17.8144 23.7361 18.4953 23.5669C19.1763 23.3976 19.5228 22.8914 19.2694 22.4365C19.2683 22.4346 18.8697 21.717 18.8851 21.707C19.4121 21.374 19.4352 20.8182 18.9365 20.4664C18.4378 20.1142 17.6061 20.0991 17.0792 20.4321C15.7958 21.2436 16.8005 23.0451 16.8031 23.0503V23.0499Z" fill="#060054" style="fill:#060054;fill:color(display-p3 0.0235 0.0000 0.3294);fill-opacity:1;"/>
</g>
</g>
<defs>
<clipPath id="clip0_407_796">
<rect width="50" height="52" fill="white" style="fill:white;fill-opacity:1;"/>
</clipPath>
</defs>
</svg>
