<svg width="24" height="24" viewBox="0 0 24 24" fill="none" xmlns="http://www.w3.org/2000/svg">
<path id="Vector" d="M12 0C9.62663 0 7.30655 0.703788 5.33316 2.02236C3.35977 3.34094 1.8217 5.21509 0.913451 7.4078C0.00519943 9.60051 -0.232441 12.0133 0.230582 14.3411C0.693605 16.6689 1.83649 18.8071 3.51472 20.4853C5.19295 22.1635 7.33115 23.3064 9.65892 23.7694C11.9867 24.2324 14.3995 23.9948 16.5922 23.0866C18.7849 22.1783 20.6591 20.6402 21.9776 18.6668C23.2962 16.6935 24 14.3734 24 12C23.9974 8.81821 22.7322 5.76751 20.4824 3.51764C18.2325 1.26778 15.1818 0.00264818 12 0ZM14.3229 11.0908C14.5364 11.6295 14.5577 12.2253 14.3831 12.7778C14.2086 13.3303 13.8489 13.8058 13.3646 14.124C12.8804 14.4422 12.3013 14.5838 11.7249 14.5249C11.1484 14.4659 10.61 14.2101 10.2002 13.8004C9.7904 13.3907 9.53438 12.8523 9.47527 12.2759C9.41616 11.6995 9.55758 11.1203 9.87568 10.636C10.1938 10.1517 10.6691 9.79188 11.2216 9.61717C11.7741 9.44246 12.3699 9.46356 12.9086 9.6769L15.293 7.293C15.3853 7.19749 15.4956 7.12131 15.6176 7.0689C15.7396 7.01649 15.8708 6.9889 16.0036 6.98775C16.1364 6.9866 16.2681 7.0119 16.391 7.06218C16.5139 7.11246 16.6255 7.18671 16.7194 7.2806C16.8133 7.3745 16.8875 7.48615 16.9378 7.60905C16.9881 7.73194 17.0134 7.86362 17.0123 7.9964C17.0111 8.12918 16.9835 8.2604 16.9311 8.3824C16.8787 8.50441 16.8025 8.61475 16.707 8.707L14.3229 11.0908ZM16 17V19C16 19.2652 15.8946 19.5196 15.7071 19.7071C15.5196 19.8946 15.2652 20 15 20C14.7348 20 14.4804 19.8946 14.2929 19.7071C14.1054 19.5196 14 19.2652 14 19V17C14 16.7348 14.1054 16.4804 14.2929 16.2929C14.4804 16.1054 14.7348 16 15 16C15.2652 16 15.5196 16.1054 15.7071 16.2929C15.8946 16.4804 16 16.7348 16 17ZM10 17V19C10 19.2652 9.89465 19.5196 9.70711 19.7071C9.51958 19.8946 9.26522 20 9.00001 20C8.73479 20 8.48044 19.8946 8.2929 19.7071C8.10536 19.5196 8.00001 19.2652 8.00001 19V17C8.00001 16.7348 8.10536 16.4804 8.2929 16.2929C8.48044 16.1054 8.73479 16 9.00001 16C9.26522 16 9.51958 16.1054 9.70711 16.2929C9.89465 16.4804 10 16.7348 10 17ZM11 19V17C11 16.7348 11.1054 16.4804 11.2929 16.2929C11.4804 16.1054 11.7348 16 12 16C12.2652 16 12.5196 16.1054 12.7071 16.2929C12.8946 16.4804 13 16.7348 13 17V19C13 19.2652 12.8946 19.5196 12.7071 19.7071C12.5196 19.8946 12.2652 20 12 20C11.7348 20 11.4804 19.8946 11.2929 19.7071C11.1054 19.5196 11 19.2652 11 19ZM12 5C10.1441 5.00214 8.36492 5.74033 7.05263 7.05262C5.74034 8.36491 5.00215 10.1441 5.00001 12C5.00001 12.2652 4.89465 12.5196 4.70711 12.7071C4.51958 12.8946 4.26522 13 4.00001 13C3.73479 13 3.48044 12.8946 3.2929 12.7071C3.10536 12.5196 3.00001 12.2652 3.00001 12C3.00001 9.61305 3.94822 7.32387 5.63604 5.63604C7.32387 3.94821 9.61306 3 12 3C14.387 3 16.6761 3.94821 18.364 5.63604C20.0518 7.32387 21 9.61305 21 12C21 12.2652 20.8946 12.5196 20.7071 12.7071C20.5196 12.8946 20.2652 13 20 13C19.7348 13 19.4804 12.8946 19.2929 12.7071C19.1054 12.5196 19 12.2652 19 12C18.9979 10.1441 18.2597 8.36491 16.9474 7.05262C15.6351 5.74033 13.8559 5.00214 12 5Z" fill="#E5614D" style="fill:#E5614D;fill:color(display-p3 0.8980 0.3804 0.3020);fill-opacity:1;"/>
</svg>
