<svg width="23" height="23" viewBox="0 0 23 23" fill="none" xmlns="http://www.w3.org/2000/svg">
<path id="Vector" d="M17.1889 4H6.06667V3C6.06432 2.20506 5.74398 1.44335 5.17563 0.881244C4.60728 0.319138 3.8371 0.00232161 3.03333 0H1.01111C0.742948 0 0.485768 0.105357 0.296148 0.292893C0.106527 0.48043 0 0.734784 0 1C0 1.26522 0.106527 1.51957 0.296148 1.70711C0.485768 1.89464 0.742948 2 1.01111 2H3.03333C3.30126 2.00077 3.55799 2.10637 3.74744 2.29374C3.9369 2.48111 4.04367 2.73502 4.04444 3V10.53C4.02546 10.9697 3.91824 11.4012 3.72903 11.7995C3.53982 12.1978 3.2724 12.5549 2.94233 12.85C2.64938 13.1278 2.41672 13.4617 2.25853 13.8313C2.10034 14.201 2.01993 14.5986 2.02222 15C2.02489 15.6572 2.24611 16.2952 2.65178 16.8157C3.05744 17.3362 3.62499 17.7102 4.26689 17.88C4.07889 18.3312 4.00489 18.8209 4.05129 19.3067C4.09769 19.7925 4.2631 20.2599 4.53319 20.6683C4.80328 21.0766 5.16992 21.4138 5.60139 21.6505C6.03285 21.8873 6.51615 22.0164 7.00945 22.0269C7.50275 22.0373 7.9912 21.9288 8.43252 21.7105C8.87385 21.4923 9.25476 21.171 9.54229 20.7744C9.82982 20.3778 10.0153 19.918 10.0827 19.4345C10.1501 18.9511 10.0974 18.4587 9.92911 18H14.3376C14.1897 18.4115 14.1346 18.8501 14.176 19.2849C14.2175 19.7197 14.3546 20.1403 14.5777 20.5172C14.8008 20.8941 15.1045 21.2182 15.4675 21.4669C15.8305 21.7155 16.2441 21.8827 16.6794 21.9566C17.1146 22.0306 17.5609 22.0096 17.987 21.895C18.4132 21.7805 18.8088 21.5752 19.1463 21.2936C19.4838 21.0119 19.755 20.6607 19.9408 20.2645C20.1267 19.8683 20.2227 19.4367 20.2222 19C20.2233 18.4002 20.0399 17.8143 19.6964 17.32C20.4677 16.885 21.1093 16.2566 21.5566 15.4982C22.004 14.7397 22.2412 13.878 22.2444 13V9C22.244 7.67406 21.7112 6.40257 20.7632 5.46499C19.8152 4.52741 18.5296 4.00048 17.1889 4ZM7.07778 20C6.8778 20 6.68231 19.9414 6.51603 19.8315C6.34976 19.7216 6.22016 19.5654 6.14363 19.3827C6.0671 19.2 6.04708 18.9989 6.08609 18.8049C6.12511 18.6109 6.22141 18.4327 6.36281 18.2929C6.50422 18.153 6.68438 18.0578 6.88052 18.0192C7.07666 17.9806 7.27996 18.0004 7.46471 18.0761C7.64947 18.1518 7.80738 18.28 7.91849 18.4444C8.02959 18.6089 8.08889 18.8022 8.08889 19C8.08812 19.265 7.98134 19.5189 7.79189 19.7063C7.60243 19.8936 7.3457 19.9992 7.07778 20ZM10.1111 13C10.1111 13.2652 10.0046 13.5196 9.81496 13.7071C9.62534 13.8946 9.36816 14 9.1 14C8.83184 14 8.57466 13.8946 8.38504 13.7071C8.19542 13.5196 8.08889 13.2652 8.08889 13V9C8.08889 8.73478 8.19542 8.48043 8.38504 8.29289C8.57466 8.10536 8.83184 8 9.1 8C9.36816 8 9.62534 8.10536 9.81496 8.29289C10.0046 8.48043 10.1111 8.73478 10.1111 9V13ZM14.1556 13C14.1556 13.2652 14.049 13.5196 13.8594 13.7071C13.6698 13.8946 13.4126 14 13.1444 14C12.8763 14 12.6191 13.8946 12.4295 13.7071C12.2399 13.5196 12.1333 13.2652 12.1333 13V9C12.1333 8.73478 12.2399 8.48043 12.4295 8.29289C12.6191 8.10536 12.8763 8 13.1444 8C13.4126 8 13.6698 8.10536 13.8594 8.29289C14.049 8.48043 14.1556 8.73478 14.1556 9V13ZM17.1889 20C16.9889 20 16.7934 19.9414 16.6271 19.8315C16.4609 19.7216 16.3313 19.5654 16.2547 19.3827C16.1782 19.2 16.1582 18.9989 16.1972 18.8049C16.2362 18.6109 16.3325 18.4327 16.4739 18.2929C16.6153 18.153 16.7955 18.0578 16.9916 18.0192C17.1878 17.9806 17.3911 18.0004 17.5758 18.0761C17.7606 18.1518 17.9185 18.28 18.0296 18.4444C18.1407 18.6089 18.2 18.8022 18.2 19C18.1992 19.265 18.0924 19.5189 17.903 19.7063C17.7135 19.8936 17.4568 19.9992 17.1889 20ZM18.2 13C18.2 13.2652 18.0935 13.5196 17.9039 13.7071C17.7142 13.8946 17.4571 14 17.1889 14C16.9207 14 16.6635 13.8946 16.4739 13.7071C16.2843 13.5196 16.1778 13.2652 16.1778 13V9C16.1778 8.73478 16.2843 8.48043 16.4739 8.29289C16.6635 8.10536 16.9207 8 17.1889 8C17.4571 8 17.7142 8.10536 17.9039 8.29289C18.0935 8.48043 18.2 8.73478 18.2 9V13Z" fill="#3571E7" style="fill:#3571E7;fill:color(display-p3 0.2078 0.4431 0.9059);fill-opacity:1;"/>
</svg>
