<svg width="25" height="22" viewBox="0 0 25 22" fill="none" xmlns="http://www.w3.org/2000/svg">
<g id="Group">
<path id="Vector" d="M7.63425 7.89249L11.6787 9.89249C11.8192 9.96476 11.9753 10.0025 12.1337 10.0025C12.2921 10.0025 12.4482 9.96476 12.5887 9.89249L16.6331 7.89249C16.8008 7.8105 16.9418 7.68361 17.0401 7.52627C17.1384 7.36893 17.1901 7.18745 17.1892 7.00249V3.00249C17.1901 2.81753 17.1384 2.63606 17.0401 2.47872C16.9418 2.32138 16.8008 2.19449 16.6331 2.11249L12.5887 0.112493C12.4487 0.0386342 12.2924 0 12.1337 0C11.975 0 11.8187 0.0386342 11.6787 0.112493L7.63425 2.11249C7.46661 2.19449 7.32561 2.32138 7.2273 2.47872C7.12899 2.63606 7.0773 2.81753 7.07813 3.00249V7.00249C7.0773 7.18745 7.12899 7.36893 7.2273 7.52627C7.32561 7.68361 7.46661 7.8105 7.63425 7.89249ZM15.167 6.38249L13.1448 7.38249V5.62249L15.167 4.62249V6.38249ZM9.10036 4.62249L11.1226 5.62249V7.38249L9.10036 6.38249V4.62249Z" fill="#E5614D" style="fill:#E5614D;fill:color(display-p3 0.8980 0.3804 0.3020);fill-opacity:1;"/>
<path id="Vector_2" d="M10.1111 17.0025V13.0025C10.112 12.8175 10.0603 12.6361 9.96196 12.4787C9.86364 12.3214 9.72264 12.1945 9.55501 12.1125L5.51057 10.1125C5.37053 10.0386 5.21427 10 5.05557 10C4.89686 10 4.7406 10.0386 4.60057 10.1125L0.556121 12.1125C0.388486 12.1945 0.247489 12.3214 0.149175 12.4787C0.0508614 12.6361 -0.000820746 12.8175 9.85623e-06 13.0025V17.0025C-0.000820746 17.1875 0.0508614 17.3689 0.149175 17.5263C0.247489 17.6836 0.388486 17.8105 0.556121 17.8925L4.60057 19.8925C4.7411 19.9648 4.89717 20.0025 5.05557 20.0025C5.21396 20.0025 5.37003 19.9648 5.51057 19.8925L9.55501 17.8925C9.72264 17.8105 9.86364 17.6836 9.96196 17.5263C10.0603 17.3689 10.112 17.1875 10.1111 17.0025ZM4.04445 17.3825L2.02223 16.3825V14.6225L4.04445 15.6225V17.3825ZM8.0889 16.3825L6.06668 17.3825V15.6225L8.0889 14.6225V16.3825Z" fill="#E5614D" style="fill:#E5614D;fill:color(display-p3 0.8980 0.3804 0.3020);fill-opacity:1;"/>
<path id="Vector_3" d="M23.7113 12.1125L19.6668 10.1125C19.5268 10.0386 19.3705 10 19.2118 10C19.0531 10 18.8968 10.0386 18.7568 10.1125L14.7124 12.1125C14.5447 12.1945 14.4037 12.3214 14.3054 12.4787C14.2071 12.6361 14.1554 12.8175 14.1563 13.0025V17.0025C14.1554 17.1875 14.2071 17.3689 14.3054 17.5263C14.4037 17.6836 14.5447 17.8105 14.7124 17.8925L18.7568 19.8925C18.8974 19.9648 19.0534 20.0025 19.2118 20.0025C19.3702 20.0025 19.5263 19.9648 19.6668 19.8925L23.7113 17.8925C23.8789 17.8105 24.0199 17.6836 24.1182 17.5263C24.2165 17.3689 24.2682 17.1875 24.2674 17.0025V13.0025C24.2682 12.8175 24.2165 12.6361 24.1182 12.4787C24.0199 12.3214 23.8789 12.1945 23.7113 12.1125ZM18.2007 17.3825L16.1785 16.3825V14.6225L18.2007 15.6225V17.3825ZM22.2451 16.3825L20.2229 17.3825V15.6225L22.2451 14.6225V16.3825Z" fill="#E5614D" style="fill:#E5614D;fill:color(display-p3 0.8980 0.3804 0.3020);fill-opacity:1;"/>
<path id="Vector_4" d="M2.18277 8.95667C2.30944 8.99606 2.44272 9.01039 2.57499 8.99883C2.70726 8.98728 2.83593 8.95007 2.95366 8.88933C3.07139 8.82859 3.17587 8.74551 3.26114 8.64483C3.3464 8.54416 3.41078 8.42786 3.4506 8.30258C3.75926 7.33014 4.23362 6.41701 4.85321 5.60257C4.93498 5.49776 4.99489 5.37794 5.02947 5.25005C5.06405 5.12216 5.07262 4.98876 5.05466 4.85757C5.03671 4.72638 4.9926 4.60003 4.92488 4.48583C4.85717 4.37164 4.76721 4.27188 4.66021 4.19234C4.55321 4.11279 4.43131 4.05506 4.30158 4.02247C4.17184 3.98988 4.03686 3.9831 3.90445 4.0025C3.77204 4.02191 3.64485 4.06713 3.53025 4.13553C3.41565 4.20393 3.31592 4.29416 3.23685 4.40097C2.47886 5.39674 1.89861 6.51337 1.5212 7.70257C1.48134 7.82788 1.46685 7.95973 1.47853 8.09058C1.49021 8.22142 1.52784 8.34872 1.58928 8.46518C1.65072 8.58164 1.73475 8.68499 1.83658 8.76932C1.93842 8.85365 2.05605 8.91732 2.18277 8.95667Z" fill="#E5614D" style="fill:#E5614D;fill:color(display-p3 0.8980 0.3804 0.3020);fill-opacity:1;"/>
<path id="Vector_5" d="M13.9547 19.8217C12.7526 20.062 11.5141 20.062 10.3121 19.8217C10.0491 19.769 9.7758 19.8218 9.5522 19.9684C9.44148 20.041 9.34631 20.1344 9.27211 20.2434C9.19791 20.3524 9.14615 20.4747 9.11976 20.6035C9.09338 20.7323 9.0929 20.8649 9.11834 20.9938C9.14379 21.1228 9.19467 21.2455 9.26807 21.355C9.41632 21.5762 9.64731 21.73 9.91025 21.7827C11.3775 22.0756 12.8892 22.0756 14.3565 21.7827C14.4867 21.7566 14.6104 21.7054 14.7206 21.632C14.8308 21.5586 14.9253 21.4645 14.9987 21.355C15.0721 21.2455 15.123 21.1228 15.1484 20.9938C15.1739 20.8649 15.1734 20.7323 15.147 20.6035C15.1206 20.4747 15.0688 20.3524 14.9946 20.2434C14.9204 20.1344 14.8253 20.041 14.7146 19.9684C14.6038 19.8958 14.4798 19.8455 14.3494 19.8203C14.219 19.7951 14.0849 19.7956 13.9547 19.8217Z" fill="#E5614D" style="fill:#E5614D;fill:color(display-p3 0.8980 0.3804 0.3020);fill-opacity:1;"/>
<path id="Vector_6" d="M20.8164 8.30245C20.8968 8.5555 21.0756 8.76657 21.3134 8.88924C21.5512 9.0119 21.8285 9.03612 22.0844 8.95655C22.3402 8.87699 22.5537 8.70016 22.6777 8.46497C22.8017 8.22978 22.8262 7.9555 22.7458 7.70245C22.3684 6.51318 21.7881 5.39648 21.0301 4.40065C20.9507 4.29478 20.8508 4.20548 20.7364 4.13791C20.6219 4.07034 20.495 4.02582 20.3631 4.00691C20.2312 3.98801 20.0968 3.9951 19.9676 4.02777C19.8385 4.06043 19.7171 4.11804 19.6106 4.19727C19.504 4.27649 19.4143 4.37578 19.3467 4.48941C19.2791 4.60304 19.2349 4.72877 19.2166 4.85937C19.1983 4.98997 19.2063 5.12285 19.2401 5.25038C19.274 5.37791 19.333 5.49756 19.4137 5.60245C20.0333 6.41689 20.5077 7.33002 20.8164 8.30245Z" fill="#E5614D" style="fill:#E5614D;fill:color(display-p3 0.8980 0.3804 0.3020);fill-opacity:1;"/>
</g>
</svg>
