<svg width="24" height="24" viewBox="0 0 24 24" fill="none" xmlns="http://www.w3.org/2000/svg">
<path id="Vector" d="M19 4V3C18.9977 2.20506 18.6809 1.44335 18.1188 0.881244C17.5566 0.319138 16.7949 0.00232161 16 0L8 0C7.20506 0.00232161 6.44335 0.319138 5.88124 0.881244C5.31914 1.44335 5.00232 2.20506 5 3V4C3.67406 4.00048 2.40257 4.52741 1.46499 5.46499C0.527415 6.40257 0.000477079 7.67406 0 9L0 15C0.000477079 16.3259 0.527415 17.5974 1.46499 18.535C2.40257 19.4726 3.67406 19.9995 5 20V21C5.00232 21.7949 5.31914 22.5566 5.88124 23.1188C6.44335 23.6809 7.20506 23.9977 8 24H16C16.7949 23.9977 17.5566 23.6809 18.1188 23.1188C18.6809 22.5566 18.9977 21.7949 19 21V20C20.3259 19.9995 21.5974 19.4726 22.535 18.535C23.4726 17.5974 23.9995 16.3259 24 15V9C23.9995 7.67406 23.4726 6.40257 22.535 5.46499C21.5974 4.52741 20.3259 4.00048 19 4ZM7 3C7.00077 2.73502 7.10637 2.48111 7.29374 2.29374C7.48111 2.10637 7.73502 2.00077 8 2H16C16.265 2.00077 16.5189 2.10637 16.7063 2.29374C16.8936 2.48111 16.9992 2.73502 17 3V4H7V3ZM17 21C16.9992 21.265 16.8936 21.5189 16.7063 21.7063C16.5189 21.8936 16.265 21.9992 16 22H8C7.73502 21.9992 7.48111 21.8936 7.29374 21.7063C7.10637 21.5189 7.00077 21.265 7 21V17C7.00077 16.735 7.10637 16.4811 7.29374 16.2937C7.48111 16.1064 7.73502 16.0008 8 16H16C16.265 16.0008 16.5189 16.1064 16.7063 16.2937C16.8936 16.4811 16.9992 16.735 17 17V21ZM18 13C17.4067 13 16.8266 12.8241 16.3333 12.4944C15.8399 12.1648 15.4554 11.6962 15.2284 11.1481C15.0013 10.5999 14.9419 9.99667 15.0576 9.41473C15.1734 8.83279 15.4591 8.29824 15.8787 7.87868C16.2982 7.45912 16.8328 7.1734 17.4147 7.05764C17.9967 6.94189 18.5999 7.0013 19.1481 7.22836C19.6962 7.45542 20.1648 7.83994 20.4944 8.33329C20.8241 8.82664 21 9.40666 21 10C20.9991 10.7954 20.6828 11.5579 20.1204 12.1204C19.5579 12.6828 18.7954 12.9991 18 13Z" fill="#060054" style="fill:#060054;fill:color(display-p3 0.0235 0.0000 0.3294);fill-opacity:1;"/>
</svg>
