<svg width="25" height="18" viewBox="0 0 25 18" fill="none" xmlns="http://www.w3.org/2000/svg">
<path id="Vector" d="M23.7888 8.78V8C23.7883 6.67406 23.2555 5.40257 22.3075 4.46499C21.3595 3.52741 20.0739 3.00048 18.7332 3H16.711C16.7086 2.20506 16.3883 1.44335 15.8199 0.881244C15.2516 0.319138 14.4814 0.00232161 13.6776 0H3.56654C2.76277 0.00232161 1.99259 0.319138 1.42424 0.881244C0.855887 1.44335 0.535551 2.20506 0.533203 3L0.533203 13C0.53626 13.6431 0.748212 14.2683 1.1378 14.7832C1.52739 15.2982 2.07399 15.6756 2.69698 15.86C2.87768 16.4658 3.24805 16.9993 3.7548 17.3837C4.26154 17.7681 4.87853 17.9836 5.51697 17.9991C6.15541 18.0147 6.78238 17.8295 7.30766 17.4703C7.83294 17.1111 8.22943 16.5963 8.44009 16H15.8819C16.089 16.5845 16.4746 17.0909 16.9854 17.4492C17.4962 17.8075 18.107 18 18.7332 18C19.3594 18 19.9702 17.8075 20.481 17.4492C20.9918 17.0909 21.3775 16.5845 21.5845 16H21.7665C22.5703 15.9977 23.3405 15.6809 23.9088 15.1188C24.4772 14.5566 24.7975 13.7949 24.7999 13V11C24.7985 10.5805 24.7077 10.1659 24.5335 9.78344C24.3593 9.40093 24.1055 9.05902 23.7888 8.78ZM5.58876 16C5.38878 16 5.19329 15.9414 5.02702 15.8315C4.86074 15.7216 4.73114 15.5654 4.65461 15.3827C4.57809 15.2 4.55806 14.9989 4.59708 14.8049C4.63609 14.6109 4.73239 14.4327 4.8738 14.2929C5.0152 14.153 5.19536 14.0578 5.3915 14.0192C5.58764 13.9806 5.79094 14.0004 5.97569 14.0761C6.16045 14.1518 6.31836 14.28 6.42947 14.4444C6.54057 14.6089 6.59987 14.8022 6.59987 15C6.5991 15.265 6.49232 15.5189 6.30287 15.7063C6.11342 15.8936 5.85668 15.9992 5.58876 16ZM12.6665 11H4.57765C4.30948 11 4.0523 10.8946 3.86268 10.7071C3.67306 10.5196 3.56654 10.2652 3.56654 10C3.56654 9.73478 3.67306 9.48043 3.86268 9.29289C4.0523 9.10536 4.30948 9 4.57765 9H12.6665C12.9347 9 13.1919 9.10536 13.3815 9.29289C13.5711 9.48043 13.6776 9.73478 13.6776 10C13.6776 10.2652 13.5711 10.5196 13.3815 10.7071C13.1919 10.8946 12.9347 11 12.6665 11ZM21.7665 8H20.7554C20.4875 7.99923 20.2308 7.89363 20.0413 7.70626C19.8519 7.51889 19.7451 7.26498 19.7443 7V6C19.7392 5.70809 19.6915 5.41844 19.6028 5.14C20.2258 5.32436 20.7724 5.70185 21.1619 6.21679C21.5515 6.73173 21.7635 7.35687 21.7665 8ZM18.7332 16C18.5332 16 18.3377 15.9414 18.1715 15.8315C18.0052 15.7216 17.8756 15.5654 17.7991 15.3827C17.7225 15.2 17.7025 14.9989 17.7415 14.8049C17.7805 14.6109 17.8768 14.4327 18.0182 14.2929C18.1596 14.153 18.3398 14.0578 18.5359 14.0192C18.7321 13.9806 18.9354 14.0004 19.1201 14.0761C19.3049 14.1518 19.4628 14.28 19.5739 14.4444C19.685 14.6089 19.7443 14.8022 19.7443 15C19.7435 15.265 19.6368 15.5189 19.4473 15.7063C19.2579 15.8936 19.0011 15.9992 18.7332 16ZM22.7776 13C22.7769 13.265 22.6701 13.5189 22.4806 13.7063C22.2912 13.8936 22.0345 13.9992 21.7665 14H21.5845C21.3747 13.4173 20.9883 12.9126 20.4782 12.5548C19.968 12.1969 19.3587 12.0032 18.7332 12C17.9844 12.0019 17.2634 12.2801 16.711 12.78V5C16.9789 5.00077 17.2356 5.10637 17.4251 5.29374C17.6145 5.48111 17.7213 5.73502 17.7221 6V7C17.7244 7.79494 18.0448 8.55665 18.6131 9.11876C19.1815 9.68086 19.9517 9.99768 20.7554 10H21.7665C22.0345 10.0008 22.2912 10.1064 22.4806 10.2937C22.6701 10.4811 22.7769 10.735 22.7776 11V13Z" fill="#060054" style="fill:#060054;fill:color(display-p3 0.0235 0.0000 0.3294);fill-opacity:1;"/>
</svg>
