<svg width="27" height="21" viewBox="0 0 27 21" fill="none" xmlns="http://www.w3.org/2000/svg">
<g id="Group 154">
<path id="Vector" d="M1.58716 6.29993C1.8698 6.29993 2.14086 6.18931 2.34071 5.9924C2.54056 5.79549 2.65284 5.52842 2.65284 5.24995V3.14997C2.65309 2.87157 2.76545 2.60465 2.96525 2.40779C3.16505 2.21093 3.43596 2.10023 3.71851 2.09998H5.84987C6.1325 2.09998 6.40356 1.98935 6.60342 1.79244C6.80327 1.59553 6.91555 1.32846 6.91555 1.04999C6.91555 0.771515 6.80327 0.504446 6.60342 0.307535C6.40356 0.110623 6.1325 0 5.84987 0H3.71851C2.8709 0.000917143 2.05826 0.333082 1.4589 0.923617C0.859543 1.51415 0.522415 2.31483 0.521484 3.14997V5.24995C0.521484 5.52842 0.633761 5.79549 0.833614 5.9924C1.03347 6.18931 1.30453 6.29993 1.58716 6.29993Z" fill="#060054" style="fill:#060054;fill:color(display-p3 0.0235 0.0000 0.3294);fill-opacity:1;"/>
<path id="Vector_2" d="M5.84987 18.8999H3.71851C3.43596 18.8997 3.16505 18.789 2.96525 18.5921C2.76545 18.3952 2.65309 18.1283 2.65284 17.8499V15.7499C2.65284 15.4715 2.54056 15.2044 2.34071 15.0075C2.14086 14.8106 1.8698 14.7 1.58716 14.7C1.30453 14.7 1.03347 14.8106 0.833614 15.0075C0.633761 15.2044 0.521484 15.4715 0.521484 15.7499L0.521484 17.8499C0.522415 18.6851 0.859543 19.4857 1.4589 20.0763C2.05826 20.6668 2.8709 20.999 3.71851 20.9999H5.84987C6.1325 20.9999 6.40356 20.8893 6.60342 20.6924C6.80327 20.4954 6.91555 20.2284 6.91555 19.9499C6.91555 19.6714 6.80327 19.4044 6.60342 19.2074C6.40356 19.0105 6.1325 18.8999 5.84987 18.8999Z" fill="#060054" style="fill:#060054;fill:color(display-p3 0.0235 0.0000 0.3294);fill-opacity:1;"/>
<path id="Vector_3" d="M22.9002 0H20.7688C20.4862 0 20.2151 0.110623 20.0153 0.307535C19.8154 0.504446 19.7031 0.771515 19.7031 1.04999C19.7031 1.32846 19.8154 1.59553 20.0153 1.79244C20.2151 1.98935 20.4862 2.09998 20.7688 2.09998H22.9002C23.1827 2.10023 23.4536 2.21093 23.6534 2.40779C23.8532 2.60465 23.9656 2.87157 23.9658 3.14997V5.24995C23.9658 5.52842 24.0781 5.79549 24.278 5.9924C24.4778 6.18931 24.7489 6.29993 25.0315 6.29993C25.3141 6.29993 25.5852 6.18931 25.7851 5.9924C25.9849 5.79549 26.0972 5.52842 26.0972 5.24995V3.14997C26.0963 2.31483 25.7591 1.51415 25.1598 0.923617C24.5604 0.333082 23.7478 0.000917143 22.9002 0Z" fill="#060054" style="fill:#060054;fill:color(display-p3 0.0235 0.0000 0.3294);fill-opacity:1;"/>
<path id="Vector_4" d="M25.0315 14.7C24.7489 14.7 24.4778 14.8106 24.278 15.0075C24.0781 15.2044 23.9658 15.4715 23.9658 15.7499V17.8499C23.9656 18.1283 23.8532 18.3952 23.6534 18.5921C23.4536 18.789 23.1827 18.8997 22.9002 18.8999H20.7688C20.4862 18.8999 20.2151 19.0105 20.0153 19.2074C19.8154 19.4044 19.7031 19.6714 19.7031 19.9499C19.7031 20.2284 19.8154 20.4954 20.0153 20.6924C20.2151 20.8893 20.4862 20.9999 20.7688 20.9999H22.9002C23.7478 20.999 24.5604 20.6668 25.1598 20.0763C25.7591 19.4857 26.0963 18.6851 26.0972 17.8499V15.7499C26.0972 15.4715 25.9849 15.2044 25.7851 15.0075C25.5852 14.8106 25.3141 14.7 25.0315 14.7Z" fill="#060054" style="fill:#060054;fill:color(display-p3 0.0235 0.0000 0.3294);fill-opacity:1;"/>
<path id="Vector_5" d="M23.744 13.0304C23.8925 12.1948 23.9674 11.3482 23.9678 10.4999C23.9648 9.62343 23.8864 8.74881 23.7334 7.88541C23.5348 6.82773 23.0113 5.85566 22.2336 5.10073C21.456 4.3458 20.4617 3.84443 19.3854 3.66446C15.3691 2.98196 11.2637 2.98196 7.24736 3.66446C6.15781 3.85141 5.1534 4.36524 4.37138 5.13576C3.58935 5.90628 3.06783 6.8959 2.87809 7.96941C2.7296 8.80497 2.65472 9.65162 2.6543 10.4999C2.65735 11.3763 2.73578 12.251 2.88875 13.1144C3.08733 14.172 3.61086 15.1441 4.38851 15.899C5.16616 16.654 6.16039 17.1553 7.23671 17.3353C9.24255 17.6798 11.275 17.852 13.3111 17.8498C15.3436 17.8515 17.3725 17.6794 19.3748 17.3353C20.4643 17.1484 21.4687 16.6345 22.2508 15.864C23.0328 15.0935 23.5543 14.1039 23.744 13.0304ZM19.1723 7.34992V9.4499C19.1723 9.72837 19.06 9.99544 18.8602 10.1924C18.6603 10.3893 18.3892 10.4999 18.1066 10.4999C17.824 10.4999 17.5529 10.3893 17.3531 10.1924C17.1532 9.99544 17.0409 9.72837 17.0409 9.4499V7.34992C17.0409 7.07144 17.1532 6.80438 17.3531 6.60747C17.5529 6.41055 17.824 6.29993 18.1066 6.29993C18.3892 6.29993 18.6603 6.41055 18.8602 6.60747C19.06 6.80438 19.1723 7.07144 19.1723 7.34992ZM13.8439 7.34992C13.8439 7.07144 13.9562 6.80438 14.156 6.60747C14.3559 6.41055 14.6269 6.29993 14.9096 6.29993C15.1922 6.29993 15.4633 6.41055 15.6631 6.60747C15.863 6.80438 15.9753 7.07144 15.9753 7.34992V13.6499C15.9753 13.9283 15.863 14.1954 15.6631 14.3923C15.4633 14.5892 15.1922 14.6998 14.9096 14.6998C14.6269 14.6998 14.3559 14.5892 14.156 14.3923C13.9562 14.1954 13.8439 13.9283 13.8439 13.6499V7.34992ZM18.1066 14.6998C17.824 14.6998 17.5529 14.5892 17.3531 14.3923C17.1532 14.1954 17.0409 13.9283 17.0409 13.6499V12.5999C17.0409 12.3214 17.1532 12.0543 17.3531 11.8574C17.5529 11.6605 17.824 11.5499 18.1066 11.5499C18.3892 11.5499 18.6603 11.6605 18.8602 11.8574C19.06 12.0543 19.1723 12.3214 19.1723 12.5999V13.6499C19.1723 13.9283 19.06 14.1954 18.8602 14.3923C18.6603 14.5892 18.3892 14.6998 18.1066 14.6998ZM7.44984 7.34992C7.44984 7.07144 7.56212 6.80438 7.76197 6.60747C7.96183 6.41055 8.23289 6.29993 8.51552 6.29993C8.79816 6.29993 9.06921 6.41055 9.26907 6.60747C9.46892 6.80438 9.5812 7.07144 9.5812 7.34992V9.4499C9.5812 9.72837 9.46892 9.99544 9.26907 10.1924C9.06921 10.3893 8.79816 10.4999 8.51552 10.4999C8.23289 10.4999 7.96183 10.3893 7.76197 10.1924C7.56212 9.99544 7.44984 9.72837 7.44984 9.4499V7.34992ZM7.44984 12.5999C7.44984 12.3214 7.56212 12.0543 7.76197 11.8574C7.96183 11.6605 8.23289 11.5499 8.51552 11.5499C8.79816 11.5499 9.06921 11.6605 9.26907 11.8574C9.46892 12.0543 9.5812 12.3214 9.5812 12.5999V13.6499C9.5812 13.9283 9.46892 14.1954 9.26907 14.3923C9.06921 14.5892 8.79816 14.6998 8.51552 14.6998C8.23289 14.6998 7.96183 14.5892 7.76197 14.3923C7.56212 14.1954 7.44984 13.9283 7.44984 13.6499V12.5999ZM12.7782 11.5499C12.7782 11.8283 12.666 12.0954 12.4661 12.2923C12.2662 12.4892 11.9952 12.5999 11.7126 12.5999C11.4299 12.5999 11.1589 12.4892 10.959 12.2923C10.7592 12.0954 10.6469 11.8283 10.6469 11.5499V7.34992C10.6469 7.07144 10.7592 6.80438 10.959 6.60747C11.1589 6.41055 11.4299 6.29993 11.7126 6.29993C11.9952 6.29993 12.2662 6.41055 12.4661 6.60747C12.666 6.80438 12.7782 7.07144 12.7782 7.34992V11.5499Z" fill="#060054" style="fill:#060054;fill:color(display-p3 0.0235 0.0000 0.3294);fill-opacity:1;"/>
</g>
</svg>
