<svg width="31" height="25" viewBox="0 0 31 25" fill="none" xmlns="http://www.w3.org/2000/svg">
<g id="Group 235">
<path id="Vector" d="M27.1498 3.2406C26.2812 3.24192 25.4485 3.58987 24.8343 4.2082C24.2201 4.82652 23.8744 5.66477 23.8731 6.53922C23.8699 7.15135 23.9785 7.75887 24.1935 8.33146C24.4135 8.92283 24.6903 9.49117 25.02 10.0284C25.3736 10.6106 25.7873 11.1536 26.2542 11.6484C26.3693 11.7711 26.5082 11.8688 26.6622 11.9357C26.8162 12.0025 26.9821 12.0369 27.1498 12.0369C27.3175 12.0369 27.4834 12.0025 27.6374 11.9357C27.7914 11.8688 27.9303 11.7711 28.0454 11.6484C28.5123 11.1536 28.926 10.6106 29.2796 10.0284C29.6093 9.49117 29.8861 8.92283 30.1061 8.33146C30.3211 7.75887 30.4297 7.15135 30.4265 6.53922C30.4252 5.66477 30.0795 4.82652 29.4653 4.2082C28.8511 3.58987 28.0184 3.24192 27.1498 3.2406ZM27.1498 5.43968C27.3658 5.43968 27.577 5.50416 27.7566 5.62498C27.9362 5.7458 28.0762 5.91753 28.1589 6.11844C28.2416 6.31936 28.2632 6.54044 28.221 6.75373C28.1789 6.96702 28.0749 7.16293 27.9221 7.31671C27.7694 7.47048 27.5748 7.5752 27.3629 7.61763C27.151 7.66005 26.9314 7.63828 26.7318 7.55506C26.5322 7.47184 26.3617 7.33091 26.2416 7.15009C26.1216 6.96927 26.0576 6.75668 26.0576 6.53922C26.0584 6.24786 26.1738 5.96868 26.3784 5.76266C26.5831 5.55665 26.8604 5.44053 27.1498 5.43968Z" fill="#EFB046" style="fill:#EFB046;fill:color(display-p3 0.9373 0.6902 0.2745);fill-opacity:1;"/>
<path id="Vector_2" d="M2.34054 9.72217C1.72009 9.72314 1.12532 9.97953 0.686597 10.4351C0.247872 10.8907 0.000985276 11.5084 4.98276e-05 12.1527C-0.00225353 12.6038 0.0753186 13.0514 0.228898 13.4733C0.386046 13.9091 0.583757 14.3279 0.819221 14.7237C1.07181 15.1527 1.36731 15.5528 1.70081 15.9174C1.78307 16.0078 1.88224 16.0798 1.99224 16.129C2.10224 16.1783 2.22076 16.2037 2.34054 16.2037C2.46032 16.2037 2.57884 16.1783 2.68884 16.129C2.79884 16.0798 2.89801 16.0078 2.98027 15.9174C3.31376 15.5528 3.60926 15.1527 3.86186 14.7237C4.09732 14.3279 4.29503 13.9091 4.45218 13.4733C4.60576 13.0514 4.68333 12.6038 4.68103 12.1527C4.68009 11.5084 4.43321 10.8907 3.99448 10.4351C3.55576 9.97953 2.96099 9.72314 2.34054 9.72217ZM2.34054 11.3425C2.49484 11.3425 2.64568 11.3901 2.77397 11.4791C2.90227 11.5681 3.00227 11.6946 3.06132 11.8427C3.12036 11.9907 3.13581 12.1536 3.10571 12.3108C3.07561 12.4679 3.00131 12.6123 2.8922 12.7256C2.78309 12.8389 2.64408 12.9161 2.49274 12.9473C2.3414 12.9786 2.18454 12.9626 2.04198 12.9012C1.89943 12.8399 1.77758 12.7361 1.69186 12.6028C1.60613 12.4696 1.56038 12.313 1.56038 12.1527C1.56098 11.938 1.64337 11.7323 1.78955 11.5805C1.93573 11.4287 2.13381 11.3432 2.34054 11.3425Z" fill="#EFB046" style="fill:#EFB046;fill:color(display-p3 0.9373 0.6902 0.2745);fill-opacity:1;"/>
<path id="Vector_3" d="M10.0629 0C9.38038 0.00104084 8.72613 0.275742 8.24354 0.763893C7.76094 1.25204 7.48937 1.91382 7.48834 2.60417C7.4858 3.08743 7.57113 3.56705 7.74007 4.0191C7.91293 4.48597 8.13041 4.93466 8.38942 5.3588C8.66728 5.81845 8.99233 6.24713 9.35917 6.63774C9.44966 6.73461 9.55874 6.81178 9.67975 6.86452C9.80075 6.91725 9.93112 6.94446 10.0629 6.94446C10.1946 6.94446 10.325 6.91725 10.446 6.86452C10.567 6.81178 10.6761 6.73461 10.7666 6.63774C11.1334 6.24713 11.4585 5.81845 11.7363 5.3588C11.9953 4.93466 12.2128 4.48597 12.3857 4.0191C12.5546 3.56705 12.6399 3.08743 12.6374 2.60417C12.6364 1.91382 12.3648 1.25204 11.8822 0.763893C11.3996 0.275742 10.7454 0.00104084 10.0629 0ZM10.0629 1.73611C10.2326 1.73611 10.3985 1.78702 10.5397 1.88241C10.6808 1.97779 10.7908 2.11336 10.8557 2.27198C10.9207 2.4306 10.9377 2.60513 10.9046 2.77352C10.8715 2.94191 10.7897 3.09658 10.6697 3.21798C10.5497 3.33938 10.3968 3.42205 10.2303 3.45555C10.0638 3.48904 9.89128 3.47185 9.73446 3.40615C9.57765 3.34045 9.44362 3.22919 9.34932 3.08644C9.25503 2.94369 9.2047 2.77586 9.2047 2.60417C9.20536 2.37415 9.29599 2.15375 9.45678 1.9911C9.61758 1.82846 9.83548 1.73679 10.0629 1.73611Z" fill="#EFB046" style="fill:#EFB046;fill:color(display-p3 0.9373 0.6902 0.2745);fill-opacity:1;"/>
<path id="Vector_4" d="M22.3293 12.1473L18.3903 9.59973C17.5622 9.07185 16.5973 8.79282 15.6123 8.79642C14.6273 8.80002 13.6645 9.08608 12.8403 9.62L9.01062 12.1473C8.54151 12.4544 8.15682 12.8721 7.89111 13.3627C7.62539 13.8534 7.48698 14.4017 7.48829 14.9584V18.8237C7.48698 19.3805 7.62539 19.9288 7.89111 20.4195C8.15682 20.9101 8.54151 21.3278 9.01062 21.6349L12.8403 24.1622C13.661 24.705 14.6252 24.9965 15.6122 25.0001C16.5993 25.0037 17.5656 24.7193 18.3903 24.1825L22.3293 21.6349C22.803 21.3277 23.192 20.9087 23.4614 20.4156C23.7307 19.9225 23.8718 19.3708 23.8721 18.8102V14.972C23.8718 14.4114 23.7307 13.8597 23.4614 13.3666C23.192 12.8735 22.803 12.4545 22.3293 12.1473ZM21.5014 15.4159L18.3881 17.4296C17.7779 17.8279 17.0863 18.0877 16.3628 18.1905V22.2971C16.3628 22.4763 16.2909 22.6482 16.1629 22.7749C16.0349 22.9017 15.8612 22.9729 15.6802 22.9729C15.4991 22.9729 15.3255 22.9017 15.1975 22.7749C15.0694 22.6482 14.9975 22.4763 14.9975 22.2971V18.1966C14.2252 18.1027 13.4855 17.8322 12.8369 17.4065L9.85295 15.4324C9.7784 15.383 9.71439 15.3197 9.66458 15.2459C9.61477 15.1721 9.58014 15.0893 9.56265 15.0023C9.54516 14.9152 9.54516 14.8256 9.56265 14.7386C9.58015 14.6515 9.61479 14.5687 9.6646 14.4949C9.7652 14.3459 9.92149 14.2425 10.0991 14.2076C10.187 14.1903 10.2775 14.1903 10.3655 14.2076C10.4534 14.2249 10.537 14.2592 10.6116 14.3085L13.5948 16.2817C14.1959 16.6687 14.8969 16.8763 15.6141 16.8795C16.3312 16.8827 17.034 16.6815 17.6387 16.2999L20.7547 14.2845C20.8297 14.2335 20.9142 14.1978 21.0033 14.1796C21.0925 14.1614 21.1844 14.161 21.2736 14.1784C21.3629 14.1958 21.4478 14.2308 21.5232 14.2811C21.5987 14.3315 21.6632 14.3963 21.7129 14.4717C21.7627 14.5471 21.7968 14.6316 21.8131 14.7202C21.8294 14.8089 21.8276 14.8998 21.8079 14.9878C21.7882 15.0757 21.7509 15.1589 21.6983 15.2323C21.6456 15.3058 21.5787 15.3684 21.5014 15.4159Z" fill="#EFB046" style="fill:#EFB046;fill:color(display-p3 0.9373 0.6902 0.2745);fill-opacity:1;"/>
</g>
</svg>
