<svg width="25" height="24" viewBox="0 0 25 24" fill="none" xmlns="http://www.w3.org/2000/svg">
<path id="Vector" d="M21.6638 8.84C21.6436 8.43 21.6234 8.01 21.6032 7.61C21.5081 6.29057 20.8904 5.06155 19.8843 4.19L16.4869 1.24C15.5672 0.44065 14.3847 -0.000142523 13.1604 3.45676e-08H9.05526C7.81807 0.00292686 6.62457 0.452733 5.69916 1.26485C4.77375 2.07696 4.18018 3.19544 4.03004 4.41C3.83793 5.89 3.72671 7.37 3.64582 8.82C2.72209 9.19619 1.93208 9.83511 1.37587 10.6558C0.819665 11.4765 0.522309 12.442 0.521484 13.43L0.521484 14.56C0.526051 15.7179 0.936792 16.8384 1.68361 17.7302C2.43042 18.622 3.46702 19.2299 4.61648 19.45C4.72711 20.689 5.3017 21.8424 6.22759 22.6841C7.15348 23.5258 8.36388 23.9951 9.62148 24H15.6882C16.9448 23.9974 18.1549 23.5302 19.081 22.6901C20.0071 21.8501 20.5821 20.6979 20.6932 19.46C21.8454 19.2456 22.8856 18.6394 23.6335 17.7463C24.3814 16.8533 24.7898 15.7296 24.7882 14.57V13.44C24.7836 12.4541 24.4846 11.4915 23.9288 10.6731C23.3729 9.85469 22.5849 9.21696 21.6638 8.84ZM15.6882 3.21L17.7508 5H16.6993C16.4313 4.99923 16.1746 4.89363 15.9852 4.70626C15.7957 4.51889 15.6889 4.26498 15.6882 4V3.21ZM6.03204 4.65C6.1235 3.92005 6.48103 3.24816 7.0376 2.7603C7.59417 2.27244 8.31156 2.00211 9.05526 2H13.1604C13.3301 2.00128 13.4993 2.01802 13.6659 2.05V4C13.6683 4.79494 13.9886 5.55665 14.557 6.11876C15.1253 6.68086 15.8955 6.99768 16.6993 7H19.4192C19.505 7.24565 19.5593 7.50098 19.5809 7.76C19.6012 7.96 19.6012 8.18 19.6214 8.39C14.9944 7.88493 10.3253 7.88493 5.69837 8.39C5.77926 7.16 5.88037 5.91 6.03204 4.65ZM13.6659 20H9.62148C9.35332 20 9.09614 19.8946 8.90652 19.7071C8.7169 19.5196 8.61037 19.2652 8.61037 19C8.61037 18.7348 8.7169 18.4804 8.90652 18.2929C9.09614 18.1054 9.35332 18 9.62148 18H13.6659C13.9341 18 14.1913 18.1054 14.3809 18.2929C14.5705 18.4804 14.677 18.7348 14.677 19C14.677 19.2652 14.5705 19.5196 14.3809 19.7071C14.1913 19.8946 13.9341 20 13.6659 20ZM8.61037 16C8.61037 15.7348 8.7169 15.4804 8.90652 15.2929C9.09614 15.1054 9.35332 15 9.62148 15H11.6437C11.9119 15 12.1691 15.1054 12.3587 15.2929C12.5483 15.4804 12.6548 15.7348 12.6548 16C12.6548 16.2652 12.5483 16.5196 12.3587 16.7071C12.1691 16.8946 11.9119 17 11.6437 17H9.62148C9.35332 17 9.09614 16.8946 8.90652 16.7071C8.7169 16.5196 8.61037 16.2652 8.61037 16ZM22.7659 14.57C22.7677 15.191 22.574 15.7971 22.2116 16.3043C21.8492 16.8114 21.3362 17.1944 20.7437 17.4V14C21.0119 14 21.2691 13.8946 21.4587 13.7071C21.6483 13.5196 21.7548 13.2652 21.7548 13C21.7548 12.7348 21.6483 12.4804 21.4587 12.2929C21.2691 12.1054 21.0119 12 20.7437 12H4.56593C4.29777 12 4.04059 12.1054 3.85097 12.2929C3.66135 12.4804 3.55482 12.7348 3.55482 13C3.55482 13.2652 3.66135 13.5196 3.85097 13.7071C4.04059 13.8946 4.29777 14 4.56593 14V17.38C3.97643 17.1729 3.46589 16.7909 3.10398 16.2862C2.74208 15.7815 2.54642 15.1787 2.54371 14.56V13.43C2.53908 12.7027 2.80399 11.9989 3.28838 11.4517C3.77277 10.9045 4.44307 10.5517 5.1726 10.46C10.1246 9.85149 15.1336 9.84813 20.0865 10.45C20.8245 10.5405 21.5039 10.8941 21.9972 11.4445C22.4905 11.995 22.7638 12.7045 22.7659 13.44V14.57Z" fill="#060054" style="fill:#060054;fill:color(display-p3 0.0235 0.0000 0.3294);fill-opacity:1;"/>
</svg>
