<svg width="25" height="24" viewBox="0 0 25 24" fill="none" xmlns="http://www.w3.org/2000/svg">
<g id="Group 243">
<path id="Vector" d="M1.72268 7.00193C1.45565 6.98781 1.19368 7.07791 0.993125 7.25286C0.792575 7.42781 0.669472 7.67363 0.6503 7.93743C0.564962 9.28703 0.521484 10.6542 0.521484 11.9999C0.521484 13.3437 0.564962 14.7099 0.6503 16.0624C0.666366 16.3162 0.779547 16.5543 0.966826 16.7285C1.1541 16.9026 1.40142 16.9997 1.65848 16.9999C1.67971 16.9999 1.70095 16.9989 1.72268 16.9979C1.85524 16.9898 1.98488 16.956 2.10418 16.8983C2.22349 16.8406 2.33012 16.7602 2.41798 16.6617C2.50583 16.5632 2.57319 16.4485 2.61619 16.3242C2.65919 16.2 2.67699 16.0685 2.66858 15.9374C2.58567 14.6269 2.54371 13.3017 2.54371 11.9999C2.54371 10.6962 2.58567 9.37103 2.66858 8.06243C2.68533 7.79775 2.59508 7.53732 2.41769 7.33844C2.24031 7.13956 1.99031 7.01852 1.72268 7.00193Z" fill="#060054" style="fill:#060054;fill:color(display-p3 0.0235 0.0000 0.3294);fill-opacity:1;"/>
<path id="Vector_2" d="M24.6589 7.93751C24.6422 7.67281 24.5198 7.42553 24.3187 7.25008C24.1176 7.07463 23.8542 6.98538 23.5866 7.00196C23.319 7.01853 23.0689 7.13958 22.8915 7.33847C22.7141 7.53736 22.6239 7.79781 22.6407 8.06251C22.7236 9.37301 22.7655 10.6982 22.7655 12C22.7655 13.3037 22.7236 14.6289 22.6407 15.9375C22.6239 16.2022 22.7141 16.4626 22.8915 16.6615C23.0689 16.8604 23.3189 16.9814 23.5865 16.998C23.6083 16.999 23.6295 17 23.6508 17C23.9078 16.9998 24.1551 16.9027 24.3424 16.7286C24.5297 16.5544 24.6429 16.3162 24.6589 16.0625C24.7443 14.7129 24.7877 13.3457 24.7877 12C24.7877 10.6563 24.7443 9.29001 24.6589 7.93751Z" fill="#060054" style="fill:#060054;fill:color(display-p3 0.0235 0.0000 0.3294);fill-opacity:1;"/>
<path id="Vector_3" d="M16.2644 1.26059e-05H9.05513C7.818 0.00313299 6.6246 0.453006 5.69923 1.26509C4.77386 2.07716 4.18024 3.19553 4.02991 4.41001C3.7149 6.92804 3.5562 9.46279 3.55469 12C3.55651 14.5572 3.71521 17.1119 4.02991 19.65C4.18741 20.8545 4.78366 21.9608 5.70691 22.7616C6.63016 23.5624 7.81702 24.0027 9.04502 24H16.2542C17.4914 23.9969 18.6848 23.547 19.6101 22.7349C20.5355 21.9229 21.1291 20.8045 21.2795 19.59C21.5945 17.072 21.7532 14.5372 21.7547 12C21.7529 9.44285 21.5942 6.88816 21.2795 4.35001C21.122 3.14553 20.5257 2.0392 19.6025 1.23839C18.6792 0.437588 17.4924 -0.00271595 16.2644 1.26059e-05ZM15.688 21H9.62135C9.35319 21 9.09601 20.8947 8.90639 20.7071C8.71677 20.5196 8.61024 20.2652 8.61024 20C8.61024 19.7348 8.71677 19.4804 8.90639 19.2929C9.09601 19.1054 9.35319 19 9.62135 19H15.688C15.9562 19 16.2134 19.1054 16.403 19.2929C16.5926 19.4804 16.6991 19.7348 16.6991 20C16.6991 20.2652 16.5926 20.5196 16.403 20.7071C16.2134 20.8947 15.9562 21 15.688 21Z" fill="#060054" style="fill:#060054;fill:color(display-p3 0.0235 0.0000 0.3294);fill-opacity:1;"/>
</g>
</svg>
