<svg width="22" height="22" viewBox="0 0 22 22" fill="none" xmlns="http://www.w3.org/2000/svg">
<path d="M13 0C10.6142 0.00359713 8.32708 0.952964 6.64003 2.64001C4.95299 4.32706 4.00362 6.61416 4.00002 9C3.99975 10.4347 4.34625 11.8481 5.01002 13.12L1.38002 15.54C0.956457 15.8267 0.609331 16.2125 0.368825 16.6639C0.128319 17.1152 0.00171601 17.6185 2.26202e-05 18.13C-0.00154219 18.5387 0.0780951 18.9436 0.234311 19.3213C0.390527 19.699 0.620209 20.0418 0.910023 20.33L1.67002 21.09C1.95819 21.3798 2.30106 21.6095 2.67873 21.7657C3.05639 21.9219 3.46133 22.0016 3.87002 22C4.38264 21.9986 4.88702 21.871 5.3387 21.6286C5.79038 21.3862 6.17547 21.0364 6.46002 20.61L8.88002 16.99C10.1519 17.6538 11.5654 18.0003 13 18C15.387 18 17.6762 17.0518 19.364 15.364C21.0518 13.6761 22 11.3869 22 9C22 6.61305 21.0518 4.32387 19.364 2.63604C17.6762 0.948212 15.387 0 13 0ZM13 12C12.4067 12 11.8267 11.8241 11.3333 11.4944C10.84 11.1648 10.4554 10.6962 10.2284 10.1481C10.0013 9.59987 9.94191 8.99667 10.0577 8.41473C10.1734 7.83279 10.4591 7.29824 10.8787 6.87868C11.2983 6.45912 11.8328 6.1734 12.4148 6.05764C12.9967 5.94189 13.5999 6.0013 14.1481 6.22836C14.6963 6.45542 15.1648 6.83994 15.4944 7.33329C15.8241 7.82664 16 8.40666 16 9C15.9977 9.79494 15.6809 10.5566 15.1188 11.1188C14.5567 11.6809 13.795 11.9977 13 12ZM4.80002 19.5C4.70664 19.6339 4.58536 19.7461 4.44452 19.8287C4.30369 19.9113 4.14663 19.9624 3.98415 19.9786C3.82167 19.9947 3.65762 19.9755 3.50328 19.9223C3.34893 19.869 3.20795 19.7829 3.09002 19.67L2.33002 18.91C2.12095 18.704 2.00225 18.4235 2.00002 18.13C1.99808 17.9454 2.04292 17.7633 2.13035 17.6007C2.21778 17.438 2.34495 17.3002 2.50002 17.2L6.12002 14.79C6.45274 15.1827 6.81731 15.5473 7.21002 15.88L4.80002 19.5Z" fill="#3571E7" style="fill:#3571E7;fill:color(display-p3 0.2078 0.4431 0.9059);fill-opacity:1;"/>
</svg>
