<svg width="76" height="69" viewBox="0 0 76 69" fill="none" xmlns="http://www.w3.org/2000/svg">
<path fill-rule="evenodd" clip-rule="evenodd" d="M57.7542 33.9976C58.478 33.9976 59.1916 34.1054 59.8152 34.308L59.8152 34.3081C61.4938 34.8651 62.9572 36.1346 63.7304 37.7026C64.4635 39.1905 64.5643 40.8397 64.0203 42.4723C62.9302 45.7064 60.1934 46.8572 57.9942 46.8572C57.3034 46.8572 56.631 46.7505 55.9938 46.5381L55.5593 46.3934C53.9766 45.8695 52.6286 44.6835 51.8565 43.1446C51.3358 42.0805 50.865 40.3726 51.5764 38.2877C52.9504 34.3069 56.6521 33.9976 57.7542 33.9976ZM57.8685 45.6206C60.1159 45.6206 62.1076 44.175 62.825 42.0208L62.8249 42.0208C63.7196 39.3274 62.2181 36.3956 59.4462 35.474C58.8794 35.2849 58.2954 35.1901 57.7118 35.1901C55.4617 35.1901 53.4738 36.6286 52.7613 38.7683C52.324 40.08 52.4373 41.4904 53.0815 42.7441C53.743 43.9783 54.8511 44.9032 56.2018 45.3535C56.7469 45.5317 57.3077 45.6206 57.8685 45.6206Z" fill="#B1E3FD"/>
<path d="M42.5812 58.1595C42.5882 57.9569 42.4939 57.7651 42.2983 57.6096C42.1488 57.4931 42.1163 57.4725 42.0437 57.4725C41.9635 57.4725 41.8047 57.5018 41.5046 57.6475L36.8136 59.9242L34.4177 55.2927C34.227 54.9118 34.0655 54.8571 33.9951 54.8354C33.9393 54.8159 33.864 54.8062 33.7897 54.8062C33.5519 54.8062 33.36 54.9042 33.2349 55.0912C33.1244 55.2781 33.1271 55.5463 33.2517 55.8378L33.6862 56.7312C33.9008 57.2167 34.1159 57.6729 34.3489 58.1367L35.536 60.5083C35.536 60.5083 34.4486 61.0729 34.2275 61.1845L32.8464 61.8618C32.2445 62.1641 31.6219 62.4746 31.0063 62.7721C30.5051 63.0218 30.4916 63.1714 30.4819 63.2781C30.4661 63.5187 30.529 63.7321 30.659 63.8714C30.8373 64.0605 31.1358 64.0946 31.4577 63.9537C31.896 63.75 32.3435 63.536 32.8025 63.3177L36.2397 61.6683C36.2397 61.6683 38.3929 65.7812 38.6649 66.3036C38.7841 66.5403 39.1113 66.931 39.5459 66.7099C39.7182 66.6335 39.8043 66.5447 39.8504 66.4065C39.9268 66.2174 39.8964 65.978 39.7761 65.7368C39.5952 65.3402 39.4169 64.9696 39.2289 64.5849L37.4339 60.9282L39.4256 60.0434C39.4473 60.0386 39.4668 60.0348 39.4863 60.0315C40.3781 59.6252 41.298 59.2036 42.1504 58.7355C42.3975 58.5989 42.5578 58.3855 42.5811 58.1595L42.5812 58.1595Z" fill="#B1E3FD"/>
<path d="M19.4362 27.2782C19.4433 27.0756 19.349 26.8837 19.1534 26.7282C19.0039 26.6118 18.9713 26.5912 18.8987 26.5912C18.8186 26.5912 18.6598 26.6204 18.3596 26.7662L13.6686 29.0429L11.2732 24.4114C11.0824 24.0305 10.921 23.9757 10.8505 23.9541C10.7947 23.9346 10.7194 23.9248 10.6452 23.9248C10.4073 23.9248 10.2155 24.0229 10.0904 24.2098C9.97983 24.3967 9.98254 24.6649 10.1072 24.9564L10.5417 25.8499C10.7563 26.3354 10.9714 26.7916 11.2043 27.2554L12.3915 29.627C12.3915 29.627 11.304 30.1916 11.083 30.3032L9.70187 30.9804C9.09992 31.2828 8.47737 31.5932 7.8618 31.8907C7.36062 32.1405 7.34708 32.29 7.33733 32.3968C7.32162 32.6373 7.38447 32.8508 7.5145 32.99C7.69276 33.1791 7.9913 33.2133 8.31314 33.0724C8.75148 32.8687 9.19901 32.6547 9.65793 32.4363L13.0952 30.787C13.0952 30.787 15.2483 34.8999 15.5203 35.4222C15.6395 35.659 15.9668 36.0497 16.4013 35.8286C16.5736 35.7522 16.6598 35.6633 16.7058 35.5252C16.7822 35.3361 16.7519 35.0966 16.6316 34.8555C16.4506 34.4589 16.2724 34.0883 16.0844 33.7036L14.2894 30.0469L16.2811 29.1621C16.3027 29.1572 16.3222 29.1534 16.3417 29.1502C17.2336 28.7438 18.1535 28.3223 19.0059 27.8541C19.2529 27.7176 19.4128 27.5036 19.4361 27.2782L19.4362 27.2782Z" fill="#B1E3FD"/>
<path d="M38.001 3.35338C38.008 3.15075 37.9138 2.95893 37.7182 2.80344C37.5686 2.68695 37.5361 2.66636 37.4635 2.66636C37.3833 2.66636 37.2246 2.69562 36.9244 2.84137L32.2334 5.11808L29.8375 0.486558C29.6468 0.105658 29.4853 0.0509383 29.4149 0.0292586C29.3591 0.00975379 29.2838 0 29.2095 0C28.9717 0 28.7799 0.0980691 28.6547 0.284999C28.5442 0.471932 28.5469 0.74012 28.6715 1.03162L29.106 1.92508C29.3206 2.41055 29.5357 2.86677 29.7687 3.33059L30.9558 5.70218C30.9558 5.70218 29.8684 6.26675 29.6473 6.37837L28.2673 7.0524C27.6653 7.35473 27.0428 7.6652 26.4272 7.96265C25.926 8.21243 25.9125 8.36197 25.9028 8.46871C25.887 8.70928 25.9499 8.92275 26.0799 9.06199C26.2582 9.25109 26.5567 9.28523 26.8786 9.14435C27.3169 8.94062 27.7644 8.72661 28.2234 8.50826L31.6606 6.85891C31.6606 6.85891 33.8138 10.9718 34.0858 11.4942C34.205 11.7309 34.5322 12.1216 34.9668 11.9005C35.1391 11.8241 35.2252 11.7353 35.2713 11.5971C35.3477 11.408 35.3173 11.1686 35.197 10.9274C35.0161 10.5308 34.8378 10.1602 34.6498 9.77553L32.8548 6.11883L34.8465 5.23404C34.8682 5.22917 34.8877 5.22537 34.9072 5.22212C35.799 4.81575 36.7189 4.39421 37.5713 3.92608C37.8178 3.79117 37.9777 3.57769 38.001 3.35338L38.001 3.35338Z" fill="#B1E3FD"/>
<path fill-rule="evenodd" clip-rule="evenodd" d="M69.0145 12.9182H69.1721L69.1713 12.917C72.3789 12.917 75.0517 15.5301 75.1357 18.7285C75.2326 22.0211 72.6319 24.7676 69.3393 24.8646H69.1692C66.544 24.8646 64.1871 23.1037 63.4578 20.5874L63.2877 20.0158L62.6917 19.9795C61.9504 19.9188 61.2341 19.8581 60.5048 19.7855L60.4361 19.779C57.4927 19.5009 54.455 19.2139 51.4765 19.2139C45.0837 19.2139 40.4669 20.6226 36.9304 23.6243C32.8616 27.1228 30.8082 32.1017 28.6345 37.3725L28.6314 37.3801L28.5463 37.5984L28.5203 37.6607C27.35 40.4609 26.1416 43.3521 24.5969 45.9219C20.2478 53.2493 14.1843 58.5348 7.08811 61.2086L4.67047 62.12L12.7529 64.4162C13.1305 64.5132 13.4339 64.7451 13.6279 65.0729C13.8224 65.4007 13.8706 65.7903 13.7736 66.1544C13.6154 66.7732 13.0574 67.199 12.425 67.2234L12.3887 68.0741V67.2234C12.2674 67.2234 12.146 67.211 12.0366 67.1747L3.61615 64.8422C2.65661 64.586 1.86772 63.9791 1.3687 63.1285C0.870763 62.2654 0.737475 61.269 0.98021 60.3333L3.26456 52.2039C3.42222 51.5835 3.99276 51.1468 4.64945 51.1468C4.77082 51.1468 4.89218 51.1587 5.01355 51.1831C5.76722 51.3895 6.22831 52.1794 6.03434 52.9212L4.19927 59.203L5.77926 58.6314C12.3889 56.2145 18.0521 51.3175 22.159 44.4515C23.6041 42.0169 24.7318 39.3 25.9572 36.3478L26.0232 36.1888L26.0285 36.1762C28.2381 30.8573 30.5224 25.3585 35.076 21.4611C39.1473 17.9863 44.3601 16.3696 51.4807 16.3696C54.5432 16.3696 57.6173 16.6509 60.6113 16.925L60.7886 16.9412C60.9452 16.9529 61.1022 16.9672 61.2604 16.9817C61.4332 16.9976 61.6076 17.0135 61.785 17.0263C62.1247 17.0626 62.4655 17.0989 62.8177 17.1233L63.4256 17.172L63.6683 16.6004C64.5677 14.4244 66.6576 12.9908 69.0145 12.9182ZM69.2572 22.1178C70.1203 22.0939 70.9211 21.7417 71.5171 21.1094L71.5171 21.1095C72.1131 20.4891 72.4284 19.6628 72.3921 18.8013C72.3558 17.0512 70.934 15.6663 69.1721 15.6663L69.087 15.6782C68.2971 15.6907 67.5689 15.9816 66.9972 16.517C66.3043 17.1606 65.9158 18.0476 65.9521 18.9833C65.9764 19.8096 66.3043 20.5866 66.8759 21.1701C67.4952 21.79 68.3095 22.1178 69.2572 22.1178Z" fill="#08005C"/>
</svg>
