<svg width="55" height="77" viewBox="0 0 55 77" fill="none" xmlns="http://www.w3.org/2000/svg">
<path d="M13.3803 21.1624L13.4567 19.2006L17.2146 25.589H14.4248L12.0682 21.1624L13.1701 21.3152L11.4568 23.6528L11.6606 22.0541V25.589H9.09375V16.1943H11.6606V20.8821L11.1892 20.6911L14.3548 16.1943H17.049L13.3803 21.1624Z" fill="#060054" style="fill:#060054;fill:color(display-p3 0.0235 0.0000 0.3294);fill-opacity:1;"/>
<path d="M25.2535 22.2452C25.2535 23.4129 24.9181 24.2897 24.2472 24.8757C23.5805 25.4617 22.674 25.7546 21.5275 25.7546C20.381 25.7546 19.4745 25.4617 18.8078 24.8757C18.1454 24.2897 17.8142 23.4129 17.8142 22.2452C17.8142 22.0965 17.8142 21.9416 17.8142 21.7802C17.8142 21.6146 17.8142 21.4448 17.8142 21.2707V16.1943H20.3874V21.6719C20.3874 21.7908 20.3874 21.9033 20.3874 22.0095C20.3874 22.1157 20.3874 22.2154 20.3874 22.3089C20.3874 22.7844 20.4681 23.1475 20.6294 23.398C20.795 23.6485 21.0944 23.7738 21.5275 23.7738C21.9606 23.7738 22.26 23.6485 22.4256 23.398C22.5954 23.1475 22.6803 22.7844 22.6803 22.3089V16.1943H25.2535V22.2452Z" fill="#060054" style="fill:#060054;fill:color(display-p3 0.0235 0.0000 0.3294);fill-opacity:1;"/>
<path d="M29.2323 25.589H26.6591V16.1943H30.2577C30.9711 16.1943 31.5931 16.3366 32.1239 16.6211C32.6547 16.9013 33.0666 17.2856 33.3596 17.7739C33.6525 18.2622 33.799 18.8142 33.799 19.4299C33.799 20.0456 33.6525 20.6061 33.3596 21.1114C33.0666 21.6125 32.6547 22.0137 32.1239 22.3152C31.5931 22.6125 30.9711 22.7611 30.2577 22.7611H29.2323V25.589ZM29.2323 22.0159L28.073 20.8567H29.9966C30.2089 20.8567 30.4063 20.8057 30.5889 20.7038C30.7758 20.5976 30.9265 20.4384 31.0411 20.2261C31.1558 20.0138 31.2131 19.7484 31.2131 19.4299C31.2131 19.1115 31.1558 18.8546 31.0411 18.6593C30.9265 18.4639 30.7758 18.3238 30.5889 18.2389C30.4063 18.1497 30.2089 18.1051 29.9966 18.1051H28.073L29.2323 16.9459V22.0159Z" fill="#060054" style="fill:#060054;fill:color(display-p3 0.0235 0.0000 0.3294);fill-opacity:1;"/>
<path d="M21.3155 0C9.56286 0 0 9.55139 0 21.304C0 32.5 8.68517 41.7049 19.6709 42.5341L19.262 41.2845C9.15395 40.245 1.23692 31.6847 1.23692 21.304C1.23692 10.2316 10.2431 1.22545 21.3155 1.22545C32.3751 1.22545 41.3826 10.2316 41.3826 21.304C41.3826 28.0096 38.0795 33.9483 33.0197 37.5967L33.477 38.7724C38.9954 34.9368 42.6195 28.5293 42.6195 21.304C42.6195 9.55139 33.0566 0 21.3155 0Z" fill="#BBE2FA" style="fill:#BBE2FA;fill:color(display-p3 0.7333 0.8863 0.9804);fill-opacity:1;"/>
<path d="M54.8342 68.3232L54.5412 67.2264C54.2176 65.9831 53.8507 64.5743 53.3335 63.266C53.1858 62.8966 52.9947 62.5183 52.796 62.1297C52.5412 61.6342 52.2533 61.0724 52.1743 60.6317C51.9501 59.3629 51.7935 58.0011 51.6419 56.684C51.424 54.7923 51.2011 52.8357 50.7642 50.9835C50.2495 48.8064 49.461 46.7721 48.5604 44.5301C47.8088 42.6486 46.2076 41.5607 44.0522 41.4677C43.4471 41.4448 42.8319 41.469 42.251 41.548L41.5797 41.6397C40.4956 41.7837 39.409 41.9352 38.3237 42.0868L37.7861 42.1607C36.1823 42.3836 34.5773 42.6066 32.9671 42.8193C32.469 42.8919 31.9748 42.9161 31.5684 41.8754L28.2003 33.2679C27.622 31.7941 26.6526 30.7317 25.3201 30.1087C24.8513 29.8896 24.3494 29.7788 23.8272 29.7788C22.5164 29.7788 21.3202 30.4845 20.7559 31.5851C19.896 32.5979 19.696 34.0055 20.1928 35.5596L22.3024 42.162C22.7699 43.8486 23.2412 45.5313 23.7125 47.2167C23.5673 47.1071 23.417 47.0052 23.2616 46.9084C22.1138 46.2027 20.775 46.2116 19.5559 46.9326C18.3305 47.6549 17.7611 48.9364 18.0719 50.2752C18.3508 51.5032 18.7317 52.5261 19.2349 53.4012C19.3266 53.563 19.4196 53.7235 19.5266 53.8968L19.6158 54.0445C20.0604 54.7872 20.5279 55.5158 20.9954 56.2432C21.3253 56.7553 21.6527 57.2687 21.9648 57.768L22.1775 58.1209C22.3431 58.3884 22.5036 58.6559 22.659 58.9298C24.9927 62.9781 27.9799 65.9016 31.785 67.8595C31.7964 67.8736 31.8092 67.8939 31.827 67.922C32.0729 68.3411 32.292 69.141 32.4092 69.5691C32.4677 69.7869 32.5187 69.9627 32.5556 70.0697L33.1442 71.7626L33.8193 73.9524C34.3148 75.6963 35.6002 76.6555 37.4383 76.6555C38.6256 76.6555 39.8383 76.2772 40.9809 75.9205C41.2281 75.8428 41.4625 75.7702 41.6841 75.7091L52.3501 72.7206C54.4584 72.1295 55.4112 70.4442 54.8342 68.3232ZM26.2309 53.4611C26.2335 53.4611 26.236 53.4611 26.236 53.4611L26.9112 53.3949L27.2691 52.9235C27.5876 52.5032 27.6526 51.9414 27.4589 51.2522L26.2972 47.0969C25.7736 45.2282 25.2501 43.3594 24.7176 41.4423L22.5941 34.794C22.4297 34.2832 22.3176 33.5864 22.7864 33.0883L22.975 32.7877C23.1571 32.3609 23.7584 32.1673 24.2501 32.3966C24.9978 32.7456 25.5061 33.315 25.8501 34.1902L29.2665 42.9238C29.9481 44.6613 31.4448 45.5619 33.3021 45.3224C34.9136 45.1072 36.5237 44.8842 38.1339 44.6588C39.395 44.483 40.6561 44.3084 41.9198 44.1377L42.5847 44.0473C43.037 43.9887 43.5134 43.9734 43.9478 43.99C45.0828 44.0384 45.8471 44.5352 46.2203 45.4677C47.0853 47.6281 47.8394 49.5771 48.3107 51.5631C48.7133 53.279 48.9286 55.1553 49.1349 56.9719C49.2916 58.3273 49.4534 59.7285 49.6903 61.0686C49.8317 61.8762 50.196 62.587 50.5973 63.3679C50.74 63.6482 50.8814 63.9233 50.9884 64.1946C51.4444 65.3462 51.7794 66.6264 52.1017 67.8646L52.3985 68.9831C52.6087 69.7601 52.4329 70.0761 51.6699 70.2901L41.0051 73.2785C40.7427 73.3511 40.4587 73.4403 40.1631 73.5333C39.2638 73.8136 38.2447 74.1307 37.4383 74.1307C36.7326 74.1307 36.432 73.9116 36.2473 73.2607L35.4307 70.5206L35.2091 69.964L35.1938 69.9703L34.9416 69.2455C34.9187 69.1767 34.8906 69.0723 34.8397 68.8837C34.669 68.2684 34.4129 67.3385 34.0002 66.6392C33.7314 66.1857 33.4028 65.8558 33.0193 65.6583C29.6194 63.9259 26.9468 61.3145 24.8488 57.6725C24.6794 57.377 24.5049 57.0878 24.3316 56.805L24.1189 56.4547C23.7928 55.9286 23.4565 55.4037 23.1202 54.8789C22.6667 54.1745 22.2132 53.47 21.7813 52.7503L21.6642 52.5529C21.5814 52.4216 21.5062 52.2879 21.4094 52.1172C21.0438 51.4841 20.7572 50.6994 20.533 49.7109C20.4884 49.5185 20.4935 49.3109 20.8425 49.1058C21.268 48.8536 21.5788 48.8345 21.9355 49.0536C22.2565 49.2523 22.538 49.4969 22.7495 49.7606C23.2068 50.3287 23.6552 50.907 24.0959 51.4854C24.1724 51.586 24.2259 51.7019 24.3112 51.8739C24.4297 52.1083 24.5775 52.4013 24.8029 52.6841C24.9571 52.8764 25.4259 53.4611 26.2309 53.4611Z" fill="#070058" style="fill:#070058;fill:color(display-p3 0.0275 0.0000 0.3451);fill-opacity:1;"/>
</svg>
