<svg width="22" height="22" viewBox="0 0 22 22" fill="none" xmlns="http://www.w3.org/2000/svg">
<g id="Group">
<path id="Vector" d="M12 7.00004V5.00004C11.9977 4.20511 11.6809 3.44339 11.1188 2.88129C10.5566 2.31918 9.79494 2.00236 9 2.00004H6.83C6.56526 1.99621 6.31172 1.89265 6.12 1.71004L5.29 0.880042C5.01317 0.5994 4.683 0.376969 4.31891 0.22584C3.95483 0.0747118 3.5642 -0.00206049 3.17 4.20454e-05H3C2.20506 0.00236366 1.44335 0.31918 0.881244 0.881286C0.319138 1.44339 0.00232161 2.20511 0 3.00004V7.00004C0.00232161 7.79498 0.319138 8.55669 0.881244 9.1188C1.44335 9.6809 2.20506 9.99772 3 10H9C9.79494 9.99772 10.5566 9.6809 11.1188 9.1188C11.6809 8.55669 11.9977 7.79498 12 7.00004Z" fill="#3571E7" style="fill:#3571E7;fill:color(display-p3 0.2078 0.4431 0.9059);fill-opacity:1;"/>
<path id="Vector_2" d="M19 14H16.83C16.5653 13.9962 16.3117 13.8926 16.12 13.71L15.29 12.88C15.0132 12.5994 14.683 12.377 14.3189 12.2258C13.9548 12.0747 13.5642 11.9979 13.17 12H13C12.2051 12.0024 11.4434 12.3192 10.8812 12.8813C10.3191 13.4434 10.0023 14.2051 10 15V19C10.0023 19.795 10.3191 20.5567 10.8812 21.1188C11.4434 21.6809 12.2051 21.9977 13 22H19C19.7949 21.9977 20.5566 21.6809 21.1188 21.1188C21.6809 20.5567 21.9977 19.795 22 19V17C21.9977 16.2051 21.6809 15.4434 21.1188 14.8813C20.5566 14.3192 19.7949 14.0024 19 14Z" fill="#3571E7" style="fill:#3571E7;fill:color(display-p3 0.2078 0.4431 0.9059);fill-opacity:1;"/>
<path id="Vector_3" d="M14 7.00014H15.1843C15.3334 7.41845 15.5737 7.79837 15.8877 8.1124C16.2018 8.42643 16.5817 8.6667 17 8.81584V12.0001C17 12.2654 17.1054 12.5197 17.2929 12.7072C17.4804 12.8948 17.7348 13.0001 18 13.0001C18.2652 13.0001 18.5196 12.8948 18.7071 12.7072C18.8946 12.5197 19 12.2654 19 12.0001V8.81584C19.4773 8.64804 19.9043 8.36194 20.2411 7.9843C20.5779 7.60665 20.8134 7.14979 20.9256 6.65641C21.0378 6.16304 21.0231 5.64926 20.8829 5.16311C20.7426 4.67695 20.4814 4.23429 20.1236 3.87651C19.7658 3.51873 19.3232 3.25751 18.837 3.11726C18.3509 2.97701 17.8371 2.96232 17.3437 3.07455C16.8503 3.18679 16.3935 3.42229 16.0158 3.75904C15.6382 4.09579 15.3521 4.52279 15.1843 5.00014H14C13.7348 5.00014 13.4804 5.1055 13.2929 5.29303C13.1054 5.48057 13 5.73492 13 6.00014C13 6.26535 13.1054 6.51971 13.2929 6.70724C13.4804 6.89478 13.7348 7.00014 14 7.00014ZM18 5.00014C18.1978 5.00014 18.3911 5.05879 18.5556 5.16867C18.72 5.27855 18.8482 5.43473 18.9239 5.61746C18.9996 5.80018 19.0194 6.00125 18.9808 6.19523C18.9422 6.38921 18.847 6.56739 18.7071 6.70724C18.5673 6.8471 18.3891 6.94234 18.1951 6.98092C18.0011 7.01951 17.8 6.99971 17.6173 6.92402C17.4346 6.84833 17.2784 6.72016 17.1685 6.55571C17.0586 6.39126 17 6.19792 17 6.00014C17.0002 5.73499 17.1057 5.48078 17.2932 5.29329C17.4806 5.10581 17.7349 5.00038 18 5.00014Z" fill="#3571E7" style="fill:#3571E7;fill:color(display-p3 0.2078 0.4431 0.9059);fill-opacity:1;"/>
<path id="Vector_4" d="M8.00014 17H6.81584C6.66674 16.5817 6.42647 16.2017 6.11244 15.8877C5.79841 15.5737 5.41847 15.3334 5.00014 15.1843V12C5.00014 11.7348 4.89478 11.4804 4.70724 11.2929C4.51971 11.1054 4.26535 11 4.00014 11C3.73492 11 3.48057 11.1054 3.29303 11.2929C3.1055 11.4804 3.00014 11.7348 3.00014 12V15.1843C2.52279 15.3521 2.09579 15.6382 1.75904 16.0158C1.42229 16.3935 1.18679 16.8503 1.07455 17.3437C0.962316 17.8371 0.977009 18.3509 1.11726 18.837C1.25751 19.3232 1.51873 19.7658 1.87651 20.1236C2.23429 20.4814 2.67695 20.7426 3.16311 20.8829C3.64926 21.0231 4.16304 21.0378 4.65641 20.9256C5.14979 20.8134 5.60665 20.5779 5.9843 20.2411C6.36194 19.9044 6.64804 19.4773 6.81584 19H8.00014C8.26535 19 8.51971 18.8946 8.70724 18.7071C8.89478 18.5196 9.00014 18.2652 9.00014 18C9.00014 17.7348 8.89478 17.4804 8.70724 17.2929C8.51971 17.1054 8.26535 17 8.00014 17ZM4.00014 19C3.80236 19 3.60902 18.9414 3.44457 18.8315C3.28012 18.7216 3.15195 18.5654 3.07626 18.3827C3.00057 18.2 2.98077 17.9989 3.01935 17.8049C3.05794 17.6109 3.15318 17.4327 3.29303 17.2929C3.43288 17.153 3.61107 17.0578 3.80505 17.0192C3.99903 16.9806 4.2001 17.0004 4.38282 17.0761C4.56555 17.1518 4.72173 17.28 4.83161 17.4444C4.94149 17.6089 5.00014 17.8022 5.00014 18C4.9999 18.2651 4.89447 18.5194 4.70698 18.7068C4.5195 18.8943 4.26528 18.9998 4.00014 19Z" fill="#3571E7" style="fill:#3571E7;fill:color(display-p3 0.2078 0.4431 0.9059);fill-opacity:1;"/>
</g>
</svg>
