<svg width="85" height="30" viewBox="0 0 85 30" fill="none" xmlns="http://www.w3.org/2000/svg">
<path fill-rule="evenodd" clip-rule="evenodd" d="M58.0454 17.552C55.6426 17.8516 54.0561 15.061 55.6307 13.1336C57.0852 11.3531 60.1437 11.9245 60.4523 14.7047C60.7546 17.429 61.2389 17.8166 63.7676 18.1056C63.8921 18.1196 64.0147 18.1399 64.1348 18.1659C66.4869 17.8138 66.8733 17.318 67.0245 14.9107C67.1921 11.2785 72.0968 11.2938 72.4314 14.6954C72.7288 17.4338 73.1857 17.8564 75.7175 18.1464C78.3769 17.8368 78.8453 17.4423 79.0525 15.0559C79.0481 14.9933 79.0457 14.9304 79.0457 14.8667C79.0457 12.4643 81.9651 11.2451 83.6801 12.9682C85.2833 14.5788 84.3564 17.3903 81.9348 17.589C79.1826 17.8783 78.767 18.3365 78.468 20.8984C78.3696 21.6857 78.2828 22.1645 77.6628 22.7829C77.1733 23.2762 76.5304 23.5863 75.8294 23.6038C73.3836 23.7809 72.6436 24.2357 72.4299 26.6998C72.4223 27.5678 72.2682 28.1941 71.5975 28.8473C70.0055 30.3974 67.2069 29.4946 67.008 27.071C66.7783 24.8852 66.3238 23.6397 63.8613 23.68C62.3707 23.7042 61.0073 22.4093 60.9926 20.9143C60.9613 18.5966 60.3379 17.7585 58.0454 17.552ZM69.4136 24.1769C72.092 23.8962 72.6846 23.6413 73.0091 20.9004C72.6868 18.2194 72.2829 17.774 69.8225 17.5791C67.1777 17.9121 66.7774 18.3994 66.5234 20.93C66.5152 21.0131 66.5039 21.0954 66.4902 21.1767C66.7764 23.3933 67.1414 23.9673 69.4136 24.1769Z" fill="#EFB046" style="fill:#EFB046;fill:color(display-p3 0.9373 0.6902 0.2745);fill-opacity:1;"/>
<path fill-rule="evenodd" clip-rule="evenodd" d="M71.5814 2.8448C71.5814 3.8638 70.7554 4.68972 69.7365 4.68972C68.7176 4.68972 67.8916 3.8638 67.8916 2.8448C67.8916 1.82592 68.7176 1 69.7365 1C70.7554 1 71.5814 1.82592 71.5814 2.8448Z" fill="#EFB046" style="fill:#EFB046;fill:color(display-p3 0.9373 0.6902 0.2745);fill-opacity:1;"/>
<path fill-rule="evenodd" clip-rule="evenodd" d="M63.7183 6.48633C65.0272 6.48633 66.0881 7.54718 66.0881 8.85603C66.0881 10.1648 65.0272 11.2257 63.7183 11.2257C62.4096 11.2257 61.3486 10.1648 61.3486 8.85603C61.3486 7.54718 62.4096 6.48633 63.7183 6.48633Z" fill="#EFB046" style="fill:#EFB046;fill:color(display-p3 0.9373 0.6902 0.2745);fill-opacity:1;"/>
<path fill-rule="evenodd" clip-rule="evenodd" d="M75.7398 6.48633C77.0487 6.48633 78.1096 7.54718 78.1096 8.85603C78.1096 10.1648 77.0487 11.2257 75.7398 11.2257C74.4311 11.2257 73.3701 10.1648 73.3701 8.85603C73.3701 7.54718 74.4311 6.48633 75.7398 6.48633Z" fill="#EFB046" style="fill:#EFB046;fill:color(display-p3 0.9373 0.6902 0.2745);fill-opacity:1;"/>
<g clip-path="url(#clip0_553_627)">
<path fill-rule="evenodd" clip-rule="evenodd" d="M16.8846 28.6891C16.707 28.7095 16.6396 28.7689 16.5179 28.829L15.2824 29.4583C15.2016 29.5025 15.2255 29.4857 15.1445 29.5216C14.9397 29.6123 14.762 29.7676 14.5819 29.7825L14.5344 29.8377C14.382 29.994 14.1323 29.9657 13.9343 29.905L13.927 14.1398C13.6183 13.9203 12.7058 13.6059 12.5057 13.3416C12.3325 13.3086 12.4681 13.3058 12.2902 13.2272L10.6594 12.4025C10.3164 12.2558 10.2617 12.1871 10.0276 12.1055L9.29707 11.7165C9.23704 11.6891 9.19661 11.6794 9.15101 11.6555C8.99154 11.5719 9.15157 11.655 9.05381 11.5885L8.91801 11.5165C8.86946 11.4972 8.84655 11.4926 8.79724 11.4711L8.2996 11.2194C8.06828 11.0737 7.84833 11.0457 7.64798 10.911L7.59898 10.8759C7.59141 10.8709 7.5809 10.8643 7.57328 10.8594C7.25069 10.6495 6.9471 10.5753 6.78738 10.484L6.71324 10.4335C6.70501 10.4286 6.6948 10.4221 6.68632 10.4174C6.67764 10.4125 6.66677 10.4072 6.65788 10.4025C6.61817 10.3817 6.58846 10.3723 6.5427 10.3485L5.80089 9.96382C5.34114 9.80946 4.96101 9.45525 4.50476 9.40417C4.40888 9.17069 4.22626 9.17177 3.86873 8.99014L3.45458 8.77703C3.40238 8.7508 3.32859 8.71634 3.29167 8.69195L1.47129 7.76539C1.34986 7.7085 1.29709 7.68108 1.18963 7.63067L0.615054 7.33001C0.559242 7.30784 0.523134 7.30296 0.460516 7.27575C0.365142 7.23424 0.451934 7.2704 0.377077 7.2329C0.116856 7.10255 0.143416 7.18804 0.162613 6.95971C0.172719 6.954 0.618051 6.80447 0.874412 6.58966C0.979943 6.50124 0.855622 6.67963 0.950284 6.49805C0.655631 6.53297 0.364381 6.77479 0 6.87571L0.020771 22.5374L0.177645 22.7687C0.346555 23.048 0.423697 22.9173 0.577575 23.1899C0.724038 23.4493 1.11005 23.6652 1.37794 23.7762C1.64466 23.8868 1.5852 23.9507 2.04591 24.1035L2.54655 24.4324C2.69606 24.5193 2.65934 24.4663 2.82551 24.5271C3.01915 24.5979 3.16166 24.7301 3.35489 24.7908C3.47053 24.827 3.5752 24.8501 3.67473 24.8962L7.25369 26.728C7.2671 26.7348 7.38944 26.7989 7.39137 26.7997L8.01267 27.1363C8.0956 27.2237 8.12053 27.2605 8.24272 27.3002L8.39848 27.3714C8.53037 27.4828 8.44495 27.4847 8.63382 27.53C8.89581 27.5928 8.98098 27.6692 9.20631 27.7596L9.46181 27.8894C9.61036 28.0002 9.57003 27.9491 9.75326 28.0039L10.6619 28.5135C10.7301 28.5506 10.724 28.5424 10.8026 28.5812L10.8585 28.6098C10.8667 28.6141 10.8769 28.6206 10.885 28.625C10.8928 28.6292 10.9026 28.636 10.9105 28.6401L12.5361 29.4285C12.5448 29.4336 12.5546 29.4408 12.563 29.4461L12.8245 29.5538C12.9548 29.5966 12.8862 29.5863 12.966 29.6262C13.0647 29.6755 13.0237 29.6475 13.1237 29.6817C13.3824 29.7702 13.2208 29.7473 13.3865 29.8286C13.6262 29.9462 13.8568 29.9898 14.164 29.9989C14.5937 30.0115 14.7144 29.8484 15.0547 29.6908C15.1049 29.6675 15.1357 29.649 15.1888 29.6196C15.4748 29.4614 16.143 29.1915 16.3267 29.0649C16.4709 28.9655 16.6494 28.9364 16.7915 28.8114C16.8604 28.7507 16.8377 28.7628 16.8845 28.6889L16.8846 28.6891Z" fill="#CCECF9" style="fill:#CCECF9;fill:color(display-p3 0.8000 0.9255 0.9765);fill-opacity:1;"/>
<path fill-rule="evenodd" clip-rule="evenodd" d="M14.0449 14.0486C14.1203 14.3342 14.0755 17.4394 14.0757 18.0028C14.0765 19.6958 14.0154 29.6555 14.1223 29.8987C14.3731 29.8766 14.2433 29.7965 14.582 29.7825C14.7621 29.7676 14.9397 29.6123 15.1446 29.5216C15.2256 29.4858 15.2017 29.5025 15.2825 29.4584L16.518 28.8291C16.6397 28.7689 16.7071 28.7095 16.8847 28.6892C17.0062 28.685 17.0204 28.6934 17.096 28.6536L17.2639 28.5601C17.4264 28.4913 17.2808 28.5783 17.4188 28.478L17.5745 28.3775C17.8433 28.2409 17.7219 28.377 17.8973 28.213L18.689 27.7909C18.697 27.7862 18.7064 27.7789 18.7147 27.7742L18.9266 27.6876C19.038 27.6386 19.1028 27.5421 19.2142 27.4887C19.3925 27.4032 19.2725 27.5205 19.5658 27.3364L20.9814 26.6288C21.2299 26.4558 21.0612 26.4984 21.2585 26.4482C21.5125 26.3835 22.0113 26.1658 22.2349 26.0117C22.2423 26.0066 22.2521 25.9992 22.2596 25.9941C22.4409 25.8687 22.4928 25.8913 22.6506 25.7972C22.7959 25.7105 22.7834 25.6917 22.9672 25.6191L23.9969 25.1073C24.5616 24.7846 24.3479 24.9397 24.6666 24.7758L25.1823 24.5044C25.4736 24.3851 25.8723 24.1098 25.9916 24.0711C26.1134 24.0316 26.0713 24.0659 26.1865 24.0076L26.5391 23.8198C26.8138 23.6536 27.3237 23.4635 27.5377 23.0589C27.6739 22.8013 27.6157 22.9485 27.7579 22.7453C27.8287 22.6442 27.8662 22.4498 27.9487 22.1761C28.002 21.9993 27.9817 21.6455 27.9817 21.4458L27.9816 11.1587C27.9837 9.80365 28.024 8.37304 27.979 7.02694C27.8021 6.94294 27.341 6.64516 27.1083 6.59229C27.2359 6.77206 27.2691 6.72536 27.4709 6.83127C27.5284 6.86146 27.5078 6.85318 27.5793 6.89279L27.7552 7.0128C27.8952 7.15245 27.5982 6.84711 27.8152 7.08584L27.5246 7.23125C27.5165 7.23558 27.5062 7.2419 27.4983 7.24638C27.4905 7.25085 27.4802 7.25739 27.4725 7.26196C27.3201 7.35306 27.3446 7.3741 27.1632 7.44689C26.9233 7.54308 27.0544 7.53485 26.8502 7.62425L26.2749 7.89389C26.1614 7.9428 26.245 7.90618 26.1677 7.95057L24.9925 8.52571C24.9004 8.57226 24.867 8.56948 24.7623 8.62905C24.6806 8.67555 24.8012 8.63121 24.649 8.69062L24.4026 8.77421C24.3939 8.77832 24.3837 8.78465 24.3751 8.78892C24.3662 8.79329 24.3556 8.79915 24.3468 8.80353C24.3378 8.80795 24.3269 8.81325 24.3179 8.81757L24.0929 8.95614C24.085 8.9616 24.0749 8.96859 24.0665 8.97379C24.058 8.97909 24.0471 8.98485 24.0383 8.98989L21.5582 10.2449C21.4991 10.3102 21.4598 10.3518 21.3634 10.3859L21.1319 10.4924C21.0814 10.5285 21.0058 10.5649 20.9462 10.592L19.8128 11.1671C19.8047 11.1716 19.7949 11.1783 19.7869 11.1828L19.5503 11.3219C19.4544 11.3925 19.5676 11.3261 19.4565 11.3888L19.0006 11.5604C18.8617 11.6281 18.9948 11.5941 18.7704 11.6709C18.5713 11.7391 18.7282 11.6992 18.5412 11.7783L17.18 12.4925C17.124 12.5233 17.1151 12.5224 17.0644 12.5427L16.5863 12.7352C16.5786 12.7399 16.5691 12.7472 16.5613 12.7518L15.9412 13.0929C15.7205 13.2729 15.5753 13.2632 15.3258 13.4265L15.0849 13.559C14.7555 13.7597 14.53 13.8313 14.5001 13.8504L14.0451 14.0486H14.0449Z" fill="#57C8F0" style="fill:#57C8F0;fill:color(display-p3 0.3412 0.7843 0.9412);fill-opacity:1;"/>
<path fill-rule="evenodd" clip-rule="evenodd" d="M0.95044 6.49831C0.855777 6.67989 0.980098 6.5015 0.874567 6.58993C0.618206 6.80473 0.172874 6.95427 0.162768 6.95997C0.143571 7.18826 0.117011 7.10282 0.377232 7.23317C0.452089 7.27066 0.365298 7.2345 0.460671 7.27601C0.523289 7.30328 0.559448 7.30811 0.615209 7.33028L1.18979 7.63094C1.29725 7.68135 1.35001 7.70871 1.47144 7.76566L3.29182 8.69222C3.32874 8.7166 3.40253 8.75107 3.45474 8.7773L3.86889 8.99041C4.22646 9.17204 4.40909 9.17096 4.50492 9.40444C4.96117 9.45557 5.34124 9.80972 5.80104 9.96409L6.54286 10.3488C6.58861 10.3726 6.61832 10.382 6.65804 10.4028C6.66693 10.4074 6.67779 10.4128 6.68648 10.4176C6.69491 10.4224 6.70517 10.4288 6.71339 10.4337L6.78754 10.4843C6.94726 10.5755 7.2508 10.6498 7.57343 10.8596C7.58105 10.8646 7.59156 10.8712 7.59913 10.8762L7.64814 10.9112C7.84848 11.0459 8.06843 11.0739 8.29976 11.2197L8.7974 11.4713C8.84666 11.4928 8.86961 11.4974 8.91816 11.5168L9.05396 11.5887C9.15172 11.6552 8.99175 11.5721 9.15116 11.6557C9.19677 11.6797 9.23719 11.6893 9.29722 11.7168L10.0278 12.1058C10.2619 12.1874 10.3166 12.256 10.6595 12.4028L12.2903 13.2275C12.4683 13.3061 12.3326 13.3088 12.5059 13.3419C12.6664 13.3601 12.6164 13.3422 12.7429 13.4016C12.8345 13.4446 12.7372 13.4048 12.8226 13.4492L13.6793 13.8795C13.7132 13.9 13.981 14.0484 14.045 14.0487L14.5 13.8505C14.5299 13.8314 14.7555 13.7598 15.0849 13.5591L15.3257 13.4266C15.5752 13.2633 15.7204 13.273 15.9411 13.093L16.5612 12.7519C16.569 12.7473 16.5785 12.7399 16.5862 12.7353L17.0643 12.5428C17.115 12.5225 17.1239 12.5235 17.1799 12.4927L18.5411 11.7784C18.7282 11.6993 18.5712 11.7392 18.7703 11.671C18.9947 11.5942 18.8615 11.6282 19.0005 11.5605L19.4564 11.3889C19.5675 11.3262 19.4543 11.3926 19.5502 11.322L19.7868 11.1829C19.7948 11.1784 19.8046 11.1717 19.8127 11.1672L20.9461 10.5922C21.0058 10.565 21.0814 10.5285 21.1318 10.4925L21.3633 10.386C21.4597 10.3519 21.499 10.3103 21.5581 10.245L24.0382 8.99C24.047 8.98496 24.0579 8.9792 24.0664 8.9739C24.0747 8.9687 24.0848 8.96166 24.0929 8.95625L24.3178 8.81768C24.3268 8.81336 24.3377 8.80806 24.3467 8.80364C24.3556 8.79926 24.3661 8.7934 24.375 8.78903C24.3836 8.78476 24.3939 8.77848 24.4025 8.77432L24.649 8.69073C24.8011 8.63127 24.6805 8.6756 24.7622 8.62916C24.867 8.56954 24.9003 8.57232 24.9924 8.52582L26.1676 7.95068C26.2449 7.90629 26.1613 7.94291 26.2748 7.894L26.8502 7.62436C27.0543 7.53496 26.9232 7.54319 27.1631 7.447C27.3446 7.37421 27.32 7.35322 27.4724 7.26207C27.4801 7.2575 27.4904 7.25091 27.4982 7.24649C27.5061 7.24201 27.5165 7.23563 27.5245 7.23136L27.8151 7.08595C27.5982 6.84722 27.8952 7.15256 27.7551 7.01291L27.5792 6.8929C27.5077 6.85329 27.5283 6.86157 27.4708 6.83138C27.2691 6.72547 27.2358 6.77217 27.1083 6.59239L26.4753 6.28613C26.4401 6.26921 26.3401 6.21386 26.2887 6.18598L23.3121 4.66535C23.2636 4.6475 23.2292 4.64843 23.1778 4.62888C22.9674 4.54864 22.7368 4.39134 22.5436 4.27226L22.3547 4.16362C22.347 4.15832 22.3374 4.15035 22.3301 4.145L20.9296 3.50443C20.8172 3.44554 20.8844 3.46102 20.7551 3.3942L19.8136 2.91788C19.8056 2.91361 19.7954 2.90692 19.7877 2.9024L19.7391 2.86891C19.6243 2.80091 19.6202 2.82411 19.5038 2.76722L18.5026 2.26867C18.4199 2.22984 18.4529 2.24872 18.393 2.21245L14.2448 0.076363C14.1605 0.00769248 14.2447 0.0129392 14.0399 0.000542517C13.8366 -0.0117513 13.4874 0.188808 13.4594 0.205114C13.4517 0.20964 13.442 0.21715 13.4341 0.22178L13.1832 0.384017C12.9433 0.532057 12.6243 0.6373 12.3822 0.788324L12.16 0.901077C11.8245 1.05082 11.7551 1.15086 11.4529 1.27267L10.3221 1.85135C10.3145 1.85645 10.3044 1.86354 10.2971 1.86869L9.40351 2.30427C9.31012 2.3555 9.40163 2.30952 9.32866 2.35273L8.88404 2.53667C8.70812 2.62077 8.85331 2.54459 8.71482 2.6556C8.55251 2.78568 8.41489 2.76547 8.25359 2.865L8.20621 2.90008C8.19864 2.90471 8.18874 2.91166 8.18092 2.91598C8.12943 2.94447 8.10459 2.94627 8.06391 2.96459L7.21002 3.43921C7.06015 3.52655 6.83446 3.57115 6.65707 3.68046L5.93065 4.03657C5.88799 4.061 5.89033 4.05565 5.84701 4.07792L5.3287 4.34782C5.319 4.35209 5.30772 4.356 5.29828 4.36053L5.21768 4.40836C5.13328 4.46037 5.2478 4.41125 5.11276 4.47076L4.60501 4.71052C4.54463 4.74554 4.6398 4.70697 4.50355 4.77224L1.90717 6.05641C1.89783 6.06026 1.8865 6.06417 1.87762 6.06834C1.86914 6.07235 1.85873 6.07811 1.8507 6.08243C1.84288 6.08665 1.83343 6.09396 1.82597 6.09848L1.75325 6.14951C1.65965 6.20259 1.61785 6.20064 1.52385 6.25259L1.42182 6.31463C1.40583 6.32414 1.3489 6.35691 1.34453 6.35953C1.23661 6.42558 1.13271 6.51627 0.950592 6.49816L0.95044 6.49831Z" fill="#377DBE" style="fill:#377DBE;fill:color(display-p3 0.2157 0.4902 0.7451);fill-opacity:1;"/>
<path fill-rule="evenodd" clip-rule="evenodd" d="M14.5821 29.7825C14.2434 29.7965 14.3732 29.8766 14.1224 29.8987C14.0154 29.6555 14.0765 19.6958 14.0758 18.0028C14.0756 17.4394 14.1204 14.3342 14.045 14.0486C13.981 14.0482 13.7132 13.8999 13.6793 13.8794L12.8226 13.449C12.7372 13.4047 12.8345 13.4445 12.7428 13.4015C12.6164 13.3421 12.6663 13.36 12.5059 13.3418C12.706 13.606 13.6185 13.9205 13.9271 14.14L13.9344 29.9052C14.1324 29.9658 14.3822 29.9942 14.5346 29.8379L14.582 29.7826L14.5821 29.7825Z" fill="#93DBF6" style="fill:#93DBF6;fill:color(display-p3 0.5765 0.8588 0.9647);fill-opacity:1;"/>
</g>
<path d="M43.2333 15.5547H40.7883V17.6667H39.4451V15.5547H37V14.1207H39.4451V12H40.7883V14.1207H43.2333V15.5547Z" fill="#060054" style="fill:#060054;fill:color(display-p3 0.0235 0.0000 0.3294);fill-opacity:1;"/>
<defs>
<clipPath id="clip0_553_627">
<rect width="28" height="30" fill="white" style="fill:white;fill-opacity:1;"/>
</clipPath>
</defs>
</svg>
