<svg width="21" height="20" viewBox="0 0 21 20" fill="none" xmlns="http://www.w3.org/2000/svg">
<path id="Shape" fill-rule="evenodd" clip-rule="evenodd" d="M9.33856 0H16.005L16.0052 0.000217606C17.1102 0.000646176 18.1698 0.43968 18.951 1.22107C19.7324 2.00232 20.1715 3.06188 20.1719 4.16692V10.8333C20.1714 11.9384 19.7324 12.9979 18.951 13.7792C18.1698 14.5606 17.1102 14.9996 16.0052 15H11.8385V15.8333C11.8381 16.9383 11.3989 17.9979 10.6177 18.7791C9.8363 19.5605 8.77677 19.9996 7.67185 20H4.33857C3.23354 19.9996 2.17397 19.5605 1.39273 18.7791C0.611338 17.9979 0.172294 16.9383 0.171875 15.8333V12.5C0.172304 11.3951 0.611338 10.3356 1.39273 9.55418C2.17397 8.77293 3.23354 8.33375 4.33857 8.33333L5.17186 8.33347V4.1667C5.17229 3.06167 5.61132 2.0021 6.39271 1.22085C7.17396 0.439463 8.23352 0.000418534 9.33856 0ZM9.43741 17.5988C9.90586 17.1304 10.1698 16.4957 10.1718 15.8332V14.9999H9.33848C8.23345 14.9994 7.17388 14.5604 6.39264 13.779C5.61125 12.9978 5.1722 11.9382 5.17178 10.8332V9.99989H4.3385C3.67597 10.0018 3.04119 10.2658 2.57287 10.7342C2.10441 11.2027 1.84046 11.8375 1.83851 12.4999V15.8332C1.84044 16.4957 2.1044 17.1305 2.57287 17.5988C3.04122 18.0672 3.67597 18.3312 4.3385 18.3331H7.67178C8.33417 18.3312 8.96895 18.0673 9.43741 17.5988ZM10.1718 13.3332H9.33848C8.67595 13.3312 8.0412 13.0673 7.57285 12.5988C7.10438 12.1305 6.84042 11.4957 6.83849 10.8332V9.99989H7.67178C8.33417 10.0018 8.96891 10.2658 9.43741 10.7342C9.90591 11.2027 10.1698 11.8375 10.1718 12.4999V13.3332ZM16.8385 6.66654V6.6664V4.16655C16.8385 3.94544 16.7506 3.73352 16.5944 3.57727C16.4381 3.42102 16.2262 3.33313 16.0051 3.33313H13.5051C13.2074 3.33313 12.9323 3.49202 12.7834 3.74984C12.6346 4.00766 12.6346 4.32531 12.7834 4.58312C12.9323 4.84094 13.2074 4.99984 13.5051 4.99984H13.9934L11.2496 7.74354C11.039 7.95404 10.9569 8.26083 11.0339 8.54836C11.1109 8.83603 11.3355 9.06063 11.6232 9.13778C11.9107 9.21479 12.2176 9.13262 12.4281 8.9221V8.92196L15.1718 6.17826V6.66654C15.1718 6.96426 15.3307 7.23936 15.5885 7.38822C15.8464 7.53708 16.164 7.53708 16.4218 7.38822C16.6796 7.23936 16.8385 6.96425 16.8385 6.66654Z" fill="#08005C"/>
</svg>
