<svg width="22" height="18" viewBox="0 0 22 18" fill="none" xmlns="http://www.w3.org/2000/svg">
<path id="Path" d="M20.5301 6.24597L17.9632 4.32509C17.5424 4.0089 17.0192 3.86048 16.4951 3.909C15.971 3.95753 15.4837 4.19929 15.1283 4.58734C14.7727 4.97523 14.5743 5.48184 14.5716 6.00805V7.29999H12.8717C12.5817 7.30241 12.2942 7.35421 12.0216 7.4531V6.45004C12.0196 5.7744 11.7504 5.12696 11.2726 4.64909C10.7949 4.17126 10.1474 3.90201 9.47162 3.90005H7.77172V2.60811C7.7703 2.04489 7.54418 1.50571 7.14376 1.10998C6.7432 0.714262 6.20118 0.49467 5.63825 0.500098C5.18147 0.503087 4.73777 0.651932 4.37163 0.925001L1.81325 2.84602C1.28318 3.24302 0.971279 3.86675 0.97168 4.52898V4.82653C0.971253 5.46775 1.26211 6.07435 1.76214 6.47551L4.34616 8.54097C4.76254 8.87209 5.28846 9.03388 5.81897 8.99406C6.34933 8.95408 6.84523 8.71544 7.20722 8.32567C7.56923 7.93607 7.77088 7.42392 7.77172 6.89203V5.60009H9.47177H9.47162C9.69688 5.60066 9.91274 5.69045 10.072 5.84969C10.2312 6.00892 10.321 6.22479 10.3217 6.45003V16.65C10.3217 16.9537 10.4836 17.2343 10.7466 17.3861C11.0096 17.538 11.3337 17.538 11.5967 17.3861C11.8597 17.2343 12.0216 16.9537 12.0216 16.65V9.8499C12.0223 9.62478 12.1121 9.40893 12.2713 9.24967C12.4306 9.09029 12.6464 9.00065 12.8717 8.99993H14.5717V10.2919H14.5716C14.5724 10.8239 14.7741 11.3359 15.1361 11.7257C15.4981 12.1153 15.994 12.3541 16.5243 12.3939C17.0548 12.4339 17.5808 12.2721 17.9971 11.941L20.5812 9.87549C21.0812 9.4742 21.3721 8.86759 21.3716 8.22637V7.92882V7.92897C21.372 7.2667 21.0601 6.643 20.5301 6.24586L20.5301 6.24597Z" fill="#08005C"/>
</svg>
