<svg width="22" height="18" viewBox="0 0 22 18" fill="none" xmlns="http://www.w3.org/2000/svg">
<path id="Shape" fill-rule="evenodd" clip-rule="evenodd" d="M15.8537 0.595495C17.1189 0.817314 18.2849 1.42347 19.1932 2.33161L19.1931 2.33125C20.3619 3.50103 21.0186 5.08697 21.0186 6.74051C21.0186 8.39397 20.362 9.97976 19.1931 11.1494L14.1556 16.196C13.3173 17.031 12.1825 17.5 10.9992 17.5C9.816 17.5 8.68115 17.031 7.84286 16.196L2.8054 11.1494C1.41111 9.75275 0.759715 7.77888 1.04884 5.82648C1.3378 3.8744 2.53326 2.17397 4.2725 1.24107C6.01191 0.308295 8.08963 0.253079 9.87588 1.0924C10.5864 1.43108 11.4121 1.43108 12.1226 1.0924C13.2857 0.547283 14.5885 0.373836 15.8537 0.595495ZM16.6735 8.63212V8.63197L16.6736 8.63213C17.3494 7.95643 17.6133 6.97141 17.366 6.04836C17.1187 5.12532 16.3976 4.40436 15.4745 4.15688C14.5515 3.90953 13.5667 4.17342 12.8908 4.84931C12.6655 5.07453 12.5776 5.40278 12.66 5.71042C12.7424 6.0182 12.9829 6.25852 13.2905 6.34106C13.5981 6.42346 13.9265 6.33554 14.1517 6.1103C14.377 5.88506 14.7052 5.79699 15.013 5.87938C15.3206 5.96192 15.561 6.20224 15.6435 6.50988C15.7259 6.81768 15.638 7.1459 15.4127 7.37114C15.242 7.53759 15.1451 7.76551 15.1435 8.00389C15.142 8.24225 15.236 8.47136 15.4047 8.64004C15.5732 8.80855 15.8023 8.90274 16.0407 8.90125C16.2791 8.89975 16.507 8.80273 16.6735 8.63212Z" fill="#08005C"/>
</svg>
