<svg width="19" height="16" viewBox="0 0 19 16" fill="none" xmlns="http://www.w3.org/2000/svg">
<g id="noun-bar-chart-4305500">
<path id="Shape" fill-rule="evenodd" clip-rule="evenodd" d="M17.5874 14.1202V2.64511C17.5856 2.0369 17.3431 1.4542 16.9132 1.02424C16.4832 0.594189 15.9004 0.351868 15.2924 0.350098H12.2322C11.6242 0.351891 11.0415 0.594199 10.6114 1.02424C10.1815 1.45416 9.939 2.0369 9.93723 2.64511V14.1202H8.40731V6.46991C8.40552 5.86183 8.16308 5.27913 7.73317 4.84904C7.30312 4.41912 6.72038 4.17667 6.1123 4.1749H3.05219C2.44411 4.17669 1.86141 4.41913 1.43132 4.84904C1.0014 5.2791 0.758951 5.86183 0.757181 6.46991V14.1202C0.483881 14.1202 0.231328 14.2659 0.0946762 14.5026C-0.0419754 14.7393 -0.0419754 15.031 0.0946762 15.2677C0.231328 15.5044 0.483878 15.6501 0.757181 15.6501H17.5875C17.8608 15.6501 18.1133 15.5044 18.25 15.2677C18.3867 15.031 18.3867 14.7393 18.25 14.5026C18.1133 14.2659 17.8608 14.1202 17.5875 14.1202H17.5874ZM5.34708 11.8252C5.34708 12.0985 5.20133 12.351 4.96466 12.4877C4.72799 12.6243 4.43625 12.6243 4.19957 12.4877C3.96289 12.351 3.81715 12.0985 3.81715 11.8252V8.00003C3.81715 7.72673 3.9629 7.47418 4.19957 7.33753C4.43624 7.20088 4.72798 7.20088 4.96466 7.33753C5.20134 7.47418 5.34708 7.72673 5.34708 8.00003V11.8252ZM14.1447 12.4877C14.3814 12.351 14.5271 12.0985 14.5271 11.8252V4.1749C14.5271 3.9016 14.3814 3.64905 14.1447 3.5124C13.908 3.37574 13.6163 3.37574 13.3796 3.5124C13.143 3.64905 12.9972 3.9016 12.9972 4.1749V11.8252C12.9972 12.0985 13.1429 12.351 13.3796 12.4877C13.6163 12.6243 13.908 12.6243 14.1447 12.4877Z" fill="black"/>
</g>
</svg>
