<svg width="14" height="24" viewBox="0 0 14 24" fill="none" xmlns="http://www.w3.org/2000/svg">
<path d="M11.79 4.86L11.3 2.41C11.1625 1.73112 10.7949 1.12051 10.2592 0.681398C9.72353 0.242283 9.05266 0.00158894 8.36 0L5.64 0C4.94734 0.00158894 4.27647 0.242283 3.74079 0.681398C3.2051 1.12051 2.83746 1.73112 2.7 2.41L2.21 4.86C1.53094 5.3165 0.974321 5.93272 0.588995 6.65455C0.203669 7.37638 0.00142028 8.18176 0 9V15C0.00142028 15.8182 0.203669 16.6236 0.588995 17.3455C0.974321 18.0673 1.53094 18.6835 2.21 19.14L2.7 21.59C2.83746 22.2689 3.2051 22.8795 3.74079 23.3186C4.27647 23.7577 4.94734 23.9984 5.64 24H8.36C9.05266 23.9984 9.72353 23.7577 10.2592 23.3186C10.7949 22.8795 11.1625 22.2689 11.3 21.59L11.79 19.14C12.4691 18.6835 13.0257 18.0673 13.411 17.3455C13.7963 16.6236 13.9986 15.8182 14 15V9C13.9986 8.18176 13.7963 7.37638 13.411 6.65455C13.0257 5.93272 12.4691 5.3165 11.79 4.86ZM9.34 21.19C9.29507 21.4173 9.17297 21.6221 8.99438 21.7697C8.8158 21.9173 8.59169 21.9987 8.36 22H5.64C5.40831 21.9987 5.1842 21.9173 5.00562 21.7697C4.82703 21.6221 4.70493 21.4173 4.66 21.19L4.41 19.94C4.60547 19.9704 4.80241 19.9904 5 20H9C9.19759 19.9904 9.39453 19.9704 9.59 19.94L9.34 21.19ZM8.707 12.293C8.80251 12.3852 8.87869 12.4956 8.9311 12.6176C8.98351 12.7396 9.0111 12.8708 9.01225 13.0036C9.0134 13.1364 8.9881 13.2681 8.93782 13.391C8.88754 13.5139 8.81329 13.6255 8.71939 13.7194C8.6255 13.8133 8.51385 13.8875 8.39095 13.9378C8.26806 13.9881 8.13638 14.0134 8.0036 14.0123C7.87082 14.0111 7.7396 13.9835 7.6176 13.9311C7.49559 13.8787 7.38525 13.8025 7.293 13.707L6.293 12.707C6.2001 12.6142 6.12641 12.504 6.07614 12.3827C6.02586 12.2613 5.99999 12.1313 6 12V10C6 9.73478 6.10536 9.48043 6.29289 9.29289C6.48043 9.10536 6.73478 9 7 9C7.26522 9 7.51957 9.10536 7.70711 9.29289C7.89464 9.48043 8 9.73478 8 10V11.5859L8.707 12.293ZM9 4H5C4.80241 4.00958 4.60547 4.02961 4.41 4.06L4.66 2.81C4.70493 2.58271 4.82703 2.37792 5.00562 2.23031C5.1842 2.0827 5.40831 2.00134 5.64 2H8.36C8.59169 2.00134 8.8158 2.0827 8.99438 2.23031C9.17297 2.37792 9.29507 2.58271 9.34 2.81L9.59 4.06C9.39453 4.02961 9.19759 4.00958 9 4Z" fill="#6FC3B6" style="fill:#6FC3B6;fill:color(display-p3 0.4353 0.7647 0.7137);fill-opacity:1;"/>
</svg>
