<svg width="24" height="23" viewBox="0 0 24 23" fill="none" xmlns="http://www.w3.org/2000/svg">
<path d="M14.8671 10.6846C14.765 10.0068 14.4468 9.3801 13.9599 8.89772C13.4729 8.41533 12.8432 8.10307 12.1645 8.0074C9.12484 7.57702 6.03968 7.57702 2.99999 8.0074C2.32221 8.10945 1.69549 8.42763 1.2131 8.91457C0.730716 9.40152 0.418454 10.0312 0.322785 10.7099C0.107597 12.2236 -0.000267151 13.7506 5.02601e-07 15.2795C-0.000268685 16.8169 0.107592 18.3523 0.322785 19.8745C0.424837 20.5523 0.743012 21.179 1.22996 21.6614C1.7169 22.1437 2.34659 22.456 3.02531 22.5517C4.53902 22.7666 6.06602 22.8745 7.59492 22.8745C9.13223 22.8745 10.6676 22.7666 12.1898 22.5517C12.8676 22.4496 13.4944 22.1314 13.9767 21.6445C14.4591 21.1576 14.7714 20.5279 14.8671 19.8491C15.0822 18.3355 15.1901 16.8084 15.1898 15.2795C15.1901 13.7422 15.0823 12.2068 14.8671 10.6846ZM7.31182 14.863L7.17834 14.9297C6.88886 15.0745 6.56719 15.1428 6.24386 15.1283C5.92053 15.1138 5.60628 15.0168 5.33096 14.8467C5.05563 14.6766 4.82837 14.4389 4.67075 14.1562C4.51313 13.8735 4.43038 13.5552 4.43037 13.2316V10.2163C4.43037 10.0484 4.49705 9.88742 4.61575 9.76872C4.73444 9.65003 4.89542 9.58335 5.06328 9.58335C5.23114 9.58335 5.39212 9.65003 5.51082 9.76872C5.62951 9.88742 5.69619 10.0484 5.69619 10.2163V13.2316C5.69623 13.3394 5.72384 13.4455 5.7764 13.5397C5.82896 13.6339 5.90472 13.7131 5.99649 13.7698C6.08826 13.8265 6.193 13.8588 6.30076 13.8636C6.40852 13.8684 6.51573 13.8456 6.6122 13.7974L6.74568 13.7306C7.00958 13.5995 7.30025 13.5313 7.59492 13.5313C7.88959 13.5313 8.18026 13.5995 8.44416 13.7306L8.57764 13.7974C8.67412 13.8456 8.78132 13.8684 8.88908 13.8636C8.99684 13.8588 9.10158 13.8265 9.19335 13.7698C9.28512 13.7131 9.36089 13.6339 9.41344 13.5397C9.466 13.4455 9.49361 13.3394 9.49365 13.2316V10.2163C9.49365 10.0484 9.56033 9.88742 9.67903 9.76872C9.79772 9.65003 9.9587 9.58335 10.1266 9.58335C10.2944 9.58335 10.4554 9.65003 10.5741 9.76872C10.6928 9.88742 10.7595 10.0484 10.7595 10.2163V13.2316C10.7602 13.5555 10.6779 13.8742 10.5204 14.1573C10.363 14.4403 10.1356 14.6784 9.86009 14.8487C9.58454 15.0189 9.26997 15.1158 8.94636 15.13C8.62275 15.1442 8.3009 15.0752 8.0115 14.9297L7.87802 14.863C7.7901 14.8191 7.69319 14.7962 7.59492 14.7962C7.49666 14.7962 7.39974 14.8191 7.31182 14.863Z" fill="#DD355D" style="fill:#DD355D;fill:color(display-p3 0.8667 0.2078 0.3647);fill-opacity:1;"/>
<path d="M8.60425 4.03811C9.22374 3.21606 10.0318 2.5513 10.9619 2.09856C11.892 1.64583 12.9175 1.41807 13.9541 1.43403C14.9906 1.45 16.0084 1.70923 16.9238 2.19039C17.8392 2.67155 18.626 3.36088 19.2193 4.2016L19.1274 4.2146C18.8941 4.24866 18.6726 4.33789 18.4817 4.47472C18.2908 4.61154 18.1361 4.79192 18.0307 5.00053C17.9253 5.20913 17.8724 5.43981 17.8765 5.67296C17.8805 5.90611 17.9414 6.13485 18.054 6.33976L19.6107 9.14418C19.7523 9.40282 19.9708 9.61225 20.2366 9.74421C20.5024 9.87618 20.8028 9.92432 21.0971 9.88214C21.3915 9.83997 21.6657 9.7095 21.8827 9.50836C22.0997 9.30721 22.2491 9.04506 22.3107 8.7573L23.0062 5.63961C23.057 5.41233 23.0514 5.17627 22.9898 4.95161C22.9283 4.72695 22.8126 4.52038 22.6528 4.34955C22.4929 4.17872 22.2936 4.04872 22.0719 3.97066C21.8502 3.89261 21.6126 3.86882 21.3796 3.90133L20.7976 3.98362C20.2624 3.04776 19.5378 2.2311 18.6691 1.58464C16.9663 0.32338 14.8269 -0.217816 12.7209 0.0799317C10.6149 0.377679 8.71451 1.49002 7.4372 3.17261C7.32115 3.32566 7.27133 3.51805 7.29871 3.70743C7.32608 3.89682 7.4284 4.06769 7.58316 4.18247C7.73792 4.29724 7.93244 4.34651 8.12393 4.31944C8.31542 4.29236 8.4882 4.19117 8.60425 4.03811Z" fill="#DD355D" style="fill:#DD355D;fill:color(display-p3 0.8667 0.2078 0.3647);fill-opacity:1;"/>
</svg>
