<svg width="24" height="20" viewBox="0 0 24 20" fill="none" xmlns="http://www.w3.org/2000/svg">
<path d="M21 2.83101e-05C20.3923 -0.0026335 19.7986 0.182468 19.3 0.530028C18.94 0.813223 18.5061 0.9868 18.05 1.03003C13.4597 1.28686 8.98131 2.54639 4.93003 4.72003C4.49569 4.34726 3.96335 4.1072 3.39642 4.02844C2.82949 3.94968 2.25188 4.03554 1.73237 4.2758C1.21286 4.51606 0.773367 4.90058 0.466234 5.38357C0.159101 5.86657 -0.00272434 6.42766 3.47003e-05 7.00003V11C-0.00272434 11.5724 0.159101 12.1335 0.466234 12.6165C0.773367 13.0995 1.21286 13.484 1.73237 13.7243C2.25188 13.9645 2.82949 14.0504 3.39642 13.9716C3.96335 13.8929 4.49569 13.6528 4.93003 13.28C5.61003 13.64 6.30003 13.98 7.00003 14.29V15.22C7.00376 16.0211 7.26975 16.799 7.75733 17.4347C8.24491 18.0703 8.92725 18.5288 9.70003 18.74C10.061 18.8443 10.4285 18.9244 10.8 18.98C10.83 18.99 10.86 18.99 10.89 19C11.0652 19.0286 11.2425 19.042 11.42 19.04C12.2478 19.0391 13.0484 18.745 13.68 18.21C14.1832 17.7867 14.5602 17.2332 14.77 16.61C15.86 16.78 16.95 16.9 18.05 16.97C18.5061 17.0133 18.94 17.1868 19.3 17.47C19.7986 17.8176 20.3923 18.0027 21 18C21.795 17.9977 22.5567 17.6809 23.1188 17.1188C23.6809 16.5567 23.9977 15.795 24 15V3.00003C23.9977 2.20509 23.6809 1.44338 23.1188 0.881272C22.5567 0.319166 21.795 0.00234992 21 2.83101e-05ZM4.00003 11C4.00003 11.2652 3.89468 11.5196 3.70714 11.7071C3.51961 11.8947 3.26525 12 3.00003 12C2.73482 12 2.48046 11.8947 2.29293 11.7071C2.10539 11.5196 2.00003 11.2652 2.00003 11V7.00003C2.00003 6.73481 2.10539 6.48046 2.29293 6.29292C2.48046 6.10539 2.73482 6.00003 3.00003 6.00003C3.26525 6.00003 3.51961 6.10539 3.70714 6.29292C3.89468 6.48046 4.00003 6.73481 4.00003 7.00003V11ZM20 13C20 13.2652 19.8947 13.5196 19.7071 13.7071C19.5196 13.8947 19.2653 14 19 14C18.7348 14 18.4805 13.8947 18.2929 13.7071C18.1054 13.5196 18 13.2652 18 13V5.00003C18 4.73481 18.1054 4.48046 18.2929 4.29292C18.4805 4.10539 18.7348 4.00003 19 4.00003C19.2653 4.00003 19.5196 4.10539 19.7071 4.29292C19.8947 4.48046 20 4.73481 20 5.00003V13ZM12.4 16.68C12.2395 16.8156 12.0528 16.9166 11.8515 16.9768C11.6502 17.037 11.4386 17.0552 11.23 17.03C11.2063 17.0247 11.183 17.018 11.16 17.01C10.8499 16.9651 10.5426 16.9017 10.24 16.82C9.88707 16.7252 9.57482 16.5175 9.35094 16.2286C9.12705 15.9397 9.00381 15.5855 9.00003 15.22V15.09C9.91003 15.42 10.82 15.73 11.75 15.97C12.09 16.06 12.43 16.13 12.78 16.21C12.6849 16.3898 12.5559 16.5494 12.4 16.68Z" fill="#070058" style="fill:#070058;fill:color(display-p3 0.0275 0.0000 0.3451);fill-opacity:1;"/>
</svg>
