<svg width="24" height="30" viewBox="0 0 24 30" fill="none" xmlns="http://www.w3.org/2000/svg">
<g clip-path="url(#clip0_388_363)">
<path d="M13 8.00004V6.00004C12.9977 5.20511 12.6809 4.44339 12.1188 3.88129C11.5566 3.31918 10.7949 3.00236 10 3.00004H7.83C7.56526 2.99621 7.31172 2.89265 7.12 2.71004L6.29 1.88004C6.01317 1.5994 5.683 1.37697 5.31891 1.22584C4.95483 1.07471 4.5642 0.99794 4.17 1.00004H4C3.20506 1.00236 2.44335 1.31918 1.88124 1.88129C1.31914 2.44339 1.00232 3.20511 1 4.00004V8.00004C1.00232 8.79498 1.31914 9.55669 1.88124 10.1188C2.44335 10.6809 3.20506 10.9977 4 11H10C10.7949 10.9977 11.5566 10.6809 12.1188 10.1188C12.6809 9.55669 12.9977 8.79498 13 8.00004Z" fill="#3571E7" style="fill:#3571E7;fill:color(display-p3 0.2078 0.4431 0.9059);fill-opacity:1;"/>
<path d="M20 15H17.83C17.5653 14.9962 17.3117 14.8926 17.12 14.71L16.29 13.88C16.0132 13.5994 15.683 13.377 15.3189 13.2258C14.9548 13.0747 14.5642 12.9979 14.17 13H14C13.2051 13.0024 12.4434 13.3192 11.8812 13.8813C11.3191 14.4434 11.0023 15.2051 11 16V20C11.0023 20.795 11.3191 21.5567 11.8812 22.1188C12.4434 22.6809 13.2051 22.9977 14 23H20C20.7949 22.9977 21.5566 22.6809 22.1188 22.1188C22.6809 21.5567 22.9977 20.795 23 20V18C22.9977 17.2051 22.6809 16.4434 22.1188 15.8813C21.5566 15.3192 20.7949 15.0024 20 15Z" fill="#3571E7" style="fill:#3571E7;fill:color(display-p3 0.2078 0.4431 0.9059);fill-opacity:1;"/>
<path d="M15 8.00014H16.1843C16.3334 8.41845 16.5737 8.79837 16.8877 9.1124C17.2018 9.42643 17.5817 9.6667 18 9.81584V13.0001C18 13.2654 18.1054 13.5197 18.2929 13.7072C18.4804 13.8948 18.7348 14.0001 19 14.0001C19.2652 14.0001 19.5196 13.8948 19.7071 13.7072C19.8946 13.5197 20 13.2654 20 13.0001V9.81584C20.4773 9.64804 20.9043 9.36194 21.2411 8.9843C21.5779 8.60665 21.8134 8.14979 21.9256 7.65641C22.0378 7.16304 22.0231 6.64926 21.8829 6.16311C21.7426 5.67695 21.4814 5.23429 21.1236 4.87651C20.7658 4.51873 20.3232 4.25751 19.837 4.11726C19.3509 3.97701 18.8371 3.96232 18.3437 4.07455C17.8503 4.18679 17.3935 4.42229 17.0158 4.75904C16.6382 5.09579 16.3521 5.52279 16.1843 6.00014H15C14.7348 6.00014 14.4804 6.1055 14.2929 6.29303C14.1054 6.48057 14 6.73492 14 7.00014C14 7.26535 14.1054 7.51971 14.2929 7.70724C14.4804 7.89478 14.7348 8.00014 15 8.00014ZM19 6.00014C19.1978 6.00014 19.3911 6.05879 19.5556 6.16867C19.72 6.27855 19.8482 6.43473 19.9239 6.61746C19.9996 6.80018 20.0194 7.00125 19.9808 7.19523C19.9422 7.38921 19.847 7.56739 19.7071 7.70724C19.5673 7.8471 19.3891 7.94234 19.1951 7.98092C19.0011 8.01951 18.8 7.99971 18.6173 7.92402C18.4346 7.84833 18.2784 7.72016 18.1685 7.55571C18.0586 7.39126 18 7.19792 18 7.00014C18.0002 6.73499 18.1057 6.48078 18.2932 6.29329C18.4806 6.10581 18.7349 6.00038 19 6.00014Z" fill="#3571E7" style="fill:#3571E7;fill:color(display-p3 0.2078 0.4431 0.9059);fill-opacity:1;"/>
<path d="M9.00014 18H7.81584C7.66674 17.5817 7.42647 17.2017 7.11244 16.8877C6.79841 16.5737 6.41847 16.3334 6.00014 16.1843V13C6.00014 12.7348 5.89478 12.4804 5.70724 12.2929C5.51971 12.1054 5.26535 12 5.00014 12C4.73492 12 4.48057 12.1054 4.29303 12.2929C4.1055 12.4804 4.00014 12.7348 4.00014 13V16.1843C3.52279 16.3521 3.09579 16.6382 2.75904 17.0158C2.42229 17.3935 2.18679 17.8503 2.07455 18.3437C1.96232 18.8371 1.97701 19.3509 2.11726 19.837C2.25751 20.3232 2.51873 20.7658 2.87651 21.1236C3.23429 21.4814 3.67695 21.7426 4.16311 21.8829C4.64926 22.0231 5.16304 22.0378 5.65641 21.9256C6.14979 21.8134 6.60665 21.5779 6.9843 21.2411C7.36194 20.9044 7.64804 20.4773 7.81584 20H9.00014C9.26535 20 9.51971 19.8946 9.70724 19.7071C9.89478 19.5196 10.0001 19.2652 10.0001 19C10.0001 18.7348 9.89478 18.4804 9.70724 18.2929C9.51971 18.1054 9.26535 18 9.00014 18ZM5.00014 20C4.80236 20 4.60902 19.9414 4.44457 19.8315C4.28012 19.7216 4.15195 19.5654 4.07626 19.3827C4.00057 19.2 3.98077 18.9989 4.01935 18.8049C4.05794 18.6109 4.15318 18.4327 4.29303 18.2929C4.43288 18.153 4.61107 18.0578 4.80505 18.0192C4.99903 17.9806 5.2001 18.0004 5.38282 18.0761C5.56555 18.1518 5.72173 18.28 5.83161 18.4444C5.94149 18.6089 6.00014 18.8022 6.00014 19C5.9999 19.2651 5.89447 19.5194 5.70698 19.7068C5.5195 19.8943 5.26528 19.9998 5.00014 20Z" fill="#3571E7" style="fill:#3571E7;fill:color(display-p3 0.2078 0.4431 0.9059);fill-opacity:1;"/>
</g>
<defs>
<clipPath id="clip0_388_363">
<rect width="24" height="30" fill="white" style="fill:white;fill-opacity:1;"/>
</clipPath>
</defs>
</svg>
