<svg width="24" height="30" viewBox="0 0 24 30" fill="none" xmlns="http://www.w3.org/2000/svg">
<g clip-path="url(#clip0_388_371)">
<path d="M7.55001 8.89005L11.55 10.8901C11.689 10.9623 11.8434 11 12 11C12.1567 11 12.311 10.9623 12.45 10.8901L16.45 8.89005C16.6158 8.80806 16.7552 8.68117 16.8525 8.52383C16.9497 8.36649 17.0008 8.18501 17 8.00005V4.00005C17.0008 3.81509 16.9497 3.63362 16.8525 3.47628C16.7552 3.31893 16.6158 3.19205 16.45 3.11005L12.45 1.11005C12.3115 1.03619 12.157 0.997559 12 0.997559C11.8431 0.997559 11.6885 1.03619 11.55 1.11005L7.55001 3.11005C7.38422 3.19205 7.24477 3.31893 7.14754 3.47628C7.0503 3.63362 6.99919 3.81509 7.00001 4.00005V8.00005C6.99919 8.18501 7.0503 8.36649 7.14754 8.52383C7.24477 8.68117 7.38422 8.80806 7.55001 8.89005ZM15 7.38005L13 8.38005V6.62005L15 5.62005V7.38005ZM9.00001 5.62005L11 6.62005V8.38005L9.00001 7.38005V5.62005Z" fill="#6FC3B6" style="fill:#6FC3B6;fill:color(display-p3 0.4353 0.7647 0.7137);fill-opacity:1;"/>
<path d="M10 18.0001V14.0001C10.0008 13.8151 9.94972 13.6336 9.85248 13.4763C9.75525 13.3189 9.6158 13.192 9.45001 13.1101L5.45001 11.1101C5.31151 11.0362 5.15697 10.9976 5.00001 10.9976C4.84305 10.9976 4.6885 11.0362 4.55001 11.1101L0.55001 13.1101C0.384217 13.192 0.244769 13.3189 0.147536 13.4763C0.0503025 13.6336 -0.000811727 13.8151 9.74792e-06 14.0001V18.0001C-0.000811727 18.185 0.0503025 18.3665 0.147536 18.5238C0.244769 18.6812 0.384217 18.8081 0.55001 18.8901L4.55001 20.8901C4.689 20.9623 4.84335 21 5.00001 21C5.15667 21 5.31102 20.9623 5.45001 20.8901L9.45001 18.8901C9.6158 18.8081 9.75525 18.6812 9.85248 18.5238C9.94972 18.3665 10.0008 18.185 10 18.0001ZM4.00001 18.3801L2.00001 17.3801V15.6201L4.00001 16.6201V18.3801ZM8.00001 17.3801L6.00001 18.3801V16.6201L8.00001 15.6201V17.3801Z" fill="#6FC3B6" style="fill:#6FC3B6;fill:color(display-p3 0.4353 0.7647 0.7137);fill-opacity:1;"/>
<path d="M23.45 13.1101L19.45 11.1101C19.3115 11.0362 19.157 10.9976 19 10.9976C18.8431 10.9976 18.6885 11.0362 18.55 11.1101L14.55 13.1101C14.3842 13.192 14.2448 13.3189 14.1475 13.4763C14.0503 13.6336 13.9992 13.8151 14 14.0001V18.0001C13.9992 18.185 14.0503 18.3665 14.1475 18.5238C14.2448 18.6812 14.3842 18.8081 14.55 18.8901L18.55 20.8901C18.689 20.9623 18.8434 21 19 21C19.1567 21 19.311 20.9623 19.45 20.8901L23.45 18.8901C23.6158 18.8081 23.7552 18.6812 23.8525 18.5238C23.9497 18.3665 24.0008 18.185 24 18.0001V14.0001C24.0008 13.8151 23.9497 13.6336 23.8525 13.4763C23.7552 13.3189 23.6158 13.192 23.45 13.1101ZM18 18.3801L16 17.3801V15.6201L18 16.6201V18.3801ZM22 17.3801L20 18.3801V16.6201L22 15.6201V17.3801Z" fill="#6FC3B6" style="fill:#6FC3B6;fill:color(display-p3 0.4353 0.7647 0.7137);fill-opacity:1;"/>
<path d="M2.15741 9.95423C2.28269 9.99362 2.4145 10.0079 2.54532 9.99639C2.67613 9.98483 2.80339 9.94762 2.91983 9.88688C3.03627 9.82615 3.1396 9.74307 3.22393 9.64239C3.30825 9.54172 3.37193 9.42542 3.41131 9.30013C3.71657 8.3277 4.18572 7.41457 4.79851 6.60013C4.87937 6.49532 4.93863 6.3755 4.97283 6.24761C5.00703 6.11972 5.0155 5.98631 4.99774 5.85513C4.97999 5.72394 4.93636 5.59759 4.86939 5.48339C4.80242 5.3692 4.71345 5.26944 4.60763 5.18989C4.5018 5.11035 4.38124 5.05261 4.25293 5.02003C4.12462 4.98744 3.99112 4.98065 3.86017 5.00006C3.72922 5.01947 3.60342 5.06469 3.49008 5.13309C3.37674 5.20149 3.27811 5.29172 3.19991 5.39853C2.45025 6.3943 1.87638 7.51093 1.50311 8.70013C1.46369 8.82544 1.44935 8.95728 1.46091 9.08813C1.47246 9.21898 1.50968 9.34627 1.57044 9.46274C1.6312 9.5792 1.71431 9.68255 1.81503 9.76688C1.91574 9.85121 2.03208 9.91487 2.15741 9.95423Z" fill="#6FC3B6" style="fill:#6FC3B6;fill:color(display-p3 0.4353 0.7647 0.7137);fill-opacity:1;"/>
<path d="M13.8017 20.8193C12.6129 21.0596 11.388 21.0596 10.1991 20.8193C9.93909 20.7666 9.66876 20.8193 9.44761 20.9659C9.33812 21.0385 9.24399 21.132 9.17061 21.241C9.09722 21.3499 9.04602 21.4723 9.01993 21.6011C8.99384 21.7298 8.99336 21.8625 9.01853 21.9914C9.0437 22.1203 9.09401 22.2431 9.16661 22.3526C9.31323 22.5737 9.54169 22.7276 9.80173 22.7803C11.2529 23.0732 12.748 23.0732 14.1991 22.7803C14.3279 22.7542 14.4503 22.703 14.5592 22.6296C14.6682 22.5562 14.7617 22.4621 14.8343 22.3526C14.9068 22.2431 14.9572 22.1203 14.9823 21.9914C15.0075 21.8625 15.007 21.7298 14.9809 21.6011C14.9548 21.4723 14.9036 21.3499 14.8303 21.241C14.7569 21.132 14.6627 21.0385 14.5532 20.9659C14.4437 20.8933 14.321 20.843 14.1921 20.8178C14.0631 20.7927 13.9305 20.7932 13.8017 20.8193Z" fill="#6FC3B6" style="fill:#6FC3B6;fill:color(display-p3 0.4353 0.7647 0.7137);fill-opacity:1;"/>
<path d="M20.5877 9.30001C20.6673 9.55306 20.8441 9.76413 21.0793 9.8868C21.3145 10.0095 21.5888 10.0337 21.8418 9.95411C22.0949 9.87455 22.3059 9.69772 22.4286 9.46253C22.5513 9.22734 22.5755 8.95306 22.4959 8.70001C22.1227 7.51074 21.5488 6.39404 20.7991 5.39821C20.7206 5.29234 20.6218 5.20304 20.5086 5.13547C20.3954 5.06789 20.2699 5.02337 20.1395 5.00447C20.009 4.98557 19.876 4.99266 19.7483 5.02532C19.6206 5.05799 19.5006 5.1156 19.3952 5.19483C19.2898 5.27405 19.2011 5.37334 19.1342 5.48697C19.0674 5.6006 19.0236 5.72633 19.0056 5.85693C18.9875 5.98753 18.9954 6.12041 19.0288 6.24794C19.0623 6.37547 19.1207 6.49512 19.2005 6.60001C19.8133 7.41445 20.2825 8.32758 20.5877 9.30001Z" fill="#6FC3B6" style="fill:#6FC3B6;fill:color(display-p3 0.4353 0.7647 0.7137);fill-opacity:1;"/>
</g>
<defs>
<clipPath id="clip0_388_371">
<rect width="24" height="30" fill="white" style="fill:white;fill-opacity:1;"/>
</clipPath>
</defs>
</svg>
