<svg width="75" height="66" viewBox="0 0 75 66" fill="none" xmlns="http://www.w3.org/2000/svg">
<path d="M31.7718 6.2832C33.2291 6.2832 34.5751 7.61897 34.6085 9.09829C34.6526 10.6432 33.2953 12.0231 31.7391 12.0231C30.2389 12.0231 28.9241 10.7201 28.8912 9.23113C28.8584 7.67374 30.2157 6.29333 31.7718 6.2832V6.2832Z" fill="#070058" style="fill:#070058;fill:color(display-p3 0.0275 0.0000 0.3451);fill-opacity:1;"/>
<path d="M21.9014 6.29304C23.4576 6.33714 24.6503 7.59602 24.639 9.17368C24.6277 10.7741 23.4474 12.0001 21.8572 12.0103C20.2569 12.0216 18.998 10.7187 19.0421 9.07369C19.0648 7.5299 20.4005 6.25006 21.9014 6.29304Z" fill="#070058" style="fill:#070058;fill:color(display-p3 0.0275 0.0000 0.3451);fill-opacity:1;"/>
<path d="M11.9687 6.29319C13.4475 6.30449 14.7951 7.63912 14.8166 9.11956C14.8494 10.6429 13.4707 12.0228 11.9134 12.0115C10.4233 12.0115 9.09833 10.6983 9.07676 9.20827C9.04341 7.66158 10.4227 6.26034 11.9687 6.29304V6.29319Z" fill="#070058" style="fill:#070058;fill:color(display-p3 0.0275 0.0000 0.3451);fill-opacity:1;"/>
<path fill-rule="evenodd" clip-rule="evenodd" d="M65.5473 0H9.12699C4.09767 0 0 4.09767 0 9.11455V56.8855C0 61.9148 4.09767 66 9.12699 66H65.5473C70.5767 66 74.6619 61.9142 74.6619 56.8855V9.11455C74.6619 4.09767 70.5755 0 65.5473 0ZM2.86675 9.11455C2.86675 5.67431 5.67387 2.86704 9.12728 2.86704H65.5476C68.9879 2.86704 71.7951 5.67416 71.7951 9.11455V15.8929L65.9512 15.9319V11.2898C65.9512 10.6148 65.4029 10.0654 64.7268 10.0654H52.2748C51.6304 10.0654 51.1075 10.5894 51.1075 11.2327V15.8787H2.86627L2.86675 9.11455ZM65.5471 63.1344C68.9874 63.1344 71.7946 60.3271 71.7946 56.8869L71.7927 17.9905V17.1584H65.8273C65.189 17.1584 64.6701 16.6394 64.6701 16.0024V11.3564L52.3385 11.3451L52.3826 16.0375C52.3826 16.6757 51.9055 17.1568 51.2724 17.1568H2.86472V56.8875C2.86472 60.3279 5.67358 63.135 9.12525 63.135H45.1426L65.5471 63.1344Z" fill="#BBE2FA" style="fill:#BBE2FA;fill:color(display-p3 0.7333 0.8863 0.9804);fill-opacity:1;"/>
</svg>
