<svg width="22" height="20" viewBox="0 0 22 20" fill="none" xmlns="http://www.w3.org/2000/svg">
<path d="M1 4H8.18C8.38481 4.58452 8.76619 5.09095 9.27139 5.44924C9.77659 5.80754 10.3806 6 11 6C11.6194 6 12.2234 5.80754 12.7286 5.44924C13.2338 5.09095 13.6152 4.58452 13.82 4H21C21.2652 4 21.5196 3.89464 21.7071 3.70711C21.8946 3.51957 22 3.26522 22 3C22 2.73478 21.8946 2.48043 21.7071 2.29289C21.5196 2.10536 21.2652 2 21 2H13.82C13.6152 1.41548 13.2338 0.909055 12.7286 0.550757C12.2234 0.192459 11.6194 0 11 0C10.3806 0 9.77659 0.192459 9.27139 0.550757C8.76619 0.909055 8.38481 1.41548 8.18 2H1C0.734784 2 0.48043 2.10536 0.292893 2.29289C0.105357 2.48043 0 2.73478 0 3C0 3.26522 0.105357 3.51957 0.292893 3.70711C0.48043 3.89464 0.734784 4 1 4Z" fill="#3571E7" style="fill:#3571E7;fill:color(display-p3 0.2078 0.4431 0.9059);fill-opacity:1;"/>
<path d="M21 9H19.82C19.6152 8.41548 19.2338 7.90905 18.7286 7.55076C18.2234 7.19246 17.6194 7 17 7C16.3806 7 15.7766 7.19246 15.2714 7.55076C14.7662 7.90905 14.3848 8.41548 14.18 9H1C0.734784 9 0.48043 9.10536 0.292893 9.29289C0.105357 9.48043 0 9.73478 0 10C0 10.2652 0.105357 10.5196 0.292893 10.7071C0.48043 10.8946 0.734784 11 1 11H14.18C14.3848 11.5845 14.7662 12.0909 15.2714 12.4492C15.7766 12.8075 16.3806 13 17 13C17.6194 13 18.2234 12.8075 18.7286 12.4492C19.2338 12.0909 19.6152 11.5845 19.82 11H21C21.2652 11 21.5196 10.8946 21.7071 10.7071C21.8946 10.5196 22 10.2652 22 10C22 9.73478 21.8946 9.48043 21.7071 9.29289C21.5196 9.10536 21.2652 9 21 9Z" fill="#3571E7" style="fill:#3571E7;fill:color(display-p3 0.2078 0.4431 0.9059);fill-opacity:1;"/>
<path d="M21 16H7.82C7.61519 15.4155 7.23381 14.9091 6.72861 14.5508C6.22341 14.1925 5.61936 14 5 14C4.38064 14 3.77659 14.1925 3.27139 14.5508C2.76619 14.9091 2.38481 15.4155 2.18 16H1C0.734784 16 0.48043 16.1054 0.292893 16.2929C0.105357 16.4804 0 16.7348 0 17C0 17.2652 0.105357 17.5196 0.292893 17.7071C0.48043 17.8946 0.734784 18 1 18H2.18C2.38481 18.5845 2.76619 19.0909 3.27139 19.4492C3.77659 19.8075 4.38064 20 5 20C5.61936 20 6.22341 19.8075 6.72861 19.4492C7.23381 19.0909 7.61519 18.5845 7.82 18H21C21.2652 18 21.5196 17.8946 21.7071 17.7071C21.8946 17.5196 22 17.2652 22 17C22 16.7348 21.8946 16.4804 21.7071 16.2929C21.5196 16.1054 21.2652 16 21 16Z" fill="#3571E7" style="fill:#3571E7;fill:color(display-p3 0.2078 0.4431 0.9059);fill-opacity:1;"/>
</svg>
